<svg width="20" height="20" viewBox="0 0 20 20" fill="none" xmlns="http://www.w3.org/2000/svg">
<g id="Group">
<path id="Vector" d="M10.0561 1.50227C10.4938 1.50227 10.8923 1.50227 11.2908 1.50227C12.5646 1.50227 12.7008 1.61421 12.89 2.88623C13.629 2.88623 14.3794 2.89768 15.1286 2.88242C15.6192 2.87224 15.8928 3.07322 15.8928 3.58203C15.8954 6.86384 15.8941 6.3296 15.8941 9.66102C15.5498 9.63939 15.2446 9.62159 14.9003 9.59996C14.9003 6.44026 14.9003 7.12206 14.9003 3.9471C14.2193 3.9471 13.5761 3.9471 12.9253 3.9471C12.5381 5.0881 12.5381 5.0881 11.2429 5.0881C9.14052 5.0881 7.0394 5.08937 4.93702 5.08556C4.02897 5.08429 3.807 4.87949 3.68215 3.93311C3.04147 3.93311 2.39827 3.93311 1.71597 3.93311C1.71597 10.3772 1.71597 12.4836 1.71597 18.9557C4.27364 18.9557 6.80986 18.9557 9.33726 18.9557C9.51382 19.2966 9.38897 19.6108 9.43058 19.8855C9.27798 20.0483 9.1216 19.9898 8.98287 19.9898C6.50214 19.9936 4.02267 19.9949 1.54193 19.9911C0.785227 19.9898 0.667938 19.8677 0.667938 19.1007C0.666677 12.5714 0.666677 10.367 0.667938 3.83771C0.667938 2.97909 0.760004 2.88751 1.60751 2.88623C2.29612 2.88496 2.98598 2.88623 3.66827 2.88623C3.80196 1.66764 3.98861 1.50482 5.19304 1.50227C5.36077 1.50227 5.53103 1.48701 5.69751 1.50482C6.20576 1.55952 6.56772 1.50482 6.78968 0.89552C7.01291 0.279862 7.61954 -0.00252701 8.2703 1.70317e-05C8.91729 0.00256107 9.44698 0.293854 9.77741 0.880256C9.88083 1.06215 9.95019 1.26313 10.0561 1.50227ZM4.69613 4.12264C7.10372 4.12264 9.4659 4.12264 11.8596 4.12264C11.8596 3.57567 11.8596 3.05796 11.8596 2.4741C11.2467 2.4741 10.664 2.46138 10.0826 2.47791C9.49869 2.49445 9.11151 2.31764 9.04214 1.65746C8.99674 1.2237 8.71045 0.974385 8.27157 0.975657C7.83015 0.976929 7.54891 1.23261 7.50855 1.66509C7.44928 2.2922 7.09363 2.48809 6.52988 2.47791C5.92704 2.46774 5.32546 2.47537 4.69739 2.47537C4.69613 3.0516 4.69613 3.55404 4.69613 4.12264Z" fill="#464A53"/>
<path id="Vector_2" d="M19.3157 19.8571C16.4515 19.8571 13.6454 19.8571 10.804 19.8571C10.6375 18.1373 11.1382 16.7254 12.4927 15.6505C12.7664 15.433 12.9732 15.3808 13.3188 15.5818C14.4589 16.2458 15.6456 16.2535 16.7832 15.578C17.1338 15.3707 17.3381 15.4394 17.608 15.6531C18.9512 16.7127 19.4317 18.1221 19.3157 19.8571Z" fill="#464A53"/>
<path id="Vector_3" d="M15.0545 14.934C13.7403 14.9353 12.681 13.8922 12.6683 12.5833C12.6545 11.2324 13.7013 10.1626 15.0419 10.1563C16.3686 10.1499 17.4608 11.2502 17.4394 12.5706C17.4179 13.8871 16.3636 14.9327 15.0545 14.934Z" fill="#464A53"/>
<path id="Vector_4" d="M9.04866 11.6939C9.61997 11.6939 10.1913 11.6927 10.7613 11.6939C11.0754 11.6939 11.3301 11.83 11.3226 12.2574C11.3163 12.6467 11.0728 12.7815 10.7803 12.7815C9.62123 12.784 8.46221 12.784 7.30193 12.7815C7.00807 12.7815 6.76593 12.6327 6.76467 12.2498C6.76214 11.83 7.0169 11.6914 7.33346 11.6939C7.90603 11.6965 8.47734 11.6939 9.04866 11.6939Z" fill="#464A53"/>
<path id="Vector_5" d="M9.52045 7.93533C10.2141 7.93533 10.9077 7.94042 11.6014 7.93406C11.9533 7.93152 12.2635 8.02183 12.2786 8.42379C12.295 8.85246 11.9949 8.99365 11.6064 8.99365C10.2191 8.99111 8.83185 8.99111 7.44456 8.99365C7.05611 8.99492 6.75343 8.85373 6.7673 8.42887C6.77992 8.03582 7.08008 7.9277 7.43951 7.93279C8.13316 7.94042 8.8268 7.93406 9.52045 7.93533Z" fill="#464A53"/>
<path id="Vector_6" d="M4.03387 9.35435C3.81316 9.01472 3.63786 8.75396 3.47264 8.48556C3.35409 8.29221 3.17122 8.0747 3.43229 7.87626C3.69966 7.67274 3.89514 7.8292 4.04774 8.07343C4.10197 8.15992 4.17512 8.23497 4.27223 8.35581C4.63671 8.13321 4.98732 7.91315 5.34423 7.70581C5.54854 7.58751 5.78816 7.47303 5.94833 7.74143C6.09841 7.99329 5.9395 8.18155 5.7251 8.31384C5.17649 8.65474 4.62536 8.99055 4.03387 9.35435Z" fill="#9096A2"/>
<path id="Vector_7" d="M4.36484 12.0852C4.665 11.8995 4.98281 11.7011 5.30315 11.5064C5.52638 11.3703 5.7824 11.2355 5.95518 11.5319C6.10148 11.7812 5.91987 11.9618 5.70799 12.0967C5.28423 12.3651 4.85543 12.6271 4.44051 12.9095C4.158 13.1028 3.94487 13.085 3.77965 12.7683C3.75064 12.7123 3.71155 12.6614 3.68632 12.6042C3.55642 12.3065 3.05448 12.0471 3.43283 11.6909C3.86415 11.2838 3.97513 11.9529 4.36484 12.0852Z" fill="#9096A2"/>
<path id="Vector_8" d="M8.70052 15.0826C9.18481 15.0826 9.6691 15.0813 10.1521 15.0826C10.4182 15.0826 10.6339 15.2187 10.6289 15.6461C10.6238 16.0353 10.417 16.1702 10.1698 16.1702C9.18733 16.1727 8.20362 16.1727 7.22116 16.1702C6.97145 16.1702 6.76714 16.0213 6.76587 15.6385C6.76461 15.2187 6.98027 15.0801 7.2489 15.0826C7.73193 15.0851 8.21623 15.0826 8.70052 15.0826Z" fill="#464A53"/>
<path id="Vector_9" d="M4.36484 15.4729C4.665 15.2872 4.98281 15.0888 5.30315 14.8941C5.52638 14.758 5.7824 14.6232 5.95518 14.9196C6.10148 15.1689 5.91987 15.3495 5.70799 15.4844C5.28423 15.7528 4.85543 16.0148 4.44051 16.2972C4.158 16.4905 3.94487 16.4727 3.77965 16.156C3.75064 16.1 3.71155 16.0491 3.68632 15.9919C3.55642 15.6942 3.05448 15.4348 3.43283 15.0786C3.86415 14.6728 3.97513 15.3406 4.36484 15.4729Z" fill="#9096A2"/>
<path id="Vector_10" d="M8.58813 1.66465C8.5402 1.84146 8.4557 1.99283 8.2577 1.97884C8.066 1.96612 7.97141 1.8262 7.98403 1.6354C7.99538 1.47003 8.09123 1.36827 8.26148 1.36064C8.47084 1.35301 8.54146 1.49802 8.58813 1.66465Z" fill="#464A53"/>
</g>
</svg>
