<svg width="16" height="16" viewBox="0 0 16 16" fill="none" xmlns="http://www.w3.org/2000/svg">
<g id="Group">
<path id="Vector" d="M8.11294 15.8935C7.41735 15.8962 6.72142 15.8986 6.02583 15.9013C4.76022 15.9061 3.39082 15.8775 2.38759 15.1073C1.57085 14.48 1.14751 13.4543 0.995728 12.4368C0.84395 11.4193 0.928347 10.3838 0.933111 9.35507C0.946723 6.61295 0.271551 2.73614 3.6532 1.73731C4.60504 1.4561 5.61508 1.46289 6.6081 1.47206C7.6491 1.48157 8.6901 1.49108 9.73111 1.50059C9.99655 1.50297 10.2746 1.50874 10.5067 1.63746C10.7388 1.76618 10.9007 2.06165 10.7895 2.3021C10.6612 2.57923 10.2882 2.61591 9.98226 2.61252C8.66798 2.59825 7.35371 2.58399 6.03944 2.56973C4.977 2.55818 3.81076 2.58229 3.00627 3.27512C2.52712 3.68777 2.24602 4.29128 2.11228 4.90837C1.97854 5.52547 1.97888 6.16227 1.9799 6.79363C1.98228 8.08046 1.98432 9.36729 1.98671 10.6541C1.98807 11.3789 1.99079 12.1145 2.18851 12.8118C2.38623 13.509 2.80787 14.1757 3.4548 14.5051C4.0078 14.787 4.65541 14.7952 5.27681 14.7969C7.12537 14.8026 8.97392 14.8084 10.8225 14.8142C11.4204 14.8159 12.0391 14.8138 12.586 14.572C13.3513 14.2338 13.8574 13.4659 14.082 12.6613C14.3066 11.8567 14.2902 11.0073 14.2718 10.1722C14.2494 9.15435 14.2269 8.13616 14.2048 7.11831C14.199 6.85 14.1956 6.56913 14.3161 6.32902C14.4366 6.08891 14.7238 5.90925 14.9763 6.00196C15.2938 6.11879 15.3452 6.53823 15.3431 6.87615C15.3353 8.14363 15.3278 9.41145 15.32 10.6789C15.3152 11.4522 15.3098 12.2327 15.1417 12.9877C14.9736 13.7427 14.6275 14.4803 14.0418 14.987C13.0638 15.8327 11.6481 15.8806 10.3542 15.8854C9.60656 15.8877 8.85992 15.8908 8.11294 15.8935Z" fill="#20AC90"/>
<path id="Vector_2" d="M9.25213 8.85985C9.60026 8.4112 9.9433 7.96935 10.2863 7.5275C10.5293 7.21471 10.7716 6.90157 11.0159 6.5898C11.23 6.31674 11.5581 6.26308 11.8065 6.45803C12.057 6.65467 12.0879 6.98003 11.8745 7.2558C11.1858 8.1463 10.4953 9.03611 9.80241 9.92389C9.57338 10.2173 9.26676 10.252 8.97103 10.0217C8.34589 9.53468 7.72312 9.04426 7.09934 8.55554C7.05544 8.52124 7.01018 8.48864 6.96185 8.4523C6.36869 9.22222 5.78098 9.98366 5.19497 10.7461C5.08947 10.8837 4.97547 11.0069 4.79204 11.0328C4.55655 11.066 4.36632 10.9889 4.23462 10.7903C4.10734 10.5984 4.1213 10.3586 4.27478 10.1572C4.62087 9.70245 4.97173 9.25143 5.32054 8.79871C5.67991 8.33275 6.03894 7.86645 6.39864 7.40082C6.63822 7.09075 6.94211 7.05135 7.25316 7.29418C7.91676 7.81211 8.57866 8.33241 9.25213 8.85985Z" fill="#20AC90"/>
<path id="Vector_3" d="M12.0398 2.83522C12.0663 1.84419 12.83 0.877286 13.9938 0.902078C14.8058 0.919399 15.5739 1.50219 15.8083 2.27823C16.0428 3.05427 15.7246 3.96345 15.0576 4.42567C14.3906 4.8879 13.4258 4.86719 12.7793 4.37677C12.2501 3.97567 12.0248 3.40137 12.0398 2.83522ZM13.1022 2.82842C13.1002 3.2971 13.4827 3.68462 13.9492 3.68631C14.4144 3.68801 14.8031 3.29914 14.8027 2.83352C14.802 2.37061 14.4274 1.99431 13.9628 1.98989C13.4874 1.98514 13.1042 2.35872 13.1022 2.82842Z" fill="#20AC90"/>
</g>
</svg>
