<svg width="38" height="39" viewBox="0 0 38 39" fill="none" xmlns="http://www.w3.org/2000/svg">
<path fill-rule="evenodd" clip-rule="evenodd" d="M4.28605 10.0862L9.82771 4.39868L7.58854 2.10059L2.04688 7.78809L4.28605 10.0862ZM30.411 2.10059L35.9527 7.78809L33.7135 10.0862L28.1719 4.39868L30.411 2.10059ZM18.9998 35.7496C10.2553 35.7496 3.16646 28.4743 3.16646 19.4996C3.16646 10.525 10.2553 3.24963 18.9998 3.24963C27.7443 3.24963 34.8331 10.525 34.8331 19.4996C34.8331 28.4743 27.7443 35.7496 18.9998 35.7496ZM18.9998 32.4996C25.9954 32.4996 31.6665 26.6793 31.6665 19.4996C31.6665 12.3199 25.9954 6.49963 18.9998 6.49963C12.0042 6.49963 6.33313 12.3199 6.33313 19.4996C6.33313 26.6793 12.0042 32.4996 18.9998 32.4996ZM26.9165 17.8746H20.5831V9.74963H17.4165V21.1246H26.9165V17.8746Z" fill="#D78F03"/>
</svg>
