<svg width="24" height="25" viewBox="0 0 24 25" fill="none" xmlns="http://www.w3.org/2000/svg">
<path fill-rule="evenodd" clip-rule="evenodd" d="M13.3431 15.6657V16.3157C13.3431 16.8503 12.8974 17.1892 12.4696 17.1892H8.02123C7.48661 17.1892 7.14769 16.7434 7.14769 16.3157V15.645C7.14769 15.1104 7.59344 14.7715 8.02123 14.7715H12.4472C12.9818 14.7715 13.3208 15.2173 13.3208 15.645V15.6657H13.3431ZM8.02123 16.5392C7.88711 16.5392 7.79769 16.4274 7.79769 16.3157V15.645C7.79769 15.5109 7.90946 15.4215 8.02123 15.4215H12.4472C12.5813 15.4215 12.6708 15.5333 12.6708 15.645V16.3157H12.6931C12.6931 16.352 12.6849 16.385 12.6708 16.4139C12.6326 16.4916 12.5511 16.5392 12.4696 16.5392H8.02123ZM16.9385 6.41304C16.9385 6.10142 16.6707 5.83359 16.3591 5.83359H12.1582C12.1519 6.61303 11.9887 7.36099 11.6954 8.0431H14.6379C15.1725 8.0431 15.5114 8.48885 15.5114 8.91663V9.58724C15.5114 10.1219 15.0657 10.4608 14.6379 10.4608H9.70896C8.78376 11.111 7.66383 11.489 6.45648 11.489C6.2782 11.489 6.09946 11.4812 5.92174 11.4654V18.3722C5.92174 18.6838 6.18957 18.9516 6.50119 18.9516H12.1545L16.9385 12.1533V6.41304ZM17.5885 12.3591L12.4919 19.6016H6.50119C5.83058 19.6016 5.27174 19.0428 5.27174 18.3722V10.7049C5.48279 10.7546 5.70074 10.7904 5.92174 10.8125C6.09868 10.8302 6.27758 10.839 6.45648 10.839C7.59651 10.839 8.64713 10.459 9.49656 9.81078H14.6379C14.7496 9.81078 14.8614 9.72136 14.8614 9.58724V8.91663C14.8614 8.80487 14.772 8.6931 14.6379 8.6931H10.5919C10.7367 8.48696 10.8663 8.26972 10.9792 8.0431C11.3128 7.37358 11.5011 6.6222 11.5082 5.83359C11.5083 5.81812 11.5084 5.80264 11.5084 5.78714C11.5084 5.58597 11.486 5.38479 11.4637 5.18362L16.3591 5.18359C17.0297 5.18359 17.5885 5.74243 17.5885 6.41304V12.3591ZM15.5114 12.9403C15.5114 13.4749 15.0657 13.8138 14.6379 13.8138H8.02123C7.48661 13.8138 7.14769 13.3681 7.14769 12.9403V12.2697C7.14769 11.735 7.59344 11.3961 8.02123 11.3961H14.6379C15.1725 11.3961 15.5114 11.8419 15.5114 12.2697V12.9403ZM14.6379 13.1638C14.7496 13.1638 14.8614 13.0744 14.8614 12.9403V12.2697C14.8614 12.1579 14.772 12.0461 14.6379 12.0461H8.02123C7.90946 12.0461 7.79769 12.1355 7.79769 12.2697V12.9403C7.79769 13.052 7.88711 13.1638 8.02123 13.1638H14.6379Z" fill="#464A53"/>
<path d="M14.3412 18.6067C14.0234 19.0576 14.1309 19.6807 14.5813 19.9992L15.1613 20.4093C15.6127 20.7285 16.2376 20.6207 16.556 20.1688L19.1371 16.5059C19.4548 16.0549 19.3474 15.4318 18.897 15.1134L18.317 14.7033C17.8655 14.3841 17.2407 14.4918 16.9222 14.9438L14.3412 18.6067Z" fill="#464A53"/>
<path d="M20.8745 13.4539L19.198 12.2691C19.0415 12.1573 18.8403 12.2021 18.7286 12.3585L18.0133 13.3644L20.2486 14.9292L20.9639 13.9233C21.0757 13.7668 21.031 13.5433 20.8745 13.4539Z" fill="#464A53"/>
<path d="M12.7602 20.8533C12.7155 20.9204 12.6708 21.0322 12.6932 21.1216L12.7602 22.664C12.7826 22.9322 13.0285 23.111 13.2967 23.044L14.772 22.5969C14.8615 22.5746 14.9285 22.5075 14.9956 22.4404L15.465 21.7698L13.2297 20.2051L12.7602 20.8533Z" fill="#464A53"/>
<path d="M10.4131 5.76517C10.4131 3.57452 8.64719 1.80859 6.45654 1.80859C4.2659 1.80859 2.49997 3.57452 2.49997 5.76517C2.49997 7.95582 4.2659 9.7441 6.45654 9.7441C8.64719 9.7441 10.4131 7.95582 10.4131 5.76517ZM6.00947 7.46404C5.853 7.46404 5.71888 7.39698 5.60711 7.28521L4.46708 6.07812C4.2659 5.85458 4.2659 5.51928 4.48943 5.3181C4.71297 5.11692 5.04827 5.11692 5.24945 5.34045L5.98712 6.12283L7.59658 4.4016C7.79776 4.17807 8.15541 4.17807 8.3566 4.37925C8.58013 4.58043 8.58013 4.93809 8.37895 5.13927L6.41184 7.28521C6.30007 7.39698 6.16595 7.46404 6.00947 7.46404Z" fill="#464A53"/>
</svg>
