<svg width="17" height="16" viewBox="0 0 17 16" fill="none" xmlns="http://www.w3.org/2000/svg">
<g id="av-timer">
<path id="Vector" d="M7.66668 11.3333C7.66668 11.5101 7.73692 11.6797 7.86194 11.8047C7.98696 11.9298 8.15653 12 8.33334 12C8.51015 12 8.67972 11.9298 8.80475 11.8047C8.92977 11.6797 9.00001 11.5101 9.00001 11.3333C9.00001 11.1565 8.92977 10.987 8.80475 10.8619C8.67972 10.7369 8.51015 10.6667 8.33334 10.6667C8.15653 10.6667 7.98696 10.7369 7.86194 10.8619C7.73692 10.987 7.66668 11.1565 7.66668 11.3333ZM7.66668 2V4.66667H9.00001V3.38667C11.26 3.71333 13 5.64667 13 8C13 9.23768 12.5083 10.4247 11.6332 11.2998C10.758 12.175 9.57102 12.6667 8.33334 12.6667C7.09567 12.6667 5.90868 12.175 5.03351 11.2998C4.15834 10.4247 3.66668 9.23768 3.66668 8C3.66668 6.88 4.06001 5.85333 4.72001 5.05333L8.33334 8.66667L9.27334 7.72667L4.74001 3.19333V3.20667C3.28001 4.3 2.33334 6.03333 2.33334 8C2.33334 9.5913 2.96548 11.1174 4.0907 12.2426C5.21592 13.3679 6.74204 14 8.33334 14C9.92464 14 11.4508 13.3679 12.576 12.2426C13.7012 11.1174 14.3333 9.5913 14.3333 8C14.3333 6.4087 13.7012 4.88258 12.576 3.75736C11.4508 2.63214 9.92464 2 8.33334 2H7.66668ZM12.3333 8C12.3333 7.82319 12.2631 7.65362 12.1381 7.5286C12.0131 7.40357 11.8435 7.33333 11.6667 7.33333C11.4899 7.33333 11.3203 7.40357 11.1953 7.5286C11.0702 7.65362 11 7.82319 11 8C11 8.17681 11.0702 8.34638 11.1953 8.4714C11.3203 8.59643 11.4899 8.66667 11.6667 8.66667C11.8435 8.66667 12.0131 8.59643 12.1381 8.4714C12.2631 8.34638 12.3333 8.17681 12.3333 8ZM4.33334 8C4.33334 8.17681 4.40358 8.34638 4.52861 8.4714C4.65363 8.59643 4.8232 8.66667 5.00001 8.66667C5.17682 8.66667 5.34639 8.59643 5.47141 8.4714C5.59644 8.34638 5.66668 8.17681 5.66668 8C5.66668 7.82319 5.59644 7.65362 5.47141 7.5286C5.34639 7.40357 5.17682 7.33333 5.00001 7.33333C4.8232 7.33333 4.65363 7.40357 4.52861 7.5286C4.40358 7.65362 4.33334 7.82319 4.33334 8Z" fill="#C7CAD1"/>
</g>
</svg>
