<svg width="16" height="14" viewBox="0 0 16 14" fill="none" xmlns="http://www.w3.org/2000/svg">
<path id="Vector" d="M1.74197 0C2.16895 0.11759 2.62903 0.146831 3.04194 0.307973C4.4379 0.851746 5.21822 1.69727 5.3051 2.88437C5.33158 3.24336 5.30924 3.60421 5.30924 3.99431C5.77511 3.99431 6.19961 3.98187 6.62245 3.9968C7.34484 4.02231 7.87857 4.36512 7.95635 4.83113C8.04489 5.36246 7.69901 5.79984 7.0635 5.94729C6.75568 6.01884 6.43461 5.97902 6.11934 5.98525C5.87275 5.99022 5.62534 5.98649 5.39944 5.98649C5.27035 6.07919 5.31669 6.17812 5.31669 6.26647C5.31338 7.80073 5.31255 9.33499 5.31503 10.8693C5.31586 11.5922 5.86365 11.9979 6.81939 12.0078C8.01924 12.0203 9.21495 12.0315 10.3221 11.5953C12.2311 10.8437 13.2191 9.65416 13.3184 8.04275C13.3383 7.72234 13.3259 7.40005 13.3217 7.07902C13.3135 6.43756 12.769 6.01511 11.9117 5.98773C11.6775 5.98027 11.4425 5.99147 11.2092 5.98213C10.5695 5.95538 10.0582 5.58457 10.0118 5.12043C9.9572 4.57417 10.3486 4.12248 11.018 4.04035C13.5617 3.72802 15.8001 4.90019 15.9647 6.89236C16.0682 8.1479 15.9804 9.40032 15.2051 10.5551C13.901 12.4968 11.8314 13.6522 8.94106 13.9446C8.91127 13.9477 8.88727 13.9807 8.86079 14H6.04735C6.03163 13.9844 6.01756 13.9577 5.99853 13.9552C4.26248 13.7555 2.61662 12.6032 2.65882 10.7523C2.69274 9.28273 2.66626 7.81193 2.66378 6.34175C2.66378 6.23162 2.70267 6.1159 2.60834 5.98711C2.36175 5.98711 2.10275 5.99271 1.84375 5.98587C1.53013 5.97716 1.21155 6.02071 0.903728 5.93734C0.328629 5.78118 -0.071045 5.31766 0.0108757 4.8977C0.114311 4.36948 0.6108 4.0304 1.36546 3.99867C1.78582 3.98125 2.20949 3.99556 2.65882 3.99556C2.65882 3.7162 2.63647 3.46858 2.66295 3.22345C2.75315 2.39285 2.03159 2.02515 1.19748 1.98596C0.570253 1.95671 0.102726 1.58217 0.0100482 1.09999C-0.0635977 0.713625 0.274842 0.286819 0.787053 0.0945694C0.883869 0.0584837 1.01378 0.0833704 1.07998 0H1.74197Z" fill="#464A53"/>
</svg>
