<svg width="32" height="32" viewBox="0 0 32 32" fill="none" xmlns="http://www.w3.org/2000/svg">
<g id="Icons / notifications / bell">
<path id="icon" fill-rule="evenodd" clip-rule="evenodd" d="M25.3333 13.333C25.3333 7.92077 22.3488 4.16434 18.4871 3.03662C18.3473 2.67482 18.1263 2.33847 17.8259 2.05625C16.7996 1.09193 15.2003 1.09193 14.174 2.05625C13.8743 2.33785 13.6536 2.67335 13.5137 3.03424C9.6471 4.15704 6.66663 7.90526 6.66663 13.333C6.66663 16.8449 5.9586 18.8127 4.6479 20.2388C4.42876 20.4772 3.83504 21.0234 3.43285 21.3934L3.4328 21.3934C3.24254 21.5684 3.09515 21.704 3.05058 21.7489L2.66663 22.1383V26.6851H10.7839C11.0584 28.1012 11.8267 29.0486 13.2162 29.8965C14.9255 30.9395 17.0744 30.9395 18.7837 29.8965C20.0099 29.1482 20.8322 27.9982 21.1657 26.6851H29.3333V22.1383L28.9493 21.7489C28.9089 21.708 28.7676 21.5776 28.5829 21.4072L28.5827 21.407C28.1817 21.0371 27.5763 20.4786 27.3538 20.2356C26.0422 18.8029 25.3333 16.8325 25.3333 13.333ZM18.3156 26.6851H13.5714C13.7598 27.0356 14.0809 27.3002 14.6053 27.6202C15.4616 28.1427 16.5383 28.1427 17.3946 27.6202C17.7912 27.3782 18.101 27.058 18.3156 26.6851ZM25.3869 22.0362C25.6674 22.3427 26.2688 22.9029 26.6666 23.2689V24.0185H5.33329V23.2695C5.72806 22.9078 6.3312 22.348 6.61127 22.0433C8.39225 20.1055 9.33329 17.4901 9.33329 13.333C9.33329 8.29287 12.4437 5.34952 16 5.34952C19.5462 5.34952 22.6666 8.30806 22.6666 13.333C22.6666 17.4767 23.608 20.093 25.3869 22.0362Z" fill="#9096A2"/>
</g>
</svg>
