<svg width="24" height="25" viewBox="0 0 24 25" fill="none" xmlns="http://www.w3.org/2000/svg">
<g id="Media / Icon/32px/Yes/star">
<path id="Icon" d="M10.7528 4.28897C11.1454 3.08076 12.8546 3.08076 13.2472 4.28897L14.6499 8.60583C14.8254 9.14616 15.3289 9.51199 15.8971 9.51199H20.4361C21.7065 9.51199 22.2347 11.1376 21.2069 11.8843L17.5348 14.5523C17.0751 14.8862 16.8828 15.4782 17.0584 16.0185L18.461 20.3354C18.8536 21.5436 17.4707 22.5483 16.443 21.8015L12.7708 19.1336C12.3112 18.7996 11.6888 18.7996 11.2292 19.1336L7.55703 21.8015C6.52927 22.5483 5.14643 21.5436 5.539 20.3354L6.94163 16.0185C7.11719 15.4782 6.92487 14.8862 6.46524 14.5523L2.79309 11.8843C1.76533 11.1376 2.29353 9.51199 3.56391 9.51199H8.10293C8.67107 9.51199 9.17459 9.14616 9.35015 8.60583L10.7528 4.28897Z" fill="#FBBC05"/>
</g>
</svg>
