<svg xmlns="http://www.w3.org/2000/svg" width="21" height="20" viewBox="0 0 21 20" fill="none">
  <path d="M10.2578 0C15.725 0.0132532 20.1337 4.36673 20.2414 9.7885C20.3539 15.4384 15.8524 19.9742 10.2976 19.9999C4.72067 20.0252 0.275782 15.5733 0.243646 10.0801C0.211108 4.47517 4.67688 0.0064258 10.2578 0Z" fill="#1D5276"/>
  <path d="M8.74855 12.1074C9.289 11.1385 9.85034 10.2062 10.4309 9.28508C11.213 8.04414 12.0247 6.8226 12.8986 5.64243C13.0259 5.47093 13.1583 5.30451 13.3376 5.18233C13.7305 4.91409 14.2359 4.94496 14.5467 5.25424C14.8718 5.57784 14.9297 6.12353 14.6559 6.49391C14.2858 6.9941 13.9281 7.50257 13.5846 8.02091C12.4041 9.8015 11.2953 11.6263 10.1794 13.4467C10.0322 13.6866 9.88407 13.9259 9.73498 14.1649C9.51103 14.5238 9.21285 14.645 8.7945 14.5546C8.58982 14.5104 8.41278 14.4178 8.26401 14.274C7.2358 13.2828 6.20856 12.291 5.18132 11.2992C4.93423 11.0606 4.80667 10.7698 4.83077 10.428C4.87254 9.83682 5.32816 9.51704 5.91906 9.65068C6.14655 9.70223 6.32488 9.82855 6.49036 9.98574C7.2117 10.6727 7.93659 11.3565 8.66051 12.0409C8.683 12.0619 8.70999 12.0782 8.74951 12.1078L8.74855 12.1074Z" fill="#FCFDFD"/>
</svg>