<svg xmlns="http://www.w3.org/2000/svg" width="24" height="24" viewBox="0 0 24 24" fill="none">
  <path d="M17.7115 16.0386C16.7627 16.9873 14.7752 18.9748 13.4141 20.336C12.633 21.117 11.3676 21.1175 10.5865 20.3365C9.24904 18.999 7.3001 17.05 6.28863 16.0386C3.1343 12.8843 3.1343 7.77008 6.28863 4.61575C9.44296 1.46142 14.5571 1.46142 17.7115 4.61575C20.8658 7.77008 20.8658 12.8843 17.7115 16.0386Z" stroke="#1E567B" stroke-width="2" stroke-linecap="round" stroke-linejoin="round"/>
  <path d="M15.029 10.3272C15.029 12 13.6729 13.3561 12 13.3561C10.3272 13.3561 8.97111 12 8.97111 10.3272C8.97111 8.65433 10.3272 7.29823 12 7.29823C13.6729 7.29823 15.029 8.65433 15.029 10.3272Z" stroke="#1E567B" stroke-width="2" stroke-linecap="round" stroke-linejoin="round"/>
</svg>