<svg xmlns="http://www.w3.org/2000/svg" width="45" height="43" viewBox="0 0 45 43" fill="none">
  <path fill-rule="evenodd" clip-rule="evenodd" d="M8.82642 11.825C10.6028 9.08955 12.0063 6.08322 13.3448 3.15974C13.6309 2.52937 13.3659 1.77864 12.7397 1.53191C12.1277 1.2382 11.395 1.52396 11.1236 2.10749C9.8288 4.94181 8.47865 7.86136 6.77746 10.4661C6.41185 11.0203 6.56883 11.7891 7.13245 12.1705C7.6956 12.5518 8.46035 12.379 8.82642 11.825Z" fill="#2872A4"/>
  <path fill-rule="evenodd" clip-rule="evenodd" d="M17.9194 24.6325C24.348 21.3436 30.3327 17.248 36.8641 14.0939C37.4678 13.8196 37.7269 13.078 37.4322 12.4721C37.1371 11.866 36.4096 11.5879 35.7914 11.9091C29.2454 15.0586 23.2466 19.1498 16.8035 22.4343C16.1965 22.7589 15.9562 23.5062 16.2635 24.116C16.585 24.6789 17.3124 24.9572 17.9194 24.6325Z" fill="#2872A4"/>
  <path fill-rule="evenodd" clip-rule="evenodd" d="M34.0371 39.5809C31.1752 38.8424 28.3135 38.1037 25.4511 37.365C24.8056 37.1637 24.1318 37.5706 23.9586 38.2362C23.7859 38.9019 24.1894 39.5415 24.8353 39.7429C27.7019 40.4829 30.5679 41.223 33.4339 41.9628C34.094 42.1173 34.7645 41.7095 34.934 41.0428C35.0888 40.4229 34.6967 39.7353 34.0371 39.5809Z" fill="#2872A4"/>
</svg>