<svg width="17" height="17" viewBox="0 0 17 17" fill="none" xmlns="http://www.w3.org/2000/svg">
<g id="Icons / time / calendar-dates">
<path id="icon" fill-rule="evenodd" clip-rule="evenodd" d="M6.1333 4.50016H4.79997V3.8335H3.46663V5.8335H14.1333V3.8335H12.8V4.50016H11.4666V3.8335H6.1333V4.50016ZM14.1333 7.16683H3.46663V13.8335H14.1333V7.16683ZM11.4666 2.50016H6.1333V1.8335H4.79997V2.50016H3.46663C2.73025 2.50016 2.1333 3.09712 2.1333 3.8335V13.8335C2.1333 14.5699 2.73025 15.1668 3.46663 15.1668H14.1333C14.8697 15.1668 15.4666 14.5699 15.4666 13.8335V3.8335C15.4666 3.09712 14.8697 2.50016 14.1333 2.50016H12.8V1.8335H11.4666V2.50016ZM6.79997 9.8335H5.46663V8.50016H6.79997V9.8335ZM8.1333 9.8335H9.46663V8.50016H8.1333V9.8335ZM10.8 9.8335V8.50016H12.1333V9.8335H10.8ZM5.46663 12.5002H6.79997V11.1668H5.46663V12.5002ZM9.46663 12.5002H8.1333V11.1668H9.46663V12.5002Z" fill="#20AC90"/>
</g>
</svg>
