<svg xmlns="http://www.w3.org/2000/svg" width="17" height="17" viewBox="0 0 17 17" fill="none">
  <path fill-rule="evenodd" clip-rule="evenodd" d="M5.83334 4.77897H4.50001V4.1123H3.16668V6.1123H13.8333V4.1123H12.5V4.77897H11.1667V4.1123H5.83334V4.77897ZM13.8333 7.44564H3.16668V14.1123H13.8333V7.44564ZM11.1667 2.77897H5.83334V2.1123H4.50001V2.77897H3.16668C2.4303 2.77897 1.83334 3.37592 1.83334 4.1123V14.1123C1.83334 14.8487 2.4303 15.4456 3.16668 15.4456H13.8333C14.5697 15.4456 15.1667 14.8487 15.1667 14.1123V4.1123C15.1667 3.37592 14.5697 2.77897 13.8333 2.77897H12.5V2.1123H11.1667V2.77897ZM6.50001 10.1123H5.16668V8.77897H6.50001V10.1123ZM7.83334 10.1123H9.16668V8.77897H7.83334V10.1123ZM10.5 10.1123V8.77897H11.8333V10.1123H10.5ZM5.16668 12.779H6.50001V11.4456H5.16668V12.779ZM9.16668 12.779H7.83334V11.4456H9.16668V12.779Z" fill="white"/>
</svg>