<svg width="17" height="17" viewBox="0 0 17 17" fill="none" xmlns="http://www.w3.org/2000/svg">
<g id="Icons / time / calendar-dates">
<path id="icon" fill-rule="evenodd" clip-rule="evenodd" d="M6.30859 4.80998H4.97526V4.14331H3.64193V6.14331H14.3086V4.14331H12.9753V4.80998H11.6419V4.14331H6.30859V4.80998ZM14.3086 7.47664H3.64193V14.1433H14.3086V7.47664ZM11.6419 2.80998H6.30859V2.14331H4.97526V2.80998H3.64193C2.90555 2.80998 2.30859 3.40693 2.30859 4.14331V14.1433C2.30859 14.8797 2.90555 15.4766 3.64193 15.4766H14.3086C15.045 15.4766 15.6419 14.8797 15.6419 14.1433V4.14331C15.6419 3.40693 15.045 2.80998 14.3086 2.80998H12.9753V2.14331H11.6419V2.80998ZM6.97526 10.1433H5.64193V8.80998H6.97526V10.1433ZM8.30859 10.1433H9.64193V8.80998H8.30859V10.1433ZM10.9753 10.1433V8.80998H12.3086V10.1433H10.9753ZM5.64193 12.81H6.97526V11.4766H5.64193V12.81ZM9.64193 12.81H8.30859V11.4766H9.64193V12.81Z" fill="#2E3138"/>
</g>
</svg>
