<svg width="16" height="16" viewBox="0 0 16 16" fill="none" xmlns="http://www.w3.org/2000/svg">
<g id="Icons / time / calendar-dates">
<path id="icon" fill-rule="evenodd" clip-rule="evenodd" d="M5.33337 3.99089H4.00004V3.32422H2.66671V5.32422H13.3334V3.32422H12V3.99089H10.6667V3.32422H5.33337V3.99089ZM13.3334 6.65755H2.66671V13.3242H13.3334V6.65755ZM10.6667 1.99089H5.33337V1.32422H4.00004V1.99089H2.66671C1.93033 1.99089 1.33337 2.58784 1.33337 3.32422V13.3242C1.33337 14.0606 1.93033 14.6576 2.66671 14.6576H13.3334C14.0698 14.6576 14.6667 14.0606 14.6667 13.3242V3.32422C14.6667 2.58784 14.0698 1.99089 13.3334 1.99089H12V1.32422H10.6667V1.99089ZM6.00004 9.32422H4.66671V7.99089H6.00004V9.32422ZM7.33337 9.32422H8.66671V7.99089H7.33337V9.32422ZM10 9.32422V7.99089H11.3334V9.32422H10ZM4.66671 11.9909H6.00004V10.6576H4.66671V11.9909ZM8.66671 11.9909H7.33337V10.6576H8.66671V11.9909Z" fill="#5D636F"/>
</g>
</svg>
