<svg width="32" height="33" viewBox="0 0 32 33" fill="none" xmlns="http://www.w3.org/2000/svg">
<g id="Icons / call / call-calling">
<path id="icon" fill-rule="evenodd" clip-rule="evenodd" d="M14.4754 11.6135C15.1662 10.6825 15.4139 9.70138 14.6326 8.83534C12.8794 6.38203 11.7003 4.86491 10.9607 4.13431C9.55457 2.74533 7.24155 2.93321 6.02378 4.13312C5.36971 4.7776 5.14828 4.99892 4.47668 5.68107C0.735816 9.42395 3.01719 17.3363 9.08191 23.4069C15.1453 29.4763 23.0568 31.7588 26.8055 28.0081C27.4253 27.4106 27.95 26.8856 28.3638 26.4482C29.5572 25.1869 29.7384 22.9759 28.3559 21.5395C27.6472 20.8031 26.2005 19.6809 23.644 17.8522C22.861 17.152 21.9326 17.3038 21.0814 17.8622C20.672 18.1308 20.3741 18.4025 19.8115 18.9657L18.7898 19.9879C18.6552 20.1225 16.828 19.2075 15.0543 17.432C13.2797 15.6556 12.3653 13.8283 12.4992 13.6944C12.7754 13.4182 13.1162 13.0773 13.5216 12.6715C13.7001 12.4928 13.7854 12.4063 13.8948 12.2913C14.1228 12.0516 14.3116 11.8342 14.4754 11.6135ZM20.6744 21.8735L21.6962 20.8511C22.0059 20.5411 22.2066 20.3506 22.3698 20.2192C24.6093 21.8274 25.9064 22.8387 26.4361 23.3892C26.7542 23.7197 26.7048 24.3227 26.4283 24.615C26.0456 25.0194 25.5485 25.5169 24.9384 26.1053C22.5143 28.5304 16.1279 26.6878 10.9669 21.5217C5.80426 16.354 3.96257 9.96665 6.36832 7.55957C7.03721 6.88023 7.24913 6.66841 7.89387 6.03313C8.13561 5.79493 8.79409 5.74145 9.08816 6.03194C9.65758 6.59444 10.7138 7.94691 12.2677 10.1114C12.1872 10.2112 12.0868 10.3241 11.9645 10.4526C11.8748 10.5469 11.8 10.6227 11.6366 10.7863C11.2315 11.1918 10.891 11.5324 10.6152 11.8082C8.87768 13.5456 10.3574 16.5025 13.1694 19.3172C15.9794 22.13 18.9374 23.6114 20.6744 21.8735ZM18.2067 3.25551C23.9712 3.95423 28.5419 8.52496 29.2406 14.2894L26.6067 14.7284C26.0981 10.0852 22.4109 6.39799 17.7678 5.88943L18.2067 3.25551ZM17.3284 8.52562C20.8504 8.84063 23.6555 11.6457 23.9705 15.1677L21.3281 15.6081C21.216 13.2069 19.2892 11.2801 16.888 11.168L17.3284 8.52562Z" fill="#20AC90"/>
</g>
</svg>
