<svg width="204" height="209" viewBox="0 0 204 209" fill="none" xmlns="http://www.w3.org/2000/svg">
<g clip-path="url(#clip0_1_11442)">
<path d="M129.013 128.969C153.303 104.695 153.303 65.3386 129.013 41.0646C104.723 16.7905 65.3423 16.7905 41.0527 41.0646C16.7632 65.3386 16.7632 104.695 41.0527 128.969C65.3423 153.243 104.723 153.243 129.013 128.969Z" fill="white"/>
<path d="M1.439 86.0193C1.17422 63.2122 10.1698 40.3797 28.1932 23.6955C46.2167 7.0112 69.6831 -0.209222 92.4173 1.79492L93.0251 1.23118C91.4433 1.08162 89.8501 0.971172 88.2499 0.911347C65.7712 0.0530879 44.3034 7.99371 27.7995 23.2698C11.298 38.5482 1.73601 59.3351 0.874903 81.7993C0.812737 83.3985 0.801225 84.9931 0.828854 86.583L1.439 86.0193Z" fill="white"/>
<path d="M157.233 42.8118L157.682 42.3953C154.629 37.2204 151 32.3332 146.817 27.821C140.867 21.4013 134.077 16.0378 126.684 11.8247L126.215 12.2596C133.548 16.399 140.372 21.7165 146.393 28.2145C150.611 32.7635 154.219 37.6645 157.233 42.8118Z" fill="white"/>
<path d="M167.988 74.6019C171.197 100.409 162.377 127.351 141.873 146.337C108.039 177.657 55.0166 175.633 23.6736 141.82C17.6504 135.324 12.866 128.115 9.29721 120.495L8.82751 120.929C12.4677 128.619 17.3005 135.794 23.2499 142.211C38.5381 158.704 59.3359 168.26 81.8146 169.118C104.293 169.979 125.763 162.038 142.265 146.76C158.769 131.484 168.331 110.697 169.19 88.2328C169.371 83.456 169.153 78.7275 168.554 74.0796L167.988 74.6019Z" fill="white"/>
<path d="M24.24 51.712C26.7957 47.0526 29.927 42.6163 33.65 38.5091C58.7833 10.7733 101.443 8.12492 129.809 32.1285L130.182 31.7167C116.607 20.2142 99.442 14.3812 81.5797 15.2671C62.9369 16.1898 45.77 24.3122 33.2402 38.1387C29.4481 42.3218 26.2224 46.8777 23.5884 51.712H24.24Z" fill="white"/>
<path d="M15.8568 81.0217H15.2651C15.1292 83.4861 15.1154 85.9711 15.2398 88.4699C16.1239 106.321 23.6252 122.814 36.4221 135.179L36.7951 134.768C21.8224 120.281 14.7516 100.497 15.8568 81.0217Z" fill="white"/>
<path d="M146.49 51.7121C145.788 50.419 145.042 49.1465 144.257 47.8994L143.849 48.3481C144.54 49.4549 145.191 50.5777 145.815 51.7121H146.49Z" fill="white"/>
<path d="M154.795 81.0217H154.203C155.239 98.9232 149.384 117.211 136.417 131.521C115.17 154.968 81.4024 160.481 54.3327 147.128L53.9252 147.577C64.5164 152.858 76.3416 155.363 88.4893 154.763C107.132 153.84 124.299 145.718 136.829 131.894C149.359 118.067 155.75 100.193 154.827 81.5625C154.818 81.383 154.806 81.2035 154.795 81.0217Z" fill="white"/>
<path d="M113.323 154.42C114.343 153.994 115.366 153.541 116.365 153.069L116.128 152.57C115.138 153.037 114.122 153.488 113.109 153.909L113.323 154.42Z" fill="white"/>
<path d="M24.3712 129.602L23.9269 129.931C24.5854 130.817 25.2738 131.698 25.9714 132.549L26.3997 132.2C25.709 131.355 25.0251 130.481 24.3712 129.602Z" fill="white"/>
<path d="M20.6689 124.151L20.1969 124.441C20.7748 125.377 21.3803 126.316 21.9997 127.227L22.4579 126.917C21.8454 126.012 21.2422 125.083 20.6689 124.151Z" fill="white"/>
<path d="M12.6449 106.116L12.113 106.272C12.4239 107.333 12.7623 108.401 13.1192 109.443L13.6419 109.264C13.2896 108.228 12.9534 107.168 12.6449 106.116Z" fill="white"/>
<path d="M33.1504 139.429L32.7705 139.832C33.5741 140.587 34.4075 141.332 35.2456 142.052L35.6071 141.634C34.7736 140.92 33.947 140.177 33.1504 139.429Z" fill="white"/>
<path d="M17.4639 118.392L16.9689 118.638C17.4616 119.625 17.9842 120.614 18.5207 121.578L19.0042 121.309C18.4724 120.352 17.9543 119.372 17.4639 118.392Z" fill="white"/>
<path d="M14.7816 112.361L14.2659 112.563C14.6688 113.592 15.1017 114.623 15.5483 115.631L16.0526 115.407C15.6105 114.406 15.1822 113.382 14.7816 112.361Z" fill="white"/>
<path d="M107.075 156.707C108.127 156.374 109.186 156.015 110.224 155.635L110.033 155.115C109.004 155.49 107.952 155.851 106.906 156.18L107.075 156.707Z" fill="white"/>
<path d="M94.0266 159.036L94.098 159.584C95.1939 159.441 96.2991 159.271 97.3859 159.077L97.2915 158.532C96.2116 158.723 95.1134 158.893 94.0266 159.036Z" fill="white"/>
<path d="M100.531 157.89L100.651 158.431C101.728 158.191 102.817 157.924 103.883 157.639L103.741 157.105C102.681 157.388 101.602 157.653 100.531 157.89Z" fill="white"/>
<path d="M38.1581 143.73L37.8174 144.165C38.6854 144.846 39.581 145.518 40.479 146.16L40.8013 145.711C39.9103 145.073 39.0216 144.406 38.1581 143.73Z" fill="white"/>
<path d="M43.5274 147.575L43.2258 148.037C44.1514 148.64 45.1023 149.231 46.0532 149.793L46.3341 149.317C45.3901 148.76 44.4461 148.173 43.5274 147.575Z" fill="white"/>
<path d="M57.2499 154.618C56.5546 154.349 55.8616 154.07 55.1801 153.781L54.9636 154.289C55.7418 154.62 56.5362 154.936 57.3305 155.242L57.2499 154.618Z" fill="white"/>
<path d="M49.2144 150.937L48.9542 151.424C49.9305 151.944 50.9297 152.448 51.9267 152.925L52.1638 152.425C51.1761 151.951 50.1837 151.452 49.2144 150.937Z" fill="white"/>
<path d="M28.5432 134.708L28.1311 135.076C28.8656 135.897 29.63 136.714 30.399 137.503L30.795 137.117C30.0283 136.335 29.2708 135.525 28.5432 134.708Z" fill="white"/>
<path d="M26.5838 37.6992L26.1556 37.3472C25.4533 38.2008 24.7626 39.0821 24.1018 39.9634L24.5462 40.2947C25.2001 39.4203 25.8862 38.546 26.5838 37.6992Z" fill="white"/>
<path d="M35.4551 27.865C34.617 28.5806 33.7835 29.3261 32.9777 30.0785L33.3553 30.4835C34.1565 29.7357 34.9831 28.9948 35.8143 28.2861L35.4551 27.865Z" fill="white"/>
<path d="M30.5969 32.4001C29.8256 33.1871 29.0612 34.0016 28.3221 34.8254L28.7343 35.1958C29.4665 34.379 30.2263 33.569 30.993 32.789L30.5969 32.4001Z" fill="white"/>
<path d="M40.2165 24.1213C39.4774 24.6552 38.7429 25.2028 38.0269 25.7619L38.3676 26.1968C39.0008 25.7044 39.6478 25.2189 40.2994 24.7449L40.2165 24.1213Z" fill="white"/>
<path d="M71.205 11.5878L71.1083 11.0425C70.1274 11.2151 69.1397 11.4152 68.1635 11.6269L68.2348 12.1769C69.218 11.9606 70.2149 11.7627 71.205 11.5878Z" fill="white"/>
<path d="M87.4762 159.609L87.5476 160.159C88.6251 160.11 89.7165 160.039 90.7894 159.947L90.741 159.395C89.6612 159.489 88.5629 159.56 87.4762 159.609Z" fill="white"/>
<path d="M22.1655 42.667C21.5415 43.5782 20.9314 44.5147 20.3489 45.4535L20.8186 45.7457C21.3965 44.8138 22.0043 43.8842 22.6214 42.9776L22.1655 42.667Z" fill="white"/>
<path d="M18.6543 48.3181C18.1155 49.2799 17.5883 50.267 17.0886 51.2564L17.5813 51.5049C18.0764 50.5247 18.599 49.5445 19.1355 48.5896L18.6543 48.3181Z" fill="white"/>
<path d="M11.2888 66.8318C11.0194 67.904 10.773 68.9993 10.552 70.083L11.0954 70.1935C11.3141 69.1166 11.5605 68.0306 11.8252 66.9675L11.2888 66.8318Z" fill="white"/>
<path d="M15.6565 54.2615C15.2029 55.2693 14.7654 56.3001 14.3579 57.3264L14.8714 57.5311C15.2766 56.5118 15.7117 55.4879 16.1607 54.4893L15.6565 54.2615Z" fill="white"/>
<path d="M13.1929 60.4487C12.8315 61.4934 12.4861 62.5587 12.1707 63.6195L12.7002 63.7782C13.0133 62.7267 13.3564 61.6682 13.7156 60.6305L13.1929 60.4487Z" fill="white"/>
<path d="M156.381 106.567C156.699 105.506 156.996 104.425 157.265 103.355L156.729 103.219C156.462 104.282 156.165 105.354 155.852 106.408L156.381 106.567Z" fill="white"/>
<path d="M152.552 54.7746L153.059 54.5514C152.612 53.5436 152.135 52.5312 151.643 51.5417L151.148 51.788C151.636 52.7705 152.108 53.776 152.552 54.7746Z" fill="white"/>
<path d="M142.226 37.9708L142.656 37.621C141.959 36.7651 141.233 35.916 140.499 35.0923L140.087 35.4604C140.814 36.2773 141.533 37.1217 142.226 37.9708Z" fill="white"/>
<path d="M119.342 151.588C120.316 151.077 121.292 150.534 122.243 149.977L121.964 149.498C121.02 150.051 120.051 150.589 119.086 151.097L119.342 151.588Z" fill="white"/>
<path d="M146.161 43.2561L146.619 42.9454C146.002 42.0343 145.355 41.1231 144.696 40.2395L144.252 40.5685C144.906 41.4475 145.548 42.3518 146.161 43.2561Z" fill="white"/>
<path d="M84.5107 10.4259V9.87369C83.4079 9.87139 82.2889 9.8944 81.1837 9.94042L81.2067 10.4927C82.305 10.4466 83.4148 10.4236 84.5107 10.4259Z" fill="white"/>
<path d="M74.4675 11.0816L74.6287 11.0609C75.7177 10.9182 76.8229 10.7986 77.9119 10.7042L77.8636 10.1543C76.7676 10.2486 75.6555 10.3706 74.555 10.5132L74.3961 10.534L74.4675 11.0816Z" fill="white"/>
<path d="M91.1072 10.7298L91.1578 10.1798C90.0572 10.0809 88.9406 10.005 87.8377 9.95435L87.8124 10.5066C88.9083 10.5549 90.0158 10.6308 91.1072 10.7298Z" fill="white"/>
<path d="M110.397 15.1292L110.593 14.6115C109.552 14.2226 108.495 13.8545 107.445 13.5139L107.275 14.0408C108.315 14.3768 109.365 14.7449 110.397 15.1292Z" fill="white"/>
<path d="M104.104 13.0906L104.252 12.5567C103.188 12.2645 102.099 11.9907 101.017 11.7422L100.895 12.2806C101.968 12.5268 103.048 12.8006 104.104 13.0906Z" fill="white"/>
<path d="M97.6506 11.6178L97.7496 11.0748C96.6606 10.8769 95.5554 10.7021 94.4641 10.5525L94.3904 11.1001C95.4725 11.2497 96.5708 11.4223 97.6506 11.6178Z" fill="white"/>
<path d="M149.61 48.868L150.093 48.5988C149.559 47.6347 148.995 46.6706 148.419 45.7341L147.947 46.0241C148.518 46.9536 149.078 47.9108 149.61 48.868Z" fill="white"/>
<path d="M140.197 135.343C140.934 134.521 141.664 133.675 142.366 132.823L141.938 132.471C141.243 133.316 140.517 134.158 139.783 134.972L140.197 135.343Z" fill="white"/>
<path d="M144.425 130.209C145.088 129.328 145.739 128.419 146.363 127.508L145.907 127.195C145.286 128.099 144.639 129.004 143.98 129.878L144.425 130.209Z" fill="white"/>
<path d="M148.184 124.722C148.769 123.783 149.338 122.821 149.881 121.859L149.398 121.588C148.859 122.543 148.295 123.5 147.715 124.429L148.184 124.722Z" fill="white"/>
<path d="M125.07 148.24C125.994 147.641 126.919 147.016 127.819 146.378L127.499 145.927C126.606 146.562 125.687 147.184 124.769 147.775L125.07 148.24Z" fill="white"/>
<path d="M151.447 118.923C151.947 117.936 152.43 116.926 152.886 115.92L152.382 115.693C151.93 116.691 151.452 117.694 150.954 118.675L151.447 118.923Z" fill="white"/>
<path d="M130.483 144.395C131.351 143.718 132.219 143.012 133.06 142.294L132.701 141.873C131.865 142.586 131.006 143.286 130.145 143.958L130.483 144.395Z" fill="white"/>
<path d="M135.539 140.085C136.348 139.33 137.149 138.553 137.92 137.766L137.524 137.379C136.757 138.159 135.963 138.935 135.162 139.68L135.539 140.085Z" fill="white"/>
<path d="M158.089 73.7323L158.637 73.6495C158.469 72.5543 158.276 71.4521 158.064 70.3752L157.521 70.4834C157.73 71.5487 157.924 72.644 158.089 73.7323Z" fill="white"/>
<path d="M154.187 112.858C154.597 111.832 154.99 110.782 155.354 109.738L154.832 109.556C154.47 110.591 154.081 111.634 153.673 112.653L154.187 112.858Z" fill="white"/>
<path d="M154.956 60.9227L155.481 60.7433C155.124 59.6986 154.739 58.6471 154.339 57.6208L153.823 57.821C154.221 58.8427 154.604 59.885 154.956 60.9227Z" fill="white"/>
<path d="M156.807 67.2574L157.344 67.1262C157.083 66.0563 156.793 64.9748 156.485 63.9141L155.953 64.0682C156.259 65.1221 156.547 66.1943 156.807 67.2574Z" fill="white"/>
<path d="M159.356 80.2577C159.287 79.1625 159.188 78.0465 159.068 76.9443L158.518 77.0042C158.637 78.0971 158.732 79.2039 158.803 80.2922L159.356 80.2577Z" fill="white"/>
<path d="M158.004 100.104C158.225 99.0221 158.426 97.9222 158.598 96.8316L158.053 96.7441C157.882 97.8256 157.684 98.9185 157.466 99.9931L158.004 100.104Z" fill="white"/>
<path d="M159.045 93.5366C159.169 92.4414 159.271 91.3254 159.344 90.2255L158.792 90.1887C158.718 91.2817 158.619 92.3861 158.495 93.4768L159.045 93.5366Z" fill="white"/>
<path d="M159.496 86.903C159.522 85.7985 159.524 84.6803 159.501 83.5781L158.948 83.5896C158.971 84.6826 158.969 85.7939 158.944 86.8892L159.496 86.903Z" fill="white"/>
<path d="M104.961 130.198C102.235 125.547 94.5977 124.54 98.6316 121.594C98.5165 121.677 100.174 120.225 100.577 119.77C100.748 119.576 100.87 119.445 100.971 119.342C101.028 119.231 101.1 119.102 101.201 118.923C101.371 118.626 102.016 116.976 101.818 117.667C101.989 117.131 102.15 116.59 102.258 116.035C102.306 115.755 102.345 115.557 102.371 115.428C102.398 115.108 102.435 114.788 102.454 114.466C102.5 113.601 102.541 112.736 102.55 111.868C102.573 109.963 102.557 108.058 102.553 106.155C102.548 103.638 103.379 101.661 104.682 100.216C102.327 98.6975 99.7713 98.4973 98.8503 99.802L98.5234 100.267L97.0867 102.303L97.0015 102.423L95.9262 101.666L97.3514 99.6478L98.7974 97.5977L99.9624 95.9479C100.929 94.5788 99.7321 92.073 97.2962 90.3542C94.8556 88.6354 92.095 88.3501 91.128 89.7192L89.9629 91.3713L88.5147 93.4214L87.0918 95.4394L86.0166 94.6823L92.5186 85.4693L92.5094 85.4624C92.5624 85.3888 92.6176 85.3266 92.6706 85.253L101.22 73.1407C102.783 70.9249 102.071 67.7335 99.6355 66.017C97.1949 64.2958 93.9508 64.6985 92.3874 66.9143L83.8385 79.0266C83.7855 79.1002 83.7441 79.1739 83.698 79.2521L83.6842 79.2429L64.8618 105.911L59.8932 115.642L58.4979 88.7159C59.2531 85.5429 59.7205 82.4665 57.0957 80.6166C54.4756 78.7689 50.8446 79.3948 48.9935 82.0178L47.4555 104.567C47.4555 104.567 44.8537 110.725 46.6611 120.354L50.8976 128.87C30.1665 171.67 37.1659 160.879 34.3224 164.827L73.6548 176.222C74.6725 172.158 87.2069 145.234 87.2069 145.234C88.6575 144.772 92.7466 143.539 94.8073 142.455C95.7904 141.937 97.409 140.904 99.3707 138.486C102.928 133.612 105.854 131.721 104.961 130.198Z" fill="#EDA677"/>
<path d="M118.856 57.2618C116.416 55.5407 113.171 55.9434 111.608 58.1592L103.059 70.2715C103.006 70.3451 102.965 70.4187 102.919 70.497L102.905 70.4878L84.0825 97.1559L84.002 97.0984C84.0181 97.2042 84.0342 97.3101 84.0526 97.4182C84.6881 101.355 84.9736 105.934 86.3596 109.747C86.3642 109.751 86.3689 109.756 86.3735 109.761C86.3919 109.77 86.408 109.777 86.4264 109.786C86.4517 109.62 86.6751 109.82 86.7971 109.981C86.8224 109.995 86.8478 110.009 86.8708 110.023C86.9422 110.044 87.0043 110.062 87.0941 110.09C87.6145 110.26 88.1394 110.412 88.669 110.55C88.7058 110.559 88.745 110.566 88.7841 110.575C88.7864 110.573 88.791 110.566 88.7933 110.561C89.3735 109.77 89.9491 108.976 90.5132 108.175C94.0152 103.189 97.2547 98.0303 100.326 92.7703C101.846 90.1656 104.162 88.7942 106.603 88.433C106.522 87.7312 106.517 87.0133 106.589 86.2977L106.317 86.6842L105.242 85.9272L107.908 82.149C108.182 81.6727 108.493 81.2309 108.838 80.8283L111.744 76.7142L111.735 76.7073C111.785 76.6336 111.843 76.5715 111.896 76.4979L120.445 64.3856C122.006 62.1698 121.292 58.9806 118.856 57.2618Z" fill="#EDA677"/>
<path fill-rule="evenodd" clip-rule="evenodd" d="M114.067 129.162C114.067 130.888 112.63 132.299 110.869 132.299H61.118C59.3589 132.299 57.9199 130.888 57.9199 129.162V29.3305C57.9199 27.6048 59.3589 26.1943 61.118 26.1943H110.869C112.628 26.1943 114.067 27.6048 114.067 29.3305V129.162Z" fill="#1B384C"/>
<path fill-rule="evenodd" clip-rule="evenodd" d="M108.949 37.9084H107.604H105.035H102.11H99.6699H99.5041H96.2347H88.0104H85.16H82.2359H79.4983H75.3954H72.8489H64.8111H64.5187H61.9676H60.5009V49.2246L60.4963 49.2223V52.2687L60.5009 52.2733L60.4986 60.6811V70.8651H60.4963V73.3824H60.4986V98.6492H60.4963V100.936V112.616V115.663V115.665V123.267H60.6782H63.3099H69.1512H72.4782H72.8489H75.0017H75.3954H77.9188H78.2918H80.5114H88.2913H88.4179H91.1946H98.0904H100.922H101.546H104.936H111.491V116.295V111.631V110.522V109.114V106.371V105.175V102.071V73.3824V70.8651V64.2153V60.6811V45.619V42.8164V37.9084H108.949Z" fill="#DDDBDB"/>
<path fill-rule="evenodd" clip-rule="evenodd" d="M60.4963 36.6453V36.6936H60.5009L60.4986 37.2205V37.8602H60.4963V38.0166H60.4986V39.602H60.4963V39.747V40.4787V40.6696V41.2012V41.2817H111.491V36.6453H60.4963Z" fill="#E9E9F0"/>
<path d="M67.8457 208.849L91.7334 158.527L39.5488 133.787L3.9187 208.849H67.8457Z" fill="white"/>
<path d="M77.6794 162.356C78.955 163.049 80.5598 162.586 81.2528 161.307C81.9504 160.03 81.4784 158.433 80.2029 157.738C78.9296 157.041 77.3225 157.508 76.6295 158.785C75.9342 160.062 76.4039 161.661 77.6794 162.356Z" fill="#0E2A30"/>
<path d="M70.5465 208.849L88.3213 171.403L30.7329 144.102L0 208.849H70.5465Z" fill="#1B384C"/>
<path opacity="0.2" fill-rule="evenodd" clip-rule="evenodd" d="M88.8116 127.94C88.8116 129.496 87.5499 130.757 85.9935 130.757C84.437 130.757 83.1753 129.496 83.1753 127.94C83.1753 126.385 84.4347 125.124 85.9935 125.124C87.5499 125.124 88.8116 126.385 88.8116 127.94Z" fill="white"/>
<path d="M76.7424 37.9338H62.4052V39.5008H76.7424V37.9338Z" fill="#1B384C"/>
<path d="M87.6259 37.9338H80.9052V39.5008H87.6259V37.9338Z" fill="#1B384C"/>
<path d="M76.5466 133.964C76.7423 133.171 76.915 132.374 77.0508 131.583C76.9081 131.155 77.3455 122.685 67.4566 115.762C62.8794 112.559 57.4825 113.274 55.0096 113.5V133.962H76.5466V133.964Z" fill="#EDA677"/>
<path d="M81.0963 44.5398C80.7993 44.7607 77.6726 47.018 76.9243 50.1266C76.5974 51.4887 77.4861 58.249 77.546 59.7055C77.5759 60.4671 78.3426 59.4225 78.8307 59.9264C78.7432 59.0451 85.2062 53.2191 86.4932 52.913C87.3912 52.7013 93.7021 57.1284 93.6446 58.0879C93.6031 58.7644 93.808 59.2476 93.7505 59.9241C93.7988 59.9471 93.8449 59.9724 93.8909 59.9954C94.0682 59.5352 94.9892 59.4386 95.0928 58.9577C95.3253 57.8762 95.2747 53.838 94.9685 51.8684C94.4688 46.3967 91.5079 45.7432 88.4825 45.6213C80.9351 45.3153 82.0933 43.7943 81.0963 44.5398Z" fill="black"/>
<path d="M78.6235 73.2144L91.5056 75.9894C90.6192 75.3957 93.0506 72.6921 92.2125 71.3759C91.7474 70.6465 92.4957 68.2558 92.795 67.4436C91.4504 69.4546 89.1917 70.7754 86.6314 70.7754C84.002 70.7754 81.6904 69.381 80.3596 67.2756C80.3872 67.3332 80.4148 67.3907 80.4425 67.4459C80.9467 68.4951 81.916 70.635 81.094 71.7349C80.9467 71.9374 79.1047 72.6047 78.6235 73.2144Z" fill="#E3AC91"/>
<path d="M86.0097 53.1524C84.3957 53.9233 82.7679 54.0935 81.0986 53.3342C80.6496 53.1294 80.1869 52.9546 79.5836 52.7061C79.2774 54.9978 78.9804 57.2159 78.6765 59.4824C78.5176 59.1971 78.4117 58.8588 78.1906 58.6448C77.9627 58.4239 77.6173 58.2031 77.3249 58.2054C77.1338 58.2077 76.8414 58.5827 76.7747 58.8358C76.4362 60.1589 76.6227 61.429 77.3779 62.5772C77.5229 62.7981 78.6235 63.3986 78.7087 63.5689C79.0817 64.3052 79.2429 64.9794 79.6066 65.7226C79.8599 66.2403 80.1109 66.7557 80.3595 67.2757C81.6673 69.3443 83.9214 70.7249 86.4932 70.7732V52.9131C86.3343 52.996 86.1732 53.0742 86.0097 53.1524Z" fill="#F8D0A3"/>
<path d="M96.2071 58.9715C96.1081 58.6356 95.8019 58.1662 95.5348 58.127C95.2608 58.0879 94.8625 58.4492 94.6277 58.7253C94.379 59.0221 94.2616 59.4248 94.0106 59.9356C93.9945 59.6112 93.9968 59.4708 93.9807 59.3304C93.7228 57.1123 93.4557 54.8965 93.214 52.6784C93.1472 52.0709 92.8387 51.7212 92.2539 51.6728C91.5171 51.613 90.7688 51.5417 90.0389 51.6084C88.7473 51.7235 87.6283 52.3424 86.4955 52.9108V70.7708C86.5415 70.7708 86.5853 70.7731 86.6313 70.7731C89.1916 70.7731 91.4503 69.4524 92.7949 67.4413C92.8387 67.3286 93.8425 65.9089 94.2869 63.5044C94.3168 63.3387 94.7957 63.2283 94.9201 63.1109C95.2217 62.8256 95.6476 62.6116 95.8272 62.2665C96.3637 61.2333 96.5456 60.1082 96.2071 58.9715Z" fill="#EDBDA9"/>
<path d="M109.25 95.0459L106.103 76.3114L92.2124 71.1941L86.3712 74.0082L81.4578 71.1941L65.9739 75.9088L63.0544 95.0459H109.25Z" fill="#161D21"/>
<path d="M91.6276 95.0459L94.2524 72.0961L92.7489 71.2908L86.4771 73.9806L80.2029 71.5163L78.8468 72.0823L81.8561 95.0459H91.6276Z" fill="white"/>
<path d="M81.2759 71.0146L86.4771 73.9806L83.6198 78.0395L79.1554 71.9166L81.2759 71.0146Z" fill="#E5E1E1"/>
<path d="M92.095 70.8721L86.5024 73.9807L89.3874 77.8601L93.9623 71.8385L92.095 70.8721Z" fill="#E5E1E1"/>
<path fill-rule="evenodd" clip-rule="evenodd" d="M95.9931 95.046L99.0346 87.4045L95.0445 84.1073L99.9211 81.2863L95.5718 72.4322L93.891 71.8132L91.0498 95.046H95.9931Z" fill="black"/>
<path fill-rule="evenodd" clip-rule="evenodd" d="M73.991 87.225L77.1039 95.046H82.0357L79.5215 71.7603L77.9121 72.2734L73.1046 81.1045L77.9789 83.9277L73.991 87.225Z" fill="black"/>
<path d="M83.7418 95.046H89.1917L87.5685 79.9195L88.8716 77.2389L86.4886 73.8611L84.1632 77.2389L85.4709 79.9333L83.7418 95.046Z" fill="#E74C3C"/>
<path d="M118.914 107.501C119.565 109.958 118.17 112.457 115.799 113.088L104.899 115.975C102.527 116.601 100.075 115.122 99.4259 112.664C98.7743 110.209 100.17 107.706 102.541 107.08L113.441 104.192C115.81 103.564 118.264 105.046 118.914 107.501Z" fill="#EDA677"/>
<path d="M118.053 82.8001C119.208 85.2506 118.373 88.0739 116.188 89.1025L106.142 93.8355C103.955 94.8641 101.247 93.7113 100.091 91.2608C98.9355 88.8102 99.7712 85.9893 101.956 84.9584L112.002 80.2253C114.187 79.1968 116.897 80.3496 118.053 82.8001Z" fill="#EDA677"/>
<path d="M100.941 103.7C100.941 107.041 98.231 109.749 94.8878 109.749H77.417C74.0738 109.749 71.3639 107.041 71.3639 103.7C71.3639 100.359 74.0738 97.6506 77.417 97.6506H94.8878C98.231 97.6506 100.941 100.359 100.941 103.7Z" fill="#52BA4A"/>
<path d="M134.013 112.296C131.471 113.859 130.124 116.277 130.999 117.701L131.446 118.428L130.325 119.119L130.249 118.994L128.943 116.873L128.646 116.39C127.771 114.965 124.999 115.073 122.457 116.633C119.913 118.198 118.566 120.616 119.443 122.041L119.74 122.524L121.043 124.645L121.119 124.77L120 125.458L118.709 123.357L117.396 121.222L116.34 119.503C115.462 118.076 112.688 118.187 110.151 119.747C107.609 121.307 106.26 123.73 107.137 125.156L108.194 126.875L109.508 129.01L110.8 131.111L109.679 131.799L103.778 122.204L103.768 122.211C103.72 122.135 103.685 122.057 103.639 121.979L96.6653 110.685C95.2447 108.378 92.0328 107.775 89.4955 109.333C86.9536 110.893 86.0442 114.029 87.4625 116.337L94.4365 127.63C94.4849 127.708 94.5355 127.775 94.5885 127.846L94.5747 127.855L111.659 155.632L110.178 156.544L105.686 149.238C104.005 146.505 100.427 145.653 97.6922 147.333C94.9638 149.008 94.1073 152.586 95.7858 155.32L106.161 169.951C106.161 169.951 109.147 172.938 111.267 173.005L127.248 177.494C129.063 180.494 131.409 184.397 133.919 188.562L165.998 170.948C160.295 161.675 155.311 153.502 155.311 153.502C155.458 151.988 155.937 144.875 155.75 142.558C155.522 139.687 150.696 129.634 145.408 120.837L143.969 118.184L142.488 115.778L142.062 115.087L141.033 113.414L140.197 112.057C139.327 110.626 136.557 110.734 134.013 112.296Z" fill="#EDA677"/>
<path d="M201.138 208.849L169.563 157.51L120.403 187.706L133.405 208.849H201.138Z" fill="white"/>
<path d="M165.119 171.357C166.394 170.667 166.88 169.072 166.187 167.795C165.496 166.516 163.901 166.04 162.625 166.732C161.348 167.418 160.862 169.017 161.552 170.294C162.243 171.569 163.839 172.045 165.119 171.357Z" fill="#0E2A30"/>
<path d="M204 208.849L178.496 167.381L124.244 200.704L129.254 208.849H204Z" fill="#1B384C"/>
<path d="M80.2075 104.445L81.6925 104.535C81.6235 105.184 81.384 105.681 80.9742 106.026C80.5644 106.371 80.0601 106.544 79.4638 106.544C78.7454 106.544 78.1652 106.307 77.7232 105.83C77.2811 105.356 77.0601 104.698 77.0601 103.863C77.0601 103.035 77.2696 102.365 77.6886 101.857C78.1077 101.348 78.6902 101.093 79.4408 101.093C80.1407 101.093 80.6795 101.286 81.0548 101.673C81.4301 102.059 81.6442 102.575 81.6925 103.214L80.1776 103.295C80.1776 102.94 80.1108 102.685 79.9749 102.529C79.8391 102.372 79.6802 102.292 79.496 102.292C78.9849 102.292 78.7293 102.805 78.7293 103.833C78.7293 104.408 78.7961 104.8 78.9296 105.007C79.0632 105.214 79.2497 105.317 79.4891 105.317C79.9151 105.322 80.1568 105.03 80.2075 104.445Z" fill="white"/>
<path d="M85.1139 106.463L84.8146 105.421H83.3963L83.0786 106.463H81.7593L83.3917 101.176H85.1093L86.7694 106.463H85.1139ZM83.6726 104.268H84.5291L84.1008 102.736L83.6726 104.268Z" fill="white"/>
<path d="M90.9668 105.168V106.463H87.2576V101.176H88.8808V105.165H90.9668V105.168Z" fill="white"/>
<path d="M95.2423 105.168V106.463H91.5331V101.176H93.1563V105.165H95.2423V105.168Z" fill="white"/>
<path d="M118.676 97.05C119.307 99.604 117.887 102.151 115.504 102.74L104.558 105.439C102.175 106.026 99.7321 104.431 99.1035 101.877C98.4726 99.3233 99.8909 96.7762 102.274 96.1871L113.222 93.4881C115.603 92.899 118.048 94.4936 118.676 97.05Z" fill="#EDA677"/>
<path d="M85.7403 67.5195C85.3673 67.5195 85.0472 67.7312 84.8884 68.0418C79.4523 67.0524 78.9619 63.6723 78.9665 63.5388C78.8353 63.5388 78.6603 63.6999 78.6603 63.9185C78.6603 64.0266 78.5935 67.7358 84.8492 68.8356C84.9897 69.19 85.3351 69.4408 85.738 69.4408C86.2675 69.4431 86.7004 69.0128 86.7004 68.4836C86.6981 67.9521 86.2698 67.5195 85.7403 67.5195Z" fill="#2D2D2D"/>
</g>
<defs>
<clipPath id="clip0_1_11442">
<rect width="204" height="208" fill="white" transform="translate(0 0.849121)"/>
</clipPath>
</defs>
</svg>
