<svg xmlns="http://www.w3.org/2000/svg" width="16" height="17" viewBox="0 0 16 17" fill="none">
  <path d="M10.4889 6.20242L11.7333 4.95798M11.7333 4.95798L12.9778 3.71353M11.7333 4.95798L10.4889 3.71353M11.7333 4.95798L12.9778 6.20242M3.64447 3.09131C2.95718 3.09131 2.40002 3.64847 2.40002 4.33575V4.95798C2.40002 10.1126 6.5787 14.2913 11.7334 14.2913H12.3556C13.0429 14.2913 13.6 13.7342 13.6 13.0469V11.0064C13.6 10.7386 13.4286 10.5008 13.1746 10.4162L10.3786 9.48418C10.0849 9.38626 9.76383 9.51925 9.62535 9.79621L8.92309 11.2007C7.40193 10.5149 6.17645 9.2894 5.49061 7.76824L6.89512 7.06598C7.17208 6.9275 7.30507 6.60644 7.20715 6.31268L6.27518 3.51677C6.19048 3.26269 5.95271 3.09131 5.68489 3.09131H3.64447Z" stroke="#E3E5E8" stroke-linecap="round" stroke-linejoin="round"/>
</svg>