<svg width="20" height="20" viewBox="0 0 20 20" fill="none" xmlns="http://www.w3.org/2000/svg">
<g id="Media / Icon/32px/No/camera">
<g id="Icon">
<path d="M1.875 7.29172C1.875 6.29454 2.68337 5.48617 3.68056 5.48617H4.51981C5.1235 5.48617 5.68725 5.18445 6.02212 4.68215L6.75566 3.58185C7.09053 3.07954 7.65428 2.77783 8.25797 2.77783H11.742C12.3457 2.77783 12.9095 3.07954 13.2443 3.58185L13.9779 4.68215C14.3127 5.18446 14.8765 5.48617 15.4802 5.48617H16.3194C17.3166 5.48617 18.125 6.29454 18.125 7.29172V15.4167C18.125 16.4139 17.3166 17.2223 16.3194 17.2223H3.68056C2.68337 17.2223 1.875 16.4139 1.875 15.4167V7.29172Z" stroke="#F1F2F3" stroke-width="2" stroke-linecap="round" stroke-linejoin="round"/>
<path d="M12.7083 10.9028C12.7083 12.3986 11.4958 13.6112 10 13.6112C8.50423 13.6112 7.29167 12.3986 7.29167 10.9028C7.29167 9.40706 8.50423 8.1945 10 8.1945C11.4958 8.1945 12.7083 9.40706 12.7083 10.9028Z" stroke="#F1F2F3" stroke-width="2" stroke-linecap="round" stroke-linejoin="round"/>
</g>
</g>
</svg>
