<svg xmlns="http://www.w3.org/2000/svg" width="17" height="14" viewBox="0 0 17 14" fill="none">
  <path d="M4.59194 2.59169C4.62556 2.41483 4.6557 2.23064 4.69627 2.04871C4.8922 1.17904 5.41969 0.575234 6.29207 0.312193C7.66297 -0.101236 9.05241 -0.105179 10.4245 0.307124C11.3838 0.595511 11.9061 1.27705 12.0736 2.2267C12.0916 2.32865 12.1055 2.4306 12.1229 2.53255C12.1258 2.55057 12.1339 2.56803 12.1408 2.58887C12.2284 2.63956 12.3269 2.61422 12.4202 2.61422C13.1732 2.61647 13.9268 2.60915 14.6797 2.6176C15.6304 2.6283 16.3631 3.34983 16.3636 4.27019C16.3654 6.96311 16.366 9.65603 16.3636 12.349C16.3631 13.2958 15.6368 13.9982 14.6583 13.9987C10.4575 14.0004 6.25729 14.0004 2.05651 13.9987C1.09833 13.9987 0.366803 13.2907 0.366223 12.3636C0.364484 9.6611 0.365064 6.95861 0.366803 4.25667C0.367383 3.35433 1.10181 2.63112 2.03564 2.61816C2.87499 2.6069 3.71491 2.61028 4.55484 2.6069C4.56353 2.6069 4.57281 2.60014 4.59194 2.59225V2.59169ZM1.41599 6.08105C1.39628 6.08387 1.37599 6.08669 1.35628 6.0895C1.35628 6.1509 1.35628 6.21173 1.35628 6.27312C1.35628 8.25297 1.35628 10.2334 1.35628 12.2132C1.35628 12.7815 1.61887 13.0373 2.20258 13.0378C6.30657 13.0378 10.4111 13.0378 14.5151 13.0378C15.1162 13.0378 15.3736 12.7855 15.3742 12.1969C15.3742 10.226 15.3747 8.25578 15.3724 6.28495C15.3724 6.21905 15.4142 6.13851 15.3208 6.06923C15.1742 6.31649 15.0287 6.557 14.8884 6.80033C14.7052 7.11688 14.4577 7.37541 14.1551 7.58607C13.6462 7.94149 13.0851 8.13074 12.4521 8.12398C11.6736 8.11553 10.8946 8.12173 10.0923 8.12173C10.0923 8.3183 10.0952 8.48559 10.0923 8.65231C10.079 9.31301 9.617 9.75911 8.9359 9.76587C8.54984 9.76981 8.16321 9.77094 7.77716 9.76587C7.11519 9.75686 6.65378 9.30851 6.63813 8.66414C6.63407 8.48897 6.63755 8.3138 6.63755 8.12173C5.82197 8.12173 5.04117 8.13018 4.26095 8.11947C3.17989 8.10539 2.35677 7.64465 1.8061 6.73612C1.67451 6.5187 1.54525 6.29903 1.41483 6.08105H1.41599ZM10.101 7.14054C10.9212 7.14054 11.7119 7.14223 12.5025 7.14054C13.19 7.13828 13.703 6.83807 14.0467 6.26411C14.4345 5.6158 14.8177 4.96468 15.202 4.31412C15.3666 4.03587 15.3208 3.86408 15.0385 3.69285C14.9029 3.61062 14.7551 3.58471 14.5963 3.58471C10.4424 3.58583 6.2886 3.58583 2.13476 3.58471C1.94405 3.58471 1.76842 3.62132 1.62234 3.74242C1.43859 3.8945 1.35164 4.0432 1.50989 4.29328C1.91913 4.9399 2.29185 5.60792 2.68486 6.26411C3.03439 6.84821 3.5584 7.14448 4.25805 7.1411C4.6157 7.13941 4.97277 7.1411 5.33042 7.1411C5.76169 7.1411 6.19353 7.1411 6.63813 7.1411C6.63813 7.05211 6.63639 6.99691 6.63813 6.94114C6.659 6.25454 7.10707 5.82759 7.81484 5.82308C8.21074 5.82083 8.60723 5.81745 9.00314 5.82477C9.44947 5.83266 9.77118 6.045 9.97812 6.42408C10.0946 6.63755 10.0935 6.87468 10.101 7.1411V7.14054ZM10.7798 2.60126C10.7624 2.03857 10.5427 1.72991 10.0332 1.53389C9.76075 1.42913 9.47614 1.37787 9.18747 1.35647C8.38638 1.29789 7.58413 1.26747 6.80275 1.49841C6.21846 1.67133 5.96109 2.01717 5.95297 2.60126H10.7792H10.7798ZM9.08487 7.80574C9.08487 7.53425 9.08081 7.2622 9.08661 6.99071C9.08951 6.85046 9.03908 6.78738 8.88547 6.79076C8.53883 6.79808 8.19104 6.79808 7.8444 6.79076C7.68963 6.78738 7.64326 6.85215 7.64442 6.99184C7.64848 7.5258 7.64906 8.05977 7.64384 8.59374C7.6421 8.73793 7.69601 8.79594 7.84556 8.79369C8.19277 8.78806 8.53999 8.78806 8.88663 8.79369C9.03734 8.79594 9.09125 8.73624 9.08719 8.59261C9.08023 8.3307 9.08545 8.06822 9.08487 7.80574Z" fill="#1D5276"/>
</svg>