<svg width="18" height="21" viewBox="0 0 18 21" fill="none" xmlns="http://www.w3.org/2000/svg">
<g id="Group">
<path id="Vector" d="M8.87461 0.75C10.7239 0.752292 12.3716 1.32061 13.7809 2.5237C15.0963 3.64659 15.9442 5.0605 16.2719 6.76317C16.6729 8.85998 16.2536 10.7895 15.0184 12.5357C14.9176 12.6778 14.9084 12.7832 14.9794 12.9413C15.6509 14.4492 16.3154 15.964 16.9823 17.4741C17.0763 17.6872 17.1335 17.8981 17.0029 18.1158C16.8586 18.3564 16.5836 18.4458 16.2857 18.3449C15.5523 18.0974 14.819 17.8476 14.0857 17.5979C13.8841 17.5291 13.8818 17.5314 13.7993 17.7239C13.4968 18.432 13.1943 19.1401 12.8895 19.8459C12.7245 20.2286 12.3556 20.357 12.0301 20.1553C11.8995 20.0728 11.8331 19.9445 11.7735 19.8093C11.3289 18.801 10.8866 17.7927 10.4421 16.7866C10.2862 16.4337 10.1281 16.0831 9.97687 15.7302C9.93333 15.6294 9.87604 15.5904 9.76604 15.6019C9.26647 15.65 8.76461 15.6546 8.26275 15.6019C8.12526 15.5881 8.06567 15.6385 8.01297 15.76C7.4309 17.0891 6.84425 18.4183 6.2576 19.7474C6.23239 19.8047 6.20718 19.8643 6.17739 19.9193C6.06969 20.1278 5.89782 20.247 5.66407 20.247C5.41658 20.247 5.23554 20.1232 5.137 19.8963C4.94451 19.4586 4.76118 19.0187 4.57098 18.581C4.44036 18.2762 4.30515 17.9737 4.17911 17.6689C4.13328 17.5612 4.08058 17.5383 3.96829 17.5795C3.22352 17.8385 2.47416 18.0883 1.7271 18.3426C1.48648 18.4251 1.2619 18.4114 1.08087 18.2166C0.897539 18.0218 0.879206 17.7972 0.986911 17.552C1.6721 16.0006 2.355 14.4492 3.04477 12.9001C3.09977 12.7763 3.08831 12.6938 3.0104 12.5838C2.20604 11.4839 1.73627 10.2556 1.61939 8.89894C1.43377 6.72879 2.07084 4.82218 3.51913 3.20431C4.69931 1.88664 6.18427 1.10062 7.93734 0.837081C8.07713 0.816456 8.21692 0.79354 8.35671 0.782082C8.52399 0.766041 8.69816 0.759166 8.87461 0.75ZM15.2796 8.22521C15.2911 4.75114 12.4862 1.90497 9.03273 1.89122C5.55178 1.87747 2.73311 4.69385 2.7102 8.2C2.68728 11.6145 5.49908 14.4996 8.98231 14.5042C12.4449 14.5088 15.2659 11.7084 15.2796 8.22521ZM5.67782 18.2349C6.10406 17.2633 6.51884 16.3214 6.94508 15.3544C5.8199 15.0015 4.82306 14.4584 3.94537 13.6448C3.46872 14.7288 3.00811 15.7737 2.54291 16.8256C2.64145 16.8531 2.69874 16.8164 2.75603 16.7958C3.22352 16.64 3.68871 16.4796 4.15391 16.3214C4.55952 16.1839 4.81618 16.2985 4.98805 16.695C5.15992 17.0937 5.3295 17.4925 5.50137 17.8889C5.54949 17.9966 5.58387 18.1089 5.67782 18.2349ZM15.4515 16.8187C14.9863 15.7646 14.5257 14.7219 14.0536 13.654C13.1645 14.4561 12.1791 15.0152 11.0516 15.3544C11.4802 16.326 11.8949 17.2656 12.3097 18.212C12.3808 18.1708 12.3876 18.1203 12.4083 18.0768C12.6076 17.6162 12.807 17.1556 13.0064 16.695C13.1759 16.3008 13.4372 16.1839 13.8405 16.3192C14.308 16.475 14.7732 16.6331 15.2407 16.7889C15.298 16.8096 15.3553 16.8462 15.4515 16.8187Z" fill="#464A53"/>
<path id="Vector_2" d="M8.98893 4.22168C9.25246 4.22855 9.41975 4.36147 9.52745 4.57917C9.78182 5.09478 10.0408 5.6081 10.2883 6.12829C10.3524 6.26121 10.4326 6.32308 10.5839 6.34141C11.1591 6.41704 11.7297 6.51099 12.3049 6.5912C12.5524 6.62557 12.722 6.75619 12.7953 6.99223C12.8663 7.2168 12.8044 7.41617 12.6372 7.58117C12.2224 7.98678 11.8122 8.39698 11.3905 8.79572C11.2714 8.90801 11.2462 9.01342 11.2737 9.16696C11.3768 9.72611 11.4662 10.2898 11.5647 10.8513C11.6082 11.0965 11.5395 11.2959 11.3447 11.4471C11.143 11.6029 10.9276 11.5869 10.7122 11.4746C10.2493 11.234 9.77953 11.0048 9.33038 10.7413C9.08976 10.6015 8.90414 10.6015 8.66581 10.7413C8.21207 11.0071 7.74 11.2409 7.27252 11.4815C6.86461 11.69 6.39942 11.4219 6.41775 10.9842C6.42692 10.7871 6.47733 10.59 6.50941 10.393C6.58274 9.95527 6.65608 9.51987 6.73628 9.08217C6.75461 8.98134 6.72941 8.91947 6.65837 8.85072C6.22525 8.42906 5.78985 8.0097 5.36361 7.58117C5.11841 7.33597 5.10237 7.04035 5.30861 6.79515C5.40028 6.68515 5.51944 6.62328 5.65923 6.60266C6.25734 6.51328 6.85315 6.42391 7.45126 6.33912C7.56355 6.32308 7.63459 6.27954 7.68501 6.17413C7.94396 5.63789 8.20978 5.10624 8.47332 4.57459C8.58102 4.35001 8.7506 4.22626 8.98893 4.22168ZM7.01586 7.56742C7.02044 7.63846 7.07315 7.66596 7.10981 7.70262C7.31377 7.90429 7.52001 8.10595 7.72625 8.30532C7.89125 8.46573 7.96 8.65593 7.91417 8.88968C7.86604 9.13259 7.82479 9.37779 7.79271 9.62528C7.78125 9.71465 7.73084 9.80861 7.77896 9.90256C7.84542 9.90944 7.88896 9.87277 7.93479 9.84757C8.18228 9.71924 8.42978 9.59549 8.67269 9.46028C8.89497 9.33654 9.10809 9.34341 9.32579 9.46258C9.57558 9.59549 9.82536 9.72611 10.0774 9.85444C10.121 9.87736 10.1645 9.9209 10.2218 9.88881C10.2447 9.84986 10.2356 9.8109 10.2287 9.77194C10.1783 9.47862 10.1301 9.18529 10.0774 8.89426C10.0362 8.66739 10.0866 8.47031 10.2585 8.30761C10.3731 8.1999 10.4853 8.0922 10.5931 7.97991C10.7237 7.84241 10.8474 7.70033 10.978 7.55596C10.962 7.52846 10.9162 7.53305 10.8726 7.52617C10.5656 7.47805 10.2562 7.42763 9.94911 7.38638C9.73141 7.35659 9.58016 7.2466 9.48621 7.05181C9.35329 6.78598 9.22267 6.52016 9.08747 6.25433C9.06455 6.2085 9.05309 6.15121 8.99809 6.12371C8.9431 6.15121 8.93164 6.20621 8.90872 6.25204C8.77581 6.51328 8.64519 6.77453 8.51686 7.03577C8.41832 7.23514 8.26707 7.35201 8.04479 7.3818C7.84313 7.40701 7.63917 7.4368 7.43751 7.47346C7.29772 7.50784 7.14648 7.50096 7.01586 7.56742Z" fill="#464A53"/>
</g>
</svg>
