<svg width="25" height="24" viewBox="0 0 25 24" fill="none" xmlns="http://www.w3.org/2000/svg">
<g id="Group">
<path id="Vector" d="M22.9029 13.7409C23.0059 13.6465 23.0831 13.5478 23.199 13.5564C23.6108 13.5822 23.6623 13.3462 23.6537 13.0073C23.6323 12.3122 23.628 11.6172 23.658 10.9222C23.6752 10.5661 23.5379 10.4588 23.2118 10.4331C22.6455 10.3902 22.0835 10.3044 21.5172 10.2529C20.9637 10.2057 20.6033 9.93539 20.4446 9.39481C20.3159 8.9572 20.1271 8.54533 19.9169 8.13775C19.7066 7.72588 19.7496 7.32688 20.0327 6.96649C20.4231 6.46882 20.8136 5.97114 21.2211 5.48634C21.3927 5.28469 21.4228 5.14311 21.2125 4.94576C20.6462 4.40518 20.0928 3.84744 19.5436 3.28541C19.3591 3.09663 19.2261 3.10951 19.0331 3.27254C18.5697 3.66296 18.0806 4.02763 17.613 4.40947C17.2054 4.74411 16.7807 4.80418 16.313 4.55963C15.9183 4.3537 15.515 4.18208 15.0903 4.05337C14.5583 3.89034 14.2837 3.53854 14.2451 2.97222C14.2065 2.39302 14.125 1.81812 14.0692 1.23893C14.0434 0.96864 13.9405 0.844221 13.6401 0.852802C12.8808 0.874253 12.1214 0.874253 11.3663 0.852802C11.066 0.844221 10.9673 0.96435 10.9458 1.23893C10.8944 1.83099 10.8128 2.41877 10.7614 3.01083C10.7099 3.51708 10.4739 3.86031 9.98481 4.02334C9.53003 4.1735 9.09242 4.37086 8.65052 4.56821C8.22578 4.76127 7.80533 4.7484 7.4192 4.43092C6.93439 4.03621 6.42814 3.65437 5.94333 3.25109C5.75456 3.09663 5.63014 3.10951 5.46282 3.28112C4.90508 3.85173 4.34305 4.41376 3.77243 4.9715C3.59653 5.14311 3.6094 5.27182 3.75956 5.45201C4.16285 5.93682 4.55327 6.4345 4.94798 6.92788C5.25688 7.31401 5.29979 7.73017 5.0724 8.16778C4.85359 8.59681 4.67769 9.043 4.52324 9.49778C4.38166 9.92252 4.08992 10.1714 3.64373 10.2271C3.01305 10.2958 2.38666 10.373 1.75599 10.4331C1.46854 10.4588 1.33983 10.5661 1.3527 10.8835C1.37415 11.6429 1.36986 12.4023 1.35699 13.1574C1.3527 13.4105 1.42992 13.5221 1.69163 13.5435C2.30944 13.5993 2.92295 13.6851 3.53647 13.7495C4.04272 13.801 4.38166 14.0541 4.5404 14.5389C4.69056 14.998 4.90079 15.427 5.08527 15.8689C5.25688 16.2765 5.24401 16.6969 4.9394 17.0659C4.54469 17.5464 4.17143 18.0398 3.77243 18.5117C3.59224 18.7219 3.6094 18.8635 3.80676 19.0523C4.36021 19.5886 4.90937 20.1292 5.44137 20.6912C5.63872 20.8971 5.7803 20.8757 5.98195 20.7084C6.43672 20.3265 6.91723 19.9747 7.37201 19.5929C7.78817 19.2454 8.22149 19.181 8.702 19.4341C9.09242 19.6401 9.5 19.816 9.92474 19.9404C10.4739 20.1034 10.7142 20.4853 10.7571 21.0301C10.8043 21.5836 10.8772 22.137 10.9244 22.6905C10.9501 22.9908 11.0488 23.1367 11.392 23.1238C12.1385 23.0981 12.8851 23.1024 13.6316 23.1238C13.9491 23.1324 14.0563 22.9994 14.0821 22.7162C14.1335 22.1242 14.2065 21.5364 14.258 20.9443C14.2966 20.5367 14.4811 20.2278 14.8457 20.0348C15.0302 19.9361 15.1718 19.9318 15.2705 20.1592C15.3434 20.3308 15.4421 20.4938 15.5408 20.6912C15.1503 20.7727 15.1074 21.0559 15.0817 21.3734C15.0345 21.9397 14.9659 22.506 14.8843 23.068C14.7985 23.6644 14.421 23.9904 13.8332 23.9947C12.9494 24.0033 12.0613 24.0033 11.1775 23.9947C10.5854 23.9904 10.2036 23.6558 10.1178 23.068C10.0277 22.4416 9.96335 21.811 9.90758 21.1846C9.88613 20.9357 9.78316 20.8113 9.5429 20.7298C9.14819 20.5968 8.76207 20.4295 8.3931 20.245C8.19145 20.1463 8.05416 20.1678 7.88684 20.3051C7.40204 20.7084 6.90436 21.0988 6.40669 21.4892C5.93475 21.8582 5.39417 21.841 4.96514 21.4206C4.33018 20.8027 3.70808 20.1764 3.09028 19.5414C2.65695 19.0995 2.63121 18.6061 3.01734 18.1084C3.39489 17.615 3.78102 17.1345 4.18001 16.6583C4.33876 16.4695 4.36879 16.2979 4.24866 16.0791C4.04701 15.7144 3.88827 15.3283 3.77243 14.925C3.69521 14.6976 3.56221 14.6032 3.32195 14.5861C2.72989 14.5389 2.13783 14.4745 1.55005 14.4059C0.824991 14.3158 0.503218 13.9511 0.503218 13.2218C0.498927 12.3852 0.498927 11.5528 0.503218 10.7162C0.507508 10.0512 0.872185 9.66081 1.53718 9.59216C2.09063 9.5321 2.64408 9.47204 3.19753 9.42484C3.49785 9.3991 3.70379 9.3133 3.79818 8.97436C3.89685 8.61397 4.06418 8.26217 4.23579 7.92752C4.35163 7.70014 4.33018 7.53711 4.17572 7.34404C3.78102 6.86782 3.39489 6.38301 3.01734 5.88963C2.62263 5.37908 2.65266 4.88998 3.10744 4.43092C3.70808 3.81741 4.3173 3.20818 4.93082 2.60754C5.39417 2.14419 5.90043 2.11844 6.41956 2.52173C6.8872 2.88641 7.35055 3.25538 7.80533 3.63721C8.01555 3.81312 8.19575 3.84744 8.45316 3.71444C8.80926 3.52996 9.1911 3.38409 9.56864 3.25109C9.77887 3.17815 9.86897 3.0666 9.89042 2.8478C9.9419 2.28148 10.0277 1.71944 10.0749 1.15312C10.1307 0.470964 10.4353 -0.0138413 11.3448 -0.000970398C12.1557 0.00761022 12.9623 -0.000970398 13.7731 0.00331991C14.4639 0.00761022 14.82 0.325093 14.9058 1.01583C14.9787 1.60361 15.0431 2.19567 15.0989 2.78773C15.1246 3.04086 15.2147 3.19102 15.4807 3.27254C15.8754 3.40125 16.2572 3.57286 16.6348 3.75305C16.8236 3.84315 16.9609 3.83028 17.1153 3.70157C17.5658 3.3326 18.0334 2.98509 18.471 2.60325C19.0459 2.10557 19.741 2.20425 20.1614 2.67189C20.7063 3.28541 21.3198 3.83886 21.899 4.42234C22.3495 4.87711 22.3838 5.38337 21.9934 5.88534C21.6073 6.3873 21.2168 6.88498 20.8093 7.36549C20.6505 7.54998 20.6548 7.69585 20.7621 7.90178C20.9423 8.26217 21.101 8.63543 21.2254 9.02155C21.3112 9.28326 21.4571 9.38194 21.7102 9.40339C22.2765 9.45487 22.8429 9.52352 23.4092 9.58358C24.1471 9.65652 24.4946 10.0298 24.4989 10.7677C24.5032 11.6043 24.4903 12.4366 24.5032 13.2733C24.5075 13.5822 24.4088 13.8396 24.2158 14.067C23.924 14.4059 23.6623 14.4188 23.3363 14.1184C23.2033 13.9983 23.066 13.8825 22.9029 13.7409Z" fill="white"/>
<path id="Vector_2" d="M24.1318 17.9797C24.1318 20.378 22.2569 22.2614 19.8629 22.2614C17.4475 22.2614 15.5469 20.3694 15.5469 17.9711C15.5469 15.5814 17.4689 13.6722 19.8715 13.6765C22.2483 13.6765 24.1275 15.5771 24.1318 17.9797ZM19.1035 18.9407C18.6788 18.5031 18.3055 18.1256 17.9366 17.748C17.7435 17.5507 17.5247 17.4777 17.3059 17.6837C17.0828 17.8939 17.1557 18.1127 17.3531 18.3058C17.8164 18.7691 18.2841 19.2325 18.7432 19.7001C18.9877 19.9532 19.2194 19.9404 19.4596 19.7001C20.4207 18.7348 21.386 17.7695 22.3513 16.8084C22.5401 16.6197 22.5873 16.4094 22.4071 16.2078C22.2054 15.9804 21.9823 16.0362 21.785 16.2335C21.4975 16.5167 21.2144 16.8042 20.9269 17.0916C20.3349 17.688 19.7428 18.2886 19.1035 18.9407Z" fill="white"/>
<path id="Vector_3" d="M17.0783 13.5651C16.7222 13.8525 16.3833 14.1099 16.0916 14.4274C15.345 15.2469 14.886 16.2036 14.783 17.3062C14.753 17.6108 14.6371 17.6752 14.3583 17.6709C12.7151 17.658 11.0719 17.6709 9.4287 17.6666C8.23599 17.6623 7.51951 16.9415 7.5238 15.7488C7.5238 15.0924 7.46374 14.4274 7.79409 13.8182C8.41619 12.6727 9.45015 12.1707 10.6815 11.9819C10.8231 11.9605 10.9131 12.0334 11.0161 12.1149C11.9557 12.8271 13.0454 12.8271 13.9936 12.1107C14.0837 12.042 14.1609 11.9605 14.2939 11.9777C15.4266 12.1321 16.3833 12.5955 17.0783 13.5651Z" fill="white"/>
<path id="Vector_4" d="M10.0565 8.24076C10.0565 6.84641 10.7044 5.86822 11.867 5.60222C13.2314 5.28903 14.6815 5.97119 14.9046 7.58864C15.0633 8.74273 14.8745 9.83676 14.1023 10.7549C13.1155 11.9261 11.6611 11.8446 10.7773 10.5876C10.2753 9.88824 10.0308 9.10312 10.0565 8.24076Z" fill="white"/>
</g>
</svg>
