<svg width="14" height="13" viewBox="0 0 14 13" fill="none" xmlns="http://www.w3.org/2000/svg">
<g id="Group">
<path id="Vector" d="M9.02059 9.98796C9.71019 9.98796 10.3781 9.97751 11.0412 9.99319C11.304 10.001 11.4318 9.94092 11.5234 9.63249C11.726 8.93983 12.1841 8.47195 12.8134 8.21057C12.9099 8.17137 13.0087 8.13739 13.1076 8.10079C13.1076 6.32602 13.1076 4.55908 13.1076 2.77908C12.2709 2.52815 11.7018 1.97141 11.4535 1.06442C11.4053 0.891906 11.2944 0.920658 11.1834 0.920658C10.2841 0.920658 9.38468 0.920658 8.4853 0.920658C6.6335 0.920658 4.7841 0.923272 2.9323 0.915431C2.72494 0.915431 2.63572 0.965093 2.56339 1.19511C2.29333 2.05244 1.7267 2.57259 0.899657 2.77385C0.899657 4.5434 0.899657 6.31033 0.899657 8.10341C1.21311 8.20273 1.53621 8.32297 1.80868 8.54776C2.18483 8.85618 2.44524 9.26133 2.57544 9.75272C2.62608 9.94092 2.70806 9.99581 2.88167 9.99319C3.52787 9.98274 4.17407 9.98796 4.81545 9.98796C4.86609 10.1657 4.80581 10.2781 4.73588 10.3983C3.56645 10.3983 2.3946 10.4036 1.22276 10.3957C0.820087 10.3931 0.501808 10.0219 0.501808 9.58282C0.499397 6.8331 0.499397 4.09121 0.501808 1.34671C0.501808 0.884065 0.841788 0.502449 1.26616 0.502449C5.09274 0.499835 8.92173 0.499835 12.7483 0.502449C13.1534 0.502449 13.4958 0.886679 13.4982 1.32841C13.5006 4.08337 13.5006 6.83832 13.4982 9.59328C13.4982 10.0246 13.163 10.3879 12.7604 10.3905C11.6102 10.3983 10.4601 10.3879 9.30993 10.3983C9.05193 10.4009 9.07122 10.218 9.02059 9.98796Z" fill="#1E567B"/>
<path id="Vector_2" d="M5.29265 5.74826C5.65434 5.81622 5.84 5.64894 5.83518 5.29085C5.93403 5.21505 6.00396 5.24903 6.06906 5.28301C6.24026 5.3771 6.3777 5.33267 6.46209 5.15232C6.54889 4.96412 6.63811 4.90923 6.78519 5.08174C6.92745 5.24903 7.07694 5.22812 7.22162 5.07913C7.30119 4.99549 7.40969 4.90662 7.47479 5.06083C7.61947 5.39801 7.8413 5.37188 8.13787 5.21243C8.19815 5.57053 8.2729 5.91293 8.69245 5.76918C8.76961 6.3416 8.76961 6.3416 9.13611 6.56377C8.91428 6.86436 8.92875 7.15188 9.29043 7.36621C9.06136 7.60146 8.85159 7.81317 9.10718 8.12945C9.13852 8.16865 9.10718 8.25229 9.04931 8.26536C8.68763 8.34901 8.7021 8.64959 8.73826 8.98416C8.40069 8.95541 8.14029 9.02075 8.17886 9.43374C8.08001 9.50692 7.9932 9.49908 7.91845 9.45465C7.7352 9.34748 7.60982 9.43112 7.53507 9.60102C7.44104 9.81274 7.32771 9.79967 7.1975 9.66375C7.05283 9.50954 6.92745 9.53306 6.79242 9.67421C6.7225 9.74478 6.59712 9.83104 6.5513 9.72387C6.3994 9.37362 6.17274 9.34748 5.90992 9.49385C5.80383 9.41283 5.79419 9.32134 5.78695 9.23247C5.7749 9.04428 5.67845 8.97109 5.5169 8.98939C5.29748 9.01291 5.23961 8.89529 5.27578 8.68357C5.31194 8.48492 5.24443 8.35946 5.05395 8.3098C4.87552 8.26275 4.83935 8.15297 4.94785 7.9883C5.066 7.81056 5.04671 7.65635 4.88034 7.52304C4.73808 7.41065 4.72602 7.29825 4.88757 7.18063C5.05877 7.05517 5.07082 6.89311 4.94544 6.71537C4.88275 6.62651 4.85382 6.54809 4.96232 6.45922C5.26613 6.21091 5.26372 6.20568 5.29265 5.74826ZM7.01666 8.92927C7.7786 8.93711 8.44892 8.20525 8.45133 7.36621C8.45374 6.51673 7.80754 5.80838 7.02631 5.80316C6.20409 5.79531 5.54583 6.47752 5.54583 7.33485C5.54342 8.21309 6.19686 8.92143 7.01666 8.92927Z" fill="#1E567B"/>
<path id="Vector_3" d="M7.89432 12.4998C7.6315 11.5954 7.40485 10.8191 7.17578 10.0272C7.43619 10.0428 7.6749 9.99579 7.74965 9.65077C8.00282 9.77884 8.21742 9.8076 8.41032 9.50439C8.65385 10.3434 8.88291 11.1406 9.12403 11.9692C8.55499 11.6686 8.10409 11.6425 7.89432 12.4998Z" fill="#1E567B"/>
<path id="Vector_4" d="M5.55806 11.5589C5.28559 11.7026 5.04447 11.8307 4.75513 11.9823C5.02036 11.0701 5.27112 10.2102 5.53153 9.31885C5.70755 9.76058 5.804 9.80763 6.22596 9.6691C6.32482 9.84161 6.42368 10.035 6.69856 10.0324C6.46949 10.8139 6.25007 11.5746 6.00895 12.3979C5.84258 12.0895 5.70755 11.8386 5.55806 11.5589Z" fill="#1E567B"/>
<path id="Vector_5" d="M10.4743 2.34766C10.4743 2.48619 10.4743 2.59858 10.4743 2.72927C8.17401 2.72927 5.88095 2.72927 3.58308 2.72927C3.55655 2.6012 3.55655 2.48096 3.58549 2.34766C5.87372 2.34766 8.15954 2.34766 10.4743 2.34766Z" fill="#1E567B"/>
<path id="Vector_6" d="M3.57349 4.08308C3.57349 3.95761 3.57349 3.84522 3.57349 3.71191C5.86413 3.71191 8.15718 3.71191 10.4671 3.71191C10.4671 3.82954 10.4671 3.94716 10.4671 4.08308C8.17647 4.08308 5.89065 4.08308 3.57349 4.08308Z" fill="#1E567B"/>
<path id="Vector_7" d="M8.10667 6.9742C7.61961 7.34536 7.44359 7.7871 7.74499 8.43532C7.43154 8.27065 7.22176 8.072 7.00717 8.072C6.79498 8.06939 6.58038 8.26281 6.29104 8.40918C6.51528 7.79755 6.3899 7.32968 5.88354 6.97682C6.49358 7.02909 6.82633 6.71021 6.99752 6.11426C7.1663 6.72066 7.48458 7.05262 8.10667 6.9742Z" fill="#1E567B"/>
</g>
</svg>
