<svg width="20" height="20" viewBox="0 0 20 20" fill="none" xmlns="http://www.w3.org/2000/svg">
<path d="M10.8346 17.5L12.5013 16.6667L14.168 17.5V11.6667H10.8346V17.5ZM14.168 7.5V5.83333L12.5013 6.66667L10.8346 5.83333V7.5L9.16797 8.33333L10.8346 9.16667V10.8333L12.5013 10L14.168 10.8333V9.16667L15.8346 8.33333L14.168 7.5ZM16.668 2.5H3.33464C2.89261 2.5 2.46868 2.67559 2.15612 2.98816C1.84356 3.30072 1.66797 3.72464 1.66797 4.16667V12.5C1.66797 12.942 1.84356 13.3659 2.15612 13.6785C2.46868 13.9911 2.89261 14.1667 3.33464 14.1667H9.16797V12.5H3.33464V4.16667H16.668V12.5H15.8346V14.1667H16.668C17.11 14.1667 17.5339 13.9911 17.8465 13.6785C18.159 13.3659 18.3346 12.942 18.3346 12.5V4.16667C18.3346 3.72464 18.159 3.30072 17.8465 2.98816C17.5339 2.67559 17.11 2.5 16.668 2.5ZM9.16797 6.66667H4.16797V5H9.16797V6.66667ZM7.5013 9.16667H4.16797V7.5H7.5013V9.16667ZM9.16797 11.6667H4.16797V10H9.16797V11.6667Z" fill="#2E3138"/>
</svg>
