<svg width="16" height="20" viewBox="0 0 16 20" fill="none" xmlns="http://www.w3.org/2000/svg">
<path id="Vector" d="M7.88121 0.791748C9.62779 0.793912 11.1839 1.33066 12.515 2.46691C13.7573 3.52741 14.5581 4.86278 14.8675 6.47085C15.2463 8.45118 14.8502 10.2735 13.6837 11.9227C13.5884 12.0569 13.5798 12.1564 13.6469 12.3058C14.281 13.7299 14.9087 15.1605 15.5385 16.5867C15.6272 16.788 15.6813 16.9871 15.558 17.1927C15.4216 17.42 15.1619 17.5044 14.8805 17.4092C14.188 17.1754 13.4954 16.9395 12.8028 16.7036C12.6124 16.6387 12.6102 16.6409 12.5323 16.8227C12.2466 17.4914 11.9609 18.1602 11.673 18.8268C11.5172 19.1882 11.1688 19.3094 10.8614 19.119C10.7381 19.0411 10.6753 18.9199 10.619 18.7922C10.1992 17.8399 9.78146 16.8876 9.36159 15.9375C9.21441 15.6042 9.06508 15.273 8.92223 14.9397C8.88111 14.8445 8.82701 14.8077 8.72312 14.8185C8.2513 14.864 7.77732 14.8683 7.30334 14.8185C7.17349 14.8055 7.11721 14.8532 7.06744 14.9679C6.51771 16.2231 5.96365 17.4784 5.40959 18.7337C5.38578 18.7878 5.36197 18.8441 5.33384 18.896C5.23212 19.093 5.06979 19.2055 4.84904 19.2055C4.61529 19.2055 4.44431 19.0887 4.35125 18.8744C4.16945 18.461 3.99631 18.0455 3.81667 17.6321C3.6933 17.3442 3.56561 17.0586 3.44658 16.7707C3.40329 16.669 3.35351 16.6473 3.24746 16.6863C2.54407 16.9309 1.83634 17.1668 1.13078 17.407C0.903532 17.4849 0.691432 17.4719 0.520453 17.288C0.347309 17.104 0.329995 16.8919 0.431717 16.6603C1.07884 15.1951 1.7238 13.7299 2.37525 12.2668C2.42719 12.15 2.41637 12.072 2.34279 11.9682C1.58312 10.9293 1.13944 9.76923 1.02906 8.48797C0.853754 6.43839 1.45543 4.63769 2.82326 3.1097C3.93787 1.86524 5.34033 1.12288 6.99601 0.873991C7.12804 0.854512 7.26006 0.83287 7.39208 0.822048C7.55007 0.806898 7.71456 0.800405 7.88121 0.791748ZM13.9304 7.85167C13.9412 4.5706 11.2921 1.88255 8.03055 1.86957C4.74299 1.85658 2.08091 4.51649 2.05926 7.82786C2.03762 11.0527 4.69321 13.7775 7.98293 13.7818C11.2532 13.7862 13.9174 11.1414 13.9304 7.85167ZM4.86202 17.3053C5.26458 16.3876 5.65632 15.4981 6.05888 14.5848C4.99621 14.2515 4.05474 13.7385 3.22582 12.9702C2.77565 13.9939 2.34062 14.9808 1.90127 15.9743C1.99434 16.0002 2.04844 15.9656 2.10255 15.9461C2.54407 15.7989 2.98342 15.6474 3.42277 15.4981C3.80585 15.3683 4.04825 15.4765 4.21057 15.8509C4.37289 16.2275 4.53305 16.6041 4.69537 16.9785C4.74082 17.0802 4.77329 17.1863 4.86202 17.3053ZM14.0927 15.9678C13.6534 14.9722 13.2184 13.9874 12.7725 12.9789C11.9328 13.7364 11.0021 14.2645 9.93729 14.5848C10.342 15.5024 10.7337 16.3898 11.1255 17.2836C11.1926 17.2447 11.1991 17.1971 11.2185 17.156C11.4068 16.7209 11.5951 16.2859 11.7834 15.8509C11.9436 15.4786 12.1903 15.3683 12.5712 15.4959C13.0127 15.6431 13.4521 15.7925 13.8936 15.9396C13.9477 15.9591 14.0018 15.9937 14.0927 15.9678Z" fill="#1E567B"/>
</svg>
