<svg width="20" height="21" viewBox="0 0 20 21" fill="none" xmlns="http://www.w3.org/2000/svg">
<g id="Media / Icon/32px/No/chat-alt-2">
<path id="Icon" d="M14.5139 5.49978H16.3194C17.3166 5.49978 18.125 6.30816 18.125 7.30534V12.722C18.125 13.7192 17.3166 14.5276 16.3194 14.5276H14.5139V18.1387L10.9028 14.5276H7.29167C6.79308 14.5276 6.34169 14.3255 6.01495 13.9987M6.01495 13.9987L9.09722 10.9164H12.7083C13.7055 10.9164 14.5139 10.1081 14.5139 9.11089V3.69423C14.5139 2.69705 13.7055 1.88867 12.7083 1.88867H3.68056C2.68337 1.88867 1.875 2.69705 1.875 3.69423V9.11089C1.875 10.1081 2.68337 10.9164 3.68056 10.9164H5.48611V14.5276L6.01495 13.9987Z" stroke="white" stroke-linecap="round" stroke-linejoin="round"/>
</g>
</svg>
