<svg width="24" height="24" viewBox="0 0 24 24" fill="none" xmlns="http://www.w3.org/2000/svg">
<path d="M12.0163 0C18.5755 0.0159038 23.8647 5.24008 23.9938 11.7462C24.1288 18.5261 18.7282 23.969 12.064 23.9999C5.37333 24.0302 0.0407199 18.688 0.00216509 12.0961C-0.0368716 5.3702 5.3208 0.00771096 12.0163 0Z" fill="#18B187"/>
<path d="M10.2057 14.5289C10.854 13.3662 11.5275 12.2475 12.2241 11.1421C13.1623 9.65296 14.1361 8.18712 15.1846 6.77092C15.3372 6.56511 15.4961 6.36541 15.7112 6.21879C16.1826 5.89691 16.789 5.93395 17.1617 6.30508C17.5519 6.6934 17.6212 7.34824 17.2928 7.79269C16.8487 8.39293 16.4197 9.00309 16.0076 9.62509C14.5913 11.7618 13.261 13.9516 11.9222 16.136C11.7457 16.4239 11.568 16.7111 11.3891 16.9978C11.1204 17.4285 10.7627 17.574 10.2608 17.4656C10.0152 17.4125 9.80282 17.3014 9.62434 17.1288C8.39078 15.9394 7.15838 14.7492 5.92598 13.5591C5.62954 13.2727 5.47651 12.9237 5.50542 12.5136C5.55553 11.8042 6.10215 11.4204 6.81106 11.5808C7.08398 11.6427 7.29793 11.7943 7.49645 11.9829C8.36187 12.8073 9.23153 13.6278 10.1 14.4491C10.127 14.4743 10.1594 14.4938 10.2068 14.5293L10.2057 14.5289Z" fill="#FCFDFD"/>
</svg>
