<svg width="16" height="16" viewBox="0 0 16 16" fill="none" xmlns="http://www.w3.org/2000/svg">
<g id="Icons / arrows / circle-chevron-top">
<path id="icon" fill-rule="evenodd" clip-rule="evenodd" d="M7.99984 0.667319C3.94975 0.667319 0.666504 3.95056 0.666504 8.00065C0.666504 12.0507 3.94975 15.334 7.99984 15.334C12.0499 15.334 15.3332 12.0507 15.3332 8.00065C15.3332 3.95056 12.0499 0.667319 7.99984 0.667319ZM7.99984 2.00065C11.3135 2.00065 13.9998 4.68694 13.9998 8.00065C13.9998 11.3144 11.3135 14.0007 7.99984 14.0007C4.68613 14.0007 1.99984 11.3144 1.99984 8.00065C1.99984 4.68694 4.68613 2.00065 7.99984 2.00065ZM4.86177 7.13872L5.80458 6.19591L7.99984 8.39118L10.1951 6.19591L11.1379 7.13872L7.99984 10.2768L4.86177 7.13872Z" fill="#20AC90"/>
</g>
</svg>
