<svg xmlns="http://www.w3.org/2000/svg" width="25" height="24" viewBox="0 0 25 24" fill="none">
  <path d="M11.6055 11L17.9855 16.37L17.1055 16.55L16.4655 16.67C15.8355 16.8 15.4755 17.5 15.7555 18.07L16.0255 18.65L17.3855 21.59L15.9655 22.25L14.6055 19.32L14.3455 18.74C14.0755 18.15 13.3255 17.97 12.8255 18.38L12.3155 18.78L11.6055 19.35V11ZM10.8655 8.69C10.6639 8.69 10.4706 8.77007 10.3281 8.9126C10.1855 9.05513 10.1055 9.24844 10.1055 9.45V20.9C10.1055 21.32 10.4455 21.66 10.8655 21.66C11.0555 21.66 11.2155 21.6 11.3455 21.5L13.2555 19.95L14.9155 23.57C15.0455 23.84 15.3155 24 15.6055 24C15.7155 24 15.8255 24 15.9355 23.92L18.6955 22.64C19.0755 22.46 19.2555 22 19.0555 21.63L17.3855 18L19.7955 17.55C19.9555 17.5 20.1055 17.43 20.2255 17.29C20.4955 16.97 20.4555 16.5 20.1055 16.21L11.3655 8.86L11.3555 8.87C11.2255 8.76 11.0555 8.69 10.8655 8.69ZM15.1055 10V8H20.1055V10H15.1055ZM13.9355 4.76L16.7655 1.93L18.1755 3.34L15.3455 6.17L13.9355 4.76ZM10.1055 0H12.1055V5H10.1055V0ZM4.03547 14.66L6.86547 11.83L8.27547 13.24L5.44547 16.07L4.03547 14.66ZM4.03547 3.34L5.44547 1.93L8.27547 4.76L6.86547 6.17L4.03547 3.34ZM7.10547 10H2.10547V8H7.10547V10Z" fill="white"/>
</svg>