<svg width="14" height="13" viewBox="0 0 14 13" fill="none" xmlns="http://www.w3.org/2000/svg">
<g id="Group">
<path id="Vector" d="M11.9083 6.98716C11.8992 7.10785 11.8861 7.22905 11.8689 7.34924C11.8402 7.55243 11.7049 7.81571 11.5136 7.74543C11.3571 7.68789 11.3596 7.46738 11.3839 7.30086C11.7099 5.06575 10.5227 2.68602 8.54953 1.61863C6.57636 0.551239 3.95404 0.87054 2.28928 2.38098C0.624528 3.89142 0.0334333 6.4886 0.877421 8.58112C1.72141 10.6736 3.94243 12.1153 6.18011 12.0237C6.80805 11.9977 7.44054 11.8587 7.9862 11.5439C8.12047 11.4665 8.28755 11.3774 8.41879 11.4609C8.53944 11.5373 8.54297 11.7257 8.46221 11.8439C8.38144 11.962 8.24465 12.0262 8.1124 12.0797C6.52336 12.7234 4.65517 12.623 3.14286 11.8133C2.05709 11.2318 1.16969 10.2927 0.620994 9.18509C0.0788633 8.0902 -0.11699 6.85577 0.0677582 5.64579C0.249983 4.4516 0.777475 3.30934 1.58058 2.41204C1.84912 2.11159 2.14845 1.83965 2.47454 1.60335C4.3624 0.234994 7.06599 0.12856 9.0538 1.34465C10.9381 2.49709 12.0759 4.77497 11.9083 6.98716Z" fill="#1D5276"/>
<path id="Vector_2" d="M10.4646 6.54102C10.4625 6.60518 10.46 6.67801 10.458 6.75083C10.4545 6.87152 10.4439 6.99171 10.4287 7.11138C10.3959 7.37365 10.3399 7.63031 10.2601 7.88188C10.1859 8.11613 10.0935 8.34275 9.98653 8.56377C9.9734 8.59025 9.96179 8.61775 9.94766 8.64372C9.90374 8.72469 9.83459 8.76899 9.74373 8.77358C9.62763 8.77969 9.53071 8.70534 9.49942 8.5989C9.48023 8.53423 9.48882 8.47261 9.51809 8.41252C9.54989 8.34733 9.5822 8.28164 9.61198 8.21544C9.71798 7.97915 9.80531 7.73623 9.86689 7.48364C9.90021 7.34615 9.92646 7.20763 9.94412 7.06708C9.95876 6.953 9.96734 6.83893 9.9734 6.72435C9.97895 6.61537 9.97946 6.5069 9.97593 6.39792C9.97138 6.2757 9.96482 6.15399 9.94968 6.03279C9.91939 5.78223 9.86689 5.53678 9.79118 5.29641C9.68114 4.94859 9.5297 4.62063 9.33385 4.31304C9.19705 4.09814 9.04108 3.898 8.86643 3.71315C8.66149 3.49671 8.43585 3.30524 8.18952 3.13922C7.82507 2.89376 7.43185 2.71196 7.00884 2.59432C6.88214 2.55918 6.75444 2.53016 6.62521 2.50775C6.52476 2.49043 6.42381 2.47821 6.32235 2.46752C6.13659 2.44867 5.95083 2.44715 5.76457 2.45428C5.67623 2.45784 5.5879 2.46599 5.50006 2.47617C5.4092 2.48687 5.31885 2.4996 5.22849 2.51641C5.09069 2.54187 4.9544 2.57446 4.82013 2.61469C4.595 2.68191 4.37744 2.76798 4.16745 2.8739C3.90396 3.00732 3.65763 3.16723 3.42896 3.35565C3.04735 3.66986 2.73187 4.0411 2.48503 4.47142C2.29624 4.8004 2.15591 5.14924 2.06556 5.51895C2.03376 5.64932 2.00751 5.7802 1.98883 5.91311C1.9752 6.01038 1.96511 6.10816 1.95804 6.20593C1.95098 6.30422 1.94795 6.4025 1.94795 6.50079C1.94795 6.63014 1.95451 6.75949 1.96662 6.88884C1.99439 7.18828 2.05546 7.48008 2.14885 7.76526C2.25637 8.09322 2.40326 8.40233 2.59002 8.6921C2.72934 8.90904 2.88784 9.11121 3.06552 9.2976C3.36284 9.60875 3.70003 9.86694 4.07861 10.0701C4.32494 10.2025 4.58288 10.3074 4.85092 10.3854C4.98671 10.4246 5.12451 10.4561 5.26433 10.4806C5.36024 10.4974 5.45665 10.5106 5.55357 10.5213C5.62525 10.529 5.69794 10.532 5.77012 10.5366C5.87915 10.5442 5.98869 10.5437 6.09772 10.5392C6.19615 10.5351 6.29509 10.5279 6.39352 10.5167C6.54495 10.4999 6.69437 10.4755 6.84277 10.4419C6.96644 10.4139 7.0886 10.3803 7.20874 10.3395C7.26174 10.3217 7.31575 10.3181 7.36976 10.3344C7.47021 10.365 7.53735 10.4546 7.54088 10.5595C7.54441 10.6629 7.48384 10.7617 7.38086 10.7979C7.28193 10.833 7.18148 10.8615 7.08002 10.888C6.95736 10.9196 6.83318 10.9471 6.7085 10.9674C6.60957 10.9837 6.51012 10.9975 6.41018 11.0066C6.31478 11.0153 6.21887 11.0209 6.12296 11.026C6.02554 11.0311 5.92812 11.0316 5.83069 11.0285C5.73933 11.026 5.64796 11.0214 5.5566 11.0128C5.02507 10.9634 4.51625 10.8259 4.03369 10.5952C3.61724 10.3961 3.23967 10.1379 2.90147 9.82162C2.52339 9.46769 2.21396 9.06029 1.97419 8.59992C1.80257 8.27044 1.67385 7.92466 1.58754 7.56258C1.55069 7.40878 1.52191 7.25397 1.50122 7.09763C1.48708 6.98967 1.47749 6.88171 1.47043 6.77324C1.46084 6.62148 1.46134 6.46921 1.46538 6.31746C1.4679 6.21612 1.47598 6.11528 1.48708 6.01445C1.49516 5.94214 1.50475 5.86983 1.51485 5.79751C1.53151 5.68242 1.55372 5.56886 1.57996 5.4558C1.62943 5.24548 1.69253 5.03975 1.77127 4.83859C1.9217 4.45258 2.12109 4.09407 2.36893 3.76305C2.47695 3.61893 2.59305 3.48246 2.71672 3.35209C2.94337 3.11325 3.19374 2.90293 3.46632 2.7196C3.78937 2.50215 4.13464 2.33002 4.50162 2.20372C4.6899 2.13854 4.88171 2.0866 5.07706 2.0484C5.1871 2.02701 5.29765 2.00919 5.4087 1.99493C5.52884 1.97965 5.64948 1.97049 5.77063 1.9654C5.90792 1.95928 6.04522 1.9603 6.18252 1.96794C6.27237 1.97303 6.36222 1.97965 6.45157 1.98933C6.54394 1.99952 6.63581 2.01377 6.72718 2.03007C6.86397 2.05451 6.99875 2.08507 7.13251 2.12174C7.40005 2.19558 7.65849 2.29386 7.90886 2.41557C8.21577 2.56529 8.50248 2.7471 8.7685 2.96149C9.1173 3.2426 9.41865 3.56801 9.67054 3.93976C9.89314 4.26823 10.0698 4.62063 10.2021 4.99544C10.2818 5.22155 10.3434 5.45224 10.3868 5.68853C10.4131 5.83061 10.4317 5.97371 10.4449 6.11783C10.4519 6.19778 10.457 6.27825 10.458 6.35871C10.4595 6.41574 10.4625 6.4738 10.4646 6.54102Z" fill="#1D5276"/>
<path id="Vector_3" d="M10.0223 12.4014C10.0016 12.4014 9.98145 12.4014 9.96076 12.4014C9.94309 12.3948 9.92542 12.3917 9.90675 12.3932L9.90271 12.3917L9.89816 12.3922C9.88756 12.3846 9.87545 12.3815 9.86233 12.3835C9.85425 12.3774 9.84617 12.3729 9.83557 12.3749C9.83052 12.3703 9.82548 12.3662 9.8179 12.3678C9.73865 12.3347 9.67303 12.2832 9.61549 12.2196C9.56299 12.161 9.50696 12.106 9.45245 12.049C9.34341 11.9354 9.23489 11.8218 9.12586 11.7083C9.07437 11.6548 9.02288 11.6013 8.97139 11.5479C8.85832 11.4302 8.74576 11.3121 8.63218 11.1944C8.55091 11.1099 8.46914 11.0259 8.38787 10.9413C8.28389 10.8334 8.18091 10.7244 8.07693 10.6164C7.99869 10.535 7.92045 10.454 7.84221 10.373C7.76901 10.2971 7.69481 10.2223 7.62313 10.1449C7.4404 9.94729 7.45353 9.64581 7.63373 9.46656C7.74832 9.35248 7.86492 9.24045 7.98052 9.12739C8.06229 9.04744 8.14356 8.96749 8.22533 8.88754C8.30054 8.8137 8.37475 8.73884 8.45147 8.66703C8.55546 8.56976 8.68014 8.52699 8.82097 8.5387C8.94464 8.54888 9.04963 8.60236 9.13595 8.69351C9.2147 8.77652 9.29395 8.85902 9.37269 8.94152C9.48374 9.05712 9.59479 9.17272 9.70584 9.28832C9.78812 9.37387 9.8704 9.45943 9.95319 9.54498C9.9759 9.56841 9.99811 9.59234 10.0213 9.61526C10.0284 9.62239 10.0365 9.6285 10.0451 9.63614C10.0935 9.5903 10.141 9.546 10.1879 9.50068C10.306 9.38813 10.4236 9.27508 10.5418 9.16253C10.6599 9.04999 10.7775 8.93693 10.8956 8.82439C11.0374 8.68944 11.1793 8.55449 11.3211 8.41954C11.4509 8.29579 11.5806 8.17153 11.7103 8.04727C11.8249 7.93778 11.94 7.82829 12.0546 7.7188C12.1575 7.62052 12.2605 7.52223 12.3635 7.42395C12.3807 7.40765 12.3978 7.39085 12.415 7.37455C12.4816 7.31242 12.5588 7.27219 12.6472 7.25233C12.6537 7.25386 12.6598 7.25131 12.6654 7.24775C12.68 7.24775 12.6951 7.24826 12.7098 7.24367C12.7335 7.24571 12.7572 7.24622 12.7804 7.24316C12.7976 7.24877 12.8153 7.24826 12.8324 7.24877C12.835 7.25233 12.838 7.25437 12.8425 7.25182C12.8506 7.25691 12.8597 7.25742 12.8693 7.25691C12.8748 7.26099 12.8799 7.26557 12.8875 7.26353C12.9763 7.29256 13.0505 7.34247 13.1141 7.41224C13.207 7.51409 13.3024 7.61339 13.3963 7.71371C13.4937 7.81709 13.5906 7.92098 13.688 8.02487C13.7456 8.08648 13.8031 8.14861 13.8612 8.20972C13.9308 8.28255 13.9758 8.3681 13.9924 8.46741C14.0045 8.53972 14.0025 8.61254 13.9813 8.68333C13.9793 8.69046 13.9788 8.6981 13.9773 8.70523C13.9732 8.70726 13.9707 8.71032 13.9727 8.71541C13.9717 8.71897 13.9707 8.72254 13.9697 8.7261L13.9672 8.72814L13.9682 8.7312C13.9631 8.73629 13.9606 8.74291 13.9601 8.75004C13.9561 8.75208 13.9541 8.75462 13.9546 8.75971C13.9505 8.76837 13.9465 8.77754 13.9424 8.7862C13.9379 8.78772 13.9354 8.79027 13.9364 8.79587C13.9339 8.79791 13.9329 8.79995 13.9334 8.803C13.9283 8.80453 13.9258 8.80809 13.9263 8.8137C13.8839 8.87786 13.8268 8.92726 13.7723 8.97971C13.6557 9.09175 13.5381 9.20276 13.4215 9.31429C13.2893 9.44007 13.157 9.56586 13.0253 9.69165C12.9384 9.77465 12.8516 9.85766 12.7648 9.94067C12.6361 10.0634 12.5074 10.1866 12.3786 10.3094C12.2883 10.3954 12.1984 10.4815 12.1081 10.5676C11.9773 10.6923 11.8461 10.8171 11.7149 10.9419C11.628 11.0249 11.5412 11.1079 11.4544 11.1909C11.3247 11.3146 11.1944 11.4384 11.0647 11.5621C10.935 11.6859 10.8052 11.8101 10.6755 11.9339C10.5609 12.0434 10.4458 12.1534 10.3313 12.2629C10.3176 12.2761 10.303 12.2888 10.2889 12.3016C10.2833 12.3021 10.2793 12.3051 10.2778 12.3107C10.2752 12.3102 10.2732 12.3117 10.2717 12.3138C10.2661 12.3128 10.2636 12.3158 10.2621 12.3204C10.2389 12.3331 10.2152 12.3459 10.1919 12.3581C10.1869 12.3571 10.1834 12.3596 10.1808 12.3642C10.1682 12.3637 10.1586 12.3718 10.1475 12.3754C10.1394 12.3739 10.1339 12.3779 10.1288 12.3825L10.1248 12.382L10.1208 12.3835C10.1102 12.3815 10.1011 12.3846 10.093 12.3912L10.089 12.3907L10.0854 12.3922C10.0632 12.3912 10.0425 12.3953 10.0223 12.4014ZM12.7451 7.73714C11.84 8.5993 10.935 9.46197 10.0294 10.3241C9.61498 9.89636 9.20056 9.46859 8.78614 9.04082C8.74021 8.99346 8.1799 9.58267 8.13043 9.64225C7.9997 9.7991 7.99313 9.81896 8.13245 9.96817C8.25612 10.1011 8.38232 10.2315 8.5075 10.3628C9.00067 10.8792 9.49838 11.3905 10.0016 11.8967C11.1747 10.785 12.3438 9.66873 13.5088 8.54787C13.2544 8.27745 13 8.00755 12.7451 7.73714Z" fill="#1D5276"/>
<path id="Vector_4" d="M6.20019 6.3796C6.23401 6.40811 6.26682 6.43561 6.29963 6.46311C6.56616 6.68769 6.83268 6.91176 7.0992 7.13634C7.17391 7.19898 7.20218 7.27995 7.18501 7.37569C7.1628 7.49893 7.05428 7.56666 6.96644 7.57124C6.89679 7.57481 6.83672 7.55393 6.78271 7.50861C6.56767 7.3268 6.35163 7.14551 6.13609 6.96422C6.03614 6.88019 5.93619 6.79616 5.83675 6.71214C5.82666 6.70348 5.81656 6.69431 5.80647 6.68617C5.74488 6.63575 5.71712 6.56955 5.71409 6.49112C5.71359 6.48094 5.71409 6.47024 5.71409 6.46006C5.71409 5.68803 5.71409 4.9155 5.71409 4.14347C5.71409 4.11648 5.71611 4.09 5.71964 4.06352C5.7358 3.9525 5.84432 3.84811 5.98667 3.86389C6.10075 3.87612 6.2012 3.97848 6.2007 4.10324C6.2007 4.11495 6.2007 4.12718 6.2007 4.13889C6.2007 4.86916 6.2007 5.59993 6.2007 6.3302C6.20019 6.34649 6.20019 6.36279 6.20019 6.3796Z" fill="#1D5276"/>
<path id="Vector_5" d="M6.24301 9.68317C6.24351 9.82576 6.13953 9.97141 5.9568 9.97192C5.79274 9.97243 5.67261 9.84562 5.67261 9.68623C5.67261 9.50901 5.81092 9.39647 5.95831 9.39697C6.11631 9.39697 6.242 9.52581 6.24301 9.68317Z" fill="#1D5276"/>
<path id="Vector_6" d="M5.95528 3.37518C5.83212 3.38231 5.67261 3.28046 5.67261 3.08796C5.67311 2.91736 5.80637 2.80227 5.95781 2.80176C6.11732 2.80125 6.24452 2.93111 6.24301 3.09254C6.24048 3.26823 6.09107 3.38434 5.95528 3.37518Z" fill="#1D5276"/>
<path id="Vector_7" d="M2.70205 6.36985C2.8555 6.3668 2.98472 6.50328 2.98371 6.6586C2.9827 6.8073 2.85903 6.94429 2.6975 6.94378C2.55364 6.94327 2.41331 6.82716 2.41382 6.65605C2.41331 6.4824 2.55819 6.36374 2.70205 6.36985Z" fill="#1D5276"/>
<path id="Vector_8" d="M9.31412 6.36976C9.45041 6.36568 9.5973 6.48026 9.59629 6.65799C9.59528 6.83216 9.45091 6.94674 9.30604 6.94368C9.14047 6.94012 9.02437 6.79753 9.02639 6.65188C9.0274 6.51235 9.14502 6.36466 9.31412 6.36976Z" fill="#1D5276"/>
</g>
</svg>
