<!-- <svg width="20" height="20" viewBox="0 0 24 24" fill="#fffff" xmlns="http://www.w3.org/2000/svg"><path d="M5.293 5.293a1 1 0 0 1 1.414 0L12 10.586l5.293-5.293a1 1 0 1 1 1.414 1.414L13.414 12l5.293 5.293a1 1 0 0 1-1.414 1.414L12 13.414l-5.293 5.293a1 1 0 0 1-1.414-1.414L10.586 12 5.293 6.707a1 1 0 0 1 0-1.414" fill="#5D636F"/></svg> -->

<svg fill="#5D636F" xmlns="http://www.w3.org/2000/svg" width="15" height="15" viewBox="0 0 52 52" xml:space="preserve"><path d="m31 25.4 13-13.1c.6-.6.6-1.5 0-2.1l-2-2.1c-.6-.6-1.5-.6-2.1 0L26.8 21.2c-.4.4-1 .4-1.4 0L12.3 8c-.6-.6-1.5-.6-2.1 0l-2.1 2.1c-.6.6-.6 1.5 0 2.1l13.1 13.1c.4.4.4 1 0 1.4L8 39.9c-.6.6-.6 1.5 0 2.1l2.1 2.1c.6.6 1.5.6 2.1 0L25.3 31c.4-.4 1-.4 1.4 0l13.1 13.1c.6.6 1.5.6 2.1 0L44 42c.6-.6.6-1.5 0-2.1L31 26.8c-.4-.4-.4-1 0-1.4"/></svg>