<svg xmlns="http://www.w3.org/2000/svg" width="16" height="17" viewBox="0 0 16 17" fill="none">
  <path fill-rule="evenodd" clip-rule="evenodd" d="M9.83441 4.95444C9.98443 4.80447 10.1879 4.72021 10.4 4.72021C10.6121 4.72021 10.8156 4.80447 10.9656 4.95444L14.1656 8.15444C14.3156 8.30447 14.3998 8.50791 14.3998 8.72004C14.3998 8.93218 14.3156 9.13562 14.1656 9.28564L10.9656 12.4856C10.8147 12.6314 10.6126 12.712 10.4029 12.7102C10.1931 12.7084 9.99248 12.6242 9.84415 12.4759C9.69582 12.3276 9.61169 12.1269 9.60987 11.9172C9.60804 11.7074 9.68868 11.5053 9.83441 11.3544L11.6688 9.52004H2.40001C2.18783 9.52004 1.98435 9.43576 1.83432 9.28573C1.68429 9.1357 1.60001 8.93222 1.60001 8.72004C1.60001 8.50787 1.68429 8.30439 1.83432 8.15436C1.98435 8.00433 2.18783 7.92004 2.40001 7.92004H11.6688L9.83441 6.08564C9.68443 5.93562 9.60018 5.73218 9.60018 5.52004C9.60018 5.30791 9.68443 5.10447 9.83441 4.95444Z" fill="#20AC90"/>
</svg>