<svg width="20" height="21" viewBox="0 0 20 21" fill="none" xmlns="http://www.w3.org/2000/svg">
<g id="message-badge-outline" clip-path="url(#clip0_3262_11928)">
<path id="Vector" d="M18.3346 5.84701V13.347C18.3346 14.2637 17.5846 15.0137 16.668 15.0137H5.0013L1.66797 18.347V3.34701C1.66797 2.43034 2.41797 1.68034 3.33464 1.68034H11.7513C11.668 1.93034 11.668 2.26367 11.668 2.51367C11.668 2.76367 11.668 3.09701 11.7513 3.34701H3.33464V13.347H16.668V6.59701C17.2513 6.51367 17.8346 6.18034 18.3346 5.84701ZM13.3346 2.51367C13.3346 3.93034 14.418 5.01367 15.8346 5.01367C17.2513 5.01367 18.3346 3.93034 18.3346 2.51367C18.3346 1.09701 17.2513 0.0136719 15.8346 0.0136719C14.418 0.0136719 13.3346 1.09701 13.3346 2.51367Z" fill="#2E3138"/>
</g>
<defs>
<clipPath id="clip0_3262_11928">
<rect width="20" height="20" fill="white" transform="translate(0 0.0136719)"/>
</clipPath>
</defs>
</svg>
