<svg width="43" height="40" viewBox="0 0 43 40" fill="none" xmlns="http://www.w3.org/2000/svg">
<g id="Icon">
<ellipse id="Ellipse 3" cx="21.2222" cy="20" rx="21.1111" ry="20" fill="#FF947A"/>
<g id="Order Icon">
<path id="Union" fill-rule="evenodd" clip-rule="evenodd" d="M12.7778 14C12.7778 11.7909 14.6682 10 17.0001 10H23.3334V14C23.3334 16.2091 25.2237 18 27.5556 18H29.6667V26C29.6667 28.2091 27.7764 30 25.4445 30H17.0001C14.6682 30 12.7778 28.2091 12.7778 26V14ZM17.0001 19C16.4171 19 15.9445 19.4477 15.9445 20C15.9445 20.5523 16.4171 21 17.0001 21H19.1112C19.6941 21 20.1667 20.5523 20.1667 20C20.1667 19.4477 19.6941 19 19.1112 19H17.0001ZM17.0001 23C16.4171 23 15.9445 23.4477 15.9445 24C15.9445 24.5523 16.4171 25 17.0001 25H21.2223C21.8052 25 22.2778 24.5523 22.2778 24C22.2778 23.4477 21.8052 23 21.2223 23H17.0001ZM26.1642 12.1988L26.026 14.1629C25.9835 14.7666 26.5122 15.2674 27.1494 15.2272L29.2226 15.0962C30.1275 15.0391 30.54 13.9989 29.8988 13.3913L27.9638 11.5582C27.3225 10.9507 26.2245 11.3415 26.1642 12.1988Z" fill="white"/>
</g>
</g>
</svg>
