<svg width="43" height="40" viewBox="0 0 43 40" fill="none" xmlns="http://www.w3.org/2000/svg">
<g id="Icon">
<ellipse id="Ellipse 3" cx="21.2222" cy="20" rx="21.1111" ry="20" fill="#FA5A7D"/>
<g id="Sales Icon">
<g id="Group 916">
<path id="Subtract" fill-rule="evenodd" clip-rule="evenodd" d="M13.8333 11C12.6673 11 11.7222 11.8954 11.7222 13V27C11.7222 28.1046 12.6673 29 13.8333 29H28.6111C29.777 29 30.7222 28.1046 30.7222 27V13C30.7222 11.8954 29.777 11 28.6111 11H13.8333ZM16.9999 21C16.9999 20.4477 16.5274 20 15.9444 20C15.3614 20 14.8888 20.4477 14.8888 21V25C14.8888 25.5523 15.3614 26 15.9444 26C16.5274 26 16.9999 25.5523 16.9999 25V21ZM21.2222 17C21.8051 17 22.2777 17.4477 22.2777 18V25C22.2777 25.5523 21.8051 26 21.2222 26C20.6392 26 20.1666 25.5523 20.1666 25V18C20.1666 17.4477 20.6392 17 21.2222 17ZM27.5555 15C27.5555 14.4477 27.0829 14 26.4999 14C25.917 14 25.4444 14.4477 25.4444 15V25C25.4444 25.5523 25.917 26 26.4999 26C27.0829 26 27.5555 25.5523 27.5555 25V15Z" fill="white"/>
</g>
</g>
</g>
</svg>
