<svg width="43" height="40" viewBox="0 0 43 40" fill="none" xmlns="http://www.w3.org/2000/svg">
<ellipse cx="21.2222" cy="20" rx="21.1111" ry="20" fill="#3CD856"/>
<path d="M14.9641 13C15.3911 13.1176 15.8512 13.1468 16.2641 13.308C17.6601 13.8517 18.4404 14.6973 18.5273 15.8844C18.5538 16.2434 18.5314 16.6042 18.5314 16.9943C18.9973 16.9943 19.4218 16.9819 19.8446 16.9968C20.567 17.0223 21.1007 17.3651 21.1785 17.8311C21.2671 18.3625 20.9212 18.7998 20.2857 18.9473C19.9778 19.0188 19.6568 18.979 19.3415 18.9852C19.0949 18.9902 18.8475 18.9865 18.6216 18.9865C18.4925 19.0792 18.5389 19.1781 18.5389 19.2665C18.5355 20.8007 18.5347 22.335 18.5372 23.8693C18.538 24.5922 19.0858 24.9979 20.0416 25.0078C21.2414 25.0203 22.4371 25.0315 23.5443 24.5953C25.4533 23.8437 26.4413 22.6542 26.5406 21.0428C26.5605 20.7223 26.548 20.4001 26.5439 20.079C26.5356 19.4376 25.9912 19.0151 25.1339 18.9877C24.8997 18.9803 24.6647 18.9915 24.4314 18.9821C23.7917 18.9554 23.2803 18.5846 23.234 18.1204C23.1794 17.5742 23.5708 17.1225 24.2402 17.0404C26.7839 16.728 29.0222 17.9002 29.1869 19.8924C29.2903 21.1479 29.2026 22.4003 28.4273 23.5551C27.1231 25.4968 25.0536 26.6522 22.1632 26.9446C22.1334 26.9477 22.1094 26.9807 22.083 27H19.2695C19.2538 26.9844 19.2397 26.9577 19.2207 26.9552C17.4846 26.7555 15.8388 25.6032 15.881 23.7523C15.9149 22.2827 15.8884 20.8119 15.8859 19.3417C15.8859 19.2316 15.9248 19.1159 15.8305 18.9871C15.5839 18.9871 15.3249 18.9927 15.0659 18.9859C14.7523 18.9772 14.4337 19.0207 14.1259 18.9373C13.5508 18.7812 13.1511 18.3177 13.233 17.8977C13.3365 17.3695 13.833 17.0304 14.5876 16.9987C15.008 16.9812 15.4317 16.9956 15.881 16.9956C15.881 16.7162 15.8586 16.4686 15.8851 16.2234C15.9753 15.3929 15.2538 15.0252 14.4197 14.986C13.7924 14.9567 13.3249 14.5822 13.2322 14.1C13.1586 13.7136 13.497 13.2868 14.0092 13.0946C14.106 13.0585 14.236 13.0834 14.3021 13H14.9641Z" fill="white"/>
</svg>
