<svg width="43" height="40" viewBox="0 0 43 40" fill="none" xmlns="http://www.w3.org/2000/svg">
<g id="Icon">
<ellipse id="Ellipse 3" cx="21.2222" cy="20" rx="21.1111" ry="20" fill="#BF83FF"/>
<g id="New Costumers Icon">
<g id="Group 914">
<path id="Union" fill-rule="evenodd" clip-rule="evenodd" d="M23.3334 16C23.3334 18.2091 21.443 20 19.1112 20C16.7793 20 14.889 18.2091 14.889 16C14.889 13.7909 16.7793 12 19.1112 12C21.443 12 23.3334 13.7909 23.3334 16ZM19.1112 21C15.0304 21 11.7223 23.2386 11.7223 26C11.7223 27.1046 12.6177 28 13.7223 28H24.5001C25.6046 28 26.5001 27.1046 26.5001 26C26.5001 23.2386 23.1919 21 19.1112 21ZM27.5557 14C28.1386 14 28.6112 14.4477 28.6112 15V16H29.6668C30.2498 16 30.7223 16.4477 30.7223 17C30.7223 17.5523 30.2498 18 29.6668 18H28.6112V19C28.6112 19.5523 28.1386 20 27.5557 20C26.9727 20 26.5001 19.5523 26.5001 19V18H25.4446C24.8616 18 24.389 17.5523 24.389 17C24.389 16.4477 24.8616 16 25.4446 16H26.5001V15C26.5001 14.4477 26.9727 14 27.5557 14Z" fill="white"/>
</g>
</g>
</g>
</svg>
