<svg width="43" height="40" viewBox="0 0 43 40" fill="none" xmlns="http://www.w3.org/2000/svg">
<g id="Icon">
<ellipse id="Ellipse 3" cx="21.2222" cy="20" rx="21.1111" ry="20" fill="#5BA5D7"/>
<g id="New Costumers Icon">
<g id="Group 914">
<path id="Union" fill-rule="evenodd" clip-rule="evenodd" d="M23.3333 16C23.3333 18.2091 21.4429 20 19.1111 20C16.7792 20 14.8888 18.2091 14.8888 16C14.8888 13.7909 16.7792 12 19.1111 12C21.4429 12 23.3333 13.7909 23.3333 16ZM19.1111 21C15.0303 21 11.7222 23.2386 11.7222 26C11.7222 27.1046 12.6176 28 13.7222 28H24.4999C25.6045 28 26.4999 27.1046 26.4999 26C26.4999 23.2386 23.1918 21 19.1111 21ZM27.5556 14C28.1385 14 28.6111 14.4477 28.6111 15V16H29.6667C30.2496 16 30.7222 16.4477 30.7222 17C30.7222 17.5523 30.2496 18 29.6667 18H28.6111V19C28.6111 19.5523 28.1385 20 27.5556 20C26.9726 20 26.5 19.5523 26.5 19V18H25.4444C24.8615 18 24.3889 17.5523 24.3889 17C24.3889 16.4477 24.8615 16 25.4444 16H26.5V15C26.5 14.4477 26.9726 14 27.5556 14Z" fill="white"/>
</g>
</g>
</g>
</svg>
