<svg width="43" height="40" viewBox="0 0 43 40" fill="none" xmlns="http://www.w3.org/2000/svg">
<ellipse cx="21.2222" cy="20" rx="21.1111" ry="20" fill="#FFAA7A"/>
<path d="M20.4833 25.5819C20.8011 25.3901 21.1989 25.3901 21.5167 25.5819L25.151 27.7754C25.9083 28.2325 26.8425 27.5535 26.6416 26.692L25.6771 22.5578C25.5928 22.1963 25.7156 21.8178 25.9962 21.5748L29.2121 18.7889C29.8801 18.2101 29.5239 17.1127 28.6432 17.0368L24.4095 16.6717C24.0406 16.6399 23.7195 16.4069 23.5749 16.0661L21.9205 12.1686C21.5757 11.3562 20.4243 11.3562 20.0795 12.1686L18.4251 16.0661C18.2805 16.4069 17.9594 16.6399 17.5905 16.6717L13.3538 17.037C12.4736 17.1129 12.117 18.2095 12.7843 18.7886L15.9953 21.5754C16.275 21.8182 16.3977 22.1957 16.314 22.5565L15.3543 26.6957C15.1546 27.5567 16.0884 28.2344 16.8452 27.7777L20.4833 25.5819Z" fill="white"/>
</svg>
