<svg width="43" height="40" viewBox="0 0 43 40" fill="none" xmlns="http://www.w3.org/2000/svg">
<g id="Icon">
<ellipse id="Ellipse 3" cx="21.2222" cy="20" rx="21.1111" ry="20" fill="#3CD856"/>
<g id="Disc Icon">
<g id="Group 925">
<path id="Subtract" fill-rule="evenodd" clip-rule="evenodd" d="M26.1054 13.2653L22.6222 13.7367C22.0901 13.8087 21.6553 14.049 21.3449 14.3811L13.2177 22.0806C12.3933 22.8616 12.3932 24.1279 13.2177 24.909L16.2033 27.7374C17.0277 28.5185 18.3644 28.5185 19.1888 27.7374L27.316 20.038C27.6665 19.7439 27.9202 19.332 27.9962 18.8279L28.4938 15.528C28.6929 14.2081 27.4986 13.0767 26.1054 13.2653ZM23.6672 17.8379C24.0794 18.2284 24.7477 18.2285 25.1599 17.8379C25.5722 17.4474 25.5721 16.8142 25.1599 16.4237C24.7478 16.0332 24.0794 16.0332 23.6672 16.4237C23.2549 16.8142 23.255 17.4474 23.6672 17.8379Z" fill="white"/>
</g>
</g>
</g>
</svg>
