<svg width="20" height="21" viewBox="0 0 20 21" fill="none" xmlns="http://www.w3.org/2000/svg">
<g id="delete-sweep-outline">
<path id="Vector" d="M12.5 13.5713H15.8333V15.238H12.5V13.5713ZM12.5 6.90462H18.3333V8.57129H12.5V6.90462ZM12.5 10.238H17.5V11.9046H12.5V10.238ZM9.16667 8.57129V15.238H4.16667V8.57129H9.16667ZM10.8333 6.90462H2.50001V15.238C2.50001 15.68 2.6756 16.1039 2.98816 16.4165C3.30072 16.729 3.72464 16.9046 4.16667 16.9046H9.16667C9.6087 16.9046 10.0326 16.729 10.3452 16.4165C10.6577 16.1039 10.8333 15.68 10.8333 15.238V6.90462ZM11.6667 4.40462H9.16667L8.33334 3.57129H5.00001L4.16667 4.40462H1.66667V6.07129H11.6667V4.40462Z" fill="#E3E5E8"/>
</g>
</svg>
