<svg width="21" height="20" viewBox="0 0 21 20" fill="none" xmlns="http://www.w3.org/2000/svg">
<g id="delete-sweep-outline">
<path id="Vector" d="M13 13.3281H16.3334V14.9948H13V13.3281ZM13 6.66146H18.8334V8.32812H13V6.66146ZM13 9.99479H18V11.6615H13V9.99479ZM9.66669 8.32812V14.9948H4.66669V8.32812H9.66669ZM11.3334 6.66146H3.00002V14.9948C3.00002 15.4368 3.17562 15.8607 3.48818 16.1733C3.80074 16.4859 4.22466 16.6615 4.66669 16.6615H9.66669C10.1087 16.6615 10.5326 16.4859 10.8452 16.1733C11.1578 15.8607 11.3334 15.4368 11.3334 14.9948V6.66146ZM12.1667 4.16146H9.66669L8.83335 3.32812H5.50002L4.66669 4.16146H2.16669V5.82812H12.1667V4.16146Z" fill="#BA1217"/>
</g>
</svg>
