<svg width="32" height="33" viewBox="0 0 32 33" fill="none" xmlns="http://www.w3.org/2000/svg">
<g id="Media / Icon/32px/No/dots-horizontal">
<path id="Icon" d="M4.625 16.0137H4.64125M16 16.0137H16.0163M27.375 16.0137H27.3913M6.25 16.0137C6.25 16.9111 5.52246 17.6387 4.625 17.6387C3.72754 17.6387 3 16.9111 3 16.0137C3 15.1162 3.72754 14.3887 4.625 14.3887C5.52246 14.3887 6.25 15.1162 6.25 16.0137ZM17.625 16.0137C17.625 16.9111 16.8975 17.6387 16 17.6387C15.1025 17.6387 14.375 16.9111 14.375 16.0137C14.375 15.1162 15.1025 14.3887 16 14.3887C16.8975 14.3887 17.625 15.1162 17.625 16.0137ZM29 16.0137C29 16.9111 28.2725 17.6387 27.375 17.6387C26.4775 17.6387 25.75 16.9111 25.75 16.0137C25.75 15.1162 26.4775 14.3887 27.375 14.3887C28.2725 14.3887 29 15.1162 29 16.0137Z" stroke="#111827" stroke-width="2.67" stroke-linecap="round" stroke-linejoin="round"/>
</g>
</svg>
