<svg width="20" height="20" viewBox="0 0 512 512" xmlns="http://www.w3.org/2000/svg"><path d="M445.055 384.794v-162.93l-26.25 13.125v149.788l-17.504 45.008h61.25zm-215.99-78.424L121.3 252.49v53.776c0 36.243 58.764 65.625 131.25 65.625 72.49 0 131.25-29.382 131.25-65.625V252.49l-107.772 53.884c-18.447 7.307-28.515 7.305-46.963-.003"/><path d="m264.291 282.897 186.52-93.26c6.459-3.229 6.459-8.51 0-11.74l-186.52-93.26c-6.455-3.229-17.021-3.229-23.48 0l-186.52 93.26c-6.455 3.229-6.455 8.51 0 11.74l186.52 93.26c6.459 3.229 17.025 3.229 23.48 0"/></svg>