<svg xmlns="http://www.w3.org/2000/svg" width="16" height="17" viewBox="0 0 16 17" fill="none">
  <path d="M0 8.72021C0 13.1385 3.58172 16.7202 8 16.7202C12.4183 16.7202 16 13.1385 16 8.72021C16 4.30194 12.4183 0.720215 8 0.720215C3.58172 0.720215 0 4.30194 0 8.72021Z" fill="#1877F2"/>
  <path d="M12 8.72021C12 6.52021 10.2 4.72021 8 4.72021C5.8 4.72021 4 6.52021 4 8.72021C4 10.7202 5.45 12.3702 7.35 12.6702V9.87021H6.35V8.72021H7.35V7.82021C7.35 6.82021 7.95 6.27022 8.85 6.27022C9.3 6.27022 9.75 6.37021 9.75 6.37021V7.37021H9.25C8.75 7.37021 8.6 7.67021 8.6 7.97021V8.72021H9.7L9.5 9.87021H8.55V12.7202C10.55 12.4202 12 10.7202 12 8.72021Z" fill="white"/>
</svg>