<svg width="16" height="16" viewBox="0 0 16 16" fill="none" xmlns="http://www.w3.org/2000/svg">
<g id="Media / Integrations/fb_messenger">
<path id="bg" fill-rule="evenodd" clip-rule="evenodd" d="M8 14.0896C11.5899 14.0896 14.5 11.2713 14.5 7.79479C14.5 4.31827 11.5899 1.5 8 1.5C4.41015 1.5 1.5 4.31827 1.5 7.79479C1.5 9.6856 2.36084 11.3817 3.72368 12.5356V13.8094C3.72368 14.3073 4.2308 14.6412 4.68294 14.441L6.09649 13.8154C6.69852 13.9936 7.33769 14.0896 8 14.0896Z" fill="url(#paint0_linear_3822_35109)"/>
<path id="fb_messenger" d="M6.4435 6.45666L4.55862 9.03447C4.35652 9.31087 4.71997 9.6429 4.99667 9.43467L6.60614 8.22344C6.76996 8.10015 6.99961 8.09849 7.16535 8.21939L8.59676 9.2636C8.87127 9.46386 9.2636 9.40626 9.46347 9.13637L11.4402 6.46704C11.6453 6.1902 11.279 5.85547 11.0019 6.06642L9.30032 7.3618C9.13646 7.48654 8.90559 7.48883 8.73909 7.36737L7.31233 6.32655C7.03667 6.12546 6.64252 6.18449 6.4435 6.45666Z" fill="white"/>
</g>
<defs>
<linearGradient id="paint0_linear_3822_35109" x1="8" y1="1.5" x2="5.91431" y2="14.4292" gradientUnits="userSpaceOnUse">
<stop stop-color="#00B1FF"/>
<stop offset="1" stop-color="#006BFF"/>
</linearGradient>
</defs>
</svg>
