<svg width="18" height="18" viewBox="0 0 18 18" fill="none" xmlns="http://www.w3.org/2000/svg">
<g id="Group">
<path id="Vector" d="M13.097 5.15326C13.0883 5.59539 13.0209 6.15279 12.7645 6.6828C12.5144 7.20065 12.1426 7.6394 11.5632 7.90948C11.2119 8.07342 10.822 8.17381 10.4159 8.02779C10.3485 8.00345 10.3044 8.02137 10.2509 8.04097C9.56985 8.29009 8.88807 8.29314 8.20549 8.0457C8.15389 8.02711 8.10899 7.99973 8.04125 8.03049C7.75687 8.16029 7.46699 8.11703 7.1834 8.02745C6.79071 7.9034 6.47956 7.68132 6.21685 7.40786C5.65086 6.81734 5.36766 6.1325 5.31764 5.37432C5.24635 4.29367 5.46456 3.26304 6.09002 2.31388C7.05776 0.845514 9.00938 0.284061 10.7227 0.972272C11.4856 1.27852 12.0134 1.79028 12.3967 2.42069C12.8512 3.16873 13.0958 4.08984 13.097 5.15326ZM6.68831 5.39562C6.75408 6.1227 7.0483 6.76832 7.66707 7.28516C8.56982 8.03928 9.84635 8.04368 10.7601 7.29935C11.2934 6.86533 11.5888 6.32213 11.7239 5.70896C11.7468 5.60451 11.7806 5.49939 11.7531 5.35776C11.6633 5.49669 11.5782 5.59742 11.4588 5.66739C10.9768 5.94997 10.4624 5.91786 9.95584 5.74378C9.49541 5.58559 9.34338 5.24047 9.33432 4.84329C9.33077 4.69456 9.27406 4.6638 9.12714 4.71653C9.06097 5.39765 8.84316 5.69071 8.29057 5.808C7.68046 5.9378 7.05382 5.89454 6.68831 5.39562ZM11.2958 4.1926C11.2891 4.11249 11.2316 4.06956 11.191 4.02122C10.6463 3.37256 9.88377 3.09031 8.97511 3.07443C8.78054 3.07105 8.68168 3.0173 8.61236 2.86485C8.5001 2.61776 8.36422 2.37844 8.23818 2.13608C8.17595 2.4261 8.14641 2.71072 8.12672 2.99567C8.11884 3.10755 8.06882 3.17583 7.95223 3.23397C7.46147 3.47836 7.05342 3.79644 6.7978 4.2406C6.77732 4.27609 6.7273 4.31125 6.76393 4.35485C7.36576 4.0601 7.99753 4.07125 8.63008 4.23215C9.03577 4.33558 9.42451 4.35248 9.82193 4.22573C9.95703 4.18246 10.0992 4.16252 10.2434 4.14764C10.5959 4.1108 10.9445 4.13074 11.2958 4.1926ZM7.84471 4.50324C7.61311 4.50899 7.38979 4.51507 7.18064 4.59248C7.08257 4.62899 6.99828 4.67631 6.98528 4.78312C6.94038 5.15326 7.21255 5.44903 7.64383 5.48519C7.75333 5.49432 7.86637 5.48722 7.97626 5.47708C8.45481 5.43246 8.65962 5.23878 8.6801 4.82876C8.6864 4.70234 8.62811 4.62763 8.4938 4.5847C8.28072 4.51676 8.05818 4.51372 7.84471 4.50324ZM10.6116 4.50257C10.3946 4.51372 10.1709 4.51406 9.9586 4.58369C9.87077 4.61242 9.792 4.64791 9.76915 4.73783C9.69077 5.04915 9.90543 5.35979 10.2678 5.44294C10.3871 5.47032 10.512 5.48519 10.6353 5.49128C11.1319 5.51494 11.4061 5.30165 11.4565 4.87506C11.4742 4.72566 11.4049 4.64115 11.2529 4.58808C11.0484 4.51642 10.8326 4.51068 10.6116 4.50257Z" fill="#2E3138"/>
<path id="Vector_2" d="M17.0636 16.971C16.8604 16.973 16.6567 16.9713 16.4535 16.9713H15.5326C15.5326 16.922 15.5311 16.8943 15.5326 16.8666C15.6346 15.3319 15.7355 13.797 15.8399 12.2624C15.893 11.4792 15.5697 10.8454 14.8378 10.3695C14.4704 10.1447 14.056 9.99628 13.6488 9.83673C13.1745 9.61702 12.6948 9.40711 12.2009 9.22153C11.9882 9.09815 11.7523 9.01466 11.5199 8.92509C11.4151 8.85241 11.3237 8.89264 11.2371 8.95213C10.6053 9.38716 9.97435 9.82253 9.34338 10.2576C9.28272 10.2735 9.25751 10.3427 9.18583 10.3373C9.03025 10.2369 8.87743 10.1382 8.72461 10.0395C8.35634 9.76676 7.97941 9.50277 7.58554 9.2577C7.43469 9.15021 7.2858 9.04103 7.13298 8.93557C7.06327 8.88757 6.98174 8.86255 6.89509 8.90143C6.7915 8.94774 6.67491 8.97309 6.58708 9.04475C6.41141 9.11607 6.22905 9.17624 6.06796 9.2719C5.88206 9.33207 5.70678 9.41049 5.53624 9.49668C5.24241 9.61093 4.94819 9.72451 4.67091 9.86715C4.4787 9.93104 4.29634 10.0122 4.1187 10.1014C3.92295 10.1416 3.76107 10.2346 3.60982 10.3441C3.45228 10.4252 3.30615 10.5175 3.2065 10.6544C2.81815 10.9698 2.64878 11.3778 2.55189 11.8567C2.19426 11.223 1.85868 10.628 1.52311 10.0335C1.42582 9.85667 1.33484 9.67752 1.23007 9.50446C1.13199 9.34254 1.07449 9.1617 0.928364 9.0221C0.854317 8.96599 0.782632 8.98661 0.720795 9.03427C0.654625 9.08531 0.657382 9.15156 0.692043 9.21748C0.757819 9.34356 0.824383 9.4693 0.890553 9.59538C1.06149 9.92529 1.21274 10.263 1.41282 10.5817C1.43646 10.6399 1.45536 10.6997 1.48451 10.7561C1.83151 11.4298 2.1789 12.1038 2.52905 12.7765C2.5838 12.8813 2.61137 12.9871 2.61846 13.1017C2.68778 14.1925 2.76064 15.2829 2.83233 16.3737C2.84493 16.5684 2.85832 16.7628 2.87211 16.9713H1.81063C1.63378 16.9713 1.45615 16.9673 1.2793 16.9737C1.14027 16.9788 1.05677 17.0511 1.06307 17.1701C1.06858 17.2793 1.14932 17.3428 1.28245 17.3455C1.35492 17.3472 1.427 17.3465 1.49908 17.3465H16.9533C16.9927 17.3465 17.0321 17.3455 17.0715 17.3469C17.2275 17.3526 17.3373 17.2952 17.3346 17.1573C17.3318 17.019 17.216 16.9693 17.0636 16.971ZM9.99562 10.2772C10.4245 9.99459 10.8547 9.71403 11.2576 9.40406C11.5396 9.1999 11.7027 9.4737 11.9342 9.50513C11.9039 9.60721 11.8803 9.68733 11.8567 9.7671C11.64 10.2843 11.423 10.8014 11.1989 11.3362C10.8192 11.1533 10.4462 10.9732 10.072 10.7943C9.98105 10.7511 9.89676 10.695 9.79042 10.6794C9.73606 10.6422 9.68171 10.6047 9.61554 10.5594C9.74433 10.4638 9.86998 10.3705 9.99562 10.2772ZM6.53154 9.47201C6.63631 9.43178 6.74542 9.39832 6.84388 9.34897C6.93014 9.3057 6.99749 9.31381 7.06642 9.36688C7.21136 9.47978 7.363 9.58558 7.53118 9.67245C7.72694 9.83673 7.94278 9.97971 8.16728 10.1132C8.37091 10.2609 8.57454 10.409 8.79354 10.5682C8.25827 10.8254 7.73482 11.0773 7.20152 11.3338C7.06957 11.133 7.03806 10.9062 6.91872 10.7095C6.87776 10.5462 6.80765 10.3907 6.73281 10.2369C6.65561 10.0358 6.57881 9.8347 6.50161 9.63358C6.47877 9.5751 6.44607 9.51561 6.53154 9.47201ZM3.31167 16.9626C3.24628 15.9826 3.18129 15.0044 3.11631 14.0262C3.13285 14.0228 3.149 14.0194 3.16554 14.016C3.6693 14.9932 4.17345 15.9701 4.68509 16.9626H3.31167ZM15.4078 12.1589C15.3889 12.5362 15.3589 12.9127 15.3337 13.2893C15.2561 14.4534 15.1782 15.6172 15.1002 16.781C15.0962 16.8368 15.0891 16.8926 15.0824 16.9595H10.3206C10.3462 16.9051 10.4123 16.9081 10.4624 16.8926C11.1831 16.6678 11.9035 16.4413 12.6271 16.2233C12.8342 16.1608 12.9276 16.0529 12.9445 15.8647C13.0383 14.8374 13.1407 13.8105 13.2411 12.7836C13.2639 12.551 13.1871 12.4973 12.9225 12.5717C11.807 12.885 10.6932 13.2014 9.57615 13.5103C9.44539 13.5462 9.40876 13.5959 9.40955 13.7108C9.41506 14.7303 9.4127 15.7497 9.4127 16.7692V16.9619H9.01016C8.96447 16.9102 8.98889 16.8466 8.98889 16.7878C8.98692 15.7626 8.98535 14.7374 8.99047 13.7121C8.99126 13.5982 8.9566 13.5472 8.82465 13.5107C7.70764 13.2021 6.59338 12.8857 5.47834 12.5723C5.20618 12.4956 5.13252 12.5507 5.15694 12.7978C5.25777 13.8136 5.36057 14.829 5.45156 15.8454C5.46967 16.0465 5.56105 16.1608 5.78634 16.228C6.55242 16.4572 7.31337 16.6986 8.09284 16.9406C8.03928 16.9845 7.98689 16.971 7.94199 16.971C7.15425 16.972 6.36651 16.968 5.57917 16.9747C5.4425 16.9757 5.38775 16.9315 5.333 16.8331C4.60671 15.5283 3.8363 14.2405 3.15845 12.9175C2.69684 12.0163 3.06432 11.0117 4.02536 10.5554C4.08247 10.528 4.14037 10.5016 4.19787 10.4749C4.37117 10.4016 4.5555 10.3458 4.71029 10.2424C5.00176 10.1565 5.26723 10.0243 5.53663 9.8996C5.72726 9.85701 5.8726 9.72079 6.07781 9.70896C6.33737 10.363 6.59338 11.0185 6.85885 11.6708C6.91714 11.8145 7.04988 11.8375 7.23027 11.7513C7.82028 11.4701 8.41148 11.1908 8.9952 10.9005C9.14368 10.8265 9.25239 10.8268 9.40127 10.9008C9.97317 11.1861 10.5541 11.4586 11.1323 11.7351C11.3777 11.8524 11.4793 11.8189 11.5711 11.5911C11.8244 10.9644 12.0768 10.3377 12.3384 9.68902C12.8587 9.90805 13.3727 10.1244 13.8867 10.3407C14.1316 10.454 14.3762 10.5672 14.6208 10.6808C15.1482 11.0695 15.4389 11.5525 15.4078 12.1589Z" fill="#2E3138"/>
<path id="Vector_3" d="M9.20008 12.2395C8.9551 12.2398 8.76328 12.0746 8.76565 11.865C8.76762 11.6655 8.95707 11.4999 9.18906 11.4945C9.42735 11.4891 9.63058 11.6581 9.63334 11.8643C9.6361 12.0739 9.44507 12.2392 9.20008 12.2395Z" fill="#2E3138"/>
</g>
</svg>
