<svg width="20" height="21" viewBox="0 0 20 21" fill="none" xmlns="http://www.w3.org/2000/svg">
<g id="Media / Icon/20px/No/document-text">
<g id="Icon">
<path d="M6.11024 17.0825H13.888C14.7471 17.0825 15.4436 16.3861 15.4436 15.527V8.07135C15.4436 7.86507 15.3616 7.66724 15.2158 7.52138L11.0047 3.31033C10.8589 3.16446 10.661 3.08252 10.4547 3.08252H6.11024C5.25113 3.08252 4.55469 3.77897 4.55469 4.63807V15.527C4.55469 16.3861 5.25113 17.0825 6.11024 17.0825Z" fill="#20AC90"/>
<path d="M7.6658 10.0825H12.3325M7.6658 13.1936H12.3325M13.888 17.0825H6.11024C5.25113 17.0825 4.55469 16.3861 4.55469 15.527V4.63808C4.55469 3.77897 5.25113 3.08252 6.11024 3.08252H10.4547C10.661 3.08252 10.8589 3.16446 11.0047 3.31033L15.2158 7.52138C15.3616 7.66724 15.4436 7.86507 15.4436 8.07135V15.527C15.4436 16.3861 14.7471 17.0825 13.888 17.0825Z" stroke="white" stroke-width="1.67" stroke-linecap="round" stroke-linejoin="round"/>
</g>
</g>
</svg>
