<svg width="20" height="20" viewBox="0 0 20 20" fill="none" xmlns="http://www.w3.org/2000/svg">
<g id="file-certificate-outline">
<rect x="0.5" y="0.5" width="19" height="19" rx="9.5" fill="white"/>
<path id="Vector" d="M11.5833 10.7918V9.2085L9.99992 10.0002L8.41659 9.2085V10.7918L6.83325 11.5835L8.41659 12.3752V13.9585L9.99992 13.1668L11.5833 13.9585V12.3752L13.1666 11.5835L11.5833 10.7918ZM11.5833 2.0835H6.04159C5.62166 2.0835 5.21893 2.25031 4.922 2.54724C4.62507 2.84418 4.45825 3.2469 4.45825 3.66683V14.7502C4.45825 15.1701 4.62507 15.5728 4.922 15.8697C5.21893 16.1667 5.62166 16.3335 6.04159 16.3335H6.83325V14.7502H6.04159V3.66683H10.7916V6.8335H13.9583V14.7502H13.1666V16.3335H13.9583C14.3782 16.3335 14.7809 16.1667 15.0778 15.8697C15.3748 15.5728 15.5416 15.1701 15.5416 14.7502V6.04183L11.5833 2.0835ZM11.5833 10.7918V9.2085L9.99992 10.0002L8.41659 9.2085V10.7918L6.83325 11.5835L8.41659 12.3752V13.9585L9.99992 13.1668L11.5833 13.9585V12.3752L13.1666 11.5835L11.5833 10.7918ZM8.41659 18.7085L9.99992 17.9168L11.5833 18.7085V14.7502H8.41659V18.7085ZM11.5833 10.7918V9.2085L9.99992 10.0002L8.41659 9.2085V10.7918L6.83325 11.5835L8.41659 12.3752V13.9585L9.99992 13.1668L11.5833 13.9585V12.3752L13.1666 11.5835L11.5833 10.7918Z" fill="#1E567B"/>
</g>
</svg>
