<svg width="17" height="17" viewBox="0 0 17 17" fill="none" xmlns="http://www.w3.org/2000/svg">
<g id="file-certificate-outline">
<path id="Vector" d="M10.0332 8.85555V7.52222L8.69987 8.18888L7.36654 7.52222V8.85555L6.0332 9.52222L7.36654 10.1889V11.5222L8.69987 10.8556L10.0332 11.5222V10.1889L11.3665 9.52222L10.0332 8.85555ZM10.0332 1.52222H5.36654C5.01291 1.52222 4.67378 1.66269 4.42373 1.91274C4.17368 2.16279 4.0332 2.50193 4.0332 2.85555V12.1889C4.0332 12.5425 4.17368 12.8816 4.42373 13.1317C4.67378 13.3817 5.01291 13.5222 5.36654 13.5222H6.0332V12.1889H5.36654V2.85555H9.36654V5.52222H12.0332V12.1889H11.3665V13.5222H12.0332C12.3868 13.5222 12.726 13.3817 12.976 13.1317C13.2261 12.8816 13.3665 12.5425 13.3665 12.1889V4.85555L10.0332 1.52222ZM10.0332 8.85555V7.52222L8.69987 8.18888L7.36654 7.52222V8.85555L6.0332 9.52222L7.36654 10.1889V11.5222L8.69987 10.8556L10.0332 11.5222V10.1889L11.3665 9.52222L10.0332 8.85555ZM7.36654 15.5222L8.69987 14.8556L10.0332 15.5222V12.1889H7.36654V15.5222ZM10.0332 8.85555V7.52222L8.69987 8.18888L7.36654 7.52222V8.85555L6.0332 9.52222L7.36654 10.1889V11.5222L8.69987 10.8556L10.0332 11.5222V10.1889L11.3665 9.52222L10.0332 8.85555Z" fill="#2E3138"/>
</g>
</svg>
