<svg width="16" height="17" viewBox="0 0 16 17" fill="none" xmlns="http://www.w3.org/2000/svg">
<g id="file-document-edit-outline">
<path id="Vector" d="M5.33329 8.38542H10.6666V9.71875H5.33329V8.38542ZM6.66663 13.7188H3.99996V3.05208H8.66663V6.38542H12V8.45208L13.3333 7.11875V5.71875L9.33329 1.71875H3.99996C3.64634 1.71875 3.3072 1.85923 3.05715 2.10927C2.8071 2.35932 2.66663 2.69846 2.66663 3.05208V13.7188C2.66663 14.0724 2.8071 14.4115 3.05715 14.6616C3.3072 14.9116 3.64634 15.0521 3.99996 15.0521H6.66663V13.7188ZM5.33329 12.3854H8.06663L8.66663 11.7854V11.0521H5.33329V12.3854ZM13.4666 9.05208C13.5333 9.05208 13.6666 9.11875 13.7333 9.18542L14.6 10.0521C14.7333 10.1854 14.7333 10.4521 14.6 10.5854L13.9333 11.2521L12.5333 9.85208L13.2 9.18542C13.2666 9.11875 13.3333 9.05208 13.4666 9.05208ZM13.4666 11.6521L9.39996 15.7188H7.99996V14.3188L12.0666 10.2521L13.4666 11.6521Z" fill="#464A53"/>
</g>
</svg>
