<svg width="20" height="21" viewBox="0 0 20 21" fill="none" xmlns="http://www.w3.org/2000/svg">
<g id="file-document-edit-outline">
<path id="Vector" d="M6.66667 10.2386H13.3333V11.9053H6.66667V10.2386ZM8.33334 16.9053H5V3.57194H10.8333V7.73861H15V10.3219L16.6667 8.65527V6.90527L11.6667 1.90527H5C4.55798 1.90527 4.13405 2.08087 3.82149 2.39343C3.50893 2.70599 3.33334 3.12991 3.33334 3.57194V16.9053C3.33334 17.3473 3.50893 17.7712 3.82149 18.0838C4.13405 18.3963 4.55798 18.5719 5 18.5719H8.33334V16.9053ZM6.66667 15.2386H10.0833L10.8333 14.4886V13.5719H6.66667V15.2386ZM16.8333 11.0719C16.9167 11.0719 17.0833 11.1553 17.1667 11.2386L18.25 12.3219C18.4167 12.4886 18.4167 12.8219 18.25 12.9886L17.4167 13.8219L15.6667 12.0719L16.5 11.2386C16.5833 11.1553 16.6667 11.0719 16.8333 11.0719ZM16.8333 14.3219L11.75 19.4053H10V17.6553L15.0833 12.5719L16.8333 14.3219Z" fill="#E3E5E8"/>
</g>
</svg>
