<svg width="16" height="17" viewBox="0 0 16 17" fill="none" xmlns="http://www.w3.org/2000/svg">
<g id="file-document-multiple-outline" clip-path="url(#clip0_2123_10978)">
<path id="Vector" d="M10.6667 0.385742H5.33337C4.60004 0.385742 4.00004 0.985742 4.00004 1.71908V12.3857C4.00004 13.1191 4.60004 13.7191 5.33337 13.7191H13.3334C14.0667 13.7191 14.6667 13.1191 14.6667 12.3857V4.38574L10.6667 0.385742ZM13.3334 12.3857H5.33337V1.71908H10V5.05241H13.3334V12.3857ZM2.66671 3.05241V15.0524H13.3334V16.3857H2.66671C1.93337 16.3857 1.33337 15.7857 1.33337 15.0524V3.05241H2.66671ZM6.66671 7.05241V8.38574H12V7.05241H6.66671ZM6.66671 9.71908V11.0524H10V9.71908H6.66671Z" fill="#464A53"/>
</g>
<defs>
<clipPath id="clip0_2123_10978">
<rect width="16" height="16" fill="white" transform="translate(0 0.385742)"/>
</clipPath>
</defs>
</svg>
