<svg width="20" height="20" viewBox="0 0 20 20" fill="none" xmlns="http://www.w3.org/2000/svg">
<g id="file-certificate-outline">
<rect x="0.5" y="0.578125" width="19" height="19" rx="9.5" fill="white"/>
<path id="Vector" d="M11.5833 10.8704V9.28711L9.99998 10.0788L8.41665 9.28711V10.8704L6.83331 11.6621L8.41665 12.4538V14.0371L9.99998 13.2454L11.5833 14.0371V12.4538L13.1666 11.6621L11.5833 10.8704ZM11.5833 2.16211H6.04165C5.62172 2.16211 5.21899 2.32892 4.92206 2.62586C4.62513 2.92279 4.45831 3.32552 4.45831 3.74544V14.8288C4.45831 15.2487 4.62513 15.6514 4.92206 15.9484C5.21899 16.2453 5.62172 16.4121 6.04165 16.4121H6.83331V14.8288H6.04165V3.74544H10.7916V6.91211H13.9583V14.8288H13.1666V16.4121H13.9583C14.3782 16.4121 14.781 16.2453 15.0779 15.9484C15.3748 15.6514 15.5416 15.2487 15.5416 14.8288V6.12044L11.5833 2.16211ZM11.5833 10.8704V9.28711L9.99998 10.0788L8.41665 9.28711V10.8704L6.83331 11.6621L8.41665 12.4538V14.0371L9.99998 13.2454L11.5833 14.0371V12.4538L13.1666 11.6621L11.5833 10.8704ZM8.41665 18.7871L9.99998 17.9954L11.5833 18.7871V14.8288H8.41665V18.7871ZM11.5833 10.8704V9.28711L9.99998 10.0788L8.41665 9.28711V10.8704L6.83331 11.6621L8.41665 12.4538V14.0371L9.99998 13.2454L11.5833 14.0371V12.4538L13.1666 11.6621L11.5833 10.8704Z" fill="#1E567B"/>
</g>
</svg>
