<svg width="21" height="20" viewBox="0 0 21 20" fill="none" xmlns="http://www.w3.org/2000/svg">
<g id="file-document-edit-outline" clip-path="url(#clip0_2066_19822)">
<path id="Vector" d="M7.16665 9.99349H13.8333V11.6602H7.16665V9.99349ZM8.83331 16.6602H5.49998V3.32682H11.3333V7.49349H15.5V10.0768L17.1666 8.41016V6.66016L12.1666 1.66016H5.49998C5.05795 1.66016 4.63403 1.83575 4.32147 2.14831C4.00891 2.46087 3.83331 2.8848 3.83331 3.32682V16.6602C3.83331 17.1022 4.00891 17.5261 4.32147 17.8387C4.63403 18.1512 5.05795 18.3268 5.49998 18.3268H8.83331V16.6602ZM7.16665 14.9935H10.5833L11.3333 14.2435V13.3268H7.16665V14.9935ZM17.3333 10.8268C17.4166 10.8268 17.5833 10.9102 17.6666 10.9935L18.75 12.0768C18.9166 12.2435 18.9166 12.5768 18.75 12.7435L17.9166 13.5768L16.1666 11.8268L17 10.9935C17.0833 10.9102 17.1666 10.8268 17.3333 10.8268ZM17.3333 14.0768L12.25 19.1602H10.5V17.4102L15.5833 12.3268L17.3333 14.0768Z" fill="#18816C"/>
</g>
<defs>
<clipPath id="clip0_2066_19822">
<rect width="20" height="20" fill="white" transform="translate(0.5 -0.00585938)"/>
</clipPath>
</defs>
</svg>
