<svg width="17" height="17" viewBox="0 0 17 17" fill="none" xmlns="http://www.w3.org/2000/svg">
<g id="Group">
<g id="Group_2">
<path id="Vector" fill-rule="evenodd" clip-rule="evenodd" d="M2.83547 7.97327C3.54932 7.71891 4.30051 7.38085 4.8798 6.89141C5.5678 6.31008 5.8476 5.56137 6.03549 4.77327C6.27673 3.76076 6.37311 2.68218 6.66563 1.66803C6.77394 1.29141 6.98237 1.14905 7.0718 1.08587C7.29785 0.926281 7.52635 0.883623 7.74132 0.899623C7.99609 0.918085 8.34606 1.01449 8.57621 1.44157C8.60903 1.50269 8.65168 1.59583 8.6804 1.72342C8.70132 1.81695 8.71486 2.10946 8.73702 2.23008C8.7924 2.5271 8.83876 2.82414 8.88225 3.12281C9.02707 4.11686 9.11036 4.96115 9.5678 5.87438C10.1885 7.11418 10.8105 7.87274 11.654 8.20874C12.4695 8.53367 13.4447 8.47255 14.6907 8.21778C14.8092 8.18906 14.9266 8.16444 15.0427 8.14434C15.592 8.04834 16.1171 8.40896 16.225 8.95624C16.3329 9.50311 15.9838 10.036 15.4394 10.1562C15.3257 10.1813 15.2137 10.2051 15.103 10.2268C13.4193 10.6436 11.4701 12.1312 10.3374 13.4338C9.9883 13.8354 9.47713 14.9583 8.95569 15.6746C8.57087 16.203 8.13845 16.5513 7.77538 16.6744C7.5321 16.7573 7.32698 16.7446 7.15754 16.7027C6.91139 16.642 6.70709 16.5086 6.55037 16.2965C6.46503 16.1804 6.38584 16.0249 6.34809 15.8264C6.33004 15.7308 6.328 15.4879 6.32841 15.378C6.22216 15.0125 6.0921 14.6555 5.99733 14.2867C5.77128 13.4067 5.32779 12.8496 4.80102 12.1136C4.3083 11.4247 3.77909 10.9919 3.00329 10.6465C2.90237 10.6219 2.08801 10.4225 1.80042 10.308C1.38032 10.1402 1.1801 9.8592 1.10748 9.70782C0.983997 9.451 0.971291 9.2266 0.995906 9.03952C1.03242 8.76342 1.15632 8.52712 1.37621 8.33635C1.51242 8.21778 1.71591 8.10249 1.98832 8.04628C2.19878 8.00239 2.75712 7.97696 2.83547 7.97327ZM7.61292 6.539C7.65066 6.6231 7.69087 6.70762 7.73354 6.79295C8.64266 8.60875 9.65928 9.62249 10.895 10.1144L10.9364 10.1304C10.1097 10.7441 9.36142 11.4301 8.78953 12.0877C8.55404 12.3585 8.24226 12.921 7.90544 13.4978C7.59938 12.5029 7.09887 11.7997 6.46954 10.9197C5.98872 10.2481 5.48492 9.74271 4.86585 9.33081C5.34626 9.08425 5.80451 8.79542 6.20369 8.45819C6.8683 7.89655 7.30769 7.24587 7.61292 6.539Z" fill="#2E3138"/>
</g>
</g>
</svg>
