<svg width="20" height="21" viewBox="0 0 20 21" fill="none" xmlns="http://www.w3.org/2000/svg">
<g id="Icons / chatting / question">
<path id="Path" fill-rule="evenodd" clip-rule="evenodd" d="M10.0013 18.3471C11.4384 18.3471 12.8238 17.9821 14.0509 17.2986L17.5802 17.5927L17.2861 14.0633C17.9696 12.8363 18.3346 11.4509 18.3346 10.0138C18.3346 5.41138 14.6037 1.68042 10.0013 1.68042C5.39893 1.68042 1.66797 5.41138 1.66797 10.0138C1.66797 14.6161 5.39893 18.3471 10.0013 18.3471ZM13.4305 15.7322L13.661 15.5936L15.7557 15.7682L15.5812 13.6734L15.7197 13.4429C16.3372 12.4158 16.668 11.24 16.668 10.0138C16.668 6.33185 13.6832 3.34709 10.0013 3.34709C6.3194 3.34709 3.33464 6.33185 3.33464 10.0138C3.33464 13.6957 6.3194 16.6804 10.0013 16.6804C11.2276 16.6804 12.4033 16.3496 13.4305 15.7322ZM10.0016 14.179C10.462 14.179 10.8352 13.8059 10.8352 13.3457C10.8352 12.8855 10.462 12.5124 10.0016 12.5124C9.54119 12.5124 9.16797 12.8855 9.16797 13.3457C9.16797 13.8059 9.54119 14.179 10.0016 14.179ZM9.16797 11.6804H10.8346V10.8471C10.8346 10.8491 10.8386 10.8448 10.8475 10.835C10.8694 10.8109 10.9212 10.7538 11.0184 10.6767C11.1019 10.6104 11.1277 10.5933 11.3386 10.4596C12.0563 10.0046 12.5013 9.21339 12.5013 8.34709C12.5013 6.96637 11.382 5.84709 10.0013 5.84709C8.62059 5.84709 7.5013 6.96637 7.5013 8.34709H9.16797C9.16797 7.88685 9.54106 7.51375 10.0013 7.51375C10.4615 7.51375 10.8346 7.88685 10.8346 8.34709C10.8346 8.63652 10.6867 8.89948 10.4463 9.05193C10.1764 9.22299 10.1316 9.25267 9.98254 9.37096C9.48692 9.76415 9.16797 10.2327 9.16797 10.8471V11.6804Z" fill="#2E3138"/>
</g>
</svg>
