<svg xmlns="http://www.w3.org/2000/svg" width="16" height="17" viewBox="0 0 16 17" fill="none">
  <g clip-path="url(#clip0_1_11143)">
    <path fill-rule="evenodd" clip-rule="evenodd" d="M8 0.720215C3.5816 0.720215 0 4.30741 0 8.73381C0 12.2738 2.292 15.2778 5.4712 16.337C5.8712 16.4106 6.0168 16.1634 6.0168 15.9506C6.0168 15.761 6.0104 15.2562 6.0064 14.5882C3.7808 15.0722 3.3112 13.5138 3.3112 13.5138C2.948 12.5874 2.4232 12.341 2.4232 12.341C1.6968 11.845 2.4784 11.8546 2.4784 11.8546C3.2808 11.9106 3.7032 12.6802 3.7032 12.6802C4.4168 13.9042 5.576 13.5506 6.0312 13.3458C6.1048 12.8282 6.3112 12.4754 6.54 12.2754C4.764 12.073 2.896 11.385 2.896 8.31461C2.896 7.44021 3.208 6.72421 3.7192 6.16421C3.6368 5.96181 3.3624 5.14661 3.7976 4.04421C3.7976 4.04421 4.4696 3.82821 5.9976 4.86501C6.65021 4.68703 7.32355 4.59637 8 4.59541C8.68 4.59861 9.364 4.68741 10.0032 4.86501C11.5304 3.82821 12.2008 4.04341 12.2008 4.04341C12.6376 5.14661 12.3624 5.96181 12.2808 6.16421C12.7928 6.72421 13.1032 7.44021 13.1032 8.31461C13.1032 11.393 11.232 12.0706 9.4504 12.269C9.7376 12.5162 9.9928 13.005 9.9928 13.753C9.9928 14.8234 9.9832 15.6882 9.9832 15.9506C9.9832 16.165 10.1272 16.4146 10.5336 16.3362C12.1266 15.8019 13.5115 14.7805 14.4924 13.4163C15.4733 12.052 16.0007 10.4141 16 8.73381C16 4.30741 12.4176 0.720215 8 0.720215Z" fill="#F1F2F3"/>
  </g>
  <defs>
    <clipPath id="clip0_1_11143">
      <rect width="16" height="16" fill="white" transform="translate(0 0.720215)"/>
    </clipPath>
  </defs>
</svg>