<svg width="20" height="21" viewBox="0 0 20 21" fill="none" xmlns="http://www.w3.org/2000/svg">
<g clip-path="url(#clip0_3919_38356)">
<path d="M10 0.432617C8.02219 0.432617 6.08879 1.01911 4.4443 2.11792C2.79981 3.21674 1.51809 4.77852 0.761209 6.60578C0.00433278 8.43304 -0.1937 10.4437 0.192152 12.3835C0.578004 14.3233 1.53041 16.1052 2.92894 17.5037C4.32746 18.9022 6.10929 19.8546 8.0491 20.2405C9.98891 20.6263 11.9996 20.4283 13.8268 19.6714C15.6541 18.9145 17.2159 17.6328 18.3147 15.9883C19.4135 14.3438 20 12.4104 20 10.4326C20 7.78045 18.9464 5.23691 17.0711 3.36155C15.1957 1.48619 12.6522 0.432617 10 0.432617ZM15.9375 11.2139H14.6875V12.4639H13.4375V11.2139H12.1875V9.96387H13.4375V8.71387H14.6875V9.96387H15.9375V11.2139Z" fill="white"/>
<g clip-path="url(#clip1_3919_38356)">
<path d="M11.4377 10.5201C11.4377 10.1963 11.4109 9.96008 11.3529 9.71509H7.58057V11.1763H9.79483C9.75021 11.5395 9.50914 12.0863 8.97341 12.4538L8.9659 12.5027L10.1586 13.4083L10.2413 13.4163C11.0002 12.7295 11.4377 11.7188 11.4377 10.5201Z" fill="#4285F4"/>
<path d="M7.58049 14.3701C8.66529 14.3701 9.57599 14.0201 10.2412 13.4164L8.97333 12.4539C8.63406 12.6857 8.17869 12.8476 7.58049 12.8476C6.518 12.8476 5.61623 12.1607 5.29477 11.2114L5.24765 11.2153L4.00743 12.1559L3.99121 12.2001C4.65192 13.4864 6.00906 14.3701 7.58049 14.3701Z" fill="#34A853"/>
<path d="M5.29511 11.2114C5.21029 10.9664 5.1612 10.7038 5.1612 10.4326C5.1612 10.1613 5.21029 9.89885 5.29065 9.65385L5.2884 9.60167L4.03264 8.64594L3.99155 8.66509C3.71924 9.19884 3.56299 9.79823 3.56299 10.4326C3.56299 11.067 3.71924 11.6663 3.99155 12.2001L5.29511 11.2114Z" fill="#FBBC05"/>
<path d="M7.58051 8.01761C8.33497 8.01761 8.84389 8.33698 9.13408 8.60387L10.268 7.51887C9.57159 6.88449 8.66532 6.49512 7.58051 6.49512C6.00907 6.49512 4.65192 7.37886 3.99121 8.6651L5.29032 9.65386C5.61624 8.70449 6.51802 8.01761 7.58051 8.01761Z" fill="#EB4335"/>
</g>
</g>
<defs>
<clipPath id="clip0_3919_38356">
<rect width="20" height="20" fill="white" transform="translate(0 0.432617)"/>
</clipPath>
<clipPath id="clip1_3919_38356">
<rect width="9" height="9" fill="white" transform="translate(3 5.93262)"/>
</clipPath>
</defs>
</svg>
