<svg width="20" height="20" viewBox="0 0 20 20" fill="none" xmlns="http://www.w3.org/2000/svg">
<g clip-path="url(#clip0_1473_1050)">
<path d="M10 0C8.02219 0 6.08879 0.58649 4.4443 1.6853C2.79981 2.78412 1.51809 4.3459 0.761209 6.17317C0.00433278 8.00043 -0.1937 10.0111 0.192152 11.9509C0.578004 13.8907 1.53041 15.6725 2.92894 17.0711C4.32746 18.4696 6.10929 19.422 8.0491 19.8079C9.98891 20.1937 11.9996 19.9957 13.8268 19.2388C15.6541 18.4819 17.2159 17.2002 18.3147 15.5557C19.4135 13.9112 20 11.9778 20 10C20 7.34784 18.9464 4.8043 17.0711 2.92893C15.1957 1.05357 12.6522 0 10 0Z" fill="white"/>
<path d="M12.625 8.94999C13.4948 8.94999 14.2 8.24484 14.2 7.37499C14.2 6.50514 13.4948 5.79999 12.625 5.79999C11.7551 5.79999 11.05 6.50514 11.05 7.37499C11.05 7.44087 11.054 7.5058 11.0619 7.56956L8.46835 8.86633C8.18508 8.59306 7.79966 8.42499 7.37499 8.42499C6.50514 8.42499 5.79999 9.13014 5.79999 9.99999C5.79999 10.8698 6.50514 11.575 7.37499 11.575C7.79967 11.575 8.1851 11.4069 8.46837 11.1336L11.0619 12.4304C11.054 12.4942 11.05 12.5591 11.05 12.625C11.05 13.4948 11.7551 14.2 12.625 14.2C13.4948 14.2 14.2 13.4948 14.2 12.625C14.2 11.7551 13.4948 11.05 12.625 11.05C12.2003 11.05 11.8149 11.2181 11.5316 11.4913L8.93809 10.1946C8.94594 10.1308 8.94999 10.0659 8.94999 9.99999C8.94999 9.9341 8.94594 9.86916 8.93809 9.80539L11.5316 8.50863C11.8149 8.7819 12.2003 8.94999 12.625 8.94999Z" fill="#20AC90"/>
</g>
<defs>
<clipPath id="clip0_1473_1050">
<rect width="20" height="20" fill="white"/>
</clipPath>
</defs>
</svg>
