<svg xmlns="http://www.w3.org/2000/svg" width="45" height="43" viewBox="0 0 45 43" fill="none">
  <path fill-rule="evenodd" clip-rule="evenodd" d="M9.44364 12.0956C11.22 9.36009 12.6235 6.35375 13.962 3.43028C14.2481 2.79991 13.9832 2.04918 13.357 1.80245C12.7449 1.50874 12.0123 1.7945 11.7408 2.37803C10.446 5.21235 9.09587 8.1319 7.39468 10.7367C7.02907 11.2908 7.18605 12.0597 7.74967 12.4411C8.31282 12.8223 9.07756 12.6496 9.44364 12.0956Z" fill="#20AC90"/>
  <path fill-rule="evenodd" clip-rule="evenodd" d="M18.5366 24.9031C24.9651 21.6141 30.9499 17.5185 37.4813 14.3644C38.085 14.0901 38.344 13.3485 38.0494 12.7426C37.7542 12.1366 37.0268 11.8585 36.4085 12.1796C29.8626 15.3291 23.8638 19.4204 17.4207 22.7048C16.8136 23.0294 16.5734 23.7767 16.8807 24.3866C17.2022 24.9494 17.9295 25.2277 18.5366 24.9031Z" fill="#20AC90"/>
  <path fill-rule="evenodd" clip-rule="evenodd" d="M34.6543 39.8515C31.7925 39.113 28.9307 38.3742 26.0683 37.6356C25.4228 37.4342 24.749 37.8411 24.5759 38.5067C24.4031 39.1725 24.8066 39.812 25.4525 40.0135C28.3191 40.7534 31.1851 41.4935 34.0512 42.2333C34.7113 42.3878 35.3818 41.9801 35.5512 41.3133C35.706 40.6934 35.3139 40.0058 34.6543 39.8515Z" fill="#20AC90"/>
</svg>