<svg xmlns="http://www.w3.org/2000/svg" width="349" height="386" viewBox="0 0 349 386" fill="none">
  <path d="M362.389 20.1287C320.125 47.9215 277.362 109.473 271.983 185.599C290.829 184.417 309.297 185.619 326 189.28C367.347 198.34 396.418 221.753 410.139 257.013C410.271 257.352 410.4 257.692 410.529 258.033C414.171 267.658 415.193 278.033 413.488 288.034C411.751 298.215 407.248 307.612 400.465 315.213C393.875 322.596 385.712 327.913 376.203 331.02C367.906 333.732 358.765 334.697 349.036 333.892C331.911 332.475 314.082 325.64 300.126 315.14C286.111 304.598 274.15 290.131 265.534 273.304C257.179 256.98 252.053 238.647 250.711 220.282C250.486 217.194 250.315 214.105 250.201 211.019C241.864 212.467 233.569 214.42 225.455 216.866C136.007 243.837 57.3576 312.475 20.1967 395.99L0.887485 386.346C11.0741 363.453 24.1532 341.417 39.7578 320.855C54.8286 300.998 72.2321 282.538 91.4856 265.984C129.394 233.39 173.749 208.832 219.752 194.959C229.762 191.941 240.046 189.61 250.374 187.982C251.116 173.872 253.025 159.894 256.096 146.166C260.965 124.39 268.73 103.292 279.174 83.4594C288.605 65.5495 300.002 49.0342 313.051 34.3732C324.959 20.992 338.166 9.37309 351.243 0.775533L362.389 20.1287ZM279.571 251.879C286.58 269.893 297.978 285.567 312.531 296.51C323.295 304.606 337.611 310.093 350.827 311.186C360.946 312.025 375.093 310.689 385.013 299.575C392.868 290.776 395.042 278.161 390.691 266.658C379.756 237.775 356.505 219.244 321.564 211.585C306.159 208.208 289.027 207.177 271.517 208.413C271.614 211.708 271.785 215.033 272.028 218.371C272.877 230.023 275.475 241.352 279.571 251.879Z" fill="#E2EEF5" />
</svg>