<svg width="622" height="289" viewBox="0 0 622 289" fill="none" xmlns="http://www.w3.org/2000/svg">
<path d="M621.609 -85.6217C590.136 -66.6081 555.702 -53.9674 519.273 -48.0602C482.84 -42.1485 446.463 -43.2989 411.142 -51.4795C381.71 -58.2951 353.309 -69.5207 326.732 -84.8365C311.098 -93.848 296.525 -104.037 283.136 -115.308C279.075 -100.175 274.183 -84.2385 268.418 -67.3203C245.369 0.343287 208.715 63.7385 162.422 116.013C122.021 161.637 74.0619 199.851 19.8769 229.602C-33.0553 258.663 -89.8269 278.526 -148.857 288.623L-156.842 235.066C-47.3601 216.331 52.9777 160.792 125.69 78.6846C167.254 31.751 200.158 -25.1664 220.855 -85.9139C229.94 -112.583 236.749 -137.052 241.274 -159.247C233.144 -170.167 226.088 -181.671 220.207 -193.622C210.581 -213.184 204.326 -233.498 201.62 -253.995C197.704 -283.682 207.99 -307.475 228.474 -316.09C243.639 -322.467 261.673 -318.317 274.414 -305.517C284.491 -295.396 288.931 -282.806 291.399 -274.214C299.307 -246.669 300.714 -213.549 295.592 -175.663C328.194 -141.393 373.805 -115.605 421.833 -104.485C480.607 -90.8761 544.359 -101.216 596.737 -132.857L621.609 -85.6217Z" fill="#E2EEF5"/>
</svg>
