<svg xmlns="http://www.w3.org/2000/svg" width="14" height="14" viewBox="0 0 14 14" fill="none">
  <g clip-path="url(#clip0_1473_1014)">
    <mask id="mask0_1473_1014" style="mask-type:luminance" maskUnits="userSpaceOnUse" x="0" y="0" width="14" height="14">
      <path d="M13.9767 0H0V14H13.9767V0Z" fill="white"/>
    </mask>
    <g mask="url(#mask0_1473_1014)">
      <path d="M7.10191 0.113764C5.89351 0.113764 4.70549 0.434597 3.66015 1.04418C2.61481 1.65085 1.74709 2.52293 1.14725 3.57293C0.544509 4.62293 0.230033 5.81293 0.232945 7.02335C0.235857 8.23668 0.556156 9.42377 1.16473 10.4708C1.19093 10.5146 1.40058 10.9083 0.981281 11.3283C0.695923 11.6054 0.396007 11.8679 0.0844426 12.1158C0.0611481 12.1363 0.0407654 12.1596 0.0262063 12.1858C0.0116473 12.2121 0.00291181 12.2442 0 12.2733C0 12.3054 0.00291181 12.3346 0.0145591 12.3638C0.0262063 12.3929 0.0436772 12.4192 0.0640599 12.4396C0.133943 12.5096 0.436772 12.7342 1.48502 12.7342C1.90433 12.7342 2.32072 12.6846 2.72837 12.5883C2.82737 12.5621 2.92928 12.5475 3.0312 12.5417C3.90765 13.1921 4.92388 13.6238 5.99834 13.8017C7.0728 13.9796 8.17346 13.9008 9.21298 13.5713C10.2496 13.2417 11.1959 12.6671 11.9676 11.9C12.7421 11.1329 13.3215 10.1908 13.6622 9.15543C14.0029 8.12001 14.0903 7.01751 13.9243 5.93835C13.7554 4.8621 13.3332 3.83835 12.6955 2.9546C12.0549 2.07085 11.2163 1.35335 10.2438 0.86043C9.26539 0.367514 8.19093 0.110847 7.10191 0.113764ZM7.10191 12.9558C5.82945 12.9588 4.58902 12.5504 3.56697 11.7892C3.49709 11.7396 3.41265 11.7133 3.3282 11.7163C3.20882 11.7221 3.08943 11.7396 2.97296 11.7688C2.62354 11.8504 2.2683 11.8913 1.91015 11.8942C1.651 11.9 1.39185 11.8767 1.13561 11.8242C1.31032 11.6783 1.54035 11.48 1.73253 11.2817C2.22171 10.7917 2.10815 10.2463 1.96547 9.99835C1.30449 8.86668 1.03952 7.54543 1.20549 6.24168C1.37146 4.93793 1.96256 3.72751 2.88852 2.7971C3.81448 1.86668 5.01997 1.26585 6.31864 1.09085C7.6173 0.915847 8.93927 1.17835 10.0749 1.83168C11.2105 2.48793 12.1015 3.50001 12.6023 4.71335C13.1061 5.92668 13.1934 7.27126 12.8557 8.54001C12.5179 9.80876 11.7696 10.9317 10.7271 11.7308C9.6876 12.53 8.41223 12.9617 7.099 12.9617V12.9558H7.10191Z" fill="white"/>
      <path d="M3.49417 5.90627C3.43594 5.90627 3.38061 5.9296 3.33985 5.97044C3.29908 6.01127 3.27579 6.06669 3.27579 6.12502V8.53127C3.27579 8.5896 3.29908 8.64502 3.33985 8.68585C3.38061 8.72669 3.43594 8.75002 3.49417 8.75002C3.55241 8.75002 3.60773 8.72669 3.6485 8.68585C3.68926 8.64502 3.71256 8.5896 3.71256 8.53127V6.12502C3.71256 6.06669 3.68926 6.01127 3.6485 5.97044C3.60773 5.9296 3.55241 5.90627 3.49417 5.90627ZM7.42512 5.90627C7.26206 5.90044 7.10191 5.9296 6.9505 5.99085C6.79908 6.0521 6.66514 6.14544 6.55158 6.2621C6.4584 6.15127 6.33901 6.06085 6.20798 5.9996C6.07695 5.93835 5.93136 5.90627 5.78577 5.90627C5.55574 5.90335 5.32862 5.9646 5.13061 6.08127C5.12479 6.02294 5.09567 5.97044 5.05199 5.93252C5.00832 5.8946 4.95008 5.8771 4.89184 5.88294C4.83361 5.88877 4.78119 5.91794 4.74334 5.96169C4.70549 6.00544 4.68802 6.06377 4.69384 6.1221V8.52835C4.69384 8.58669 4.71713 8.6421 4.7579 8.68294C4.79867 8.72377 4.85399 8.7471 4.91223 8.7471C4.97046 8.7471 5.02579 8.72377 5.06655 8.68294C5.10732 8.6421 5.13061 8.58669 5.13061 8.52835V6.88919C5.13061 6.39627 5.59068 6.34085 5.78577 6.34085C5.85857 6.33794 5.93136 6.3496 5.99833 6.37585C6.0653 6.4021 6.12645 6.44294 6.17886 6.49252C6.23128 6.54502 6.26913 6.60627 6.29534 6.67335C6.32154 6.74044 6.33319 6.81335 6.33028 6.88627V8.52544C6.33028 8.58377 6.35357 8.63919 6.39434 8.68002C6.43802 8.72669 6.49334 8.75002 6.55158 8.75002C6.60981 8.75002 6.66514 8.72669 6.7059 8.68585C6.74667 8.64502 6.76996 8.5896 6.76996 8.53127V6.8921C6.76996 6.39919 7.23003 6.34377 7.42512 6.34377C7.49792 6.34085 7.57071 6.35252 7.63768 6.37877C7.70465 6.40502 7.7658 6.44585 7.81822 6.49544C7.87063 6.54794 7.90848 6.60919 7.93469 6.67627C7.96089 6.74335 7.97254 6.81627 7.96963 6.88919V8.52835C7.96963 8.58669 7.99292 8.6421 8.03369 8.68294C8.07446 8.72377 8.12978 8.7471 8.18802 8.7471C8.24625 8.7471 8.30158 8.72377 8.34234 8.68294C8.38311 8.6421 8.4064 8.58669 8.4064 8.52835V6.88919C8.40931 6.75794 8.38602 6.6296 8.33652 6.51002C8.28702 6.39044 8.21713 6.2796 8.12396 6.18627C8.03078 6.09294 7.92304 6.02294 7.80075 5.97335C7.68427 5.92669 7.55615 5.90335 7.42512 5.90627ZM10.2088 5.90627C9.46921 5.90627 8.95382 6.49252 8.95382 7.3296C8.95382 8.16669 9.46921 8.75294 10.2088 8.75294C10.9484 8.75294 11.4638 8.18127 11.4638 7.3296C11.4638 6.47794 10.9484 5.90627 10.2088 5.90627ZM10.2088 8.31252C9.71089 8.31252 9.39059 7.92752 9.39059 7.32669C9.39059 6.72877 9.71089 6.34085 10.2088 6.34085C10.7067 6.34085 11.027 6.72585 11.027 7.32669C11.0299 7.92752 10.7155 8.31252 10.2088 8.31252Z" fill="white"/>
      <path d="M3.49417 5.57669C3.61356 5.57669 3.71256 5.47752 3.71256 5.35794C3.71256 5.23836 3.61356 5.13919 3.49417 5.13919C3.37479 5.13919 3.27579 5.23836 3.27579 5.35794C3.27579 5.47752 3.37479 5.57669 3.49417 5.57669Z" fill="white"/>
    </g>
  </g>
  <defs>
    <clipPath id="clip0_1473_1014">
      <rect width="14" height="14" fill="white"/>
    </clipPath>
  </defs>
</svg>