<svg width="20" height="21" viewBox="0 0 20 21" fill="none" xmlns="http://www.w3.org/2000/svg">
<g id="information-variant">
<path id="Vector" d="M11.2501 3.34692C10.9185 3.34692 10.6006 3.47862 10.3662 3.71304C10.1318 3.94746 10.0001 4.2654 10.0001 4.59692C10.0001 4.92844 10.1318 5.24639 10.3662 5.48081C10.6006 5.71523 10.9185 5.84692 11.2501 5.84692C11.5816 5.84692 11.8995 5.71523 12.1339 5.48081C12.3684 5.24639 12.5001 4.92844 12.5001 4.59692C12.5001 4.2654 12.3684 3.94746 12.1339 3.71304C11.8995 3.47862 11.5816 3.34692 11.2501 3.34692ZM10.9501 7.32192C9.9584 7.40526 7.25006 9.56359 7.25006 9.56359C7.0834 9.68859 7.1334 9.68026 7.26673 9.91359C7.40006 10.1386 7.3834 10.1553 7.54173 10.0469C7.7084 9.93859 7.9834 9.76359 8.44173 9.48026C10.2084 8.34692 8.72507 10.9636 7.96673 15.3719C7.66673 17.5553 9.6334 16.4303 10.1417 16.0969C10.6417 15.7719 11.9834 14.8469 12.1167 14.7553C12.3001 14.6303 12.1667 14.5303 12.0251 14.3219C11.9251 14.1803 11.8251 14.2803 11.8251 14.2803C11.2834 14.6386 10.2917 15.3886 10.1584 14.9136C10.0001 14.4386 11.0167 11.1803 11.5751 8.93859C11.6667 8.40526 11.9167 7.23859 10.9501 7.32192Z" fill="#2E3138"/>
</g>
</svg>
