<svg width="24" height="24" viewBox="0 0 24 24" fill="none" xmlns="http://www.w3.org/2000/svg">
<path fill-rule="evenodd" clip-rule="evenodd" d="M21.75 12C21.75 17.3848 17.3848 21.75 12 21.75C6.61522 21.75 2.25 17.3848 2.25 12C2.25 6.61522 6.61522 2.25 12 2.25C17.3848 2.25 21.75 6.61522 21.75 12ZM13.2188 7.125C13.2188 7.7981 12.6731 8.34375 12 8.34375C11.3269 8.34375 10.7812 7.7981 10.7812 7.125C10.7812 6.4519 11.3269 5.90625 12 5.90625C12.6731 5.90625 13.2188 6.4519 13.2188 7.125ZM10.7812 10.7812C10.1082 10.7812 9.5625 11.3269 9.5625 12C9.5625 12.6731 10.1082 13.2188 10.7812 13.2188V16.875C10.7812 17.5481 11.3269 18.0938 12 18.0938H13.2188C13.8918 18.0938 14.4375 17.5481 14.4375 16.875C14.4375 16.2019 13.8918 15.6562 13.2188 15.6562V12C13.2188 11.3269 12.6731 10.7812 12 10.7812H10.7812Z" fill="#2E3138"/>
</svg>
