<svg width="20" height="20" viewBox="0 0 20 20" fill="none" xmlns="http://www.w3.org/2000/svg">
<rect width="20" height="20" rx="10" fill="white"/>
<rect x="4.3125" y="4.3125" width="11.375" height="11.375" rx="5.6875" fill="url(#paint0_radial_1473_1041)"/>
<rect x="4.3125" y="4.3125" width="11.375" height="11.375" rx="5.6875" fill="url(#paint1_radial_1473_1041)"/>
<rect x="4.3125" y="4.3125" width="11.375" height="11.375" rx="5.6875" fill="url(#paint2_radial_1473_1041)"/>
<path d="M12.8438 7.76562C12.8438 8.10217 12.5709 8.375 12.2344 8.375C11.8978 8.375 11.625 8.10217 11.625 7.76562C11.625 7.42908 11.8978 7.15625 12.2344 7.15625C12.5709 7.15625 12.8438 7.42908 12.8438 7.76562Z" fill="white"/>
<path fill-rule="evenodd" clip-rule="evenodd" d="M10 12.0312C11.1218 12.0312 12.0312 11.1218 12.0312 10C12.0312 8.87817 11.1218 7.96875 10 7.96875C8.87817 7.96875 7.96875 8.87817 7.96875 10C7.96875 11.1218 8.87817 12.0312 10 12.0312ZM10 11.2188C10.6731 11.2188 11.2188 10.6731 11.2188 10C11.2188 9.3269 10.6731 8.78125 10 8.78125C9.3269 8.78125 8.78125 9.3269 8.78125 10C8.78125 10.6731 9.3269 11.2188 10 11.2188Z" fill="white"/>
<path fill-rule="evenodd" clip-rule="evenodd" d="M5.9375 9.8375C5.9375 8.47237 5.9375 7.78981 6.20317 7.2684C6.43686 6.80975 6.80975 6.43686 7.2684 6.20317C7.78981 5.9375 8.47237 5.9375 9.8375 5.9375H10.1625C11.5276 5.9375 12.2102 5.9375 12.7316 6.20317C13.1902 6.43686 13.5631 6.80975 13.7968 7.2684C14.0625 7.78981 14.0625 8.47237 14.0625 9.8375V10.1625C14.0625 11.5276 14.0625 12.2102 13.7968 12.7316C13.5631 13.1902 13.1902 13.5631 12.7316 13.7968C12.2102 14.0625 11.5276 14.0625 10.1625 14.0625H9.8375C8.47237 14.0625 7.78981 14.0625 7.2684 13.7968C6.80975 13.5631 6.43686 13.1902 6.20317 12.7316C5.9375 12.2102 5.9375 11.5276 5.9375 10.1625V9.8375ZM9.8375 6.75H10.1625C10.8585 6.75 11.3316 6.75063 11.6973 6.78051C12.0535 6.80961 12.2357 6.86237 12.3627 6.92711C12.6685 7.08291 12.9171 7.3315 13.0729 7.63727C13.1376 7.76434 13.1904 7.94651 13.2195 8.30272C13.2494 8.66842 13.25 9.14153 13.25 9.8375V10.1625C13.25 10.8585 13.2494 11.3316 13.2195 11.6973C13.1904 12.0535 13.1376 12.2357 13.0729 12.3627C12.9171 12.6685 12.6685 12.9171 12.3627 13.0729C12.2357 13.1376 12.0535 13.1904 11.6973 13.2195C11.3316 13.2494 10.8585 13.25 10.1625 13.25H9.8375C9.14153 13.25 8.66842 13.2494 8.30272 13.2195C7.94651 13.1904 7.76434 13.1376 7.63727 13.0729C7.3315 12.9171 7.08291 12.6685 6.92711 12.3627C6.86237 12.2357 6.80961 12.0535 6.78051 11.6973C6.75063 11.3316 6.75 10.8585 6.75 10.1625V9.8375C6.75 9.14153 6.75063 8.66842 6.78051 8.30272C6.80961 7.94651 6.86237 7.76434 6.92711 7.63727C7.08291 7.3315 7.3315 7.08291 7.63727 6.92711C7.76434 6.86237 7.94651 6.80961 8.30272 6.78051C8.66842 6.75063 9.14153 6.75 9.8375 6.75Z" fill="white"/>
<defs>
<radialGradient id="paint0_radial_1473_1041" cx="0" cy="0" r="1" gradientUnits="userSpaceOnUse" gradientTransform="translate(8.375 12.8438) rotate(-55.3758) scale(10.3673)">
<stop stop-color="#B13589"/>
<stop offset="0.79309" stop-color="#C62F94"/>
<stop offset="1" stop-color="#8A3AC8"/>
</radialGradient>
<radialGradient id="paint1_radial_1473_1041" cx="0" cy="0" r="1" gradientUnits="userSpaceOnUse" gradientTransform="translate(7.96875 16.0937) rotate(-65.1363) scale(9.17891)">
<stop stop-color="#E0E8B7"/>
<stop offset="0.444662" stop-color="#FB8A2E"/>
<stop offset="0.71474" stop-color="#E2425C"/>
<stop offset="1" stop-color="#E2425C" stop-opacity="0"/>
</radialGradient>
<radialGradient id="paint2_radial_1473_1041" cx="0" cy="0" r="1" gradientUnits="userSpaceOnUse" gradientTransform="translate(3.70313 4.71875) rotate(-8.1301) scale(15.7994 3.37933)">
<stop offset="0.156701" stop-color="#406ADC"/>
<stop offset="0.467799" stop-color="#6A45BE"/>
<stop offset="1" stop-color="#6A45BE" stop-opacity="0"/>
</radialGradient>
</defs>
</svg>
