<svg width="25" height="24" viewBox="0 0 25 24" fill="none" xmlns="http://www.w3.org/2000/svg">
<g id="Resume" clip-path="url(#clip0_2789_27782)">
<path id="Vector" d="M19.7943 19.3381C19.5943 19.3381 19.4307 19.5017 19.4307 19.7017V21.669C19.4297 22.004 19.296 22.3249 19.0587 22.5614C18.8215 22.798 18.5002 22.9308 18.1652 22.9308C17.827 22.9308 17.5143 22.7999 17.2743 22.5599C17.1561 22.4444 17.0624 22.3064 16.9986 22.154C16.9349 22.0015 16.9025 21.8378 16.9034 21.6726V20.0435C16.9034 19.8435 16.7398 19.6799 16.5398 19.6799H3.94339V7.65807C3.94339 7.45807 3.77976 7.29443 3.57976 7.29443C3.37976 7.29443 3.21612 7.45807 3.21612 7.65807V19.6799H1.07067C0.870668 19.6799 0.707031 19.8435 0.707031 20.0435V21.7126C0.707031 22.7853 1.57976 23.6581 2.65249 23.6581H18.1652C19.2634 23.6581 20.1579 22.7672 20.1579 21.669V19.7017C20.1579 19.5017 19.9943 19.3381 19.7943 19.3381ZM2.65249 22.9308C2.3294 22.9308 2.01955 22.8025 1.7911 22.574C1.56265 22.3455 1.4343 22.0357 1.4343 21.7126V20.4072H16.1798V21.6726C16.1798 22.1417 16.3398 22.5817 16.6307 22.9344H2.65249V22.9308Z" fill="white"/>
<path id="Vector_2" d="M18.8948 2.32359H9.89845V1.52359C9.89845 0.869044 9.36754 0.338135 8.71663 0.338135H2.18936C1.87496 0.338135 1.57343 0.463031 1.35112 0.685346C1.1288 0.907662 1.00391 1.20919 1.00391 1.52359V5.27632C1.00391 5.92723 1.53482 6.45814 2.18936 6.45814H5.76754L7.61845 8.14541C7.68754 8.20723 7.77482 8.23995 7.86209 8.23995C7.913 8.23995 7.96027 8.22904 8.00754 8.20723C8.13845 8.14904 8.22572 8.01813 8.22572 7.87632V6.45814H8.713C9.36391 6.45814 9.89482 5.92723 9.89482 5.27632V3.05086H18.8948C19.1894 3.05086 19.4257 3.29086 19.4257 3.58177V17.8836C19.4257 18.0836 19.5894 18.2472 19.7894 18.2472C19.9894 18.2472 20.153 18.0836 20.153 17.8836V3.58541C20.1533 3.41991 20.121 3.25598 20.058 3.10298C19.9949 2.94997 19.9023 2.8109 19.7855 2.69371C19.6686 2.57652 19.5298 2.48351 19.377 2.42C19.2242 2.35649 19.0603 2.32373 18.8948 2.32359ZM9.17118 5.27995C9.17118 5.53086 8.96754 5.7345 8.71663 5.7345H7.86573C7.66572 5.7345 7.50209 5.89814 7.50209 6.09813V7.05814L6.153 5.82904C6.08687 5.76753 5.99968 5.73369 5.90936 5.7345H2.18936C1.93845 5.7345 1.73118 5.53086 1.73118 5.27995V1.52359C1.73118 1.27268 1.93482 1.06541 2.18936 1.06541H8.71663C8.96754 1.06541 9.17118 1.26904 9.17118 1.52359V5.27995ZM6.17482 18.4254H17.193C17.393 18.4254 17.5566 18.2618 17.5566 18.0618C17.5566 17.8618 17.393 17.6981 17.193 17.6981H6.17482C5.97482 17.6981 5.81118 17.8618 5.81118 18.0618C5.81118 18.2618 5.97482 18.4254 6.17482 18.4254Z" fill="white"/>
<path id="Vector_3" d="M5.81174 14.3092C5.81174 14.5092 5.97538 14.6728 6.17538 14.6728H17.1936C17.3936 14.6728 17.5572 14.5092 17.5572 14.3092C17.5572 14.1092 17.3936 13.9455 17.1936 13.9455H6.17538C5.97538 13.9455 5.81174 14.1055 5.81174 14.3092ZM6.17538 16.5492H17.1936C17.3936 16.5492 17.5572 16.3855 17.5572 16.1855C17.5572 15.9855 17.3936 15.8219 17.1936 15.8219H6.17538C5.97538 15.8219 5.81174 15.9855 5.81174 16.1855C5.81174 16.3855 5.97538 16.5492 6.17538 16.5492ZM7.88811 12.4292C7.88811 12.6292 8.05174 12.7928 8.25174 12.7928H15.1208C15.3208 12.7928 15.4845 12.6292 15.4845 12.4292C15.4845 12.2292 15.3208 12.0655 15.1208 12.0655H8.25174C8.05174 12.0655 7.88811 12.2292 7.88811 12.4292ZM8.74629 10.3964C8.74629 10.5964 8.90993 10.7601 9.10993 10.7601H14.2627C14.4627 10.7601 14.6263 10.5964 14.6263 10.3964C14.6263 9.18552 13.8881 8.14188 12.8372 7.69097C13.1136 7.4037 13.2881 7.01097 13.2881 6.58188C13.2881 5.69825 12.5681 4.97824 11.6845 4.97824C10.8008 4.97824 10.0808 5.69825 10.0808 6.58188C10.0808 7.01461 10.2554 7.4037 10.5317 7.69097C9.48447 8.14188 8.74629 9.18552 8.74629 10.3964ZM10.8117 6.58552C10.8117 6.10188 11.2045 5.70915 11.6881 5.70915C12.1717 5.70915 12.5645 6.10188 12.5645 6.58552C12.5645 7.06915 12.1717 7.46188 11.6881 7.46188C11.4561 7.46055 11.234 7.36778 11.0699 7.20372C10.9058 7.03966 10.8131 6.81753 10.8117 6.58552ZM11.6881 8.18552C12.7827 8.18552 13.6954 8.98552 13.8699 10.0328H9.50629C9.59225 9.51635 9.85875 9.0472 10.2583 8.7089C10.6579 8.37061 11.1646 8.18513 11.6881 8.18552ZM24.2917 7.33097C24.2917 6.81824 23.8736 6.40006 23.3645 6.40006H22.0154C21.5027 6.40006 21.0881 6.81824 21.0881 7.33097V19.8873C21.0881 19.891 21.0917 19.8946 21.0917 19.8982C21.0917 19.9346 21.099 19.9746 21.1099 20.011L22.3499 23.4219C22.4008 23.5673 22.539 23.6619 22.6917 23.6619C22.8445 23.6619 22.9827 23.5673 23.0336 23.4219L24.2736 20.011C24.2881 19.9746 24.2917 19.9382 24.2917 19.8982C24.2917 19.8946 24.2954 19.891 24.2954 19.8873L24.2917 7.33097ZM22.8663 21.7455L22.6881 22.2328L22.3645 21.3455L21.9681 20.251H23.4081L22.8663 21.7455ZM21.8117 19.5237V9.46188H23.5645V19.5237H21.8117ZM21.8117 7.33097C21.8117 7.21825 21.9027 7.12734 22.0117 7.12734H23.3608C23.4736 7.12734 23.5608 7.21825 23.5608 7.33097V8.73461H21.8081V7.33097H21.8117ZM6.54265 2.26188L4.96447 3.84006L4.3572 3.23279C4.32353 3.19912 4.28356 3.17242 4.23958 3.1542C4.19559 3.13598 4.14845 3.1266 4.10083 3.1266C4.05322 3.1266 4.00608 3.13598 3.96209 3.1542C3.9181 3.17242 3.87814 3.19912 3.84447 3.23279C3.8108 3.26646 3.7841 3.30642 3.76588 3.35041C3.74766 3.3944 3.73828 3.44154 3.73828 3.48915C3.73828 3.53677 3.74766 3.58391 3.76588 3.6279C3.7841 3.67188 3.8108 3.71185 3.84447 3.74552L4.70993 4.61097C4.78265 4.6837 4.87356 4.71643 4.96811 4.71643C5.06265 4.71643 5.15356 4.68006 5.22629 4.61097L7.06265 2.77461C7.20447 2.63279 7.20447 2.4037 7.06265 2.26188C6.92083 2.12006 6.68811 2.12006 6.54265 2.26188Z" fill="white"/>
</g>
<defs>
<clipPath id="clip0_2789_27782">
<rect width="24" height="24" fill="white" transform="translate(0.5)"/>
</clipPath>
</defs>
</svg>
