<svg width="21" height="18" viewBox="0 0 21 18" fill="none" xmlns="http://www.w3.org/2000/svg">
<path id="Vector" d="M5.97055 3.71012C6.0109 3.49789 6.04707 3.27687 6.09576 3.05855C6.33087 2.01495 6.96386 1.29038 8.01072 0.97473C9.65579 0.478615 11.3231 0.473883 12.9696 0.968647C14.1208 1.31471 14.7475 2.13256 14.9485 3.27214C14.9701 3.39447 14.9868 3.51681 15.0077 3.63915C15.0111 3.66078 15.0209 3.68173 15.0292 3.70674C15.1343 3.76757 15.2525 3.73716 15.3645 3.73716C16.2681 3.73986 17.1723 3.73108 18.0759 3.74121C19.2167 3.75406 20.0959 4.61989 20.0966 5.72432C20.0987 8.95583 20.0994 12.1873 20.0966 15.4188C20.0959 16.555 19.2243 17.3979 18.0502 17.3986C13.0092 17.4006 7.96898 17.4006 2.92804 17.3986C1.77823 17.3986 0.900393 16.549 0.899697 15.4364C0.897611 12.1934 0.898306 8.95042 0.900393 5.7081C0.901089 4.6253 1.7824 3.75744 2.903 3.74189C3.91021 3.72837 4.91812 3.73243 5.92603 3.72837C5.93647 3.72837 5.9476 3.72026 5.97055 3.7108V3.71012ZM2.15941 7.89736C2.13576 7.90074 2.11142 7.90412 2.08777 7.9075C2.08777 7.98117 2.08777 8.05417 2.08777 8.12785C2.08777 10.5037 2.08777 12.8801 2.08777 15.256C2.08777 15.9379 2.40287 16.2448 3.10333 16.2455C8.02811 16.2455 12.9536 16.2455 17.8784 16.2455C18.5997 16.2455 18.9085 15.9427 18.9092 15.2364C18.9092 12.8714 18.9099 10.507 18.9071 8.14204C18.9071 8.06296 18.9572 7.9663 18.8452 7.88317C18.6693 8.17989 18.4947 8.4685 18.3263 8.76049C18.1065 9.14035 17.8095 9.45059 17.4464 9.70338C16.8357 10.1299 16.1623 10.357 15.4028 10.3489C14.4686 10.3387 13.5337 10.3462 12.571 10.3462C12.571 10.5821 12.5745 10.7828 12.571 10.9829C12.555 11.7757 12.0006 12.311 11.1833 12.3191C10.72 12.3239 10.2561 12.3252 9.79282 12.3191C8.99846 12.3083 8.44477 11.7703 8.42599 10.9971C8.42112 10.7869 8.42529 10.5767 8.42529 10.3462C7.44659 10.3462 6.50963 10.3563 5.57337 10.3435C4.27609 10.3266 3.28836 9.77368 2.62754 8.68344C2.46965 8.42254 2.31453 8.15894 2.15802 7.89736H2.15941ZM12.5814 9.16874C13.5657 9.16874 14.5145 9.17077 15.4633 9.16874C16.2882 9.16604 16.9038 8.80578 17.3163 8.11703C17.7817 7.33906 18.2415 6.55772 18.7026 5.77704C18.9002 5.44315 18.8452 5.23699 18.5065 5.03152C18.3437 4.93284 18.1663 4.90175 17.9757 4.90175C12.9911 4.9031 8.00655 4.9031 3.02194 4.90175C2.79309 4.90175 2.58233 4.94568 2.40704 5.091C2.18654 5.27349 2.0822 5.45193 2.2721 5.75204C2.76318 6.52798 3.21045 7.3296 3.68206 8.11703C4.1015 8.81795 4.73031 9.17347 5.56989 9.16942C5.99907 9.16739 6.42756 9.16942 6.85673 9.16942C7.37425 9.16942 7.89247 9.16942 8.42599 9.16942C8.42599 9.06262 8.4239 8.99639 8.42599 8.92947C8.45103 8.10554 8.98872 7.5932 9.83803 7.5878C10.3131 7.58509 10.7889 7.58104 11.264 7.58982C11.7996 7.59929 12.1857 7.8541 12.434 8.30899C12.5738 8.56516 12.5724 8.84971 12.5814 9.16942V9.16874ZM13.396 3.72161C13.3751 3.04638 13.1115 2.67599 12.5001 2.44077C12.1731 2.31505 11.8316 2.25354 11.4852 2.22786C10.5239 2.15757 9.56119 2.12107 8.62353 2.39819C7.92238 2.60569 7.61354 3.0207 7.6038 3.72161H13.3953H13.396ZM11.3621 9.96699C11.3621 9.6412 11.3572 9.31474 11.3642 8.98895C11.3676 8.82065 11.3071 8.74495 11.1228 8.749C10.7068 8.75779 10.2895 8.75779 9.87351 8.749C9.68779 8.74495 9.63214 8.82268 9.63353 8.9903C9.6384 9.63106 9.6391 10.2718 9.63284 10.9126C9.63075 11.0856 9.69544 11.1552 9.8749 11.1525C10.2916 11.1458 10.7082 11.1458 11.1242 11.1525C11.305 11.1552 11.3697 11.0836 11.3649 10.9112C11.3565 10.5969 11.3628 10.282 11.3621 9.96699Z" fill="white"/>
</svg>
