<svg width="20" height="21" viewBox="0 0 20 21" fill="none" xmlns="http://www.w3.org/2000/svg">
<g id="Frame" clip-path="url(#clip0_2258_13061)">
<g id="Group">
<path id="Vector" d="M8.66992 19.5793C8.66992 16.8719 8.66992 14.2071 8.66992 11.5341C8.91586 11.4842 9.16013 11.5069 9.38938 11.4221C10.1973 11.1234 10.6246 10.4827 10.9162 9.73006C11.1994 8.99958 11.2962 8.23197 11.3274 7.45327C11.3446 7.02984 11.314 6.60197 11.4192 6.18574C11.575 5.56778 11.9951 5.40816 12.5187 5.7806C13.0189 6.13586 13.286 6.63523 13.3761 7.241C13.5603 8.48525 13.4284 9.70567 13.1302 10.9167C13.1146 10.9793 13.1007 11.043 13.0929 11.1068C13.0551 11.4038 13.133 11.5008 13.4301 11.5075C13.7083 11.5141 13.9865 11.5091 14.2642 11.5091C15.3398 11.5091 16.4148 11.5097 17.4903 11.5091C17.8348 11.5091 18.1013 11.6422 18.2632 11.9531C18.4084 12.2324 18.3828 12.5062 18.212 12.7656C18.0829 12.9618 17.8999 13.0854 17.6634 13.1009C17.3863 13.1186 17.1081 13.1192 16.8304 13.1242C16.6462 13.1269 16.4832 13.1707 16.4793 13.388C16.476 13.603 16.6301 13.654 16.8187 13.6629C17.1977 13.6817 17.5794 13.6668 17.9533 13.7488C18.4574 13.8591 18.6594 14.1018 18.6188 14.5413C18.5792 14.9664 18.2498 15.2541 17.7852 15.2641C17.5627 15.269 17.3401 15.2668 17.1181 15.2646C16.9328 15.2624 16.7714 15.3117 16.7525 15.519C16.733 15.7291 16.8794 15.7928 17.0674 15.8222C17.5621 15.8992 17.8553 16.2506 17.8108 16.6923C17.7658 17.1385 17.4263 17.4161 16.9222 17.4184C16.6997 17.4195 16.4771 17.4167 16.2551 17.4211C16.0759 17.4245 15.9418 17.4987 15.9407 17.6955C15.9396 17.8767 16.067 17.9421 16.2306 17.9698C16.7592 18.0596 17.0341 18.3772 16.9968 18.8444C16.9612 19.2911 16.6073 19.5788 16.0854 19.5788C13.7028 19.5799 11.3207 19.5793 8.93812 19.5788C8.85577 19.5793 8.77397 19.5793 8.66992 19.5793Z" fill="#20AC90"/>
<path id="Vector_2" d="M0.699219 20.1442C0.699219 17.0715 0.699219 13.9939 0.699219 10.924C0.791585 10.8647 0.877274 10.888 0.957955 10.8874C3.22927 10.8857 5.50059 10.8907 7.7719 10.8796C8.04066 10.8785 8.09129 10.9694 8.09073 11.2116C8.0835 14.0831 8.08294 16.9551 8.09129 19.8266C8.09185 20.091 8.04399 20.1913 7.7452 20.1891C5.5017 20.1747 3.25821 20.1808 1.01471 20.1791C0.915111 20.1791 0.811616 20.2035 0.699219 20.1442ZM5.81886 19.3616C6.56502 19.3688 7.17709 18.7569 7.17598 18.0043C7.17542 17.2688 6.56447 16.6486 5.84001 16.6475C5.11777 16.6464 4.49958 17.2661 4.49346 17.9971C4.48734 18.7314 5.09217 19.3544 5.81886 19.3616Z" fill="#20AC90"/>
<path id="Vector_3" d="M7.40651 6.21631C7.64076 6.53943 7.67526 6.88693 7.91508 7.07149C8.15879 7.25937 8.50767 7.17624 8.86378 7.30704C8.22835 7.68558 8.04361 8.20711 8.36133 8.8999C7.99465 8.79681 7.76429 8.52745 7.46493 8.52413C7.16168 8.5208 6.92743 8.78628 6.56743 8.90821C6.83952 8.22152 6.7299 7.67671 6.05273 7.28653C6.79111 7.28431 7.28632 7.02549 7.40651 6.21631Z" fill="#20AC90"/>
<path id="Vector_4" d="M5.65902 6.23686C5.28343 6.5378 5.14711 6.87422 5.32683 7.33202C4.934 7.08705 4.57065 6.99227 4.18895 7.35474C4.31971 6.8914 4.23791 6.53725 3.82227 6.26679C4.28243 6.23852 4.6096 6.07225 4.72923 5.59229C4.91619 5.98468 5.1293 6.31057 5.65902 6.23686Z" fill="#20AC90"/>
<path id="Vector_5" d="M4.14135 9.58819C4.35056 9.12374 4.21145 8.78843 3.8125 8.51464C4.27266 8.49469 4.60985 8.34449 4.72893 7.8479C4.90364 8.27798 5.17351 8.53958 5.67874 8.49635C5.29537 8.78455 5.13345 9.12152 5.35156 9.57655C5.09394 9.54717 4.94983 9.35264 4.74785 9.35098C4.55087 9.34987 4.40843 9.52778 4.14135 9.58819Z" fill="#20AC90"/>
<path id="Vector_6" d="M19.1606 2.96345C19.1584 4.49147 17.9192 5.72352 16.3851 5.72408C14.8745 5.72463 13.5969 4.44879 13.6075 2.95126C13.6181 1.43543 14.8795 0.187304 16.3979 0.188967C17.9253 0.190629 19.1628 1.43377 19.1606 2.96345ZM15.9422 3.43787C15.7992 3.28989 15.6646 3.15133 15.531 3.01167C15.412 2.88807 15.2706 2.7994 15.1226 2.93851C14.9601 3.09203 15.0597 3.23946 15.1866 3.36638C15.3691 3.54927 15.5577 3.72607 15.7347 3.91396C15.8977 4.08743 16.0441 4.07967 16.2054 3.91285C16.5009 3.60802 16.8025 3.30874 17.1013 3.00723C17.296 2.81048 17.4935 2.6165 17.6849 2.41587C17.8007 2.29449 17.8357 2.15261 17.7 2.02624C17.5703 1.90598 17.444 1.96916 17.3333 2.0728C17.286 2.11658 17.2432 2.16536 17.197 2.2108C16.7886 2.61096 16.3801 3.00945 15.9422 3.43787Z" fill="#20AC90"/>
</g>
</g>
<defs>
<clipPath id="clip0_2258_13061">
<rect width="18.4615" height="20" fill="white" transform="translate(0.699219 0.188965)"/>
</clipPath>
</defs>
</svg>
