<svg xmlns="http://www.w3.org/2000/svg" width="16" height="17" viewBox="0 0 16 17" fill="none">
  <path d="M0 8.72021C0 13.1385 3.58172 16.7202 8 16.7202C12.4183 16.7202 16 13.1385 16 8.72021C16 4.30194 12.4183 0.720215 8 0.720215C3.58172 0.720215 0 4.30194 0 8.72021Z" fill="#2867B2"/>
  <path d="M5.8 12.7202H4.1V7.37021H5.8V12.7202ZM4.95 6.62021C4.4 6.62021 4 6.22021 4 5.67021C4 5.12021 4.45 4.72021 4.95 4.72021C5.5 4.72021 5.9 5.12021 5.9 5.67021C5.9 6.22021 5.5 6.62021 4.95 6.62021ZM12 12.7202H10.3V9.82022C10.3 8.97022 9.95 8.72021 9.45 8.72021C8.95 8.72021 8.45 9.12021 8.45 9.87021V12.7202H6.75V7.37021H8.35V8.12021C8.5 7.77022 9.1 7.22021 9.95 7.22021C10.9 7.22021 11.9 7.77021 11.9 9.42021V12.7202H12Z" fill="white"/>
</svg>