<svg width="21" height="21" viewBox="0 0 21 21" fill="none" xmlns="http://www.w3.org/2000/svg">
<g id="Whatsapp">
<rect x="0.406738" y="0.420898" width="20" height="20" rx="10" fill="white"/>
<g id="linked_in">
<path d="M8.11529 6.56881C8.11529 7.16342 7.5999 7.64544 6.96414 7.64544C6.32838 7.64544 5.81299 7.16342 5.81299 6.56881C5.81299 5.97421 6.32838 5.49219 6.96414 5.49219C7.5999 5.49219 8.11529 5.97421 8.11529 6.56881Z" fill="#1275B1"/>
<path d="M5.97041 8.43681H7.93819V14.3997H5.97041V8.43681Z" fill="#1275B1"/>
<path d="M11.1063 8.43681H9.13853V14.3997H11.1063C11.1063 14.3997 11.1063 12.5225 11.1063 11.3488C11.1063 10.6443 11.3469 9.93672 12.3067 9.93672C13.3913 9.93672 13.3848 10.8586 13.3798 11.5729C13.3731 12.5065 13.3889 13.4592 13.3889 14.3997H15.3567V11.2526C15.34 9.24311 14.8164 8.31718 13.0938 8.31718C12.0707 8.31718 11.4366 8.78163 11.1063 9.20183V8.43681Z" fill="#1275B1"/>
</g>
</g>
</svg>
