<svg xmlns="http://www.w3.org/2000/svg" width="20" height="20" viewBox="0 0 20 20" fill="none">
  <rect width="20" height="20" rx="10" fill="white"/>
  <path d="M7.70855 6.14746C7.70855 6.74206 7.19316 7.22408 6.5574 7.22408C5.92164 7.22408 5.40625 6.74206 5.40625 6.14746C5.40625 5.55285 5.92164 5.07083 6.5574 5.07083C7.19316 5.07083 7.70855 5.55285 7.70855 6.14746Z" fill="#1275B1"/>
  <path d="M5.56367 8.01545H7.53145V13.9783H5.56367V8.01545Z" fill="#1275B1"/>
  <path d="M10.6996 8.01545H8.73179V13.9783H10.6996C10.6996 13.9783 10.6996 12.1011 10.6996 10.9274C10.6996 10.2229 10.9401 9.51536 11.8999 9.51536C12.9846 9.51536 12.9781 10.4373 12.973 11.1515C12.9664 12.0851 12.9822 13.0378 12.9822 13.9783H14.95V10.8312C14.9333 8.82175 14.4097 7.89582 12.687 7.89582C11.664 7.89582 11.0299 8.36027 10.6996 8.78047V8.01545Z" fill="#1275B1"/>
</svg>