<svg width="12" height="14" viewBox="0 0 12 14" fill="none" xmlns="http://www.w3.org/2000/svg">
<g id="Frame" clip-path="url(#clip0_4327_23701)">
<g id="Group">
<path id="Vector" d="M1.26685 9.4543C1.28246 9.21192 1.39606 9.01868 1.59725 8.87047C1.75247 8.75665 1.93112 8.70752 2.1271 8.70752C4.71308 8.70752 7.29905 8.70752 9.88589 8.70752C10.3247 8.70752 10.6811 9.00803 10.7305 9.41663C10.7201 9.43382 10.7253 9.45184 10.7253 9.46985C10.7253 10.4484 10.7253 11.4269 10.7253 12.4054C10.7253 12.4226 10.7193 12.4414 10.734 12.457C10.7071 12.7272 10.5684 12.9327 10.3264 13.0768C10.244 13.1259 10.1539 13.1579 10.0567 13.1726C10.0203 13.153 9.98649 13.1767 9.95007 13.1767C7.76907 13.1759 5.58808 13.1767 3.40621 13.1751C2.93533 13.1751 2.46531 13.1882 1.99442 13.1669C1.97795 13.1661 1.95973 13.162 1.94412 13.1734C1.5773 13.1112 1.29113 12.8041 1.26771 12.457C1.28246 12.4414 1.27638 12.4226 1.27638 12.4054C1.27638 11.4391 1.27638 10.4729 1.27638 9.5067C1.27552 9.48869 1.28159 9.46903 1.26685 9.4543Z" stroke="#1D5276" stroke-width="0.4" stroke-miterlimit="10"/>
<path id="Vector_2" d="M5.99335 0.500018C7.18054 0.504367 8.2602 0.848807 9.22625 1.54117C9.83155 1.9752 10.3276 2.51273 10.7187 3.14768C11.0543 3.69392 11.2893 4.28016 11.4203 4.90815C11.5365 5.46656 11.5668 6.02932 11.5113 6.5973C11.448 7.2453 11.2772 7.86199 10.9979 8.44823C10.9485 8.55261 10.8505 8.59436 10.7542 8.55174C10.6571 8.50825 10.6198 8.40735 10.6701 8.30124C10.7967 8.02986 10.9051 7.75065 10.9858 7.46188C11.1271 6.95479 11.1904 6.43813 11.1766 5.91277C11.1566 5.14735 10.9771 4.42107 10.6354 3.73654C10.188 2.84064 9.53411 2.13176 8.68165 1.60901C8.11277 1.26022 7.4962 1.03407 6.838 0.927089C6.17893 0.820104 5.52246 0.8375 4.87033 0.984496C3.84271 1.2176 2.96511 1.7186 2.23926 2.4849C1.63917 3.11811 1.22812 3.85831 1.00091 4.6994C0.837011 5.30565 0.789315 5.92321 0.847417 6.54859C0.903785 7.15049 1.05988 7.72543 1.32004 8.27166C1.35646 8.3482 1.3738 8.42388 1.3183 8.49781C1.23332 8.61001 1.06855 8.58827 1.00698 8.45693C0.935004 8.30384 0.86823 8.14902 0.810128 7.99072C0.650564 7.56104 0.544766 7.11831 0.49707 6.66341C0.41382 5.87363 0.488398 5.09864 0.732947 4.34192C0.919394 3.7635 1.19343 3.23118 1.55505 2.7441C1.99645 2.14829 2.53584 1.65946 3.1715 1.27936C3.74645 0.935787 4.36389 0.704421 5.02469 0.586998C5.34469 0.529591 5.66728 0.499148 5.99335 0.500018Z" fill="#1D5276"/>
<path id="Vector_3" d="M5.99402 1.73684C6.96875 1.74032 7.85502 2.023 8.6485 2.59185C9.14541 2.9476 9.55299 3.38945 9.87385 3.91133C10.1496 4.36015 10.3421 4.84115 10.4497 5.35694C10.5451 5.81532 10.5702 6.27718 10.5242 6.74427C10.4722 7.27571 10.3326 7.7828 10.1028 8.26467C10.062 8.34991 9.98138 8.3847 9.90247 8.34904C9.82269 8.31338 9.79233 8.23075 9.83309 8.1429C9.93716 7.92023 10.0256 7.69147 10.0924 7.45402C10.2086 7.03826 10.2606 6.6138 10.2493 6.18151C10.2329 5.55264 10.0854 4.95683 9.80534 4.39494C9.43765 3.65909 8.90086 3.0772 8.20103 2.64839C7.73275 2.36135 7.22717 2.17522 6.68604 2.08737C6.14491 1.99952 5.60552 2.01343 5.07046 2.13521C4.22668 2.32656 3.50604 2.73798 2.91114 3.36684C2.41945 3.88611 2.08211 4.4941 1.89566 5.18385C1.76124 5.68137 1.72135 6.18846 1.76992 6.70252C1.81588 7.19656 1.94422 7.66886 2.15755 8.11681C2.1879 8.1803 2.20178 8.24206 2.15582 8.30207C2.08644 8.39427 1.95029 8.37601 1.9 8.26902C1.84103 8.14377 1.78639 8.01678 1.73783 7.88631C1.60688 7.53404 1.52016 7.17047 1.48027 6.79645C1.41177 6.14758 1.47334 5.51176 1.67366 4.88986C1.82715 4.41495 2.05175 3.97831 2.34834 3.57733C2.71082 3.08764 3.15396 2.68666 3.67601 2.3744C4.14863 2.09172 4.65507 1.9021 5.19707 1.80555C5.46156 1.76032 5.72693 1.73597 5.99402 1.73684Z" fill="#1D5276"/>
<path id="Vector_4" d="M1.2669 9.50049C1.28164 9.51701 1.27557 9.53702 1.27557 9.55529C1.27557 10.5816 1.27557 11.608 1.27557 12.6344C1.27557 12.6526 1.28164 12.6726 1.2669 12.6892C1.26603 12.6579 1.26343 12.6265 1.26343 12.5952C1.26343 11.5915 1.26343 10.5869 1.26343 9.58312C1.26343 9.55529 1.26603 9.52745 1.2669 9.50049Z" fill="#1E567B"/>
<path id="Vector_5" d="M9.37085 8.16393C9.37345 8.15958 9.37605 8.15523 9.37952 8.15088C9.37952 8.15784 9.37779 8.16219 9.37085 8.16393Z" fill="#1E567B"/>
<path id="Vector_6" d="M5.15614 7.09295C5.15614 7.10338 5.15788 7.11208 5.17002 7.11382C5.27321 7.20863 5.34346 7.21646 5.45793 7.14513C6.13694 6.72067 6.81595 6.29621 7.49497 5.87175C7.63545 5.7839 7.63459 5.61429 7.49497 5.52731C6.81509 5.10372 6.13607 4.67926 5.45706 4.25567C5.33999 4.1826 5.26541 4.1913 5.16655 4.29133C5.12666 4.31742 5.12492 4.35917 5.12492 4.39918C5.12406 4.53139 5.12406 4.6636 5.12406 4.79668C5.12406 5.52818 5.12406 6.25968 5.12492 6.99118C5.12492 7.01988 5.11712 7.0512 5.14747 7.07207L5.14574 7.0712C5.14487 7.08077 5.14574 7.08947 5.15614 7.09295Z" fill="#1D5276"/>
<path id="Vector_7" d="M5.14576 7.07129C5.15443 7.07564 5.15704 7.08434 5.15617 7.09303C5.14576 7.08955 5.14489 7.08086 5.14576 7.07129Z" fill="#1E567B"/>
<path id="Vector_8" d="M5.15625 7.09326C5.16059 7.10022 5.16579 7.10718 5.17013 7.11414C5.15798 7.1124 5.15625 7.1037 5.15625 7.09326Z" fill="#1E567B"/>
</g>
<path id="Vector_9" d="M2.79729 9.91797C2.78428 9.91884 2.77734 9.9258 2.77648 9.93885C2.74179 9.95015 2.75653 9.97973 2.75653 10.0015C2.75566 10.7217 2.75566 11.441 2.75566 12.1612C2.75566 12.1699 2.75566 12.1786 2.75566 12.1873C2.75913 12.2551 2.77648 12.2725 2.84412 12.2725C3.14503 12.2725 3.44508 12.2725 3.746 12.2725C3.94025 12.2725 4.13537 12.2725 4.32962 12.2725C4.39032 12.2725 4.40247 12.2595 4.40247 12.1995C4.40247 12.1073 4.40247 12.0151 4.40247 11.922C4.40247 11.8481 4.38859 11.8333 4.31401 11.8333C3.98188 11.8333 3.65061 11.8324 3.31847 11.8341C3.26904 11.8341 3.2543 11.8228 3.2543 11.7715C3.25603 11.1809 3.25517 10.5895 3.25517 9.99886C3.25517 9.97886 3.2621 9.95711 3.24649 9.93885C3.24303 9.91101 3.22308 9.9084 3.2014 9.9084C3.07566 9.9084 2.94991 9.9084 2.82504 9.9084C2.8155 9.90753 2.80509 9.90927 2.79729 9.91797Z" fill="#1D5276"/>
<path id="Vector_10" d="M7.62776 9.9189C7.61388 9.91804 7.60608 9.92499 7.60695 9.93978C7.5896 9.95283 7.59567 9.97196 7.59567 9.98849C7.59567 10.7235 7.59567 11.4576 7.59567 12.1926C7.59567 12.2082 7.58787 12.2282 7.60868 12.2387L7.60781 12.2378C7.61388 12.2787 7.64597 12.2708 7.67198 12.2708C8.17062 12.2708 8.66926 12.2708 9.1679 12.2708C9.1783 12.2708 9.18871 12.2708 9.19911 12.27C9.22166 12.2691 9.22253 12.2543 9.21993 12.2369L9.21906 12.2378C9.23987 12.2282 9.24161 12.2091 9.24247 12.1899C9.24247 12.0951 9.24247 12.0003 9.24247 11.9047C9.24247 11.8846 9.24074 11.8655 9.21472 11.8629C9.19131 11.8481 9.16443 11.8516 9.13841 11.8516C8.80194 11.8516 8.4646 11.8507 8.12813 11.8525C8.08737 11.8525 8.0735 11.842 8.07436 11.7994C8.07696 11.6463 8.07696 11.4932 8.07436 11.3393C8.0735 11.2906 8.08564 11.2741 8.1368 11.2741C8.35187 11.2767 8.5678 11.274 8.78286 11.2758C8.83056 11.2758 8.8479 11.2593 8.84703 11.2114C8.84443 11.1175 8.8453 11.0235 8.84703 10.9296C8.8479 10.8966 8.83749 10.8757 8.80541 10.8679C8.78893 10.8478 8.76638 10.8565 8.74644 10.8565C8.54525 10.8557 8.34319 10.8557 8.142 10.8565C8.11079 10.8565 8.09431 10.8505 8.09518 10.8139C8.09691 10.6678 8.09691 10.5208 8.09518 10.3747C8.09518 10.3425 8.10645 10.3329 8.13767 10.3329C8.48281 10.3373 8.82882 10.3251 9.17397 10.3399C9.21646 10.3416 9.24247 10.319 9.24247 10.2747C9.24334 10.1877 9.24334 10.1007 9.24247 10.0137C9.24247 9.98675 9.23814 9.95892 9.22079 9.9363L9.22166 9.93717C9.22253 9.92325 9.21559 9.91543 9.20172 9.91543C9.18697 9.89716 9.16616 9.90499 9.14795 9.90499C8.65885 9.90412 8.16975 9.90412 7.68066 9.90499C7.66245 9.90847 7.64163 9.89977 7.62776 9.9189Z" fill="#1D5276"/>
<path id="Vector_11" d="M5.1171 12.2595C5.14572 12.2647 5.15872 12.2534 5.15265 12.2238V12.2195C5.1726 12.2055 5.16479 12.1847 5.16479 12.1664C5.16479 11.4488 5.16479 10.7312 5.16479 10.0128C5.16479 9.99451 5.1726 9.97364 5.15265 9.95972C5.14225 9.93015 5.12317 9.91797 5.09021 9.91797C4.97228 9.91971 4.85434 9.91971 4.7364 9.91797C4.71125 9.91797 4.69304 9.9258 4.67743 9.94406C4.67656 9.94232 4.6757 9.94145 4.67396 9.94058C4.67309 9.93971 4.66963 9.93884 4.66963 9.93971C4.65922 9.95276 4.66442 9.96842 4.66442 9.9832C4.66442 10.7112 4.66442 11.4384 4.66442 12.1664C4.66442 12.1847 4.65662 12.2055 4.6757 12.2195C4.68957 12.2508 4.71472 12.2586 4.74767 12.2586C4.87168 12.2577 4.99482 12.2586 5.1171 12.2595Z" fill="#1D5276"/>
<path id="Vector_12" d="M6.40067 11.5875C6.38333 11.5762 6.38246 11.5605 6.37899 11.5483C6.34951 11.4431 6.32176 11.337 6.29227 11.2317C6.17867 10.8142 6.06507 10.3959 5.95233 9.97749C5.94106 9.93574 5.92111 9.91747 5.87602 9.91834C5.75288 9.92095 5.62887 9.91921 5.50573 9.91921C5.44155 9.91921 5.43462 9.92878 5.45283 9.98966C5.49532 10.1297 5.53868 10.2689 5.58117 10.4089C5.76328 11.0082 5.94539 11.6066 6.12577 12.2059C6.13791 12.245 6.15959 12.2581 6.19775 12.2572C6.31915 12.2564 6.44143 12.2555 6.56284 12.2572C6.61053 12.2581 6.63308 12.2398 6.64695 12.1929C6.73801 11.8919 6.83253 11.591 6.92446 11.2909C7.05887 10.8551 7.19242 10.4202 7.32597 9.98444C7.34244 9.92965 7.33464 9.91921 7.27827 9.91834C7.1586 9.91747 7.03806 9.92095 6.91839 9.9166C6.86549 9.91486 6.84554 9.93661 6.83253 9.98444C6.70852 10.4533 6.58365 10.9221 6.45704 11.3909C6.44056 11.457 6.42929 11.5231 6.40067 11.5875Z" fill="#1D5276"/>
<path id="Vector_13" d="M3.24753 9.93799C3.26314 9.95625 3.2562 9.978 3.2562 9.998C3.25707 10.5886 3.25707 11.1801 3.25533 11.7707C3.25533 11.822 3.27094 11.8341 3.3195 11.8333C3.65164 11.8315 3.98291 11.8324 4.31504 11.8324C4.38876 11.8324 4.4035 11.8463 4.4035 11.9211C4.4035 12.0133 4.4035 12.1055 4.4035 12.1986C4.4035 12.2595 4.39136 12.2717 4.33065 12.2717C4.1364 12.2717 3.94128 12.2717 3.74703 12.2717C3.44611 12.2717 3.14607 12.2717 2.84515 12.2717C2.77751 12.2717 2.7593 12.2543 2.7567 12.1864C2.7567 12.1777 2.7567 12.169 2.7567 12.1603C2.7567 11.4401 2.7567 10.7208 2.75756 10.0006C2.75756 9.97974 2.74195 9.95017 2.77751 9.93799L2.77924 9.93973C2.77838 9.96234 2.77751 9.98496 2.77751 10.0076C2.77751 10.7286 2.77664 11.4506 2.77664 12.1716C2.77664 12.2517 2.78271 12.2569 2.86336 12.2569C3.20417 12.2569 3.54411 12.2569 3.88492 12.2569C4.0306 12.2569 4.17716 12.2569 4.32285 12.2569C4.38095 12.2569 4.39222 12.2438 4.39222 12.1855C4.39222 12.102 4.39222 12.0185 4.39222 11.9342C4.39222 11.8542 4.39049 11.8515 4.30984 11.8515C3.97771 11.8515 3.64644 11.8515 3.3143 11.8515C3.29262 11.8515 3.26921 11.8576 3.24579 11.8394C3.24579 11.207 3.24579 10.5729 3.24579 9.93886L3.24753 9.93799Z" fill="#1E567B"/>
<path id="Vector_14" d="M8.80541 10.8706C8.56433 10.8706 8.32412 10.8706 8.08217 10.8706C8.07177 10.8332 8.07697 10.7984 8.0761 10.7645C8.07524 10.6358 8.07784 10.507 8.07524 10.3783C8.07437 10.3348 8.08738 10.3227 8.13074 10.3227C8.46894 10.3244 8.80801 10.3235 9.14622 10.3235C9.2208 10.3235 9.22427 10.32 9.2234 10.2478C9.2234 10.1452 9.22167 10.0426 9.2208 9.93994C9.23814 9.96256 9.24248 9.99039 9.24248 10.0174C9.24335 10.1043 9.24335 10.1913 9.24248 10.2783C9.24248 10.3227 9.21646 10.3453 9.17397 10.3435C8.82883 10.3287 8.48282 10.3409 8.13767 10.3366C8.10645 10.3366 8.09431 10.3461 8.09518 10.3783C8.09692 10.5244 8.09692 10.6714 8.09518 10.8176C8.09431 10.8541 8.11079 10.8602 8.14201 10.8602C8.3432 10.8593 8.54525 10.8593 8.74644 10.8602C8.76639 10.8602 8.78894 10.8506 8.80541 10.8706Z" fill="#1E567B"/>
<path id="Vector_15" d="M7.60695 9.93994C7.60695 10.6941 7.60608 11.4482 7.60608 12.2023C7.60608 12.2145 7.60781 12.2266 7.60868 12.2388C7.58787 12.2284 7.59567 12.2084 7.59567 12.1927C7.59567 11.4577 7.59567 10.7236 7.59567 9.98865C7.59567 9.97212 7.5896 9.95299 7.60695 9.93994Z" fill="#1E567B"/>
<path id="Vector_16" d="M4.67914 9.94503C4.67914 10.6983 4.67914 11.4507 4.68001 12.2039C4.68001 12.2091 4.67827 12.2143 4.6774 12.2196C4.65833 12.2056 4.66613 12.1848 4.66613 12.1665C4.66613 11.4385 4.66613 10.7113 4.66613 9.9833C4.66613 9.96852 4.66093 9.95286 4.67133 9.93981C4.67133 9.93894 4.6748 9.93981 4.67567 9.94068C4.67654 9.94242 4.6774 9.94329 4.67914 9.94503Z" fill="#1E567B"/>
<path id="Vector_17" d="M5.15359 12.2197C5.15272 12.2075 5.15186 12.1953 5.15186 12.1832C5.15186 11.4543 5.15186 10.7254 5.15186 9.99649C5.15186 9.98432 5.15359 9.97214 5.15446 9.95996C5.1744 9.97388 5.1666 9.99475 5.1666 10.013C5.1666 10.7306 5.1666 11.4482 5.1666 12.1666C5.16573 12.1849 5.17354 12.2058 5.15359 12.2197Z" fill="#1E567B"/>
<path id="Vector_18" d="M7.60864 12.2378C7.62859 12.2543 7.65027 12.2578 7.67628 12.2578C8.16538 12.2578 8.65361 12.2578 9.14271 12.2587C9.17133 12.2587 9.19821 12.2569 9.22076 12.2387C9.22336 12.2561 9.22249 12.2708 9.19994 12.2717C9.18954 12.2717 9.17913 12.2726 9.16873 12.2726C8.67009 12.2726 8.17145 12.2726 7.67281 12.2726C7.6468 12.2708 7.61385 12.2787 7.60864 12.2378Z" fill="#1E567B"/>
<path id="Vector_19" d="M9.20078 9.91884C8.67612 9.91884 8.15147 9.91884 7.62769 9.91971C7.64243 9.90058 7.66324 9.90841 7.68058 9.90841C8.16968 9.90841 8.65878 9.90841 9.14788 9.90841C9.16522 9.90841 9.18603 9.90058 9.20078 9.91884Z" fill="#1E567B"/>
<path id="Vector_20" d="M9.21991 12.2396C9.22251 12.1144 9.23119 11.99 9.21558 11.8647C9.24159 11.8674 9.24333 11.8865 9.24333 11.9065C9.24333 12.0013 9.24333 12.0961 9.24333 12.1918C9.24246 12.2101 9.24073 12.2292 9.21991 12.2396Z" fill="#1E567B"/>
<path id="Vector_21" d="M2.79736 9.91826C2.80517 9.90956 2.81471 9.90869 2.82511 9.90869C2.95086 9.90869 3.0766 9.90869 3.20148 9.90869C3.22316 9.90869 3.24397 9.91043 3.24657 9.93913L3.24397 9.94087C3.22576 9.92 3.20234 9.92 3.17719 9.92C3.05058 9.92 2.92397 9.92 2.79736 9.92V9.91826Z" fill="#1E567B"/>
<path id="Vector_22" d="M5.11719 12.2598C5.12933 12.2476 5.1406 12.2354 5.15274 12.2241C5.15968 12.2537 5.14667 12.265 5.11719 12.2598Z" fill="#1E567B"/>
<path id="Vector_23" d="M2.77734 9.93884C2.77821 9.9258 2.78515 9.91884 2.79816 9.91797L2.79989 9.91971C2.79295 9.92667 2.78602 9.93363 2.77995 9.94058L2.77734 9.93884Z" fill="#1E567B"/>
<path id="Vector_24" d="M7.62757 9.91895C7.62063 9.9259 7.61369 9.93286 7.60675 9.93982C7.60589 9.92503 7.61369 9.91895 7.62757 9.91895Z" fill="#1E567B"/>
<path id="Vector_25" d="M9.22161 9.94069C9.21467 9.93373 9.2086 9.92677 9.20166 9.91895C9.21554 9.91895 9.22247 9.9259 9.22161 9.94069Z" fill="#1E567B"/>
</g>
<defs>
<clipPath id="clip0_4327_23701">
<rect width="11.0741" height="13" fill="white" transform="translate(0.462891 0.5)"/>
</clipPath>
</defs>
</svg>
