<svg width="12" height="14" viewBox="0 0 12 14" fill="none" xmlns="http://www.w3.org/2000/svg">
<g id="Frame" clip-path="url(#clip0_3596_11726)">
<g id="Group">
<path id="Vector" d="M1.26697 9.83955C1.28258 9.59717 1.39618 9.40393 1.59737 9.25572C1.7526 9.1419 1.93124 9.09277 2.12722 9.09277C4.7132 9.09277 7.29917 9.09277 9.88602 9.09277C10.3248 9.09277 10.6812 9.39328 10.7307 9.80188C10.7203 9.81908 10.7255 9.83709 10.7255 9.85511C10.7255 10.8336 10.7255 11.8121 10.7255 12.7906C10.7255 12.8078 10.7194 12.8267 10.7341 12.8422C10.7072 13.1124 10.5685 13.318 10.3266 13.4621C10.2442 13.5112 10.154 13.5431 10.0569 13.5579C10.0204 13.5382 9.98661 13.562 9.95019 13.562C7.76919 13.5611 5.5882 13.562 3.40634 13.5603C2.93545 13.5603 2.46543 13.5734 1.99454 13.5521C1.97807 13.5513 1.95986 13.5472 1.94425 13.5587C1.57742 13.4965 1.29125 13.1894 1.26783 12.8422C1.28258 12.8267 1.27651 12.8078 1.27651 12.7906C1.27651 11.8244 1.27651 10.8582 1.27651 9.89195C1.27564 9.87394 1.28171 9.85429 1.26697 9.83955Z" stroke="#464A53" stroke-width="0.4" stroke-miterlimit="10"/>
<path id="Vector_2" d="M5.99347 0.88576C7.18066 0.890109 8.26032 1.23455 9.22637 1.92691C9.83168 2.36094 10.3277 2.89847 10.7188 3.53343C11.0544 4.07966 11.2894 4.6659 11.4204 5.2939C11.5366 5.85231 11.5669 6.41507 11.5114 6.98304C11.4481 7.63104 11.2773 8.24773 10.9981 8.83397C10.9486 8.93835 10.8506 8.9801 10.7544 8.93748C10.6572 8.89399 10.62 8.79309 10.6703 8.68698C10.7969 8.4156 10.9053 8.1364 10.9859 7.84762C11.1273 7.34053 11.1906 6.82387 11.1767 6.29851C11.1567 5.53309 10.9772 4.80681 10.6356 4.12228C10.1881 3.22639 9.53423 2.5175 8.68178 1.99475C8.1129 1.64596 7.49632 1.41982 6.83812 1.31283C6.17905 1.20585 5.52259 1.22324 4.87045 1.37024C3.84283 1.60334 2.96523 2.10435 2.23939 2.87064C1.63929 3.50385 1.22824 4.24405 1.00103 5.08514C0.837133 5.69139 0.789437 6.30895 0.847539 6.93433C0.903907 7.53623 1.06 8.11117 1.32016 8.6574C1.35658 8.73395 1.37393 8.80962 1.31843 8.88355C1.23344 8.99576 1.06867 8.97401 1.0071 8.84267C0.935126 8.68959 0.868352 8.53476 0.81025 8.37646C0.650686 7.94678 0.544888 7.50405 0.497192 7.04915C0.413942 6.25937 0.488521 5.48438 0.733069 4.72766C0.919516 4.14924 1.19355 3.61693 1.55517 3.12984C1.99657 2.53403 2.53597 2.0452 3.17162 1.6651C3.74657 1.32153 4.36401 1.09016 5.02482 0.97274C5.34481 0.915333 5.66741 0.884891 5.99347 0.88576Z" fill="#464A53"/>
<path id="Vector_3" d="M5.99402 2.12307C6.96875 2.12655 7.85502 2.40923 8.6485 2.97808C9.14541 3.33383 9.55299 3.77569 9.87385 4.29756C10.1496 4.74638 10.3421 5.22738 10.4497 5.74317C10.5451 6.20155 10.5702 6.66341 10.5242 7.1305C10.4722 7.66194 10.3326 8.16903 10.1028 8.6509C10.062 8.73614 9.98138 8.77093 9.90247 8.73527C9.82269 8.69961 9.79233 8.61698 9.83309 8.52913C9.93716 8.30646 10.0256 8.07771 10.0924 7.84025C10.2086 7.42449 10.2606 7.00003 10.2493 6.56774C10.2329 5.93887 10.0854 5.34306 9.80534 4.78117C9.43765 4.04532 8.90086 3.46343 8.20103 3.03462C7.73275 2.74758 7.22717 2.56145 6.68604 2.4736C6.14491 2.38575 5.60552 2.39967 5.07046 2.52144C4.22668 2.71279 3.50604 3.12421 2.91114 3.75307C2.41945 4.27234 2.08211 4.88033 1.89566 5.57008C1.76124 6.0676 1.72135 6.57469 1.76992 7.08875C1.81588 7.58279 1.94422 8.05509 2.15755 8.50304C2.1879 8.56653 2.20178 8.62829 2.15582 8.6883C2.08644 8.7805 1.95029 8.76224 1.9 8.65525C1.84103 8.53 1.78639 8.40301 1.73783 8.27254C1.60688 7.92027 1.52016 7.5567 1.48027 7.18268C1.41177 6.53381 1.47334 5.89799 1.67366 5.27609C1.82715 4.80118 2.05175 4.36454 2.34834 3.96356C2.71082 3.47387 3.15396 3.07289 3.67601 2.76063C4.14863 2.47795 4.65507 2.28833 5.19707 2.19178C5.46156 2.14655 5.72693 2.1222 5.99402 2.12307Z" fill="#464A53"/>
<path id="Vector_4" d="M1.2669 9.88672C1.28164 9.90324 1.27557 9.92325 1.27557 9.94152C1.27557 10.9679 1.27557 11.9942 1.27557 13.0206C1.27557 13.0389 1.28164 13.0589 1.2669 13.0754C1.26603 13.0441 1.26343 13.0128 1.26343 12.9815C1.26343 11.9777 1.26343 10.9731 1.26343 9.96935C1.26343 9.94152 1.26603 9.91368 1.2669 9.88672Z" fill="#464A53"/>
<path id="Vector_5" d="M9.37085 8.54918C9.37345 8.54483 9.37605 8.54048 9.37952 8.53613C9.37952 8.54309 9.37779 8.54744 9.37085 8.54918Z" fill="#464A53"/>
<path id="Vector_6" d="M5.15626 7.47918C5.15626 7.48961 5.158 7.49831 5.17014 7.50005C5.27334 7.59486 5.34358 7.60269 5.45805 7.53136C6.13706 7.1069 6.81608 6.68244 7.49509 6.25798C7.63557 6.17013 7.63471 6.00052 7.49509 5.91354C6.81521 5.48995 6.1362 5.06549 5.45718 4.6419C5.34011 4.56883 5.26553 4.57753 5.16667 4.67756C5.12678 4.70365 5.12505 4.7454 5.12505 4.78541C5.12418 4.91762 5.12418 5.04983 5.12418 5.18291C5.12418 5.91441 5.12418 6.64591 5.12505 7.37741C5.12505 7.40611 5.11724 7.43743 5.14759 7.4583L5.14586 7.45743C5.14499 7.467 5.14586 7.4757 5.15626 7.47918Z" fill="#464A53"/>
<path id="Vector_7" d="M5.14588 7.45703C5.15456 7.46138 5.15716 7.47008 5.15629 7.47878C5.14588 7.4753 5.14502 7.4666 5.14588 7.45703Z" fill="#464A53"/>
<path id="Vector_8" d="M5.15637 7.47852C5.16071 7.48547 5.16591 7.49243 5.17025 7.49939C5.15811 7.49765 5.15637 7.48895 5.15637 7.47852Z" fill="#464A53"/>
</g>
<path id="Vector_9" d="M2.79753 10.3037C2.78452 10.3046 2.77759 10.3115 2.77672 10.3246C2.74203 10.3359 2.75677 10.3655 2.75677 10.3872C2.75591 11.1074 2.75591 11.8267 2.75591 12.5469C2.75591 12.5556 2.75591 12.5643 2.75591 12.573C2.75938 12.6409 2.77672 12.6583 2.84436 12.6583C3.14528 12.6583 3.44533 12.6583 3.74624 12.6583C3.9405 12.6583 4.13561 12.6583 4.32987 12.6583C4.39057 12.6583 4.40271 12.6452 4.40271 12.5852C4.40271 12.493 4.40271 12.4008 4.40271 12.3077C4.40271 12.2338 4.38883 12.219 4.31426 12.219C3.98212 12.219 3.65085 12.2181 3.31872 12.2199C3.26929 12.2199 3.25454 12.2086 3.25454 12.1573C3.25628 11.5667 3.25541 10.9752 3.25541 10.3846C3.25541 10.3646 3.26235 10.3429 3.24674 10.3246C3.24327 10.2968 3.22332 10.2941 3.20165 10.2941C3.0759 10.2941 2.95016 10.2941 2.82528 10.2941C2.81574 10.2933 2.80534 10.295 2.79753 10.3037Z" fill="#464A53"/>
<path id="Vector_10" d="M7.62776 10.3046C7.61388 10.3038 7.60608 10.3107 7.60695 10.3255C7.5896 10.3386 7.59567 10.3577 7.59567 10.3742C7.59567 11.1092 7.59567 11.8433 7.59567 12.5783C7.59567 12.594 7.58787 12.614 7.60868 12.6244L7.60781 12.6235C7.61388 12.6644 7.64597 12.6566 7.67198 12.6566C8.17062 12.6566 8.66926 12.6566 9.1679 12.6566C9.1783 12.6566 9.18871 12.6566 9.19911 12.6557C9.22166 12.6548 9.22253 12.6401 9.21993 12.6227L9.21906 12.6235C9.23987 12.614 9.24161 12.5948 9.24247 12.5757C9.24247 12.4809 9.24247 12.3861 9.24247 12.2904C9.24247 12.2704 9.24074 12.2513 9.21472 12.2486C9.19131 12.2339 9.16443 12.2373 9.13841 12.2373C8.80194 12.2373 8.4646 12.2365 8.12813 12.2382C8.08737 12.2382 8.0735 12.2278 8.07436 12.1852C8.07696 12.0321 8.07696 11.879 8.07436 11.725C8.0735 11.6763 8.08564 11.6598 8.1368 11.6598C8.35187 11.6624 8.5678 11.6598 8.78286 11.6615C8.83056 11.6615 8.8479 11.645 8.84703 11.5972C8.84443 11.5032 8.8453 11.4093 8.84703 11.3154C8.8479 11.2823 8.83749 11.2614 8.80541 11.2536C8.78893 11.2336 8.76638 11.2423 8.74644 11.2423C8.54525 11.2414 8.34319 11.2414 8.142 11.2423C8.11079 11.2423 8.09431 11.2362 8.09518 11.1997C8.09691 11.0535 8.09691 10.9065 8.09518 10.7604C8.09518 10.7282 8.10645 10.7187 8.13767 10.7187C8.48281 10.723 8.82882 10.7108 9.17397 10.7256C9.21646 10.7274 9.24247 10.7048 9.24247 10.6604C9.24334 10.5734 9.24334 10.4864 9.24247 10.3995C9.24247 10.3725 9.23814 10.3447 9.22079 10.322L9.22166 10.3229C9.22253 10.309 9.21559 10.3012 9.20172 10.3012C9.18697 10.2829 9.16616 10.2907 9.14795 10.2907C8.65885 10.2899 8.16975 10.2899 7.68066 10.2907C7.66245 10.2942 7.64163 10.2855 7.62776 10.3046Z" fill="#464A53"/>
<path id="Vector_11" d="M5.11722 12.6452C5.14584 12.6504 5.15885 12.6391 5.15278 12.6095V12.6052C5.17272 12.5913 5.16492 12.5704 5.16492 12.5521C5.16492 11.8346 5.16492 11.117 5.16492 10.3985C5.16492 10.3803 5.17272 10.3594 5.15278 10.3455C5.14237 10.3159 5.12329 10.3037 5.09034 10.3037C4.9724 10.3055 4.85446 10.3055 4.73652 10.3037C4.71137 10.3037 4.69316 10.3115 4.67755 10.3298C4.67668 10.3281 4.67582 10.3272 4.67408 10.3263C4.67322 10.3255 4.66975 10.3246 4.66975 10.3255C4.65934 10.3385 4.66454 10.3542 4.66454 10.3689C4.66454 11.097 4.66454 11.8241 4.66454 12.5521C4.66454 12.5704 4.65674 12.5913 4.67582 12.6052C4.68969 12.6365 4.71484 12.6443 4.74779 12.6443C4.8718 12.6435 4.99495 12.6443 5.11722 12.6452Z" fill="#464A53"/>
<path id="Vector_12" d="M6.40067 11.9727C6.38333 11.9614 6.38246 11.9458 6.37899 11.9336C6.34951 11.8283 6.32176 11.7222 6.29227 11.617C6.17867 11.1995 6.06507 10.7811 5.95233 10.3627C5.94106 10.321 5.92111 10.3027 5.87602 10.3036C5.75288 10.3062 5.62887 10.3045 5.50573 10.3045C5.44155 10.3045 5.43462 10.314 5.45283 10.3749C5.49532 10.515 5.53868 10.6541 5.58117 10.7942C5.76328 11.3935 5.94539 11.9919 6.12577 12.5912C6.13791 12.6303 6.15959 12.6434 6.19775 12.6425C6.31915 12.6416 6.44143 12.6407 6.56284 12.6425C6.61053 12.6434 6.63308 12.6251 6.64695 12.5781C6.73801 12.2772 6.83253 11.9762 6.92446 11.6761C7.05887 11.2404 7.19242 10.8055 7.32597 10.3697C7.34244 10.3149 7.33464 10.3045 7.27827 10.3036C7.1586 10.3027 7.03806 10.3062 6.91839 10.3019C6.86549 10.3001 6.84554 10.3219 6.83253 10.3697C6.70852 10.8385 6.58365 11.3073 6.45704 11.7762C6.44056 11.8423 6.42929 11.9084 6.40067 11.9727Z" fill="#464A53"/>
<path id="Vector_13" d="M3.24753 10.3242C3.26314 10.3425 3.2562 10.3642 3.2562 10.3842C3.25707 10.9748 3.25707 11.5663 3.25533 12.1569C3.25533 12.2082 3.27094 12.2204 3.3195 12.2195C3.65164 12.2178 3.98291 12.2186 4.31504 12.2186C4.38876 12.2186 4.4035 12.2326 4.4035 12.3074C4.4035 12.3996 4.4035 12.4918 4.4035 12.5848C4.4035 12.6457 4.39136 12.6579 4.33065 12.6579C4.1364 12.6579 3.94128 12.6579 3.74703 12.6579C3.44611 12.6579 3.14607 12.6579 2.84515 12.6579C2.77751 12.6579 2.7593 12.6405 2.7567 12.5726C2.7567 12.5639 2.7567 12.5552 2.7567 12.5466C2.7567 11.8264 2.7567 11.107 2.75756 10.3868C2.75756 10.366 2.74195 10.3364 2.77751 10.3242L2.77924 10.326C2.77838 10.3486 2.77751 10.3712 2.77751 10.3938C2.77751 11.1149 2.77664 11.8368 2.77664 12.5579C2.77664 12.6379 2.78271 12.6431 2.86336 12.6431C3.20417 12.6431 3.54411 12.6431 3.88492 12.6431C4.0306 12.6431 4.17716 12.6431 4.32285 12.6431C4.38095 12.6431 4.39222 12.6301 4.39222 12.5718C4.39222 12.4883 4.39222 12.4048 4.39222 12.3204C4.39222 12.2404 4.39049 12.2378 4.30984 12.2378C3.97771 12.2378 3.64644 12.2378 3.3143 12.2378C3.29262 12.2378 3.26921 12.2439 3.24579 12.2256C3.24579 11.5933 3.24579 10.9592 3.24579 10.3251L3.24753 10.3242Z" fill="#464A53"/>
<path id="Vector_14" d="M8.80541 11.2559C8.56433 11.2559 8.32412 11.2559 8.08217 11.2559C8.07177 11.2185 8.07697 11.1837 8.0761 11.1498C8.07524 11.021 8.07784 10.8923 8.07524 10.7636C8.07437 10.7201 8.08738 10.7079 8.13074 10.7079C8.46894 10.7096 8.80801 10.7088 9.14622 10.7088C9.2208 10.7088 9.22427 10.7053 9.2234 10.6331C9.2234 10.5305 9.22167 10.4278 9.2208 10.3252C9.23814 10.3478 9.24248 10.3756 9.24248 10.4026C9.24335 10.4896 9.24335 10.5766 9.24248 10.6635C9.24248 10.7079 9.21646 10.7305 9.17397 10.7288C8.82883 10.714 8.48282 10.7262 8.13767 10.7218C8.10645 10.7218 8.09431 10.7314 8.09518 10.7636C8.09692 10.9097 8.09692 11.0567 8.09518 11.2028C8.09431 11.2394 8.11079 11.2454 8.14201 11.2454C8.3432 11.2446 8.54525 11.2446 8.74644 11.2454C8.76639 11.2454 8.78894 11.2359 8.80541 11.2559Z" fill="#464A53"/>
<path id="Vector_15" d="M7.60695 10.3252C7.60695 11.0793 7.60608 11.8334 7.60608 12.5875C7.60608 12.5997 7.60781 12.6119 7.60868 12.6241C7.58787 12.6136 7.59567 12.5936 7.59567 12.578C7.59567 11.843 7.59567 11.1089 7.59567 10.3739C7.59567 10.3574 7.5896 10.3382 7.60695 10.3252Z" fill="#464A53"/>
<path id="Vector_16" d="M4.67926 10.3308C4.67926 11.084 4.67926 11.8364 4.68013 12.5896C4.68013 12.5949 4.67839 12.6001 4.67753 12.6053C4.65845 12.5914 4.66625 12.5705 4.66625 12.5522C4.66625 11.8242 4.66625 11.0971 4.66625 10.369C4.66625 10.3543 4.66105 10.3386 4.67146 10.3256C4.67146 10.3247 4.67493 10.3256 4.67579 10.3264C4.67666 10.3282 4.67753 10.329 4.67926 10.3308Z" fill="#464A53"/>
<path id="Vector_17" d="M5.15371 12.6054C5.15284 12.5933 5.15198 12.5811 5.15198 12.5689C5.15198 11.84 5.15198 11.1111 5.15198 10.3822C5.15198 10.3701 5.15371 10.3579 5.15458 10.3457C5.17452 10.3596 5.16672 10.3805 5.16672 10.3988C5.16672 11.1163 5.16672 11.8339 5.16672 12.5524C5.16585 12.5706 5.17366 12.5915 5.15371 12.6054Z" fill="#464A53"/>
<path id="Vector_18" d="M7.60864 12.624C7.62859 12.6405 7.65027 12.644 7.67628 12.644C8.16538 12.644 8.65361 12.644 9.14271 12.6449C9.17133 12.6449 9.19821 12.6432 9.22076 12.6249C9.22336 12.6423 9.22249 12.6571 9.19994 12.6579C9.18954 12.6579 9.17913 12.6588 9.16873 12.6588C8.67009 12.6588 8.17145 12.6588 7.67281 12.6588C7.6468 12.6571 7.61385 12.6649 7.60864 12.624Z" fill="#464A53"/>
<path id="Vector_19" d="M9.2009 10.3051C8.67625 10.3051 8.15159 10.3051 7.62781 10.3059C7.64255 10.2868 7.66336 10.2946 7.68071 10.2946C8.1698 10.2946 8.6589 10.2946 9.148 10.2946C9.16534 10.2946 9.18616 10.2868 9.2009 10.3051Z" fill="#464A53"/>
<path id="Vector_20" d="M9.21991 12.6259C9.22251 12.5006 9.23119 12.3762 9.21558 12.251C9.24159 12.2536 9.24333 12.2727 9.24333 12.2927C9.24333 12.3875 9.24333 12.4823 9.24333 12.578C9.24246 12.5963 9.24073 12.6154 9.21991 12.6259Z" fill="#464A53"/>
<path id="Vector_21" d="M2.79749 10.3035C2.80529 10.2948 2.81483 10.2939 2.82524 10.2939C2.95098 10.2939 3.07672 10.2939 3.2016 10.2939C3.22328 10.2939 3.24409 10.2957 3.24669 10.3244L3.24409 10.3261C3.22588 10.3053 3.20247 10.3053 3.17732 10.3053C3.05071 10.3053 2.9241 10.3053 2.79749 10.3053V10.3035Z" fill="#464A53"/>
<path id="Vector_22" d="M5.11719 12.645C5.12933 12.6329 5.1406 12.6207 5.15274 12.6094C5.15968 12.6389 5.14667 12.6503 5.11719 12.645Z" fill="#464A53"/>
<path id="Vector_23" d="M2.77759 10.3246C2.77846 10.3115 2.78539 10.3046 2.7984 10.3037L2.80013 10.3055C2.7932 10.3124 2.78626 10.3194 2.78019 10.3263L2.77759 10.3246Z" fill="#464A53"/>
<path id="Vector_24" d="M7.62781 10.3047C7.62087 10.3116 7.61394 10.3186 7.607 10.3256C7.60613 10.3108 7.61394 10.3047 7.62781 10.3047Z" fill="#464A53"/>
<path id="Vector_25" d="M9.22173 10.3264C9.21479 10.3195 9.20872 10.3125 9.20178 10.3047C9.21566 10.3047 9.2226 10.3116 9.22173 10.3264Z" fill="#464A53"/>
</g>
<defs>
<clipPath id="clip0_3596_11726">
<rect width="11.0741" height="13" fill="white" transform="translate(0.463013 0.885742)"/>
</clipPath>
</defs>
</svg>
