<svg width="24" height="24" viewBox="0 0 24 24" fill="none" xmlns="http://www.w3.org/2000/svg">
<path d="M12.9733 1.57589V3.441C12.9733 3.97884 12.5373 4.41484 11.9994 4.41484C11.4616 4.41484 11.0256 3.97884 11.0256 3.441V1.57589C11.0256 1.03805 11.4616 0.602051 11.9994 0.602051C12.5373 0.602051 12.9733 1.03805 12.9733 1.57589ZM17.6999 2.1304C17.2339 1.86399 16.6403 2.02319 16.3702 2.48702L15.4382 4.10185C15.1528 4.5577 15.291 5.15863 15.7468 5.44405C16.2027 5.72947 16.8036 5.5913 17.0891 5.13545C17.1013 5.11594 17.1128 5.09601 17.1236 5.07569L18.0555 3.46086C18.3247 2.99526 18.1655 2.3996 17.6999 2.1304ZM19.4139 8.69819C19.5848 8.69824 19.7527 8.65331 19.9008 8.56789L21.5174 7.63592C21.9832 7.367 22.1429 6.77134 21.874 6.30546C21.6051 5.83958 21.0094 5.67992 20.5435 5.94884L18.9269 6.88081C18.4611 7.14956 18.3013 7.7451 18.57 8.21097C18.744 8.51254 19.0657 8.6983 19.4139 8.69819ZM22.4267 11.0339L20.5609 11.0319H20.5589C20.0211 11.0314 19.5847 11.467 19.5842 12.0049C19.5837 12.5427 20.0193 12.9791 20.5572 12.9796L22.423 12.9815H22.4248C22.9626 12.9821 23.3991 12.5465 23.3996 12.0087C23.4001 11.4708 22.9646 11.0344 22.4267 11.0339ZM21.51 16.3777L19.8951 15.4438C19.44 15.1573 18.8387 15.294 18.5522 15.7492C18.2657 16.2043 18.4024 16.8056 18.8576 17.0921C18.8783 17.1052 18.8996 17.1175 18.9213 17.1289L20.5361 18.0629C20.6838 18.1492 20.8519 18.1945 21.023 18.1941C21.5609 18.1934 21.9963 17.7567 21.9955 17.2189C21.995 16.8721 21.8101 16.5516 21.51 16.3777ZM17.1144 18.9311C16.8455 18.4647 16.2494 18.3046 15.783 18.5735C15.3166 18.8425 15.1565 19.4386 15.4254 19.905L16.3574 21.5216C16.6263 21.988 17.2224 22.1481 17.6888 21.8792C18.1552 21.6102 18.3153 21.0141 18.0464 20.5477L17.1144 18.9311ZM11.9903 19.5854H11.9883C11.4514 19.586 11.0161 20.0206 11.0145 20.5575L11.0108 22.4224C11.0097 22.9602 11.4448 23.3971 11.9827 23.3982H11.9846C12.5218 23.3982 12.9575 22.9632 12.9585 22.4261L12.9622 20.5612C12.9632 20.0233 12.5281 19.5864 11.9903 19.5854ZM8.19734 18.5638C7.73188 18.2944 7.13615 18.4527 6.8659 18.9177L5.93004 20.5316C5.6601 20.9969 5.8185 21.593 6.28383 21.8629C6.74917 22.1328 7.34523 21.9744 7.61517 21.5091L8.55104 19.8952C8.82039 19.4298 8.66216 18.8342 8.19734 18.5638ZM4.09454 15.4208L2.47796 16.351C2.01154 16.6189 1.85062 17.2142 2.11851 17.6806C2.38641 18.147 2.98169 18.308 3.4481 18.0401L5.06468 17.1099C5.53109 16.842 5.69202 16.2467 5.42412 15.7803C5.15623 15.3139 4.56095 15.1529 4.09454 15.4208ZM3.44031 12.9558C3.97815 12.9563 4.41454 12.5207 4.41503 11.9829C4.41551 11.445 3.9799 11.0086 3.44206 11.0081L1.57618 11.0044H1.57443C1.03659 11.0039 0.600148 11.4395 0.59961 11.9773C0.599071 12.5152 1.03464 12.9516 1.57248 12.9521L3.43836 12.9558H3.44031ZM5.08513 6.86074L3.47225 5.92586C3.01663 5.64006 2.41559 5.77773 2.12979 6.23335C1.844 6.68897 1.98167 7.29001 2.43729 7.57581C2.45598 7.58753 2.47507 7.59862 2.49451 7.60905L4.10739 8.54588C4.56959 8.82091 5.16723 8.66918 5.44226 8.20698C5.71729 7.74478 5.56556 7.14714 5.10336 6.87211C5.09732 6.86852 5.09124 6.86499 5.08513 6.86153V6.86074ZM7.65608 2.47378C7.38823 2.00736 6.793 1.84639 6.32658 2.11423C5.86017 2.38208 5.6992 2.97731 5.96704 3.44373L6.89531 5.06147C7.16315 5.52789 7.75839 5.68886 8.2248 5.42101C8.69121 5.15317 8.85219 4.55794 8.58434 4.09152L7.65608 2.47378Z" fill="#2E3138"/>
</svg>
