<svg xmlns="http://www.w3.org/2000/svg" width="16" height="17" viewBox="0 0 16 17" fill="none">
  <path d="M11.2804 11.0109C10.8642 11.4271 10.1001 12.1912 9.41399 12.8773C8.63294 13.6583 7.36687 13.6582 6.58582 12.8772C5.91302 12.2044 5.16091 11.4523 4.71957 11.0109C2.90785 9.19919 2.90785 6.26181 4.71957 4.4501C6.53128 2.63838 9.46866 2.63838 11.2804 4.4501C13.0921 6.26181 13.0921 9.19919 11.2804 11.0109Z" stroke="#E3E5E8" stroke-linecap="round" stroke-linejoin="round"/>
  <path d="M9.73967 7.7305C9.73967 8.69131 8.96078 9.4702 7.99997 9.4702C7.03916 9.4702 6.26027 8.69131 6.26027 7.7305C6.26027 6.76969 7.03916 5.9908 7.99997 5.9908C8.96078 5.9908 9.73967 6.76969 9.73967 7.7305Z" stroke="#E3E5E8" stroke-linecap="round" stroke-linejoin="round"/>
</svg>