<svg width="17" height="17" viewBox="0 0 17 17" fill="none" xmlns="http://www.w3.org/2000/svg">
<g id="Media / Icon/24px/No/location-marker">
<g id="Icon">
<path d="M12.4698 11.2935C11.948 11.8153 10.9505 12.8128 10.1124 13.651C9.33133 14.432 8.06584 14.432 7.28479 13.651C6.4624 12.8286 5.48165 11.8479 4.92733 11.2935C2.84454 9.21074 2.84454 5.83386 4.92733 3.75106C7.01013 1.66827 10.387 1.66827 12.4698 3.75106C14.5526 5.83386 14.5526 9.21074 12.4698 11.2935Z" stroke="#2E3138" stroke-linecap="round" stroke-linejoin="round"/>
<path d="M10.6986 7.5223C10.6986 8.62687 9.80314 9.5223 8.69857 9.5223C7.594 9.5223 6.69857 8.62687 6.69857 7.5223C6.69857 6.41773 7.594 5.5223 8.69857 5.5223C9.80314 5.5223 10.6986 6.41773 10.6986 7.5223Z" stroke="#2E3138" stroke-linecap="round" stroke-linejoin="round"/>
</g>
</g>
</svg>
