<svg width="25" height="25" viewBox="0 0 25 25" fill="none" xmlns="http://www.w3.org/2000/svg">
<g id="Icons / maps / pin">
<path id="icon" fill-rule="evenodd" clip-rule="evenodd" d="M12.6992 23.8681L13.3569 23.2938C18.8879 18.4642 21.6992 14.2473 21.6992 10.5405C21.6992 5.29119 17.6022 1.54053 12.6992 1.54053C7.79627 1.54053 3.69922 5.29119 3.69922 10.5405C3.69922 14.2473 6.51053 18.4642 12.0415 23.2938L12.6992 23.8681ZM12.6992 21.2039C8.00583 16.9741 5.69922 13.3898 5.69922 10.5405C5.69922 6.43713 8.86333 3.54053 12.6992 3.54053C16.5351 3.54053 19.6992 6.43713 19.6992 10.5405C19.6992 13.3898 17.3926 16.9741 12.6992 21.2039ZM12.6992 5.54053C15.4606 5.54053 17.6992 7.7791 17.6992 10.5405C17.6992 13.302 15.4606 15.5405 12.6992 15.5405C9.93779 15.5405 7.69922 13.302 7.69922 10.5405C7.69922 7.7791 9.93779 5.54053 12.6992 5.54053ZM9.69922 10.5405C9.69922 8.88367 11.0424 7.54053 12.6992 7.54053C14.3561 7.54053 15.6992 8.88367 15.6992 10.5405C15.6992 12.1974 14.3561 13.5405 12.6992 13.5405C11.0424 13.5405 9.69922 12.1974 9.69922 10.5405Z" fill="#1D5377"/>
</g>
</svg>
