<svg width="161" height="32" viewBox="0 0 161 32" fill="none" xmlns="http://www.w3.org/2000/svg">
<path d="M26.2076 17.4216H29.3801C28.5268 24.7 21.8968 29.9928 14.4852 29.1304C9.42658 28.5424 5.2285 25.1496 3.49614 20.5544C-0.0265381 11.224 7.62579 1.416 17.6295 2.5792C23.7934 3.296 28.6653 8.172 29.3809 14.288H9.10619C9.9611 10.508 13.7486 8.0584 17.6295 8.928C19.1148 9.2608 20.4245 10.0568 21.3985 11.1544H25.1828C23.1832 7.3088 18.9248 5.0592 14.486 5.74C8.9146 6.5928 5.04013 11.8072 5.90792 17.4208H23.0093C22.7421 18.6048 22.1778 19.676 21.3985 20.5544C18.5577 23.7568 13.5522 23.752 10.717 20.5544H6.93269C8.9315 24.4 13.1908 26.6496 17.6295 25.968C20.9252 25.464 23.7041 23.3984 25.182 20.5544C25.6836 19.5896 26.0353 18.5352 26.2076 17.4208V17.4216Z" fill="#1A8D75"/>
<path d="M29.455 15.8688C29.455 16.3944 29.4244 16.9128 29.3656 17.4216H26.2084C26.037 18.5352 25.6844 19.5896 25.1829 20.5552C23.7049 23.3992 20.9252 25.4648 17.6304 25.9688C13.1972 26.6496 8.93555 24.4072 6.93351 20.5552H10.7178C13.5595 23.7592 18.565 23.752 21.3994 20.5552C22.1786 19.6768 22.7421 18.6056 23.0102 17.4216H5.90714C5.03854 11.8016 8.92106 6.59279 14.4852 5.74079C18.9184 5.06079 23.18 7.30319 25.1821 11.1552H21.3977C20.4237 10.0568 19.114 9.26159 17.6287 8.92879C13.7358 8.05599 9.95709 10.52 9.1054 14.2888H29.3608C29.4228 14.8072 29.4542 15.3344 29.4542 15.8688H29.455Z" fill="white"/>
<path d="M50.3632 10.5808H52.4031V13.3096H38.3985V10.5808H47.0128C47.4435 6.34559 38.4049 11.4312 38.8517 3.49679L42.2013 2.97119C40.8409 8.49519 50.3648 2.50319 50.3624 10.5808H50.3632ZM48.7009 29.0288C43.3106 25.7744 42.6811 25.2488 40.2878 25.0736V22.32C48.7725 22.8424 47.0877 17.9248 45.9792 17.4168C44.0625 16.4104 42.8075 18.7512 44.7717 19.516L42.4541 21.2432C37.1371 18.2696 42.3543 12.1536 47.5497 14.6368C51.9716 16.9368 50.8824 23.652 45.8045 24.0968V24.1968C46.9887 24.3216 49.5647 25.8296 51.0185 26.7L48.7009 29.028V29.0288Z" fill="#1D5377"/>
<path d="M53.914 27.3768V13.3088H51.3952V10.58H53.914C53.0277 0.978392 64.3179 2.12719 69.4047 6.04959L67.4654 8.52799C63.7745 5.89439 56.5858 4.33119 57.415 10.5808H59.9338V13.3096H57.415V27.3776H53.914V27.3768Z" fill="#1D5377"/>
<path d="M72.0499 27.3768C72.0499 27.3768 72.0499 16.592 72.0499 16.588C72.1401 13.8136 69.49 12.7904 67.7206 14.0752C65.6373 16.2296 67.8784 18.9112 70.3876 17.9648V21.0184C68.6963 21.592 66.229 20.7608 65.2243 19.5168C63.8445 21.2312 61.2283 21.5688 59.8091 21.0184V18.0144C64.3203 19.2936 64.2205 14.356 62.1927 13.5328C61.4191 13.1464 59.6014 13.3592 58.9276 13.308V10.5792C61.7387 10.488 63.847 10.6024 65.2501 12.1816C67.3358 9.9368 71.1499 10.1416 72.4033 11.6808H72.5039C72.2318 10.6616 72.1183 9.1376 72.1513 8.0264H75.5267V10.58H78.0456V13.3088H75.5267V27.3768H72.0507H72.0499Z" fill="#1D5377"/>
<path d="M93.0564 27.8024L78.6743 21.6192V18.7904C84.4228 18.524 86.3846 16.4648 85.45 14.36C82.9488 19.5848 74.9841 15.4856 78.271 10.58H81.6206C79.3569 14.6536 83.5461 15.2488 84.6932 10.58C85.165 10.6344 86.1793 10.44 86.3749 10.7256C90.0956 13.564 89.7535 19.312 84.3149 20.4672V20.5672L90.486 23.2208L90.5617 23.1704C90.2542 19.908 90.3846 11.6416 90.3605 8.0264H93.8364V10.58H96.3553V13.3088H93.8364V24.6728L95.2468 25.2736L93.0556 27.8016L93.0564 27.8024Z" fill="#1D5377"/>
<path d="M107.339 27.3768C106.68 15.9232 97.4276 18.5856 101.243 22.1704L98.0949 23.472C92.967 16.8232 103.881 12.8408 107.465 18.816L107.566 18.7912C107.345 17.4416 107.319 14.9136 107.339 13.3096H95.374V10.5808H113.383V13.3096H110.865V27.3776H107.338L107.339 27.3768Z" fill="#1D5377"/>
<path d="M116.558 27.6024C113.115 27.4096 113.521 22.7072 116.558 22.6712C119.952 22.7872 119.847 27.5544 116.558 27.6024Z" fill="#1D5377"/>
<path d="M130.915 27.6776L121.192 21.2448V18.2408C123.182 16.764 125.65 15.4624 128.597 14.9864V13.3096H119.807V10.5808H139.378V13.3096H131.997V14.7864C138.813 15.1608 139.849 22.4304 135.096 24.7744L132.93 22.3216C135.764 21.336 135.297 17.948 131.997 17.816V24.7752L133.332 25.6512L130.914 27.6784L130.915 27.6776ZM128.698 22.596H128.798C128.645 21.3248 128.594 19.4328 128.597 18.0656C126.985 18.4408 125.65 19.092 124.492 19.868L128.698 22.5968V22.596Z" fill="#1D5377"/>
<path d="M152.576 13.3088V27.3768H149.377C148.773 25.224 147.362 23.1968 145.473 22.0704C142.183 26.9312 137.551 20.5016 142.677 18.6912C142.45 16.6384 141.191 14.736 139.655 13.86V13.3096H138.37V10.5808H155.095V13.3096H152.576L152.576 13.3088ZM149.453 21.444C149.287 21.5784 149.134 14.8848 149.201 13.3088H143.811V13.4336C144.516 14.1344 145.851 16.112 146.002 18.9656C147.387 19.4912 148.597 20.4672 149.352 21.4936L149.453 21.4432V21.444Z" fill="#1D5377"/>
</svg>
