<svg width="17" height="17" viewBox="0 0 17 17" fill="none" xmlns="http://www.w3.org/2000/svg">
<g id="Media / Icon/20px/No/mail">
<g id="Icon">
<path d="M2.90039 5.27374C2.90039 4.58645 3.45755 4.0293 4.14484 4.0293H12.8559C13.5432 4.0293 14.1004 4.58645 14.1004 5.27374V11.496C14.1004 12.1833 13.5432 12.7404 12.8559 12.7404H4.14483C3.45755 12.7404 2.90039 12.1833 2.90039 11.496V5.27374Z" fill="white"/>
<path d="M2.90039 5.89596L7.8101 9.1691C8.22811 9.44777 8.77268 9.44777 9.19068 9.1691L14.1004 5.89596M4.14484 12.7404H12.8559C13.5432 12.7404 14.1004 12.1833 14.1004 11.496V5.27374C14.1004 4.58645 13.5432 4.0293 12.8559 4.0293H4.14484C3.45755 4.0293 2.90039 4.58645 2.90039 5.27374V11.496C2.90039 12.1833 3.45755 12.7404 4.14484 12.7404Z" stroke="#1A8C75" stroke-width="1.3" stroke-linecap="round" stroke-linejoin="round"/>
</g>
</g>
</svg>
