<svg width="36" height="36" viewBox="0 0 36 36" fill="none" xmlns="http://www.w3.org/2000/svg">
<path d="M31.6386 20.111H35.8949C34.7501 29.9108 25.8552 37.0371 15.9117 35.876C9.125 35.0843 3.49281 30.5162 1.16865 24.3291C-3.55742 11.7665 6.70904 -1.43922 20.1302 0.126934C28.3997 1.09205 34.9359 7.65719 35.896 15.8919H8.69516C9.84211 10.8024 14.9235 7.50423 20.1302 8.67508C22.1228 9.12317 23.8799 10.1949 25.1867 11.6727H30.2638C27.5811 6.49496 21.8679 3.46605 15.9128 4.3827C8.43812 5.53092 3.24009 12.5517 4.40432 20.11H27.3478C26.9892 21.7041 26.2322 23.1464 25.1867 24.3291C21.3754 28.6409 14.66 28.6344 10.8562 24.3291H5.77916C8.4608 29.5069 14.1751 32.5358 20.1302 31.6181C24.5517 30.9395 28.2798 28.1583 30.2627 24.3291C30.9355 23.0301 31.4075 21.6104 31.6386 20.11V20.111Z" fill="white"/>
<path d="M35.9954 18.0199C35.9954 18.7276 35.9544 19.4256 35.8755 20.1106H31.6398C31.4097 21.61 30.9367 23.0297 30.2638 24.3298C28.281 28.159 24.5517 30.9402 20.1313 31.6188C14.1838 32.5354 8.46626 29.5162 5.78031 24.3298H10.8574C14.6698 28.6437 21.3852 28.634 25.1879 24.3298C26.2333 23.1471 26.9893 21.7048 27.3489 20.1106H4.40331C3.23799 12.5438 8.44682 5.53053 15.9118 4.38338C21.8593 3.46782 27.5768 6.48703 30.2628 11.6734H25.1857C23.8789 10.1945 22.1217 9.12385 20.1292 8.67577C14.9063 7.50061 9.83678 10.8182 8.69414 15.8926H35.869C35.9522 16.5906 35.9943 17.3004 35.9943 18.0199H35.9954Z" fill="#1A8D75"/>
</svg>
