<svg width="32" height="32" viewBox="0 0 32 32" fill="none" xmlns="http://www.w3.org/2000/svg">
<g id="Media / Icon/24px/No/newspaper">
<path id="Icon" d="M25.3333 26.6666H6.66667C5.19391 26.6666 4 25.4727 4 23.9999L4 7.99992C4 6.52716 5.19391 5.33325 6.66667 5.33325L20 5.33325C21.4728 5.33325 22.6667 6.52716 22.6667 7.99992V9.33325M25.3333 26.6666C23.8606 26.6666 22.6667 25.4727 22.6667 23.9999L22.6667 9.33325M25.3333 26.6666C26.8061 26.6666 28 25.4727 28 23.9999V11.9999C28 10.5272 26.8061 9.33325 25.3333 9.33325L22.6667 9.33325M17.3333 5.33325L12 5.33325M9.33333 21.3333H17.3333M9.33333 10.6666H17.3333V15.9999H9.33333V10.6666Z" stroke="#1A8C75" stroke-width="2" stroke-linecap="round" stroke-linejoin="round"/>
</g>
</svg>
