<svg width="28" height="29" viewBox="0 0 28 29" fill="none" xmlns="http://www.w3.org/2000/svg">
<g id="newspaper-variant-multiple-outline">
<path id="Vector" d="M4.66732 8.29313V22.2931H22.1673V24.6265H4.66732C2.33398 24.6265 2.33398 22.2931 2.33398 22.2931V8.29313H4.66732ZM24.5007 5.9598V17.6265H9.33398V5.9598H24.5007ZM24.8506 3.62646H8.98398C7.88732 3.62646 7.00065 4.44313 7.00065 5.4348V18.1515C7.00065 19.1548 7.88732 19.9598 8.98398 19.9598H24.8506C25.9473 19.9598 26.834 19.1548 26.834 18.1515V5.4348C26.834 4.44313 25.9473 3.62646 24.8506 3.62646ZM10.5007 7.12646H14.0007V12.9598H10.5007V7.12646ZM23.334 16.4598H10.5007V14.1265H23.334V16.4598ZM23.334 9.4598H16.334V7.12646H23.334V9.4598ZM23.334 12.9598H16.334V10.6265H23.334V12.9598Z" fill="#20AC90"/>
</g>
</svg>
