<svg width="21" height="21" viewBox="0 0 21 21" fill="none" xmlns="http://www.w3.org/2000/svg">
<g id="Frame" clip-path="url(#clip0_2258_13073)">
<g id="Group">
<path id="Vector" d="M0.699219 9.41139C0.699219 6.78211 0.699219 4.15125 0.699219 1.52197C0.699219 0.673606 1.17507 0.190645 2.02367 0.190645C6.35867 0.189056 10.6937 0.189056 15.0287 0.190645C15.8598 0.190645 16.3531 0.676783 16.3547 1.50131C16.3579 3.14243 16.3579 4.78354 16.3547 6.42466C16.3531 6.96958 16.0248 7.32703 15.5426 7.32386C15.127 7.32068 14.7907 7.01565 14.759 6.59941C14.7432 6.38812 14.7511 6.17523 14.7495 5.96394C14.7495 4.6771 14.7447 3.38867 14.7543 2.10184C14.7558 1.86671 14.6861 1.79363 14.4465 1.79363C10.5033 1.79999 6.56011 1.7984 2.61848 1.7984C2.30284 1.7984 2.30284 1.79999 2.30284 2.12884C2.30284 6.99659 2.30284 11.8643 2.30284 16.7321C2.30284 17.0705 2.30284 17.0705 2.65338 17.0705C4.10314 17.0705 5.5529 17.0689 7.00424 17.0721C7.47533 17.0736 7.81477 17.3628 7.85284 17.7822C7.89884 18.2795 7.55305 18.6687 7.04389 18.6734C6.2286 18.6814 5.41331 18.6766 4.59802 18.6766C3.72721 18.6766 2.85799 18.6798 1.98719 18.675C1.1941 18.6719 0.702391 18.173 0.700805 17.3739C0.699219 14.7192 0.699219 12.0661 0.699219 9.41139Z" fill="#20AC90"/>
<path id="Vector_2" d="M8.66212 14.1742C8.65736 10.8475 11.3665 8.13086 14.6911 8.13086C18.0031 8.13086 20.7011 10.8396 20.6995 14.1631C20.698 17.4962 18.0126 20.1874 14.6896 20.1874C11.3665 20.189 8.66846 17.4946 8.66212 14.1742ZM10.2737 14.1726C10.2784 16.6208 12.2469 18.5844 14.6927 18.5828C17.1338 18.5813 19.1007 16.6033 19.0943 14.1568C19.088 11.7086 17.1116 9.73385 14.6769 9.74338C12.231 9.75291 10.2689 11.7261 10.2737 14.1726Z" fill="#20AC90"/>
<path id="Vector_3" d="M8.57488 4.20844C9.96912 4.20844 11.3634 4.20527 12.7576 4.21003C13.3619 4.21162 13.7537 4.77878 13.5269 5.31258C13.3873 5.64144 13.1272 5.80825 12.7703 5.80984C12.2453 5.81461 11.7203 5.81143 11.1952 5.81143C8.9397 5.81143 6.68258 5.81302 4.42705 5.80984C3.93534 5.80984 3.58955 5.50164 3.56576 5.06157C3.54038 4.57702 3.88775 4.21003 4.39215 4.20844C5.78481 4.20527 7.18064 4.20844 8.57488 4.20844Z" fill="#20AC90"/>
<path id="Vector_4" d="M6.06777 8.63129C6.64831 8.63129 7.22726 8.62812 7.8078 8.63129C8.31537 8.63447 8.66908 8.96174 8.67067 9.42564C8.67226 9.88795 8.31854 10.2327 7.81573 10.2343C6.64831 10.239 5.48089 10.239 4.31347 10.2343C3.80906 10.2327 3.46169 9.89112 3.46487 9.42246C3.46962 8.95221 3.81382 8.63447 4.32774 8.63129C4.90828 8.62971 5.48882 8.63129 6.06777 8.63129Z" fill="#20AC90"/>
<path id="Vector_5" d="M5.24262 14.6604C4.93015 14.6604 4.61608 14.6668 4.30361 14.6588C3.79921 14.6461 3.45818 14.3077 3.46294 13.839C3.46928 13.3783 3.80714 13.059 4.30678 13.0558C4.94759 13.0511 5.58999 13.0511 6.2308 13.0558C6.713 13.0606 7.04927 13.3815 7.05878 13.8311C7.0683 14.2918 6.73521 14.6397 6.24984 14.6572C5.91516 14.6683 5.57889 14.6588 5.24262 14.6604Z" fill="#20AC90"/>
<path id="Vector_6" d="M14.1158 14.4682C14.4711 14.1075 14.7883 13.7834 15.1071 13.4609C15.5164 13.0495 15.9256 12.6364 16.338 12.2281C16.7108 11.8595 17.1993 11.8436 17.5292 12.182C17.8528 12.5141 17.8322 12.9954 17.4721 13.3593C16.5553 14.2839 15.6369 15.2069 14.7169 16.1299C14.3696 16.4779 13.8826 16.489 13.5416 16.1506C12.9801 15.593 12.4218 15.029 11.8666 14.465C11.6334 14.2283 11.5494 13.9439 11.6588 13.623C11.7619 13.3211 11.9792 13.1432 12.2901 13.0908C12.574 13.0431 12.8135 13.1432 13.0134 13.3465C13.3703 13.7088 13.7256 14.0726 14.1158 14.4682Z" fill="#20AC90"/>
</g>
</g>
<defs>
<clipPath id="clip0_2258_13073">
<rect width="20" height="20" fill="white" transform="translate(0.699219 0.188965)"/>
</clipPath>
</defs>
</svg>
