<svg width="16" height="16" viewBox="0 0 16 16" fill="none" xmlns="http://www.w3.org/2000/svg">
<g id="Icons / basic / pencil-edit">
<path id="icon" fill-rule="evenodd" clip-rule="evenodd" d="M14.6668 13.334V8.66732H13.3335V13.334H2.66683V2.66732H7.3335V1.33398H2.66683C1.93045 1.33398 1.3335 1.93094 1.3335 2.66732V13.334C1.3335 14.0704 1.93045 14.6673 2.66683 14.6673H13.3335C14.0699 14.6673 14.6668 14.0704 14.6668 13.334ZM12.7856 1.81627C12.48 1.50826 12.0616 1.33398 11.6251 1.33398C11.1891 1.33398 10.7711 1.50787 10.4638 1.81707L4.88449 7.39626C4.38594 7.83554 4.05912 8.48921 4.00233 9.19219L4.00016 11.3355V12.0022H6.75656C7.51276 11.9503 8.17285 11.6203 8.6385 11.0832L14.1862 5.53788C14.494 5.23009 14.6669 4.81264 14.6669 4.37737C14.6669 3.9421 14.494 3.52465 14.1862 3.21687L12.7856 1.81627ZM6.70948 10.6705C7.06563 10.6453 7.39715 10.4796 7.66336 10.1751L11.7046 6.1338L9.86844 4.2975L5.79756 8.36704C5.52746 8.60593 5.36037 8.94014 5.3335 9.24587V10.6693L6.70948 10.6705ZM10.8114 3.35484L12.6474 5.19099L13.2434 4.59507C13.3011 4.53733 13.3335 4.45902 13.3335 4.37737C13.3335 4.29572 13.3011 4.21741 13.2434 4.15968L11.8409 2.75722C11.7838 2.69968 11.7061 2.66732 11.6251 2.66732C11.544 2.66732 11.4663 2.69968 11.4092 2.75722L10.8114 3.35484Z" fill="#20AC90"/>
</g>
</svg>
