<svg width="17" height="17" viewBox="0 0 17 17" fill="none" xmlns="http://www.w3.org/2000/svg">
<g id="Media / Icon/24px/No/phone">
<path id="Icon" d="M2.69922 3.5223C2.69922 2.78592 3.29617 2.18896 4.03255 2.18896H6.21871C6.50567 2.18896 6.76043 2.37258 6.85117 2.64481L7.84971 5.64044C7.95462 5.95518 7.81214 6.29917 7.5154 6.44754L6.01056 7.19996C6.74538 8.82978 8.05841 10.1428 9.68822 10.8776L10.4406 9.37279C10.589 9.07604 10.933 8.93356 11.2477 9.03847L14.2434 10.037C14.5156 10.1278 14.6992 10.3825 14.6992 10.6695V12.8556C14.6992 13.592 14.1023 14.189 13.3659 14.189H12.6992C7.17637 14.189 2.69922 9.71181 2.69922 4.18896V3.5223Z" stroke="#2E3138" stroke-linecap="round" stroke-linejoin="round"/>
</g>
</svg>
