<svg width="32" height="32" viewBox="0 0 32 32" fill="none" xmlns="http://www.w3.org/2000/svg">
<g id="Media / Icon/16px/No/phone-missed-call">
<path id="Icon" d="M20.4444 11.5556L22.6666 9.33333M22.6666 9.33333L24.8888 7.11111M22.6666 9.33333L20.4444 7.11111M22.6666 9.33333L24.8888 11.5556M8.22222 6C6.99492 6 6 6.99492 6 8.22222V9.33333C6 18.5381 13.4619 26 22.6667 26H23.7778C25.0051 26 26 25.0051 26 23.7778V20.1342C26 19.6559 25.694 19.2313 25.2403 19.0801L20.2475 17.4158C19.723 17.241 19.1497 17.4785 18.9024 17.973L17.6483 20.4811C14.932 19.2564 12.7436 17.068 11.5189 14.3517L14.027 13.0976C14.5215 12.8503 14.759 12.277 14.5842 11.7525L12.9199 6.75975C12.7687 6.30603 12.3441 6 11.8658 6H8.22222Z" stroke="#20AC90" stroke-width="2" stroke-linecap="round" stroke-linejoin="round"/>
</g>
</svg>
