<svg width="14" height="14" viewBox="0 0 14 14" fill="none" xmlns="http://www.w3.org/2000/svg">
<path d="M9.48926 4.59353L10.7337 3.34909M10.7337 3.34909L11.9781 2.10464M10.7337 3.34909L9.48926 2.10464M10.7337 3.34909L11.9781 4.59353M2.64484 1.48242C1.95755 1.48242 1.40039 2.03958 1.40039 2.72687V3.34909C1.40039 8.50375 5.57907 12.6824 10.7337 12.6824H11.3559C12.0432 12.6824 12.6004 12.1253 12.6004 11.438V9.39756C12.6004 9.12974 12.429 8.89196 12.1749 8.80727L9.37901 7.8753C9.08526 7.77738 8.7642 7.91036 8.62572 8.18732L7.92346 9.59184C6.4023 8.906 5.17681 7.68051 4.49097 6.15935L5.89549 5.45709C6.17245 5.31862 6.30544 4.99756 6.20752 4.7038L5.27554 1.90788C5.19085 1.6538 4.95307 1.48242 4.68525 1.48242H2.64484Z" stroke="#E3E5E8" stroke-linecap="round" stroke-linejoin="round"/>
</svg>
