<svg width="18" height="21" viewBox="0 0 18 21" fill="none" xmlns="http://www.w3.org/2000/svg">
<g id="Frame" clip-path="url(#clip0_2583_9045)">
<g id="Group">
<path id="Vector" d="M17.5 16.9752C17.498 16.8718 17.4939 14.4053 17.4939 14.3235C17.4935 11.0325 17.4939 7.74159 17.4939 4.45094C17.4939 4.05507 17.3727 3.93937 16.9561 3.93937C14.6688 3.93937 12.3814 3.93968 10.0941 3.93968C8.04787 3.93968 6.00162 3.93875 3.95537 3.94153C3.82777 3.94184 3.7638 3.9079 3.71269 3.75547C3.63233 3.51604 3.52272 3.2871 3.37904 3.07698C3.2344 2.86593 3.21383 2.77831 3.35879 2.6299C3.97273 2.00108 3.9213 0.99213 3.26011 0.412062C2.59314 -0.172634 1.55458 -0.136534 0.944503 0.492593C0.463638 0.989045 0.363672 1.70765 0.691534 2.31086C1.01554 2.90635 1.68798 3.2294 2.39931 3.13221C2.44849 3.12573 2.50764 3.09457 2.54107 3.16029C2.66867 3.41237 2.79532 3.66476 2.93354 3.93968H2.39192C2.02838 3.94029 1.89563 4.06618 1.89563 4.41145C1.89563 6.18528 1.89498 7.95942 1.89723 9.73326C1.89723 9.85174 1.87441 9.9693 1.82973 10.0798C1.45398 11.0076 1.08047 11.9366 0.70857 12.8659C0.59414 13.1513 0.675784 13.3275 0.970539 13.4395C1.21933 13.5339 1.46683 13.6324 1.72077 13.712C1.8638 13.757 1.8998 13.8292 1.89948 13.9684C1.89434 16.1384 1.89563 18.3084 1.89563 20.4781C1.89563 20.8829 2.00974 20.994 2.42567 20.994C6.15366 20.994 9.88197 20.9931 13.6103 20.9961C13.79 20.9965 13.9247 20.9406 14.0507 20.819C15.0432 19.8604 16.0435 18.9088 17.0342 17.9483C17.5112 17.4858 17.4874 17.653 17.5003 16.9752C17.5003 16.9752 17.5003 16.9752 17.5 16.9752ZM2.14409 2.40373C1.66676 2.4025 1.2759 2.02206 1.28169 1.56479C1.28715 1.11 1.67159 0.745601 2.14538 0.745601C2.62014 0.74591 3.00297 1.11123 3.00554 1.56664C3.00811 2.02977 2.62207 2.40497 2.14409 2.40373ZM2.6841 4.69191C2.87536 4.69191 3.06082 4.69407 3.24629 4.69068C3.30801 4.68945 3.32858 4.72308 3.35044 4.76658C3.44912 4.9656 3.5478 5.1643 3.64969 5.36177C3.67766 5.41576 3.68408 5.46174 3.65998 5.52129C3.34626 6.29574 3.03607 7.07143 2.7246 7.8465C2.71978 7.85946 2.70982 7.87025 2.6841 7.90975V4.69191ZM1.55169 12.8505C2.41699 10.6975 3.27843 8.55461 4.15595 6.37226C4.27456 6.6046 4.37195 6.80114 4.47546 6.99491C4.56192 7.15659 4.7236 7.22971 4.90264 7.19639C5.06239 7.16646 5.18582 7.03996 5.21218 6.87982C5.22697 6.7888 5.19579 6.70765 5.15593 6.62774C5.06625 6.44909 4.97721 6.27013 4.86568 6.04674C6.973 6.82737 9.03564 7.59133 11.1163 8.36177C10.1767 10.6993 9.24489 13.0168 8.30566 15.3522C6.05305 14.5179 3.80977 13.687 1.55169 12.8505ZM14.1043 19.6586V17.7385H16.111C15.4392 18.3812 14.771 19.0208 14.1043 19.6586ZM13.8761 16.9863C13.8517 16.9863 13.8269 16.9863 13.8025 16.9866C13.6563 16.9869 13.4901 16.9958 13.3956 17.1032C13.3194 17.1899 13.3155 17.3136 13.3152 17.4272C13.3142 18.3627 13.3133 19.2985 13.3123 20.234C9.77076 20.234 6.22952 20.234 2.68796 20.2337C2.6886 18.1856 2.68957 16.1371 2.69021 14.089C4.56739 14.7783 6.44456 15.4676 8.32173 16.1569C8.41784 16.1924 8.52199 16.2282 8.62163 16.2035C8.8431 16.1489 8.87717 15.8684 8.98325 15.674C9.20568 15.2664 9.78619 15.2254 10.2654 15.238C11.2333 15.2633 12.2011 15.2886 13.169 15.3139C13.3081 15.3176 13.4534 15.3201 13.5791 15.2621C13.7045 15.2041 13.8012 15.0653 13.7594 14.9378C13.7038 14.7681 13.4711 14.7373 13.286 14.7376C11.9948 14.7394 10.7032 14.7416 9.41204 14.7434C9.57822 14.2998 9.7444 13.8561 9.91058 13.4124C9.94016 13.3334 9.97326 13.2495 10.0433 13.1992C10.1205 13.1439 10.2243 13.1418 10.3207 13.1418C11.7884 13.1433 13.2561 13.1446 14.7237 13.1461C14.934 13.1464 15.2142 13.0865 15.2213 12.8848C15.2287 12.674 14.9327 12.604 14.7131 12.604C13.2371 12.6046 11.7614 12.6052 10.2854 12.6055C10.4297 12.1458 10.5988 11.6931 10.791 11.2498C10.8212 11.1803 10.854 11.1085 10.9147 11.0616C10.9996 10.9961 11.1179 10.9934 11.2265 10.994C12.3686 10.9983 13.5103 11.0029 14.6524 11.0072C14.7906 11.0079 14.9359 11.0066 15.0564 10.9418C15.177 10.877 15.2583 10.7249 15.1937 10.6077C15.1258 10.4849 14.9523 10.4688 14.8073 10.4688C13.5839 10.4673 12.3606 10.4657 11.1372 10.4645C11.2982 10.0298 11.4589 9.59534 11.62 9.1606C11.6544 9.06742 11.6939 8.96775 11.7788 8.91191C11.861 8.8576 11.9678 8.85606 12.0674 8.85668C12.944 8.86038 13.8202 8.86408 14.6967 8.86779C14.925 8.86871 15.2364 8.78911 15.2152 8.57096C15.1966 8.37751 14.9301 8.32567 14.7276 8.32598C13.8263 8.3269 12.9247 8.32783 12.0234 8.32875C12.1339 8.02638 11.754 7.78386 11.4422 7.66939C9.42522 6.92919 7.40822 6.18898 5.39122 5.44878C5.12282 5.35035 4.8525 5.25038 4.60403 5.11061C4.40281 4.99738 4.01291 4.74622 4.45681 4.70364C5.13857 4.63854 5.86276 4.70364 6.54838 4.70364C7.94276 4.70364 9.33682 4.70364 10.7312 4.70364C12.7251 4.70364 14.7186 4.70364 16.7124 4.70364C16.7128 8.79497 16.7131 12.8866 16.7131 16.9779C15.7674 16.9807 14.8218 16.9835 13.8761 16.9863Z" fill="#1E567B"/>
<path id="Vector_2" d="M7.93357 13.4882C7.931 13.6332 7.74296 13.7486 7.53146 13.6724C7.03581 13.494 6.54337 13.3086 6.04965 13.1256C5.34667 12.8652 4.64369 12.6045 3.94072 12.3438C3.90086 12.329 3.86004 12.316 3.82114 12.2987C3.67425 12.2327 3.60868 12.0895 3.66268 11.9565C3.71861 11.8189 3.86004 11.7514 4.01786 11.7998C4.15511 11.8418 4.28787 11.8976 4.42255 11.9473C5.50996 12.3499 6.59673 12.7535 7.68478 13.1546C7.82557 13.2065 7.93228 13.2771 7.93357 13.4882Z" fill="#1E567B"/>
<path id="Vector_3" d="M5.03134 9.01856C5.09305 9.01208 5.14673 9.03893 5.20105 9.05898C6.40772 9.50545 7.61438 9.95223 8.82072 10.4002C9.01648 10.4731 9.09201 10.6141 9.02548 10.7696C8.96023 10.922 8.81333 10.9717 8.62176 10.9007C7.40513 10.4502 6.18882 9.99882 4.97252 9.5471C4.81341 9.48817 4.74269 9.38049 4.76519 9.24226C4.78576 9.11483 4.89601 9.02196 5.03134 9.01856Z" fill="#1E567B"/>
<path id="Vector_4" d="M4.50318 10.4014C4.65875 10.427 4.81722 10.5048 4.98083 10.5649C6.07403 10.9673 7.1653 11.3736 8.25721 11.7797C8.4581 11.8543 8.53493 11.9879 8.47225 12.1459C8.4115 12.2993 8.26267 12.3545 8.0727 12.2851C7.47355 12.0654 6.87536 11.8426 6.27717 11.6208C5.65873 11.3915 5.0403 11.1629 4.4225 10.9324C4.25439 10.8698 4.17821 10.7528 4.20875 10.6171C4.23767 10.4856 4.34664 10.3998 4.50318 10.4014Z" fill="#1E567B"/>
<path id="Vector_5" d="M9.65842 9.2462C9.65874 9.48902 9.46716 9.60103 9.24473 9.52019C8.76965 9.34802 8.29682 9.1703 7.82303 8.99504C7.10944 8.73123 6.39618 8.46743 5.6826 8.20393C5.41227 8.10396 5.32356 7.98548 5.38849 7.80868C5.45052 7.64021 5.61542 7.60319 5.87739 7.70038C7.05898 8.1379 8.24025 8.57634 9.4228 9.01201C9.55973 9.06261 9.65456 9.13574 9.65842 9.2462Z" fill="#1E567B"/>
</g>
</g>
<defs>
<clipPath id="clip0_2583_9045">
<rect width="17" height="21" fill="white" transform="translate(0.5 -0.00390625)"/>
</clipPath>
</defs>
</svg>
