<svg width="24" height="25" viewBox="0 0 24 25" fill="none" xmlns="http://www.w3.org/2000/svg">
<g id="Media / Icon/24px/Yes/play">
<path id="Icon" fill-rule="evenodd" clip-rule="evenodd" d="M12 22.3201C17.302 22.3201 21.6 18.022 21.6 12.7201C21.6 7.41818 17.302 3.12012 12 3.12012C6.69809 3.12012 2.40002 7.41818 2.40002 12.7201C2.40002 18.022 6.69809 22.3201 12 22.3201ZM11.4657 9.32166C11.0974 9.07617 10.624 9.05329 10.2338 9.26211C9.84361 9.47093 9.60002 9.87756 9.60002 10.3201V15.1201C9.60002 15.5627 9.84361 15.9693 10.2338 16.1781C10.624 16.3869 11.0974 16.3641 11.4657 16.1186L15.0657 13.7186C15.3995 13.496 15.6 13.1213 15.6 12.7201C15.6 12.3189 15.3995 11.9442 15.0657 11.7217L11.4657 9.32166Z" fill="#BA1217"/>
<rect x="0.5" y="1.22021" width="23" height="23" rx="11.5" stroke="#BA1217" stroke-opacity="0.37"/>
</g>
</svg>
