<svg width="24" height="25" viewBox="0 0 24 25" fill="none" xmlns="http://www.w3.org/2000/svg">
<g id="Media / Icon/24px/Yes/plus">
<path id="Icon" fill-rule="evenodd" clip-rule="evenodd" d="M11.9996 4.19604C12.6624 4.19604 13.1996 4.7333 13.1996 5.39604V11.396H19.1996C19.8624 11.396 20.3996 11.9333 20.3996 12.596C20.3996 13.2588 19.8624 13.796 19.1996 13.796H13.1996V19.796C13.1996 20.4588 12.6624 20.996 11.9996 20.996C11.3369 20.996 10.7996 20.4588 10.7996 19.796V13.796H4.79961C4.13687 13.796 3.59961 13.2588 3.59961 12.596C3.59961 11.9333 4.13687 11.396 4.79961 11.396L10.7996 11.396V5.39604C10.7996 4.7333 11.3369 4.19604 11.9996 4.19604Z" fill="#1A8C75"/>
</g>
</svg>
