<svg width="16" height="16" viewBox="0 0 16 16" fill="none" xmlns="http://www.w3.org/2000/svg">
<g id="plus">
<path id="Vector" d="M12.6667 8.16732C12.6667 8.44346 12.4429 8.66732 12.1667 8.66732H9.16671C8.89057 8.66732 8.66671 8.89118 8.66671 9.16732V12.1673C8.66671 12.4435 8.44285 12.6673 8.16671 12.6673H7.83337C7.55723 12.6673 7.33337 12.4435 7.33337 12.1673V9.16732C7.33337 8.89118 7.10952 8.66732 6.83337 8.66732H3.83337C3.55723 8.66732 3.33337 8.44346 3.33337 8.16732V7.83398C3.33337 7.55784 3.55723 7.33398 3.83337 7.33398H6.83337C7.10952 7.33398 7.33337 7.11013 7.33337 6.83398V3.83398C7.33337 3.55784 7.55723 3.33398 7.83337 3.33398H8.16671C8.44285 3.33398 8.66671 3.55784 8.66671 3.83398V6.83398C8.66671 7.11013 8.89057 7.33398 9.16671 7.33398H12.1667C12.4429 7.33398 12.6667 7.55784 12.6667 7.83398V8.16732Z" fill="#1D5276"/>
</g>
</svg>
