<svg xmlns="http://www.w3.org/2000/svg" width="21" height="20" viewBox="0 0 21 20" fill="none">
  <path fill-rule="evenodd" clip-rule="evenodd" d="M10.3652 19.1668C5.36517 16.9394 2.86517 14.7172 2.86517 12.5002V4.16683C2.86517 3.52717 3.11067 3.37851 3.79011 2.96707C3.99583 2.8425 4.24133 2.69384 4.53184 2.50016C4.66667 2.41028 7.50118 0.833496 10.3652 0.833496C12.8612 0.833496 14.9485 1.66683 16.1985 2.50016C16.489 2.69384 16.7345 2.8425 16.9402 2.96707C17.6197 3.37851 17.8652 3.52717 17.8652 4.16683C17.8816 4.34787 17.8735 8.19809 17.8684 10.6627V10.6628C17.8666 11.5031 17.8652 12.1823 17.8652 12.5002C17.8652 14.7224 15.3652 16.9446 10.3652 19.1668ZM16.1985 12.5002C16.1985 12.3082 16.199 11.9867 16.2 11.4624L16.2034 9.83468L16.206 8.42498C16.2091 6.56486 16.2083 4.96834 16.2065 4.47457L16.092 4.40353C15.8226 4.23635 15.4713 4.01845 15.274 3.88691C14.0438 3.06676 12.2487 2.50016 10.3652 2.50016C8.56358 2.50016 6.22237 3.37623 5.45634 3.88691C5.25904 4.01845 4.90781 4.23634 4.63834 4.40351L4.53184 4.46961V12.5002C4.53184 13.7572 6.38943 15.4741 10.3659 17.3352C14.342 15.4783 16.1985 13.762 16.1985 12.5002ZM13.1093 6.91091L9.53184 10.4883L7.6211 8.57757L6.44258 9.75609L9.53184 12.8453L14.2878 8.08942L13.1093 6.91091Z" fill="#1D5276"/>
</svg>