<svg width="1440" height="197" viewBox="0 0 1440 197" fill="none" xmlns="http://www.w3.org/2000/svg">
<g clip-path="url(#clip0_1_545)">
<rect width="1440" height="197" fill="#FFF9D9"/>
<path d="M1480.39 7.87074C1480.39 54.4204 1444.77 196.493 1411.94 107.043C1379.53 7.87074 1311.82 54.4204 1311.82 7.87074C1311.82 -38.6789 1349.56 -76.4149 1396.11 -76.4149C1442.66 -76.4149 1480.39 -38.6789 1480.39 7.87074Z" fill="#FDEBCF"/>
<circle cx="703" cy="65" r="280" fill="#FDEBCF"/>
<circle cx="703" cy="65" r="296.15" stroke="#FDEBCF" stroke-width="1.7"/>
<circle cx="703" cy="65" r="328.2" stroke="#FDEBCF" stroke-width="1.6"/>
<circle cx="703" cy="65" r="353.5" stroke="#FDEBCF"/>
<circle cx="24.9634" cy="197" r="84.2856" fill="#FDEBCF"/>
<path d="M261.626 168.877L261.626 168.877C261.523 170.912 262.245 172.767 263.488 174.161L263.488 174.161C265.039 175.9 265.996 178.141 265.996 180.545V182.402H272.006V180.455C272.006 178.084 272.959 175.882 274.493 174.181L274.494 174.18C275.673 172.876 276.388 171.153 276.388 169.257C276.388 165.022 272.825 161.621 268.527 161.887L261.626 168.877ZM261.626 168.877C261.814 165.168 264.824 162.119 268.526 161.887L261.626 168.877Z" stroke="#FDEBCF" stroke-width="3"/>
<g opacity="0.25">
<path d="M261.626 168.877L261.626 168.877C261.523 170.912 262.245 172.767 263.488 174.161L263.488 174.161C265.039 175.9 265.996 178.141 265.996 180.545V182.402H272.006V180.455C272.006 178.084 272.959 175.882 274.493 174.181L274.494 174.18C275.673 172.876 276.388 171.153 276.388 169.257C276.388 165.022 272.825 161.621 268.527 161.887L261.626 168.877ZM261.626 168.877C261.814 165.168 264.824 162.119 268.526 161.887L261.626 168.877Z" stroke="#FDEBCF" stroke-width="3"/>
</g>
<path d="M273.049 186.892H265.054C264.579 186.892 264.186 186.504 264.186 186.025C264.186 185.55 264.575 185.158 265.054 185.158H273.049C273.525 185.158 273.917 185.546 273.917 186.025C273.913 186.5 273.525 186.892 273.049 186.892Z" fill="#FDEBCF"/>
<g opacity="0.25">
<path d="M273.049 186.892H265.054C264.579 186.892 264.186 186.504 264.186 186.025C264.186 185.55 264.575 185.158 265.054 185.158H273.049C273.525 185.158 273.917 185.546 273.917 186.025C273.913 186.5 273.525 186.892 273.049 186.892Z" fill="#FDEBCF"/>
</g>
<path d="M273.049 189.446H265.054C264.579 189.446 264.186 189.057 264.186 188.578C264.186 188.103 264.575 187.711 265.054 187.711H273.049C273.525 187.711 273.917 188.099 273.917 188.578C273.913 189.057 273.525 189.446 273.049 189.446Z" fill="#FDEBCF"/>
<g opacity="0.25">
<path d="M273.049 189.446H265.054C264.579 189.446 264.186 189.057 264.186 188.578C264.186 188.103 264.575 187.711 265.054 187.711H273.049C273.525 187.711 273.917 188.099 273.917 188.578C273.913 189.057 273.525 189.446 273.049 189.446Z" fill="#FDEBCF"/>
</g>
<path d="M265.492 190.637C266.053 191.471 267.43 192.327 269.048 192.327C270.666 192.327 272.046 191.471 272.605 190.637H265.492Z" fill="#FDEBCF"/>
<g opacity="0.25">
<path d="M265.492 190.637C266.053 191.471 267.43 192.327 269.048 192.327C270.666 192.327 272.046 191.471 272.605 190.637H265.492Z" fill="#FDEBCF"/>
</g>
<path d="M256.794 155.789L252.932 151.927C252.732 151.727 252.468 151.618 252.186 151.618C251.903 151.618 251.639 151.727 251.439 151.927C251.239 152.127 251.13 152.391 251.13 152.674C251.13 152.957 251.239 153.221 251.439 153.42L255.301 157.282C255.501 157.482 255.765 157.592 256.048 157.592C256.33 157.592 256.594 157.482 256.794 157.282C256.994 157.083 257.104 156.819 257.104 156.536C257.104 156.257 256.994 155.989 256.794 155.789Z" fill="#FDEBCF"/>
<g opacity="0.25">
<path d="M256.794 155.789L252.932 151.927C252.732 151.727 252.468 151.618 252.186 151.618C251.903 151.618 251.639 151.727 251.439 151.927C251.239 152.127 251.13 152.391 251.13 152.674C251.13 152.957 251.239 153.221 251.439 153.42L255.301 157.282C255.501 157.482 255.765 157.592 256.048 157.592C256.33 157.592 256.594 157.482 256.794 157.282C256.994 157.083 257.104 156.819 257.104 156.536C257.104 156.257 256.994 155.989 256.794 155.789Z" fill="#FDEBCF"/>
</g>
<path d="M252.514 161.427L247.479 159.308C247.347 159.251 247.211 159.225 247.071 159.225C246.645 159.225 246.261 159.477 246.095 159.87C245.868 160.405 246.121 161.028 246.66 161.254L251.695 163.373C251.827 163.43 251.963 163.456 252.106 163.456C252.533 163.456 252.917 163.204 253.083 162.811C253.193 162.551 253.193 162.265 253.087 162.001C252.974 161.74 252.774 161.537 252.514 161.427Z" fill="#FDEBCF"/>
<g opacity="0.25">
<path d="M252.514 161.427L247.479 159.308C247.347 159.251 247.211 159.225 247.071 159.225C246.645 159.225 246.261 159.477 246.095 159.87C245.868 160.405 246.121 161.028 246.66 161.254L251.695 163.373C251.827 163.43 251.963 163.456 252.106 163.456C252.533 163.456 252.917 163.204 253.083 162.811C253.193 162.551 253.193 162.265 253.087 162.001C252.974 161.74 252.774 161.537 252.514 161.427Z" fill="#FDEBCF"/>
</g>
<path d="M269.052 144.633C268.467 144.633 267.996 145.108 267.996 145.689V151.15C267.996 151.735 268.471 152.206 269.052 152.206C269.637 152.206 270.108 151.731 270.108 151.15V145.689C270.108 145.108 269.633 144.633 269.052 144.633Z" fill="#FDEBCF"/>
<g opacity="0.25">
<path d="M269.052 144.633C268.467 144.633 267.996 145.108 267.996 145.689V151.15C267.996 151.735 268.471 152.206 269.052 152.206C269.637 152.206 270.108 151.731 270.108 151.15V145.689C270.108 145.108 269.633 144.633 269.052 144.633Z" fill="#FDEBCF"/>
</g>
<path d="M286.974 152.674C286.974 152.391 286.865 152.127 286.665 151.927C286.465 151.727 286.201 151.618 285.918 151.618C285.635 151.618 285.371 151.727 285.171 151.927L281.309 155.789C281.109 155.989 281 156.253 281 156.536C281 156.819 281.109 157.083 281.309 157.282C281.509 157.482 281.773 157.592 282.056 157.592C282.339 157.592 282.603 157.482 282.803 157.282L286.665 153.42C286.861 153.224 286.974 152.957 286.974 152.674Z" fill="#FDEBCF"/>
<g opacity="0.25">
<path d="M286.974 152.674C286.974 152.391 286.865 152.127 286.665 151.927C286.465 151.727 286.201 151.618 285.918 151.618C285.635 151.618 285.371 151.727 285.171 151.927L281.309 155.789C281.109 155.989 281 156.253 281 156.536C281 156.819 281.109 157.083 281.309 157.282C281.509 157.482 281.773 157.592 282.056 157.592C282.339 157.592 282.603 157.482 282.803 157.282L286.665 153.42C286.861 153.224 286.974 152.957 286.974 152.674Z" fill="#FDEBCF"/>
</g>
<path d="M278.718 146.587C278.586 146.53 278.451 146.504 278.311 146.504C277.885 146.504 277.5 146.756 277.334 147.148L275.215 152.183C275.105 152.444 275.105 152.73 275.211 152.994C275.316 153.255 275.52 153.462 275.78 153.571C275.912 153.628 276.048 153.654 276.188 153.654C276.614 153.654 276.999 153.402 277.165 153.009L279.284 147.974C279.51 147.431 279.258 146.813 278.718 146.587Z" fill="#FDEBCF"/>
<g opacity="0.25">
<path d="M278.718 146.587C278.586 146.53 278.451 146.504 278.311 146.504C277.885 146.504 277.5 146.756 277.334 147.148L275.215 152.183C275.105 152.444 275.105 152.73 275.211 152.994C275.316 153.255 275.52 153.462 275.78 153.571C275.912 153.628 276.048 153.654 276.188 153.654C276.614 153.654 276.999 153.402 277.165 153.009L279.284 147.974C279.51 147.431 279.258 146.813 278.718 146.587Z" fill="#FDEBCF"/>
</g>
<path d="M292.118 160.145C291.956 159.745 291.571 159.489 291.138 159.489C291.002 159.489 290.866 159.515 290.742 159.568L285.684 161.627C285.145 161.846 284.885 162.465 285.103 163.004C285.265 163.404 285.65 163.664 286.084 163.664C286.22 163.664 286.355 163.637 286.48 163.585L291.537 161.525C291.798 161.42 292.001 161.216 292.111 160.956C292.224 160.696 292.224 160.409 292.118 160.145Z" fill="#FDEBCF"/>
<g opacity="0.25">
<path d="M292.118 160.145C291.956 159.745 291.571 159.489 291.138 159.489C291.002 159.489 290.866 159.515 290.742 159.568L285.684 161.627C285.145 161.846 284.885 162.465 285.103 163.004C285.265 163.404 285.65 163.664 286.084 163.664C286.22 163.664 286.355 163.637 286.48 163.585L291.537 161.525C291.798 161.42 292.001 161.216 292.111 160.956C292.224 160.696 292.224 160.409 292.118 160.145Z" fill="#FDEBCF"/>
</g>
<path d="M261.034 147.05C260.872 146.651 260.487 146.39 260.053 146.39C259.917 146.39 259.782 146.417 259.657 146.47C259.118 146.688 258.858 147.307 259.076 147.846L261.136 152.904C261.298 153.304 261.682 153.564 262.116 153.564C262.252 153.564 262.388 153.537 262.512 153.485C262.772 153.379 262.976 153.175 263.089 152.915C263.199 152.655 263.202 152.368 263.093 152.104L261.034 147.05Z" fill="#FDEBCF"/>
<g opacity="0.25">
<path d="M261.034 147.05C260.872 146.651 260.487 146.39 260.053 146.39C259.917 146.39 259.782 146.417 259.657 146.47C259.118 146.688 258.858 147.307 259.076 147.846L261.136 152.904C261.298 153.304 261.682 153.564 262.116 153.564C262.252 153.564 262.388 153.537 262.512 153.485C262.772 153.379 262.976 153.175 263.089 152.915C263.199 152.655 263.202 152.368 263.093 152.104L261.034 147.05Z" fill="#FDEBCF"/>
</g>
<path d="M73.8837 2.76993L84.8257 7.96052L71.0802 36.9494L46.1605 25.1263L56.766 2.76993H55.0518L44.1019 25.8633L71.8171 39L86.8843 7.22359L77.4883 2.76993H73.8837Z" fill="#FDEBCF"/>
<path d="M55.7248 2.76995L45.3116 24.7259L20.3919 12.9028L25.198 2.76995H23.4838L18.3332 13.6398L46.0405 26.7845L57.431 2.76995H55.7248Z" fill="#FDEBCF"/>
<path d="M70.5481 33.9489L71.2998 32.3639L66.4002 30.0402L65.6486 31.6252L70.5481 33.9489Z" fill="#FDEBCF"/>
<path d="M64.341 31.0043L65.0927 29.4193L56.3356 25.2662L55.5839 26.8511L64.341 31.0043Z" fill="#FDEBCF"/>
<path d="M54.2747 26.2145L55.0264 24.6295L50.865 22.6559L50.1133 24.2409L54.2747 26.2145Z" fill="#FDEBCF"/>
<path d="M71.8989 31.099L72.6506 29.514L63.539 25.1927L62.7873 26.7776L71.8989 31.099Z" fill="#FDEBCF"/>
<path d="M61.4756 26.1442L62.2273 24.5592L52.211 19.8088L51.4593 21.3938L61.4756 26.1442Z" fill="#FDEBCF"/>
<path d="M73.2506 28.2531L74.0023 26.6682L68.9435 24.269L68.1918 25.8539L73.2506 28.2531Z" fill="#FDEBCF"/>
<path d="M66.8715 25.239L67.6232 23.654L53.5613 16.9849L52.8096 18.5699L66.8715 25.239Z" fill="#FDEBCF"/>
<path d="M74.599 25.4094L75.3507 23.8245L68.4826 20.5672L67.7309 22.1521L74.599 25.4094Z" fill="#FDEBCF"/>
<path d="M66.4059 21.4687L67.1578 19.8838L64.205 18.483L63.4531 20.068L66.4059 21.4687Z" fill="#FDEBCF"/>
<path d="M62.134 19.4501L62.8859 17.8651L54.896 14.0749L54.1441 15.6599L62.134 19.4501Z" fill="#FDEBCF"/>
<path d="M76.0543 22.3447L76.806 20.7598L69.7714 17.4235L69.0198 19.0084L76.0543 22.3447Z" fill="#FDEBCF"/>
<path d="M59.7137 14.2407C59.6656 14.3448 59.6015 14.4249 59.5294 14.489L67.6838 18.3579L68.4368 16.7719L60.3385 12.927L59.7137 14.2407Z" fill="#FDEBCF"/>
<path d="M58.3284 13.9201C58.3284 13.824 58.3525 13.7279 58.4005 13.6237L59.0253 12.3101L56.3419 11.0365L55.589 12.6225L58.3284 13.9201Z" fill="#FDEBCF"/>
<path d="M72.2882 17.0735L73.0399 15.4886L67.3515 12.7907L66.5998 14.3757L72.2882 17.0735Z" fill="#FDEBCF"/>
<path d="M61.3297 11.8236L62.0815 10.2386L57.703 8.16159L56.9512 9.74653L61.3297 11.8236Z" fill="#FDEBCF"/>
<path d="M65.2825 13.7482L66.0342 12.1633L63.4071 10.9173L62.6554 12.5023L65.2825 13.7482Z" fill="#FDEBCF"/>
<path d="M77.4019 19.4981L78.1536 17.9132L74.3468 16.1078L73.5951 17.6927L77.4019 19.4981Z" fill="#FDEBCF"/>
<path d="M69.959 12.429L70.7108 10.8441L59.0517 5.31324L58.2998 6.89818L69.959 12.429Z" fill="#FDEBCF"/>
<path d="M78.7544 16.6577L79.506 15.0728L72.0372 11.5305L71.2856 13.1155L78.7544 16.6577Z" fill="#FDEBCF"/>
<path d="M80.101 13.812L80.8527 12.227L72.1753 8.11164L71.4236 9.69659L80.101 13.812Z" fill="#FDEBCF"/>
<path d="M70.1092 9.00096L70.8611 7.41602L69.2182 6.63668L68.4664 8.22163L70.1092 9.00096Z" fill="#FDEBCF"/>
<path d="M60.2664 2.77012L59.6416 4.08376L67.1391 7.64028L67.8921 6.05428L60.9713 2.77012H60.2664Z" fill="#FDEBCF"/>
<path d="M37.8861 18.438L43.6054 21.1454L44.3583 19.5594L38.6871 16.8679C38.4228 17.3966 38.1504 17.9173 37.8861 18.438Z" fill="#FDEBCF"/>
<path d="M36.5726 17.8132C36.8369 17.2925 37.1013 16.7719 37.3656 16.2432L23.9085 9.85909L23.1555 11.4451L36.5726 17.8132Z" fill="#FDEBCF"/>
<path d="M44.9733 18.3388L45.725 16.7539L35.5712 11.9383L34.8195 13.5232L44.9733 18.3388Z" fill="#FDEBCF"/>
<path d="M33.5087 12.9013L34.2604 11.3163L30.649 9.6036L29.8973 11.1885L33.5087 12.9013Z" fill="#FDEBCF"/>
<path d="M28.5795 10.561L29.3312 8.97607L25.2784 7.05395L24.5267 8.63889L28.5795 10.561Z" fill="#FDEBCF"/>
</g>
<defs>
<clipPath id="clip0_1_545">
<rect width="1440" height="197" fill="white"/>
</clipPath>
</defs>
</svg>
