<svg width="20" height="22" viewBox="0 0 20 22" fill="none" xmlns="http://www.w3.org/2000/svg">
<g id="Frame">
<g id="Group">
<path id="Vector" d="M6.4909 8.6139C6.4909 8.4374 6.49571 8.2182 6.4897 7.9993C6.47917 7.61137 6.65897 7.33542 6.98187 7.13653C7.18722 7.00991 7.4058 6.91106 7.6355 6.83968C8.75185 6.49356 9.89134 6.31915 11.0582 6.46907C12.3303 6.63272 13.366 7.20343 14.0482 8.31526C14.4214 8.92329 14.544 9.60061 14.5341 10.3039C14.5215 11.2049 14.3158 12.048 13.7614 12.7829C13.4163 13.2404 12.9764 13.5871 12.4797 13.8697C12.1096 14.0802 11.7608 14.3206 11.4524 14.6163C11.1024 14.9516 10.8967 15.3494 10.8748 15.8395C10.8619 16.131 10.7699 16.2062 10.4683 16.211C10.0675 16.217 9.66675 16.2197 9.26988 16.2863C9.20584 16.297 9.1418 16.309 9.07866 16.3248C8.83032 16.3866 8.72479 16.3385 8.65052 16.0915C8.54559 15.743 8.52906 15.3856 8.60903 15.0293C8.73591 14.4631 9.03897 13.9831 9.38203 13.5268C9.69651 13.1084 10.023 12.6987 10.2524 12.2245C10.4259 11.8658 10.5429 11.4961 10.5167 11.0902C10.4743 10.4344 10.0856 10.0414 9.42502 9.98197C8.87692 9.93269 8.36129 10.0626 7.85348 10.2424C7.56575 10.3442 7.28313 10.4595 7.01194 10.599C6.88686 10.6632 6.81501 10.6252 6.75427 10.5198C6.64213 10.3251 6.61146 10.1074 6.57959 9.89118C6.51916 9.48235 6.51134 9.06903 6.4909 8.6139Z" fill="#464A53"/>
<path id="Vector_2" d="M1.29224 10.7072C1.35177 8.21202 2.38182 5.99521 4.42329 4.24967C4.64337 4.06152 4.93741 4.07825 5.10668 4.28072C5.27926 4.48708 5.24709 4.76243 5.01889 4.95356C3.89744 5.89308 3.07033 7.04165 2.63046 8.43152C1.76758 11.1572 2.25314 13.6473 4.0616 15.8697C4.794 16.7695 5.71582 17.4385 6.77233 17.925C7.03541 18.0462 7.13883 18.3078 7.02548 18.5551C6.92146 18.7818 6.65146 18.877 6.39921 18.7624C5.00837 18.1307 3.85986 17.202 2.96089 15.9722C1.85146 14.4548 1.31238 12.7519 1.29224 10.7072Z" fill="#464A53"/>
<path id="Vector_3" d="M17.7924 10.7164C17.7391 8.51748 16.8339 6.53003 15.0065 4.96994C14.7668 4.76537 14.7241 4.48764 14.9063 4.2753C15.081 4.07193 15.3691 4.06387 15.6024 4.26336C17.3847 5.79001 18.4331 7.70787 18.6643 10.0391C19.0311 13.738 17.0494 17.158 13.6445 18.7486C13.3742 18.8749 13.1054 18.7979 12.9878 18.5607C12.8655 18.3141 12.9677 18.0498 13.2437 17.9216C14.5726 17.305 15.6529 16.3983 16.4686 15.1867C17.3408 13.8906 17.7725 12.4583 17.7924 10.7164Z" fill="#464A53"/>
<path id="Vector_4" d="M8.19067 18.7055C8.19128 17.6761 8.99433 16.8772 10.0265 16.8799C11.0439 16.8823 11.8446 17.6898 11.8428 18.7108C11.8407 19.757 11.0301 20.5815 10.006 20.5785C8.99313 20.5756 8.19007 19.7471 8.19067 18.7055Z" fill="#464A53"/>
<path id="Vector_5" d="M7.90051 4.29533C8.00303 4.4118 8.14434 4.45719 8.26942 4.52797C8.25649 4.60502 8.19094 4.61816 8.14103 4.64324C7.97988 4.72388 7.8064 4.77375 7.63743 4.83497C7.50244 4.88365 7.40472 4.85797 7.37556 4.71671C7.33768 4.53514 7.23004 4.51005 7.06077 4.4993C6.39812 4.45779 5.90023 3.89724 5.87257 3.18827C5.84762 2.54709 6.2977 2.00416 6.94502 1.89576C7.59594 1.78646 8.20808 2.18872 8.40591 2.85559C8.56857 3.40389 8.40862 3.89903 7.95703 4.24814C7.93779 4.26218 7.92035 4.27831 7.90051 4.29533ZM7.78085 3.27129C7.78596 2.88963 7.50154 2.55605 7.1657 2.55008C6.82385 2.54381 6.55386 2.79974 6.55206 3.13153C6.54995 3.51289 6.83768 3.85334 7.1657 3.85722C7.50334 3.86081 7.77634 3.60099 7.78085 3.27129Z" fill="#464A53"/>
<path id="Vector_6" d="M8.68223 1.48278C8.93539 1.48278 9.169 1.48278 9.399 1.48278C9.442 1.54371 9.42636 1.60523 9.42666 1.66316C9.42847 2.07588 9.42787 2.4889 9.42877 2.90162C9.42877 2.95627 9.43057 3.01122 9.43508 3.06557C9.46184 3.39109 9.72822 3.53623 10.0247 3.38751C10.154 3.3227 10.1897 3.20862 10.1846 3.07603C10.1672 2.63882 10.1476 2.20161 10.1302 1.7644C10.1179 1.45829 10.1185 1.45889 10.4258 1.44515C10.5307 1.44038 10.6359 1.43381 10.7405 1.42425C10.8274 1.41619 10.8683 1.44157 10.8668 1.53773C10.8578 2.11948 10.8668 2.70093 10.8668 3.28269C10.8668 3.69511 10.7078 3.86473 10.3025 3.95074C9.96183 4.02301 9.61728 4.03496 9.27243 3.97941C8.97267 3.93103 8.79648 3.75782 8.76431 3.45769C8.71771 3.02257 8.75529 2.58297 8.7111 2.14696C8.68885 1.93015 8.6684 1.71303 8.68223 1.48278Z" fill="#464A53"/>
<path id="Vector_7" d="M13.4206 2.69445C13.1657 2.59441 12.9122 2.49466 12.6437 2.38924C12.7204 2.19423 12.8659 2.05238 12.9516 1.86035C13.1067 1.92486 13.2532 1.98399 13.3981 2.0464C13.6963 2.17452 13.9922 2.30891 14.2928 2.43135C14.3906 2.47107 14.402 2.51885 14.3779 2.61322C14.3241 2.82406 14.2228 2.98174 14.0268 3.10269C13.6618 3.32787 13.3157 3.5832 12.9618 3.8263C12.9255 3.85108 12.8837 3.87079 12.8596 3.92276C13.1383 4.05834 13.4315 4.15122 13.7471 4.23514C13.6666 4.45045 13.564 4.6386 13.4357 4.82973C13.2787 4.75686 13.1314 4.68489 12.9814 4.62008C12.6699 4.4854 12.3575 4.3522 12.0433 4.22409C11.9582 4.18944 11.917 4.14943 11.9627 4.05894C11.9673 4.05028 11.9697 4.04012 11.9706 4.03027C11.9967 3.75791 12.1675 3.60172 12.3894 3.46255C12.6936 3.27202 12.9802 3.05342 13.2727 2.84467C13.3244 2.80794 13.3846 2.77718 13.4206 2.69445Z" fill="#464A53"/>
<path id="Vector_8" d="M11.5413 1.56934C11.7746 1.61592 12.0124 1.66371 12.2641 1.71388C12.246 1.89635 12.1949 2.06657 12.148 2.23709C11.9862 2.82273 11.8942 3.4224 11.7881 4.01878C11.7647 4.15018 11.7147 4.17138 11.5996 4.14421C11.4393 4.10628 11.2767 4.07701 11.1149 4.04506C11.0353 4.02953 11.0058 3.98802 11.0283 3.90739C11.2409 3.15033 11.3855 2.37895 11.5184 1.60517C11.5202 1.59621 11.5286 1.58845 11.5413 1.56934Z" fill="#464A53"/>
</g>
</g>
</svg>
