<svg width="20" height="20" viewBox="0 0 20 20" fill="none" xmlns="http://www.w3.org/2000/svg">
<g id="quiz">
<g id="Group">
<path id="Vector" d="M7.58119 16.4267C8.73633 15.9039 9.69286 15.1277 10.4682 14.1308C10.6277 13.9256 10.8071 13.8448 11.0596 13.8474C11.6311 13.8539 12.203 13.8531 12.7745 13.8352C13.6268 13.8092 14.2243 13.3672 14.6259 12.6401C14.6902 12.5237 14.7471 12.4715 14.884 12.4785C15.1348 12.4915 15.3869 12.4824 15.6589 12.4824C15.4968 13.0786 15.1848 13.5545 14.7519 13.9539C14.1313 14.5271 13.3869 14.7692 12.5516 14.7644C12.1318 14.7618 11.712 14.7674 11.2921 14.7618C11.1805 14.7605 11.1061 14.7944 11.0344 14.8813C9.78108 16.4063 8.17353 17.3702 6.27742 17.8756C5.9932 17.9512 5.7872 17.8878 5.67421 17.684C5.55817 17.4749 5.60641 17.2642 5.82849 17.0721C6.53165 16.4636 6.928 15.6762 7.17658 14.7866C7.03534 14.7444 6.89888 14.7674 6.76503 14.764C6.1666 14.7483 5.56078 14.8218 4.97321 14.6562C3.81286 14.3294 3.08014 13.5706 2.74811 12.4176C2.7429 12.3994 2.75246 12.3768 2.75507 12.3555C3.03234 12.465 3.32525 12.4732 3.61034 12.5158C3.70986 12.5306 3.75506 12.5662 3.8033 12.6506C4.24267 13.4202 4.8876 13.847 5.79502 13.8379C6.40301 13.8318 7.011 13.8357 7.61943 13.8361C8.16093 13.8366 8.33694 14.076 8.19352 14.5884C8.02229 15.2007 7.8037 15.7944 7.53729 16.3711C7.51991 16.3932 7.50079 16.4189 7.52773 16.4428C7.53468 16.4497 7.5625 16.4328 7.58119 16.4267Z" fill="white"/>
<path id="Vector_2" d="M6.02064 9.78697C6.21229 9.95472 6.42437 10.059 6.65862 10.169C6.53302 10.4236 6.41047 10.6722 6.28487 10.9265C5.97327 10.7891 5.706 10.6057 5.44742 10.411C5.35441 10.3411 5.27923 10.3363 5.17362 10.3698C4.60909 10.5471 4.03326 10.5671 3.46091 10.4293C2.79989 10.2702 2.32358 9.87128 2.08499 9.22809C1.81989 8.51362 1.83902 7.79177 2.14106 7.09382C2.35487 6.60012 2.73992 6.26288 3.25274 6.09556C3.91201 5.88088 4.57911 5.88001 5.23056 6.12294C6.02368 6.41846 6.39048 7.04427 6.46914 7.85174C6.53606 8.54057 6.46436 9.20853 6.02064 9.78697ZM4.9824 9.08119C5.15494 8.58098 5.18232 8.09815 5.04759 7.61228C4.92938 7.18682 4.62517 6.96865 4.1845 6.97126C3.78511 6.97387 3.44874 7.22854 3.34574 7.62749C3.23709 8.04774 3.24535 8.4732 3.36747 8.88824C3.50523 9.35542 3.96894 9.59271 4.417 9.4406C4.2888 9.29241 4.10149 9.2446 3.93591 9.14856C3.98546 8.97298 4.05542 8.81088 4.14669 8.66269C4.47611 8.69267 4.68428 8.94647 4.9824 9.08119Z" fill="white"/>
<path id="Vector_3" d="M15.7762 5.19629C15.4555 5.19629 15.1674 5.19629 14.8701 5.19629C14.8171 4.96639 14.8188 4.7265 14.7428 4.4979C14.4607 3.64524 13.6476 3.01465 12.7558 3.01117C10.3956 3.00205 8.03488 3.00161 5.67462 3.01161C5.0336 3.01421 4.49862 3.28627 4.09097 3.78518C4.0097 3.8847 3.92453 3.92511 3.8011 3.92946C3.49124 3.93946 3.19007 4.01029 2.86108 4.08765C3.07056 3.5392 3.40519 3.11721 3.8363 2.76824C4.40909 2.30496 5.06837 2.09288 5.80239 2.09375C8.08312 2.09636 10.3638 2.09288 12.6446 2.09636C14.1526 2.09853 15.3999 3.10895 15.6997 4.57091C15.7406 4.76691 15.7497 4.96987 15.7762 5.19629Z" fill="white"/>
<path id="Vector_4" d="M9.32259 9.97913C8.96753 10.4115 8.52772 10.5828 7.98666 10.4898C7.52686 10.4107 7.2509 10.1343 7.16746 9.66275C7.1001 9.28161 7.14008 8.897 7.134 8.51412C7.12748 8.10909 7.134 7.70361 7.13573 7.29814C7.13573 7.28467 7.14399 7.27163 7.15268 7.24425C7.54294 7.24425 7.93799 7.24425 8.34129 7.24425C8.39387 7.31379 8.36736 7.40331 8.36823 7.48675C8.37518 8.03651 8.37258 8.58627 8.38518 9.13602C8.39083 9.3933 8.51469 9.52324 8.73937 9.55236C8.9558 9.58017 9.14788 9.45849 9.2222 9.23772C9.27783 9.07214 9.29086 8.89874 9.29086 8.72447C9.29086 8.23381 9.29086 7.74316 9.29086 7.24121C9.70546 7.24121 10.1001 7.24121 10.5055 7.24121C10.5055 8.30031 10.5055 9.35462 10.5055 10.4246C10.1409 10.4246 9.76848 10.4246 9.38256 10.4246C9.31216 10.2959 9.41907 10.126 9.32259 9.97913Z" fill="white"/>
<path id="Vector_5" d="M14.5417 8.08877C14.1032 8.08877 13.6647 8.08877 13.2054 8.08877C13.2054 7.79934 13.2054 7.52337 13.2054 7.23828C14.1836 7.23828 15.1528 7.23828 16.1532 7.23828C16.1354 7.58291 16.2497 7.92015 15.9085 8.22002C15.4383 8.63288 15.0237 9.10876 14.5482 9.5955C15.1436 9.5955 15.6925 9.5955 16.2449 9.5955C16.2449 9.88884 16.2449 10.1544 16.2449 10.4295C15.1832 10.4295 14.1293 10.4295 13.0563 10.4295C13.0563 10.1852 13.058 9.94795 13.0554 9.71066C13.0546 9.62505 13.115 9.58289 13.1662 9.53378C13.6426 9.07877 14.1193 8.62419 14.596 8.16961C14.5782 8.14223 14.56 8.11572 14.5417 8.08877Z" fill="white"/>
<path id="Vector_6" d="M11.3142 10.4302C11.3142 9.35984 11.3142 8.30596 11.3142 7.24121C11.7206 7.24121 12.1156 7.24121 12.5263 7.24121C12.5263 8.30074 12.5263 9.36114 12.5263 10.4302C12.1252 10.4302 11.7292 10.4302 11.3142 10.4302Z" fill="white"/>
<path id="Vector_7" d="M11.3176 6.02148C11.7235 6.02148 12.1181 6.02148 12.5271 6.02148C12.5271 6.29006 12.5271 6.55473 12.5271 6.83808C12.1312 6.83808 11.7314 6.83808 11.3176 6.83808C11.3176 6.57385 11.3176 6.31049 11.3176 6.02148Z" fill="white"/>
</g>
</g>
</svg>
