<svg width="34" height="30" viewBox="0 0 34 30" fill="none" xmlns="http://www.w3.org/2000/svg">
<g id="Frame" clip-path="url(#clip0_1261_5840)">
<g id="Group">
<path id="Vector" d="M0 10.1395C0.13804 10.0285 0.102186 9.85973 0.126387 9.71714C0.654346 6.57494 2.2185 4.11676 4.88429 2.38232C6.98447 1.01606 9.31592 0.622609 11.763 0.739021C12.5715 0.777824 13.0726 1.33461 13.0771 2.16032C13.0815 2.9734 13.0824 3.78738 13.0771 4.60045C13.0708 5.44872 12.5267 5.99017 11.6814 6.001C10.8093 6.01183 9.9371 5.9631 9.07479 6.18419C6.97551 6.72383 5.3002 8.80029 5.24642 10.9724C5.23477 11.4606 5.1774 11.9533 5.30379 12.4352C5.5234 13.2772 6.21629 13.8701 7.07232 13.8836C8.59882 13.908 10.1262 13.8908 11.6536 13.8998C13.4132 13.9098 14.8599 14.8799 15.4381 16.4248C15.6075 16.8778 15.6855 17.3462 15.6855 17.8299C15.6846 20.4811 15.7079 23.1333 15.6783 25.7846C15.6532 28.0533 14.0003 29.6813 11.7137 29.7029C9.13575 29.7273 6.55691 29.7246 3.97807 29.7029C2.02399 29.6867 0.61401 28.5523 0.0914292 26.6464C0.0735019 26.5806 0.105771 26.4804 0.000896364 26.4524C0 21.0145 0 15.5765 0 10.1395Z" fill="#20AC90"/>
<path id="Vector_2" d="M18.328 18.258C18.328 15.7854 18.2267 13.3064 18.3513 10.8401C18.5547 6.79731 20.5088 3.8031 24.0647 1.88998C25.9489 0.875668 27.9881 0.656381 30.0775 0.741208C30.8591 0.772792 31.3638 1.30522 31.3835 2.10115C31.405 2.94761 31.405 3.79498 31.3835 4.64054C31.3629 5.47889 30.8161 5.99055 29.9807 6.00048C29.1085 6.01041 28.2364 5.96348 27.375 6.18548C25.3277 6.71249 23.6667 8.73029 23.5627 10.8474C23.5421 11.2697 23.5179 11.692 23.5591 12.1152C23.6568 13.1088 24.4026 13.865 25.3895 13.8831C26.916 13.911 28.4434 13.8894 29.9699 13.8993C31.8021 13.911 33.2704 14.956 33.8118 16.6219C33.9543 17.0596 33.9991 17.5108 33.9991 17.9701C33.9973 20.5212 34.0009 23.0724 33.9973 25.6235C33.9937 27.9914 32.3641 29.6789 30.0139 29.7015C27.4359 29.7259 24.8571 29.725 22.2791 29.7015C20.2292 29.6826 18.6802 28.3497 18.3575 26.3761C18.3109 26.0927 18.3145 25.7986 18.3136 25.5098C18.31 23.0922 18.3118 20.6746 18.3118 18.2571C18.3172 18.258 18.3226 18.258 18.328 18.258Z" fill="#2872A4"/>
</g>
</g>
<defs>
<clipPath id="clip0_1261_5840">
<rect width="34" height="29" fill="white" transform="translate(0 0.720215)"/>
</clipPath>
</defs>
</svg>
