<svg width="24" height="24" viewBox="0 0 24 24" fill="none" xmlns="http://www.w3.org/2000/svg">
<g id="Media / Integrations">
<circle id="bg" cx="12" cy="12" r="10.5" fill="#F11E15"/>
<path id="world_pay" fill-rule="evenodd" clip-rule="evenodd" d="M14.2628 18.9075C14.9848 18.5799 15.7796 18.1761 16.5497 17.6988C15.8056 18.5554 15.0082 18.7824 14.2628 18.9075ZM12.4963 20.4208C12.4234 20.4208 11.8016 20.4208 11.8016 20.1937C11.8016 20.0686 12.0007 19.6635 12.175 19.6145C12.547 19.4623 13.3431 19.2597 13.3925 19.2597C13.4667 19.2597 14.1146 19.3371 14.1874 19.3371C14.2368 19.3371 14.7103 19.31 14.9848 19.2365C15.3061 19.1591 15.7055 19.0095 16.0776 18.7824C16.4509 18.5554 16.9973 18.0755 17.2457 17.6717C17.394 17.4447 17.4694 17.1428 17.645 16.9402C17.8675 16.6396 18.2903 16.3855 18.6376 16.0591C18.9862 15.7044 19.3361 15.3277 19.6575 14.9252C18.9862 18.1013 14.9094 20.4208 12.4963 20.4208ZM14.0157 3.15224C15.2827 3.4296 16.7253 3.98175 17.9664 5.2447C18.3657 5.6472 18.7144 6.20318 18.8627 6.63018C18.9355 6.80563 18.9355 7.08428 19.0617 7.25973C19.2608 7.56418 19.608 7.81445 19.8565 8.14341C20.1804 8.49559 20.3782 8.87486 20.5538 9.27736C20.6266 9.40249 20.6526 9.57925 20.7268 9.73148C20.8257 9.93143 21 10.8899 21 11.2447C21 11.9762 20.7528 12.883 20.4276 13.5887C20.4276 13.6145 20.4549 13.6145 20.4549 13.6893V14.3189C20.1805 18.2032 15.5806 21 12.6953 21C12.3479 21 11.3541 20.9497 11.3541 20.244C11.3541 20.1666 11.4048 19.9409 11.4543 19.7641C10.9053 19.8415 9.83599 20.0428 9.21418 20.0428C8.74457 20.0428 6.57994 20.0183 6.57994 18.8327C6.57994 17.722 8.51955 17.6472 8.89289 17.6472C9.93618 17.6472 11.0302 17.949 12.0995 18.4535C11.9239 18.5051 11.6026 18.6057 11.5531 18.6057C11.4777 18.6057 11.3788 18.5283 11.2786 18.5051C10.584 18.2509 9.78658 18.1013 9.0659 18.1013C8.64442 18.1013 8.56896 18.0755 8.07203 18.2032C8.0226 18.2032 7.15233 18.4302 7.15233 18.7824C7.15233 19.0327 7.84831 19.1849 7.99661 19.2094C8.2945 19.2597 8.91631 19.31 8.96574 19.31C13.3926 19.31 20.2559 15.5792 20.2559 11.117C20.2559 10.2862 19.8825 9.10191 19.1345 8.34336C19.0851 8.67233 19.0123 9.02452 18.8861 9.37928C18.8133 9.60633 18.6142 10.0088 18.6142 10.0591C18.6142 10.0591 19.8565 11.4447 19.8565 11.7491C19.8565 11.9258 19.5846 12.705 19.5846 12.7308C19.3362 12.051 18.9863 11.3698 18.2903 10.69C18.1914 10.7906 18.0926 10.9402 17.9924 11.0679C17.8675 11.2447 17.7179 11.4214 17.5696 11.5969C17.2457 11.9761 16.5003 12.6302 16.5003 12.705C16.5003 12.705 17.394 13.6145 17.6945 14.6723C17.7439 14.8246 17.8181 15.1251 17.8181 15.1767C17.8181 15.3277 17.3212 15.6567 17.3212 15.6812C17.2951 14.8246 16.9478 13.9164 16.0268 13.0598C14.9588 13.8661 13.8401 14.5227 12.7708 15.0503C13.4173 15.6063 13.7906 16.4126 13.7906 16.9918C13.7906 17.2692 13.641 17.8755 13.5162 17.9491C13.3666 18.051 13.1948 18.1013 13.0192 18.1529C13.2182 17.8987 13.3925 17.3195 13.3925 17.0692C13.3925 16.6151 13.0946 15.9082 12.5964 15.5289C12.4728 15.4541 12.2986 15.2774 12.2491 15.2774C12.175 15.2774 11.5532 15.5547 11.2058 15.6812C10.8065 15.8334 10.385 15.9585 9.96223 16.0836C8.69389 16.4629 7.49965 16.69 6.28204 16.69C5.80983 16.69 3.74408 16.6396 3.74408 15.5044C3.74408 13.8157 7.57641 13.6635 8.09546 13.6635C9.24021 13.6635 10.3356 13.7912 11.5037 14.3189C11.2787 14.3937 10.8559 14.5704 10.8065 14.5704C10.7323 14.5704 9.43926 14.1937 8.27109 14.1937C7.74814 14.1937 7.10291 14.2453 6.60599 14.3434C6.20662 14.4208 5.80985 14.5227 5.46122 14.6723C5.33634 14.6981 4.41662 15.1019 4.41662 15.4541C4.41662 15.5044 4.56493 15.6063 4.6651 15.6566C5.16333 15.9082 5.6108 15.8837 6.10772 15.8837C10.8064 15.8837 18.0158 12.1258 18.4399 8.21825V7.5887C18.2148 5.04215 14.337 3.40251 12.4468 3.40251C12.3974 3.40251 12.0761 3.42958 11.8745 3.47731C12.0006 3.52891 12.1489 3.52893 12.2751 3.57924C12.374 3.60633 12.4963 3.65666 12.6225 3.70439C12.8215 3.78179 13.1688 3.95852 13.3925 4.15847C13.5656 4.3107 13.6644 4.53774 13.84 4.66287C13.9649 4.79058 14.2134 4.76479 14.4124 4.8422C15.0576 5.04215 15.8551 5.34401 16.5263 5.64717C16.7982 5.79682 17.1456 5.94905 17.4461 6.12578C17.5462 6.20319 17.619 6.35285 17.6945 6.47798C17.8181 6.68052 17.9664 7.00946 18.0158 7.28682C16.7254 6.30122 15.431 5.79682 14.1379 5.36982H14.0651C14.1146 6.05096 13.84 6.73083 13.3665 7.41197C14.7857 7.79124 16.2753 8.34338 17.744 9.37928C17.6685 9.55473 17.5696 9.75599 17.4461 9.93143C16.8242 9.47734 16.1529 9.12514 15.5311 8.82327C15.3815 8.74974 13.2937 7.96668 12.9697 7.96668C12.8943 7.96668 12.3974 8.47107 12.1255 8.69812C11.4543 9.25155 10.783 9.68114 10.1105 10.0836C11.9239 10.3378 13.7412 10.7403 15.5546 11.9491C15.431 12.0742 15.1565 12.3283 15.0836 12.3283C15.0342 12.3283 14.5607 11.9761 14.2875 11.8484C13.0192 11.2176 10.6074 10.6152 9.14133 10.6152C9.01645 10.6152 7.57641 11.2447 7.22517 11.344C6.2066 11.6472 5.08786 12.0239 4.04587 12.0239C3.69464 12.0239 3 12.0007 3 11.4214C3 10.2862 6.95329 10.0088 7.22517 10.0088H8.09546C7.47365 10.2604 6.72956 10.5377 6.13377 10.69C5.56139 10.8422 4.96558 10.9402 4.41662 11.117C4.31646 11.1428 4.21759 11.2176 4.11872 11.2692C4.11872 11.2692 4.0953 11.295 4.16815 11.295C4.21758 11.295 5.03845 11.1673 5.48465 11.0679C7.74814 10.5132 10.1833 9.60631 12.4234 7.51386C12.9698 6.98236 13.3666 6.32833 13.4927 5.7491V5.2447C13.4173 4.68999 12.6224 4.11074 12.1255 3.95852C11.8016 3.8566 11.1798 3.73148 11.1069 3.73148C10.9807 3.73148 10.8064 3.80629 10.6828 4.00883C11.4777 4.18557 12.3974 4.00881 13.0946 5.01762C13.0946 5.01762 13.1194 5.04215 13.0946 5.09246C12.8943 5.01764 10.4578 4.43583 10.0611 4.43583C9.91278 4.43583 8.74458 5.26921 8.4701 5.44466C7.7247 5.89876 6.95331 6.32833 6.20661 6.70502L8.768 6.73081C9.88544 6.80563 11.1564 6.95788 12.2985 7.18493C12.2491 7.20944 11.8016 7.68933 11.7027 7.68933C11.6533 7.68933 10.8559 7.53708 10.4578 7.48677C9.73715 7.38486 8.99174 7.36165 8.24504 7.31004L5.01501 7.38488C4.83939 7.36166 4.49209 7.33714 4.49209 7.03269C4.49209 6.80564 4.76395 6.65601 4.96558 6.57861C5.11388 6.5283 5.28688 6.43025 5.43518 6.37865C7.02743 5.6988 8.66782 4.79058 10.2861 3.75596C10.2367 3.73145 10.1339 3.73148 10.0845 3.73148C10.0117 3.73148 9.81262 3.75597 9.66432 3.80628C9.68774 3.83337 9.71372 3.83336 9.73713 3.83336C9.51469 3.9585 9.14135 4.20879 9.0659 4.20879C8.89289 4.20879 8.64442 3.98172 8.64442 3.83336C8.64442 3.37927 9.66428 3.3522 9.73713 3.3522C10.7557 3.32768 10.8325 3.37928 10.9053 3.37928C10.9548 3.37928 11.3788 3.15224 11.6533 3.10193C12.0501 3.00001 12.2491 3 12.6225 3C13.0452 3 13.5421 3.05033 14.0157 3.15224Z" fill="white"/>
</g>
</svg>
