<svg width="20" height="21" viewBox="0 0 20 21" fill="none" xmlns="http://www.w3.org/2000/svg">
<g id="Media / Icon/20px/Yes/share">
<path id="Icon" d="M14.375 8.26367C15.8247 8.26367 17 7.08842 17 5.63867C17 4.18892 15.8247 3.01367 14.375 3.01367C12.9253 3.01367 11.75 4.18892 11.75 5.63867C11.75 5.74847 11.7567 5.8567 11.7698 5.96295L7.44727 8.12424C6.97515 7.6688 6.33279 7.38867 5.625 7.38867C4.17525 7.38867 3 8.56392 3 10.0137C3 11.4634 4.17525 12.6387 5.625 12.6387C6.33281 12.6387 6.97518 12.3585 7.4473 11.9031L11.7698 14.0643C11.7567 14.1706 11.75 14.2789 11.75 14.3887C11.75 15.8384 12.9253 17.0137 14.375 17.0137C15.8247 17.0137 17 15.8384 17 14.3887C17 12.9389 15.8247 11.7637 14.375 11.7637C13.6672 11.7637 13.0248 12.0438 12.5527 12.4992L8.23017 10.338C8.24326 10.2317 8.25 10.1235 8.25 10.0137C8.25 9.90386 8.24326 9.79562 8.23016 9.68935L12.5527 7.52808C13.0248 7.98353 13.6672 8.26367 14.375 8.26367Z" stroke="white" stroke-linecap="round" stroke-linejoin="round"/>
</g>
</svg>
