<svg width="16" height="16" viewBox="0 0 16 16" fill="none" xmlns="http://www.w3.org/2000/svg">
<g id="Icons / security / shield-ok">
<path id="icon" fill-rule="evenodd" clip-rule="evenodd" d="M8 15.3334C4 13.5514 2 11.7736 2 10V3.33335C2 2.82163 2.1964 2.7027 2.73995 2.37355L2.73995 2.37355C2.90453 2.27389 3.10093 2.15496 3.33333 2.00002C3.4412 1.92811 5.70881 0.666687 8 0.666687C9.99683 0.666687 11.6667 1.33335 12.6667 2.00002C12.8991 2.15496 13.0955 2.27389 13.26 2.37355C13.8036 2.7027 14 2.82163 14 3.33335C14.0131 3.47818 14.0067 6.5581 14.0025 8.52982L14.0025 8.53084C14.0011 9.20275 14 9.74585 14 10C14 11.7778 12 13.5556 8 15.3334ZM12.6667 10C12.6667 9.84648 12.6671 9.58922 12.6679 9.16981L12.6706 7.86764L12.6727 6.73988C12.6751 5.25178 12.6745 3.97457 12.6731 3.57954L12.5815 3.52272L12.5814 3.52268C12.3659 3.38894 12.0849 3.21464 11.9271 3.10942C10.9429 2.4533 9.50679 2.00002 8 2.00002C6.55872 2.00002 4.68576 2.70087 4.07293 3.10942C3.9151 3.21464 3.63413 3.38895 3.41856 3.52269L3.41853 3.5227L3.33333 3.57558V10C3.33333 11.0057 4.81941 12.3792 8.00062 13.868C11.1814 12.3825 12.6667 11.0095 12.6667 10ZM10.1953 5.52862L7.33333 8.39054L5.80474 6.86195L4.86193 7.80476L7.33333 10.2762L11.1381 6.47143L10.1953 5.52862Z" fill="#20AC90"/>
</g>
</svg>
