<svg width="12" height="15" viewBox="0 0 12 15" fill="none" xmlns="http://www.w3.org/2000/svg">
<g id="Group">
<path id="Vector" d="M7.76777 5.95586C8.10372 5.95586 8.43339 5.95586 8.76306 5.95586C9.7144 5.95586 10.6657 5.95586 11.6171 5.95254C11.6516 5.95254 11.6861 5.94921 11.7207 5.95254C11.8745 5.96916 12.0001 6.03899 11.997 6.22188C11.9938 6.40809 11.8871 6.5012 11.705 6.5012C11.2089 6.49787 10.7128 6.5012 10.2011 6.5012C10.2011 9.15804 10.2011 11.7982 10.2011 14.4617C10.559 14.4617 10.9138 14.4617 11.2654 14.4617C11.4538 14.4617 11.6014 14.5316 11.5857 14.761C11.5731 14.9173 11.4726 15.0004 11.3157 14.9971C10.3894 14.9938 9.46636 14.9938 8.54014 14.9938C8.3706 14.9938 8.26385 14.904 8.26699 14.7311C8.26699 14.5615 8.37374 14.4617 8.54014 14.4617C8.90749 14.4584 9.2717 14.4617 9.65474 14.4617C9.65474 11.8082 9.65474 9.16801 9.65474 6.51117C7.85254 6.51117 6.05663 6.51117 4.24187 6.51117C4.24187 6.74726 4.24187 6.99 4.24187 7.30257C4.71911 7.30257 5.20576 7.28927 5.68928 7.3059C6.66887 7.33582 7.4067 7.93104 7.64846 8.86874C7.69556 9.0483 7.72382 9.22786 7.72382 9.41408C7.72382 10.8107 7.72382 12.2072 7.72382 13.6038C7.72382 14.0394 7.54171 14.3753 7.17437 14.5648C6.82586 14.7444 6.47421 14.7145 6.16024 14.4617C5.85882 14.219 5.75521 13.8765 5.75835 13.4841C5.75835 12.3203 5.75835 11.1532 5.75521 9.98934C5.75207 9.49388 5.59509 9.3376 5.11785 9.33427C4.29839 9.33427 3.47578 9.3376 2.65631 9.33427C1.76463 9.33095 1.19006 8.71911 1.18693 7.76477C1.18379 6.78384 1.18379 5.80623 1.18693 4.82529C1.19006 4.0605 1.49148 3.45863 2.13512 3.09951C2.75678 2.75369 3.35961 2.85012 3.93418 3.26577C4.52444 3.69472 5.12099 4.11037 5.71126 4.53933C5.83999 4.63243 5.96871 4.67566 6.1257 4.66901C6.3863 4.65903 6.65003 4.66568 6.91063 4.66568C7.61707 4.67233 7.94988 5.12124 7.77719 5.83948C7.77091 5.87938 7.77405 5.90599 7.76777 5.95586ZM6.27013 11.6519C6.27013 12.2704 6.27013 12.8922 6.27327 13.5107C6.27327 13.8898 6.47735 14.1492 6.75992 14.1425C7.03622 14.1359 7.21204 13.8965 7.21204 13.5174C7.21204 12.1873 7.21518 10.8539 7.21204 9.52381C7.2089 8.51627 6.60294 7.86453 5.64218 7.84125C5.11785 7.82795 4.59352 7.8213 4.06919 7.8213C3.82429 7.8213 3.7144 7.69827 3.71126 7.45221C3.70812 6.73064 3.70812 6.00907 3.7144 5.2875C3.71754 4.96828 3.92162 4.85855 4.16966 5.03811C4.47421 5.25425 4.77248 5.48036 5.07076 5.70315C5.15867 5.76965 5.24344 5.81953 5.35647 5.8162C5.8965 5.80955 6.43967 5.8162 6.9797 5.80955C7.16181 5.80955 7.31251 5.74638 7.31251 5.51361C7.31251 5.28417 7.17123 5.21767 6.98284 5.21767C6.65003 5.21767 6.32036 5.21102 5.98755 5.21767C5.82429 5.22099 5.68928 5.17777 5.55113 5.07801C4.92633 4.62246 4.29211 4.1802 3.6673 3.72465C3.25286 3.42538 2.82272 3.31898 2.36746 3.58167C1.90278 3.84768 1.70184 4.28661 1.70498 4.84192C1.71126 5.78628 1.70498 6.72731 1.70812 7.67167C1.70812 8.45642 2.03779 8.80224 2.77562 8.80224C3.61393 8.80224 4.45223 8.79559 5.29054 8.80556C5.86824 8.81221 6.26699 9.25447 6.27013 9.8663C6.27327 10.4682 6.27013 11.0601 6.27013 11.6519Z" fill="#1E567B"/>
<path id="Vector_2" d="M3.43803 14.4615C3.84619 14.4615 4.23866 14.4649 4.63112 14.4615C4.81323 14.4582 4.98591 14.4981 4.98905 14.7242C4.99533 14.9736 4.81637 15.0002 4.62171 15.0002C3.64525 14.9969 2.66566 14.9969 1.68921 15.0002C1.50397 15.0002 1.34384 14.967 1.33756 14.7375C1.33128 14.4981 1.50397 14.4649 1.68293 14.4649C2.08167 14.4649 2.48356 14.4649 2.89486 14.4649C2.89486 13.0882 2.89486 11.7349 2.89486 10.3416C2.47414 10.3416 2.05656 10.3416 1.64211 10.3416C0.643683 10.3383 0.00318086 9.6433 0.00632058 8.57591C0.0094603 7.15272 0.00632058 5.72954 0.00318086 4.30635C0.00318086 4.20327 -0.00309857 4.09686 0.0471369 4.01041C0.100512 3.9173 0.185284 3.87407 0.292035 3.8907C0.395646 3.90732 0.477278 3.96385 0.496116 4.07691C0.511815 4.17667 0.511815 4.27975 0.511815 4.3795C0.511815 5.77609 0.511815 7.17268 0.511815 8.56594C0.511815 9.35401 0.932537 9.80291 1.67665 9.80624C2.6531 9.80956 3.63269 9.80624 4.60915 9.80956C4.68764 9.80956 4.76613 9.80956 4.84462 9.81289C5.01417 9.81954 5.1115 9.92262 5.10208 10.0955C5.09266 10.2518 4.99219 10.3416 4.83835 10.3416C4.48042 10.3416 4.12249 10.3416 3.76456 10.3416C3.66095 10.3416 3.55734 10.3416 3.43803 10.3416C3.43803 11.7182 3.43803 13.0749 3.43803 14.4615Z" fill="#1E567B"/>
<path id="Vector_3" d="M4.22621 1.33686C4.21993 2.07505 3.64222 2.67692 2.95463 2.66362C2.26389 2.65032 1.70188 2.03515 1.7113 1.30028C1.72072 0.568737 2.29529 -0.00984854 3.00172 0.000127075C3.68932 0.0101027 4.23249 0.605314 4.22621 1.33686ZM3.7113 1.33686C3.71444 0.887957 3.40361 0.545461 2.98288 0.53881C2.55902 0.535485 2.23249 0.868006 2.22621 1.31358C2.22307 1.75584 2.54332 2.10831 2.95777 2.11496C3.37221 2.12161 3.70816 1.77911 3.7113 1.33686Z" fill="#1E567B"/>
</g>
</svg>
