<svg width="16" height="17" viewBox="0 0 16 17" fill="none" xmlns="http://www.w3.org/2000/svg">
<g id="Size=48px, Fill=Yes, Variant=ok right">
<path id="Vector" d="M8.00958 0.385742C12.3823 0.396345 15.9085 3.87913 15.9946 8.21654C16.0846 12.7364 12.4842 16.3651 8.04138 16.3857C3.58092 16.4059 0.0258445 12.8444 0.000141313 8.4498C-0.0258832 3.96588 3.5459 0.390883 8.00958 0.385742Z" fill="#18B187"/>
<path id="Vector_2" d="M6.80242 10.0717C7.23468 9.29658 7.68365 8.55074 8.14803 7.81381C8.77354 6.82105 9.4227 5.84382 10.1217 4.89969C10.2235 4.76248 10.3294 4.62935 10.4728 4.5316C10.7871 4.31702 11.1913 4.34171 11.4398 4.58913C11.6999 4.84801 11.7462 5.28457 11.5272 5.58087C11.2311 5.98103 10.9451 6.3878 10.6704 6.80247C9.72621 8.22694 8.83933 9.6868 7.9468 11.1431C7.8291 11.335 7.71063 11.5265 7.59139 11.7176C7.41226 12.0048 7.17378 12.1017 6.83917 12.0295C6.67547 11.9941 6.53387 11.92 6.41488 11.8049C5.59251 11.012 4.77091 10.2186 3.94931 9.42512C3.75169 9.23421 3.64966 9.00155 3.66894 8.72816C3.70234 8.2552 4.06676 7.99937 4.53936 8.10629C4.72131 8.14752 4.86394 8.24858 4.99629 8.37433C5.57324 8.92391 6.15301 9.47094 6.73201 10.0185C6.75 10.0353 6.77159 10.0483 6.8032 10.0719L6.80242 10.0717Z" fill="#FCFDFD"/>
</g>
</svg>
