<svg width="16" height="17" viewBox="0 0 16 17" fill="none" xmlns="http://www.w3.org/2000/svg">
<g id="Icons / time / stopwatch">
<path id="icon" fill-rule="evenodd" clip-rule="evenodd" d="M7.33333 3.08935V2.38607H6.66667V1.05273H9.33333V2.38607H8.66667V3.08935C9.82367 3.21725 10.8815 3.67413 11.7446 4.36438L12.8609 3.24317L13.8058 4.18391L12.6875 5.30708C13.5089 6.33361 14 7.63582 14 9.05273C14 12.3664 11.3137 15.0527 8 15.0527C4.68629 15.0527 2 12.3664 2 9.05273C2 5.96437 4.33337 3.42098 7.33333 3.08935ZM8 13.7194C10.5773 13.7194 12.6667 11.6301 12.6667 9.05273C12.6667 6.47541 10.5773 4.38607 8 4.38607C5.42267 4.38607 3.33333 6.47541 3.33333 9.05273C3.33333 11.6301 5.42267 13.7194 8 13.7194ZM8.66667 9.7194V5.7194H7.33333V9.7194H8.66667Z" fill="#9096A2"/>
</g>
</svg>
