<svg width="33" height="33" viewBox="0 0 33 33" fill="none" xmlns="http://www.w3.org/2000/svg">
<g id="Media / Icon/32px/Yes/star">
<path id="Icon" d="M15.4805 5.29436C15.8543 4.14407 17.4816 4.14407 17.8554 5.29436L19.7256 11.0502C20.0266 11.9766 20.8899 12.6039 21.8641 12.6039H27.9161C29.1256 12.6039 29.6284 14.1516 28.65 14.8625L23.7538 18.4198C22.9657 18.9924 22.6359 20.0073 22.9369 20.9337L24.8071 26.6895C25.1809 27.8398 23.8643 28.7964 22.8858 28.0854L17.9896 24.5282C17.2015 23.9556 16.1344 23.9556 15.3463 24.5282L10.4501 28.0854C9.47163 28.7964 8.15507 27.8398 8.52882 26.6895L10.399 20.9337C10.7 20.0073 10.3703 18.9924 9.58218 18.4198L4.68598 14.8625C3.70749 14.1516 4.21037 12.6039 5.41985 12.6039H11.4719C12.446 12.6039 13.3093 11.9766 13.6104 11.0502L15.4805 5.29436Z" fill="#20AC90" stroke="#20AC90"/>
</g>
</svg>
