<svg width="17" height="17" viewBox="0 0 17 17" fill="none" xmlns="http://www.w3.org/2000/svg">
<g id="Media / Icon/32px/Yes/star">
<path id="Icon" d="M7.66852 3.30515C7.93024 2.49968 9.06976 2.49968 9.33148 3.30515L10.2666 6.18306C10.3836 6.54328 10.7193 6.78717 11.098 6.78717H14.1241C14.971 6.78717 15.3231 7.87092 14.6379 8.36873L12.1898 10.1474C11.8834 10.37 11.7552 10.7646 11.8722 11.1248L12.8073 14.0027C13.069 14.8082 12.1472 15.478 11.462 14.9802L9.01388 13.2016C8.70746 12.9789 8.29254 12.9789 7.98612 13.2016L5.53802 14.9802C4.85285 15.478 3.93095 14.8082 4.19266 14.0027L5.12775 11.1248C5.2448 10.7646 5.11658 10.37 4.81016 10.1474L2.36206 8.36873C1.67689 7.87092 2.02902 6.78717 2.87594 6.78717H5.90196C6.28071 6.78717 6.61639 6.54328 6.73343 6.18306L7.66852 3.30515Z" fill="#D78F03"/>
</g>
</svg>
