<svg width="21" height="21" viewBox="0 0 21 21" fill="none" xmlns="http://www.w3.org/2000/svg">
<g id="Media / Icon/20px/Yes/star">
<path id="Icon" d="M10.6264 5.13087C10.6453 5.07283 10.6721 5.04631 10.6946 5.03092C10.722 5.01228 10.7617 4.99854 10.8086 4.99854C10.8555 4.99854 10.8952 5.01228 10.9225 5.03092C10.9451 5.04631 10.9719 5.07283 10.9907 5.13087L11.9978 8.23016C12.2242 8.9271 12.8737 9.39897 13.6065 9.39897H16.8653C16.9263 9.39897 16.9598 9.41623 16.9814 9.43294C17.0076 9.45319 17.0329 9.48667 17.0474 9.5313C17.0619 9.57593 17.0611 9.61791 17.0518 9.64968C17.0442 9.6759 17.0272 9.70956 16.9778 9.74543L14.3414 11.6609C13.7486 12.0916 13.5005 12.8551 13.727 13.5521L14.734 16.6514C14.7528 16.7094 14.7468 16.7466 14.7375 16.7723C14.7264 16.8035 14.7024 16.8379 14.6644 16.8655C14.6264 16.8931 14.5863 16.9053 14.5532 16.9063C14.5259 16.9071 14.4886 16.9013 14.4393 16.8655L11.8028 14.95C11.21 14.5193 10.4072 14.5193 9.81434 14.95L7.17793 16.8655L7.61877 17.4722L7.17793 16.8655C7.12856 16.9013 7.09131 16.9071 7.06401 16.9063C7.03093 16.9053 6.99075 16.8931 6.95279 16.8655C6.91482 16.8379 6.89081 16.8035 6.87964 16.7723C6.87042 16.7466 6.86436 16.7094 6.88322 16.6514L7.89024 13.5521C8.11669 12.8551 7.86861 12.0916 7.27576 11.6609L4.63935 9.74543L4.20065 10.3492L4.63934 9.74543C4.58997 9.70956 4.57302 9.6759 4.56536 9.64968C4.55609 9.61791 4.55527 9.57593 4.56977 9.5313C4.58427 9.48667 4.60961 9.45319 4.63578 9.43294C4.65739 9.41623 4.69089 9.39897 4.75192 9.39897H8.0107C8.74351 9.39897 9.39298 8.9271 9.61943 8.23016L8.90614 7.9984L9.61943 8.23016L10.6264 5.13087Z" fill="#FBBC05" stroke="#FBBC05" stroke-width="1.5"/>
</g>
</svg>
