<svg width="17" height="17" viewBox="0 0 17 17" fill="none" xmlns="http://www.w3.org/2000/svg">
<g id="Group">
<path id="Vector" d="M15.913 14.9402C15.7818 14.875 15.6252 14.865 15.5121 14.9516C15.5544 14.6916 15.5957 14.4198 15.5038 14.1706C15.4118 13.9214 15.1414 13.7059 14.8577 13.7509C14.9518 13.736 14.8986 12.3501 14.8893 12.2112C14.853 11.6672 14.7474 11.1182 14.4831 10.6249C13.9978 9.71932 13.0215 9.0337 11.9462 8.81956C11.3835 8.70755 10.8012 8.71743 10.2253 8.72801C10.0799 8.73073 9.92764 8.73488 9.80075 8.79982C9.70597 8.84817 9.63422 8.92613 9.56466 9.00223C9.14999 9.45654 8.73515 9.91086 8.32048 10.3652C7.93384 9.9409 7.54737 9.51648 7.16073 9.09221C7.06987 8.9925 6.9754 8.89008 6.84914 8.83057C6.75279 8.78509 6.64391 8.76763 6.5366 8.75376C5.6955 8.64433 4.81837 8.72114 4.03695 9.02583C3.25554 9.33038 2.57611 9.86952 2.18791 10.5596C1.64743 11.5201 1.70446 12.6582 1.77433 13.7362C1.48937 13.7053 1.22916 13.9234 1.13829 14.172C1.04743 14.4207 1.08456 14.6912 1.12263 14.9509C0.933853 14.8062 0.620849 14.9333 0.516044 15.137C0.411239 15.3407 0.450874 15.579 0.492702 15.8009C0.504608 15.8639 0.518237 15.9305 0.564921 15.9781C0.635575 16.0504 0.755262 16.0554 0.86132 16.0551C2.3795 16.0512 3.89768 16.0474 5.41586 16.0435C5.70161 16.0428 6.05284 16.0796 6.16172 16.3209C6.21388 16.4365 6.20496 16.5914 6.32261 16.6552C6.37462 16.6835 6.43869 16.6842 6.49916 16.6844C7.70199 16.6848 8.90482 16.6854 10.1076 16.6858C10.1894 16.6858 10.2792 16.6834 10.3409 16.6343C10.4186 16.5725 10.4199 16.4651 10.4535 16.3761C10.5634 16.0873 10.9807 16.0384 11.3156 16.0397C12.8146 16.0452 14.3136 16.051 15.8125 16.0565C15.8974 16.0568 15.9914 16.0541 16.0533 16.0009C16.1031 15.958 16.1193 15.8925 16.1331 15.8311C16.1835 15.6047 16.2322 15.361 16.1298 15.1498C16.0872 15.0615 16.0065 14.9868 15.913 14.9402ZM8.80017 10.4275C9.18711 10.0033 9.57469 9.57942 9.9607 9.15443C9.99187 9.1201 10.0235 9.10622 10.0727 9.10665C10.3382 9.10894 10.6039 9.1078 10.8822 9.1078C10.8494 9.24598 10.817 9.37672 10.7874 9.5079C10.7507 9.67068 10.7012 9.83089 10.6757 9.99583C10.6328 10.1044 10.616 10.2184 10.5925 10.331C10.5134 10.6558 10.4341 10.9806 10.3548 11.3054C10.3376 11.3765 10.3199 11.4476 10.3 11.5288C9.74216 11.2234 9.1915 10.922 8.63051 10.6149C8.68925 10.55 8.7444 10.4886 8.80017 10.4275ZM6.09091 9.1078C6.25274 9.10765 6.41441 9.10823 6.57624 9.10708C6.61211 9.1068 6.6389 9.11366 6.66397 9.14113C7.10386 9.62448 7.54486 10.107 7.9857 10.5896C7.99181 10.5962 7.99682 10.6036 8.00622 10.6154C7.4493 10.9202 6.8966 11.2227 6.33639 11.5296C6.26981 11.2526 6.20605 10.9861 6.14151 10.7198C6.11018 10.5898 6.07728 10.46 6.04516 10.3303C6.02464 10.2483 6.02135 10.1623 5.97702 10.0859C5.97623 10.0781 5.97545 10.0701 5.97467 10.0621C5.98391 10.0347 5.96997 10.011 5.96057 9.98653C5.89837 9.72161 5.83602 9.45669 5.77399 9.19176C5.76819 9.16673 5.76365 9.14141 5.75691 9.1078H6.09091ZM2.15767 12.1531C2.19605 11.7115 2.29224 11.2802 2.49214 10.8758C2.98749 9.87424 4.1322 9.16873 5.33487 9.12382C5.55043 10.0124 5.766 10.901 5.98156 11.7898C6.00161 11.8726 6.03185 11.967 6.11707 12.0006C6.20307 12.0345 6.29958 11.9889 6.37963 11.9445C6.92183 11.6446 7.46402 11.3447 8.00622 11.0448C8.11196 10.9863 8.22695 10.9258 8.35009 10.9352C8.44016 10.9421 8.521 10.9858 8.59823 11.0286C9.14905 11.3326 9.69986 11.6367 10.2505 11.9407C10.335 11.9873 10.438 12.0352 10.5273 11.9969C10.6107 11.9611 10.6395 11.868 10.6591 11.7859C10.8574 10.957 11.0556 10.1281 11.2539 9.29919C11.2668 9.24541 11.2827 9.18704 11.3308 9.154C11.3811 9.11938 11.4507 9.12339 11.513 9.13054C12.5324 9.24712 13.5123 9.8143 14.023 10.6348C14.6069 11.5729 14.5242 12.7337 14.4457 13.7698C12.9993 13.7664 11.553 13.7628 10.1065 13.7594C9.76472 13.7585 9.41693 13.7585 9.08967 13.8488C8.76241 13.939 8.45285 14.1349 8.32314 14.4238C8.17604 14.1297 7.85254 13.9346 7.51259 13.8443C7.17264 13.7542 6.81279 13.7548 6.45874 13.7561C5.0355 13.7612 3.61225 13.7664 2.189 13.7715C2.14906 13.2362 2.11114 12.6871 2.15767 12.1531ZM1.52681 14.2745C1.52696 14.1745 1.55626 14.1482 1.66623 14.1477C3.44384 14.1423 5.22145 14.1367 6.99906 14.1319C7.62209 14.1301 8.0905 14.5417 8.11463 15.1094C8.1198 15.233 8.19687 15.3088 8.31781 15.3091C8.44095 15.3095 8.51959 15.231 8.52319 15.1043C8.53839 14.5593 9.01714 14.131 9.61244 14.1319C10.6227 14.1333 11.6329 14.1353 12.6432 14.1381C13.4185 14.1404 14.1936 14.1444 14.9689 14.1477C15.082 14.1482 15.1137 14.1759 15.114 14.2773C15.1146 14.4537 15.1145 14.6301 15.1141 14.8065C15.1138 14.908 15.0825 14.9361 14.9691 14.9361C13.4053 14.9362 11.8417 14.9378 10.2779 14.9349C9.99924 14.9343 9.76644 15.0195 9.58331 15.207C9.4984 15.294 9.43777 15.3988 9.41114 15.5164H7.22856C7.14616 15.2618 6.97509 15.0815 6.70423 14.9845C6.606 14.9494 6.50308 14.9361 6.3978 14.9361C4.82886 14.9363 3.25992 14.9362 1.69099 14.9362C1.54655 14.9362 1.52681 14.9185 1.52665 14.7893C1.52665 14.6176 1.52634 14.4461 1.52681 14.2745ZM15.7417 15.6692C15.7123 15.684 15.6805 15.6767 15.6501 15.6767C14.8229 15.6772 13.9956 15.6769 13.1684 15.6772C13.1451 15.6772 13.1218 15.6799 13.0984 15.6813C13.0663 15.6806 13.0343 15.6798 13.0022 15.679C12.3137 15.6783 11.625 15.6776 10.9364 15.677C10.5267 15.6769 10.1885 15.9002 10.0646 16.2554C10.0506 16.2953 10.0367 16.3123 9.98654 16.3123C8.86737 16.3107 7.74805 16.311 6.62872 16.3109C6.61838 16.3109 6.6082 16.3094 6.59316 16.3083C6.55117 16.1611 6.47504 16.0298 6.35597 15.9215C6.18835 15.7689 5.98657 15.68 5.74908 15.6787C5.07858 15.6753 4.40808 15.677 3.73758 15.677C3.72458 15.677 3.71173 15.6799 3.69888 15.6813C3.66677 15.6806 3.63481 15.6798 3.60269 15.679H0.896255V15.309H6.37759C6.6472 15.309 6.82438 15.4599 6.84287 15.7054C6.8518 15.8241 6.93248 15.891 7.07097 15.8913C7.44428 15.8917 7.8176 15.8912 8.19076 15.891C8.26549 15.8909 8.34006 15.8907 8.41463 15.8906C8.79813 15.8909 9.18179 15.8919 9.56545 15.8915C9.71051 15.8912 9.78242 15.8268 9.79448 15.6918C9.81485 15.464 9.99391 15.3095 10.2427 15.3094C12.0565 15.3088 13.8701 15.309 15.6838 15.309H15.7417V15.6692Z" fill="#2E3138"/>
<path id="Vector_2" d="M12.6884 4.4922C12.6947 4.3666 12.6903 4.23958 12.6921 4.11928C12.6939 3.98524 12.69 3.84449 12.6176 3.7279C12.447 3.45326 12.0195 3.45726 11.6764 3.49717C11.7331 2.88923 11.7894 2.27041 11.6481 1.67391C11.5068 1.07741 11.136 0.495783 10.5383 0.222851C9.86969 -0.0826947 9.07605 0.0479062 8.32832 0.0477631C7.57354 0.0476201 6.7716 -0.0858417 6.09718 0.223853C5.50031 0.497928 5.12997 1.07912 4.98835 1.67534C4.84673 2.27155 4.90172 2.89023 4.95733 3.49803C4.61519 3.45655 4.18579 3.45268 4.02067 3.72948C3.9685 3.81688 3.95471 3.91858 3.945 4.01757C3.9132 4.33842 3.9179 4.67816 4.08803 4.96039C4.25816 5.24262 4.63916 5.44073 4.97096 5.33116C5.21927 6.77034 6.71645 7.94089 8.31203 7.94318C9.9076 7.94547 11.4089 6.77936 11.6622 5.34103C11.6426 5.45218 12.4323 5.13576 12.5048 5.05093C12.6405 4.8923 12.6784 4.69432 12.6884 4.4922ZM4.92882 4.95781C4.74459 4.97212 4.57085 4.96868 4.446 4.8192C4.40558 4.77085 4.37299 4.71635 4.37205 4.65684C4.36845 4.40008 4.37049 4.14317 4.37049 3.88225H4.92882V4.95781ZM5.3424 2.04568C5.3435 1.10845 6.11426 0.397224 7.14022 0.39279C7.92586 0.389357 8.71151 0.390215 9.49715 0.392933C10.395 0.39608 11.1068 0.9418 11.2701 1.74772C11.2887 1.83927 11.295 1.93196 11.2948 2.02509C11.2945 2.2777 11.2948 2.53032 11.2948 2.78294V2.85189C11.1026 2.7941 10.9326 2.71228 10.7615 2.63246C10.7114 2.60714 10.6682 2.56937 10.6085 2.56136C10.5333 2.49127 10.4363 2.44864 10.3508 2.39157C10.0867 2.21534 9.84368 2.01836 9.62686 1.79435C9.50436 1.66761 9.43041 1.66146 9.27751 1.75444C8.83981 2.02079 8.35683 2.1843 7.84252 2.27499C7.56774 2.32348 7.28998 2.34322 7.01019 2.34436C6.65959 2.34565 6.32073 2.40173 5.99896 2.53261C5.93708 2.55335 5.88005 2.58268 5.82397 2.61372C5.64945 2.69754 5.49812 2.80969 5.35603 2.93343C5.32971 2.92012 5.34318 2.89852 5.34318 2.88222C5.34209 2.60342 5.34209 2.32462 5.3424 2.04568ZM11.2973 4.87456C11.2489 5.40583 11.1107 5.9208 10.7708 6.36796C10.2396 7.06688 9.34723 7.54708 8.40884 7.57255C7.1139 7.60773 5.8495 6.77306 5.4801 5.63914C5.30026 5.08712 5.31765 4.49992 5.3366 3.92431C5.34209 3.75909 5.34867 3.58886 5.42386 3.43866C5.50282 3.28074 5.6507 3.15944 5.81065 3.06546C6.87202 2.44149 8.44096 2.87549 9.40253 2.12879C9.83882 2.56594 10.3846 2.9114 10.9859 3.13126C11.0869 3.16816 11.1975 3.20765 11.2514 3.29405C11.2871 3.35126 11.2912 3.41978 11.2942 3.48558C11.3139 3.93847 11.3395 4.41266 11.2973 4.87456ZM12.2686 4.59233C12.2681 4.8079 12.1022 4.95981 11.8661 4.96182C11.8146 4.96225 11.7631 4.96196 11.7051 4.96196V3.88368H12.2598C12.276 3.8977 12.2678 3.91773 12.2678 3.93561C12.2684 4.15461 12.2689 4.37347 12.2686 4.59233Z" fill="#2E3138"/>
<path id="Vector_3" d="M11.2891 13.1684C11.2891 13.0466 11.2891 12.9262 11.2891 12.8027C11.853 12.8027 12.4136 12.8027 12.9793 12.8027C12.9793 12.9232 12.9793 13.0433 12.9793 13.1684C12.4178 13.1684 11.8559 13.1684 11.2891 13.1684Z" fill="#2E3138"/>
</g>
</svg>
