<svg width="16" height="17" viewBox="0 0 16 17" fill="none" xmlns="http://www.w3.org/2000/svg">
<g id="Media / Icon/24px/Yes/users">
<g id="Icon">
<path d="M7.19999 5.52012C7.19999 6.8456 6.12547 7.92012 4.79999 7.92012C3.4745 7.92012 2.39999 6.8456 2.39999 5.52012C2.39999 4.19463 3.4745 3.12012 4.79999 3.12012C6.12547 3.12012 7.19999 4.19463 7.19999 5.52012Z" fill="white"/>
<path d="M13.6 5.52012C13.6 6.8456 12.5255 7.92012 11.2 7.92012C9.8745 7.92012 8.79999 6.8456 8.79999 5.52012C8.79999 4.19463 9.8745 3.12012 11.2 3.12012C12.5255 3.12012 13.6 4.19463 13.6 5.52012Z" fill="white"/>
<path d="M10.3433 14.3201C10.3807 14.0588 10.4 13.7917 10.4 13.5201C10.4 12.212 9.95146 11.0086 9.19979 10.0554C9.78819 9.71495 10.4713 9.52012 11.2 9.52012C13.4091 9.52012 15.2 11.311 15.2 13.5201V14.3201H10.3433Z" fill="white"/>
<path d="M4.79999 9.52012C7.00913 9.52012 8.79999 11.311 8.79999 13.5201V14.3201H0.799988V13.5201C0.799988 11.311 2.59085 9.52012 4.79999 9.52012Z" fill="white"/>
</g>
</g>
</svg>
