<svg width="21" height="21" viewBox="0 0 21 21" fill="none" xmlns="http://www.w3.org/2000/svg">
<g id="Frame" clip-path="url(#clip0_3724_30128)">
<g id="Group">
<path id="Vector" d="M2.76946 6.74043C2.96644 6.89094 3.17655 7.02265 3.34726 7.19198C3.76749 7.61217 4.03013 7.98219 3.74779 8.68461C2.36893 12.0963 3.52455 15.6711 6.76814 17.54C9.84103 19.3086 12.776 19.2647 15.862 16.6871C18.5804 14.4168 19.1122 10.6915 17.3788 7.76269C15.6848 4.89659 12.4346 3.57956 9.41424 4.22553C8.19296 4.48894 7.44444 4.40113 6.94543 3.29107C8.56066 1.79844 13.6624 1.9176 16.4661 4.11891C21.7189 8.23933 20.688 14.2475 17.9369 17.2704C14.7918 20.7323 8.95462 21.8423 4.35186 18.0606C1.11483 15.4014 0.307212 9.54381 2.76946 6.74043Z" fill="#20AC90"/>
<path id="Vector_2" d="M0.202148 2.97106C1.26584 2.97106 2.06689 2.97106 2.94017 2.97106C3.11088 2.11813 3.26847 1.32791 3.45231 0.424805C4.27306 1.29028 5.06098 2.09304 5.82264 2.92088C6.07214 3.19056 6.30852 3.47278 6.57116 3.73619C7.35251 4.53268 8.09447 5.34798 7.83183 6.60229C7.62172 7.63083 8.56065 8.18899 9.1122 8.84124C9.55868 9.37432 10.084 9.93876 11.0886 9.7757C11.9027 9.65027 12.6513 10.7102 12.5265 11.5066C12.3886 12.416 11.581 13.0306 10.6355 12.9366C9.7097 12.8488 9.12533 12.1087 9.15816 11.1743C9.17129 10.8293 9.58495 10.5157 9.22382 10.1394C8.52126 9.40568 7.93032 8.55274 7.11613 7.96949C6.70904 7.67473 5.92112 7.83152 5.30392 7.85033C4.72611 7.86287 4.37155 7.64337 4.00386 7.2169C2.83511 5.8497 1.59414 4.52013 0.202148 2.97106Z" fill="#20AC90"/>
<path id="Vector_3" d="M7.41817 8.80348C6.45297 10.2836 6.26256 11.7198 7.05705 13.2751C7.89749 14.9182 9.97891 15.6708 11.5876 15.3761C13.3867 15.05 14.8312 13.6514 15.0872 11.9518C15.5534 8.87247 12.5462 6.54572 9.55212 7.44255C8.83643 7.65578 8.82986 7.64951 8.36368 7.11016C9.11877 6.33876 10.5567 6.12552 11.627 6.33876C12.6381 6.54572 13.5245 6.82794 14.2993 7.49272C16.4727 9.35538 16.8338 12.1901 15.0938 14.4165C13.4195 16.5614 10.2809 17.0004 7.99598 15.6395C5.84234 14.3601 4.89684 11.4626 5.96709 9.2174C6.28226 8.56516 6.65652 8.42091 7.41817 8.80348Z" fill="#20AC90"/>
</g>
</g>
<defs>
<clipPath id="clip0_3724_30128">
<rect width="20" height="20" fill="white" transform="translate(0.202148 0.424805)"/>
</clipPath>
</defs>
</svg>
