<svg width="24" height="24" viewBox="0 0 24 24" fill="none" xmlns="http://www.w3.org/2000/svg">
<g id="Media / Icon/16px/No/user-group">
<path id="Icon" d="M15.75 18H19.5V16.5C19.5 15.2574 18.4926 14.25 17.25 14.25C16.5333 14.25 15.8949 14.5851 15.4828 15.1072M15.75 18H8.25M15.75 18V16.5C15.75 16.0078 15.6552 15.5378 15.4828 15.1072M8.25 18H4.5V16.5C4.5 15.2574 5.50736 14.25 6.75 14.25C7.46671 14.25 8.10514 14.5851 8.51718 15.1072M8.25 18V16.5C8.25 16.0078 8.34482 15.5378 8.51718 15.1072M8.51718 15.1072C9.07013 13.7258 10.4211 12.75 12 12.75C13.5789 12.75 14.9299 13.7258 15.4828 15.1072M14.25 8.25C14.25 9.49264 13.2426 10.5 12 10.5C10.7574 10.5 9.75 9.49264 9.75 8.25C9.75 7.00736 10.7574 6 12 6C13.2426 6 14.25 7.00736 14.25 8.25ZM18.75 10.5C18.75 11.3284 18.0784 12 17.25 12C16.4216 12 15.75 11.3284 15.75 10.5C15.75 9.67157 16.4216 9 17.25 9C18.0784 9 18.75 9.67157 18.75 10.5ZM8.25 10.5C8.25 11.3284 7.57843 12 6.75 12C5.92157 12 5.25 11.3284 5.25 10.5C5.25 9.67157 5.92157 9 6.75 9C7.57843 9 8.25 9.67157 8.25 10.5Z" stroke="#111827" stroke-width="1.13" stroke-linecap="round" stroke-linejoin="round"/>
</g>
</svg>
