<svg width="16" height="15" viewBox="0 0 16 15" fill="none" xmlns="http://www.w3.org/2000/svg">
<g id="Frame" clip-path="url(#clip0_1509_867)">
<g id="Group">
<path id="Vector" d="M11.067 2.09709C10.7872 2.3855 10.5121 2.67024 10.231 2.9611C10.035 2.83034 9.82723 2.70568 9.61116 2.60059C8.70908 2.15819 7.76095 1.99077 6.76795 2.09709C4.60012 2.32562 2.7688 3.94854 2.19968 6.13973C1.61286 8.40547 2.50077 10.8362 4.39231 12.1292C5.37704 12.8025 6.46214 13.1252 7.63697 13.0359C9.56747 12.8893 11.0198 11.9226 11.9809 10.1873C12.4886 9.27071 12.6823 8.2686 12.6244 7.21394C12.6008 6.77766 12.524 6.34871 12.3953 5.93198C12.3788 5.87821 12.3871 5.84766 12.4248 5.80855C12.6917 5.53603 12.9562 5.25984 13.2218 4.98487C13.2396 4.96654 13.2537 4.94332 13.2797 4.93598C14.4026 7.59523 13.7473 11.1564 10.9076 13.1313C8.15767 15.045 4.43481 14.4633 2.3272 11.8053C0.213686 9.13995 0.3967 5.25128 2.75109 2.82423C5.13263 0.369064 8.70199 0.316515 11.067 2.09709Z" fill="#1E567B"/>
<path id="Vector_2" d="M7.32876 10.2435C7.06782 9.97097 6.81632 9.70822 6.56365 9.44669C5.73477 8.58879 4.90471 7.73211 4.07584 6.87421C3.75232 6.53936 3.63188 6.13607 3.7535 5.67657C3.87275 5.2244 4.16557 4.93355 4.60599 4.82478C5.02161 4.72335 5.39236 4.83334 5.69699 5.14497C6.22359 5.6839 6.74548 6.22773 7.26855 6.77034C7.28626 6.78867 7.29924 6.81311 7.32168 6.8461C7.48344 6.67623 7.62985 6.51859 7.77862 6.36338C8.51894 5.59714 9.25926 4.83089 9.99959 4.06465C11.0398 2.98799 12.0836 1.91623 13.1167 0.833462C13.5583 0.371515 14.1947 0.338519 14.6387 0.657482C15.2409 1.08888 15.3164 1.96755 14.7934 2.50894C13.4709 3.88011 12.1473 5.24884 10.8226 6.6188C9.67961 7.80177 8.53665 8.98475 7.3937 10.1677C7.37363 10.1897 7.35592 10.2117 7.32876 10.2435Z" fill="#1E567B"/>
</g>
</g>
<defs>
<clipPath id="clip0_1509_867">
<rect width="14.2857" height="13.8095" fill="white" transform="translate(0.857117 0.447285)"/>
</clipPath>
</defs>
</svg>
