<svg width="42" height="42" viewBox="0 0 42 42" fill="none" xmlns="http://www.w3.org/2000/svg">
<g id="Size=48px, Fill=Yes, Variant=ok right">
<path id="Vector" d="M21.0301 0C32.5113 0.0278317 41.7696 9.17013 41.9957 20.5558C42.2319 32.4206 32.7787 41.9458 21.1136 41.9998C9.40211 42.0529 0.0678577 32.704 0.000371034 21.1681C-0.0679593 9.39785 9.31016 0.0134942 21.0301 0Z" fill="#ACB0B9"/>
<path id="Vector_2" d="M17.8604 25.4256C18.9953 23.3909 20.1741 21.4331 21.3934 19.4987C23.0358 16.8927 24.7402 14.3275 26.5755 11.8491C26.8428 11.4889 27.1208 11.1395 27.4973 10.8829C28.3225 10.3196 29.3839 10.3844 30.0364 11.0339C30.7192 11.7135 30.8407 12.8594 30.2658 13.6372C29.4885 14.6876 28.7375 15.7554 28.0162 16.8439C25.5371 20.5832 23.2085 24.4153 20.8651 28.2381C20.556 28.7419 20.245 29.2444 19.9319 29.7462C19.4616 30.4999 18.8354 30.7545 17.9568 30.5647C17.527 30.4719 17.1552 30.2774 16.8428 29.9754C14.6836 27.8939 12.5264 25.8112 10.3692 23.7284C9.85029 23.2272 9.58241 22.6165 9.63302 21.8988C9.72074 20.6573 10.6775 19.9858 11.9184 20.2664C12.3962 20.3747 12.7706 20.64 13.1181 20.97C14.633 22.4127 16.1552 23.8487 17.6755 25.286C17.7227 25.3301 17.7794 25.3641 17.8624 25.4263L17.8604 25.4256Z" fill="#FCFDFD"/>
</g>
</svg>
