<svg width="16" height="16" viewBox="0 0 16 16" fill="none" xmlns="http://www.w3.org/2000/svg">
<g id="Icons / time / timer">
<path id="icon" fill-rule="evenodd" clip-rule="evenodd" d="M8.66675 4.6665V2.03646C11.6667 2.36809 14.0001 4.91147 14.0001 7.99984C14.0001 11.3135 11.3138 13.9998 8.00008 13.9998C4.68637 13.9998 2.00008 11.3135 2.00008 7.99984C2.00008 6.38235 2.64219 4.86828 3.76541 3.74924L2.82436 2.80468C1.45251 4.17142 0.666748 6.02422 0.666748 7.99984C0.666748 12.0499 3.94999 15.3332 8.00008 15.3332C12.0502 15.3332 15.3334 12.0499 15.3334 7.99984C15.3334 3.94975 12.0502 0.666504 8.00008 0.666504H7.33341V4.6665H8.66675ZM8.00008 6.6665C7.88064 6.6665 7.76487 6.68221 7.65472 6.71167L5.13815 4.1951L4.19534 5.13791L6.71191 7.65448C6.68245 7.76463 6.66675 7.8804 6.66675 7.99984C6.66675 8.73622 7.2637 9.33317 8.00008 9.33317C8.73646 9.33317 9.33341 8.73622 9.33341 7.99984C9.33341 7.26346 8.73646 6.6665 8.00008 6.6665Z" fill="#20AC90"/>
</g>
</svg>
