<svg width="20" height="20" viewBox="0 0 20 20" fill="none" xmlns="http://www.w3.org/2000/svg">
<g id="Icons / time / timer">
<path id="icon" fill-rule="evenodd" clip-rule="evenodd" d="M10.8333 5.83301V2.54545C14.5832 2.95999 17.4999 6.13921 17.4999 9.99967C17.4999 14.1418 14.1421 17.4997 9.99992 17.4997C5.85778 17.4997 2.49992 14.1418 2.49992 9.99967C2.49992 7.97782 3.30255 6.08523 4.70658 4.68643L3.53027 3.50572C1.81545 5.21416 0.833252 7.53015 0.833252 9.99967C0.833252 15.0623 4.93731 19.1663 9.99992 19.1663C15.0625 19.1663 19.1666 15.0623 19.1666 9.99967C19.1666 4.93706 15.0625 0.833008 9.99992 0.833008H9.16658V5.83301H10.8333ZM9.99992 8.33301C9.85062 8.33301 9.7059 8.35264 9.56822 8.38946L6.42251 5.24375L5.244 6.42226L8.3897 9.56797C8.35288 9.70566 8.33325 9.85038 8.33325 9.99967C8.33325 10.9201 9.07944 11.6663 9.99992 11.6663C10.9204 11.6663 11.6666 10.9201 11.6666 9.99967C11.6666 9.0792 10.9204 8.33301 9.99992 8.33301Z" fill="white"/>
</g>
</svg>
