<svg xmlns="http://www.w3.org/2000/svg" width="20" height="20" viewBox="0 0 20 20" fill="none">
  <path fill-rule="evenodd" clip-rule="evenodd" d="M3.99407 1.07742L5.17259 2.25593L2.25592 5.1726L1.07741 3.99409L3.99407 1.07742ZM16.0059 1.07742L14.8274 2.25593L17.7441 5.1726L18.9226 3.99409L16.0059 1.07742ZM10 18.3333C5.39762 18.3333 1.66666 14.6024 1.66666 10C1.66666 5.39764 5.39762 1.66668 10 1.66668C14.6024 1.66668 18.3333 5.39764 18.3333 10C18.3333 14.6024 14.6024 18.3333 10 18.3333ZM10 16.6667C13.6819 16.6667 16.6667 13.6819 16.6667 10C16.6667 6.31811 13.6819 3.33335 10 3.33335C6.3181 3.33335 3.33333 6.31811 3.33333 10C3.33333 13.6819 6.3181 16.6667 10 16.6667ZM6.66666 9.16668V10.8333H13.3333V9.16668H6.66666Z" fill="white"/>
</svg>