<svg width="16" height="17" viewBox="0 0 16 17" fill="none" xmlns="http://www.w3.org/2000/svg">
<g id="timer-outline" clip-path="url(#clip0_2789_25661)">
<path id="Vector" d="M8 13.4159C6.76232 13.4159 5.57534 12.9243 4.70017 12.0491C3.825 11.1739 3.33333 9.98695 3.33333 8.74927C3.33333 7.51159 3.825 6.32461 4.70017 5.44944C5.57534 4.57427 6.76232 4.0826 8 4.0826C9.23768 4.0826 10.4247 4.57427 11.2998 5.44944C12.175 6.32461 12.6667 7.51159 12.6667 8.74927C12.6667 9.98695 12.175 11.1739 11.2998 12.0491C10.4247 12.9243 9.23768 13.4159 8 13.4159ZM12.6867 5.00927L13.6333 4.0626C13.3333 3.7226 13.0333 3.41593 12.6933 3.1226L11.7467 4.0826C10.7133 3.2426 9.41333 2.74927 8 2.74927C6.4087 2.74927 4.88258 3.38141 3.75736 4.50663C2.63214 5.63184 2 7.15797 2 8.74927C2 10.3406 2.63214 11.8667 3.75736 12.9919C4.88258 14.1171 6.4087 14.7493 8 14.7493C11.3333 14.7493 14 12.0626 14 8.74927C14 7.33593 13.5067 6.03593 12.6867 5.00927ZM7.33333 9.41593H8.66667V5.41593H7.33333V9.41593ZM10 0.749268H6V2.0826H10V0.749268Z" fill="white"/>
</g>
<defs>
<clipPath id="clip0_2789_25661">
<rect width="16" height="16" fill="white" transform="translate(0 0.0825195)"/>
</clipPath>
</defs>
</svg>
