<svg xmlns="http://www.w3.org/2000/svg" width="20" height="24" viewBox="0 0 20 24" fill="none">
  <path d="M7.01734 21.7576C7.24247 21.7576 7.40121 21.7576 7.55995 21.7576C10.5992 21.7576 13.6413 21.7576 16.6805 21.7576C17.8783 21.7576 18.5335 21.07 18.5335 19.8105C18.5363 16.4821 18.5392 13.1537 18.5421 9.82533C18.5421 9.67321 18.5421 9.51805 18.5421 9.38114C18.3632 9.22598 18.1784 9.28987 18.011 9.28683C16.7209 9.25032 15.425 9.36897 14.1377 9.22294C12.7004 9.05865 11.592 7.7565 11.5776 6.22922C11.5632 4.89666 11.5747 3.56713 11.5747 2.23457C11.5747 2.20414 11.5632 2.17372 11.5545 2.14025C11.4362 2.00943 11.2803 2.06115 11.1418 2.06115C9.17336 2.05811 7.20495 2.05506 5.23653 2.06115C4.13398 2.06419 3.47303 2.76698 3.47015 3.94439C3.46726 5.30738 3.47592 6.67037 3.47303 8.03032C3.47303 8.19765 3.51055 8.36802 3.42974 8.5384C3.00258 8.6175 2.57252 8.6966 2.14825 8.7757C2.053 8.64488 2.09341 8.49885 2.09629 8.36802C2.13093 6.66429 2.00105 4.96055 2.16845 3.26289C2.31276 1.81167 3.56539 0.679904 4.95368 0.676861C7.42141 0.667734 9.88915 0.676861 12.3569 0.670776C12.6224 0.670776 12.8273 0.746836 13.0207 0.950676C15.197 3.23247 17.379 5.50818 19.5638 7.77476C19.8121 8.03336 19.9246 8.30413 19.9246 8.67531C19.9188 12.4692 19.9275 16.26 19.9304 20.0538C19.9304 21.8093 18.6172 23.224 16.9576 23.2301C13.7856 23.2423 10.6136 23.2271 7.44162 23.2392C7.11547 23.2392 6.98848 23.1449 7.01445 22.792C7.03754 22.4725 7.01734 22.1501 7.01734 21.7576Z" fill="#1D5276"/>
  <path d="M3.51923 9.59412C5.40106 9.59412 6.95674 11.2127 6.9654 13.1781C6.97406 15.1739 5.42992 16.8198 3.53655 16.835C1.66049 16.8533 0.0845984 15.2073 0.0701672 13.2206C0.055736 11.24 1.62297 9.59412 3.51923 9.59412Z" fill="#20AC90"/>
  <path d="M6.09377 16.9597C6.09377 18.919 6.09377 20.781 6.09377 22.7342C5.21346 21.8032 4.38511 20.927 3.4846 19.9747C2.60719 20.8966 1.78461 21.7576 0.973572 22.6094C0.973572 20.784 0.973572 18.916 0.973572 16.9841C2.688 18.0732 4.36491 18.0763 6.09377 16.9597Z" fill="#1D5276"/>
  <path d="M12.5503 12.1863C13.6961 12.1863 14.842 12.1863 15.9849 12.1863C16.49 12.1863 16.7094 12.3688 16.7094 12.7765C16.7094 13.1781 16.4785 13.3941 15.9936 13.3941C13.6875 13.4002 11.3842 13.4002 9.07813 13.3941C8.48934 13.3911 8.17474 12.9317 8.42296 12.4692C8.55861 12.2137 8.77797 12.1832 9.02618 12.1832C10.2038 12.1893 11.3756 12.1863 12.5503 12.1863Z" fill="#1D5276"/>
  <path d="M12.5358 15.8401C11.3929 15.8401 10.2471 15.8432 9.1041 15.8401C8.60189 15.8401 8.31904 15.612 8.33347 15.2317C8.34502 14.8514 8.63653 14.6262 9.12142 14.6262C11.4102 14.6262 13.6961 14.6232 15.9849 14.6262C16.5073 14.6262 16.7613 14.8696 16.7065 15.3138C16.6574 15.7154 16.4063 15.8432 16.0542 15.8432C14.8824 15.8371 13.7105 15.8401 12.5358 15.8401Z" fill="#1D5276"/>
  <path d="M12.5532 17.1025C13.699 17.1025 14.842 17.1025 15.9878 17.1025C16.4871 17.1025 16.7122 17.2881 16.7209 17.6867C16.7296 18.1035 16.4813 18.3195 15.9762 18.3195C13.6875 18.3225 11.3987 18.3225 9.10699 18.3195C8.50665 18.3195 8.18339 17.8936 8.40563 17.425C8.5384 17.1482 8.76353 17.0964 9.03195 17.0995C10.2038 17.1056 11.3785 17.1025 12.5532 17.1025Z" fill="#1D5276"/>
  <path d="M7.64367 6.38451C8.14299 6.38451 8.64231 6.37538 9.14163 6.38755C9.58611 6.39668 9.82278 6.61878 9.8199 6.99603C9.8199 7.37633 9.589 7.60147 9.13874 7.60451C8.11124 7.61364 7.08374 7.61364 6.05623 7.60451C5.63484 7.60147 5.36065 7.34286 5.36642 6.99299C5.37508 6.62486 5.62907 6.3906 6.05912 6.38451C6.5873 6.37843 7.11549 6.38451 7.64367 6.38451Z" fill="#1D5276"/>
  <path d="M7.61477 3.9412C8.12852 3.9412 8.63938 3.93511 9.15314 3.94424C9.58896 3.95032 9.8314 4.17546 9.8112 4.56184C9.791 4.99691 9.51392 5.13077 9.15025 5.13077C8.1112 5.13381 7.06927 5.13686 6.03022 5.12773C5.61171 5.12469 5.39813 4.91172 5.39813 4.53446C5.39813 4.15416 5.61171 3.94728 6.03022 3.94424C6.56129 3.93511 7.08947 3.9412 7.61477 3.9412Z" fill="#1D5276"/>
</svg>