<svg width="10" height="11" viewBox="0 0 10 11" fill="none" xmlns="http://www.w3.org/2000/svg">
<g id="Frame" clip-path="url(#clip0_2424_15514)">
<g id="Group">
<path id="Vector" d="M7.86449 6.79021C8.32027 7.09093 8.74145 7.40662 9.09043 7.79579C9.6861 8.46255 9.98694 9.22592 10.0005 10.0805C10.0035 10.2369 9.9012 10.3104 9.73573 10.3199C9.69662 10.3227 9.65902 10.3199 9.61991 10.3199C6.5438 10.3199 3.46768 10.3199 0.391572 10.3199C0.0501156 10.3199 -0.0175739 10.2587 0.00348505 9.94983C0.0606451 9.11298 0.378034 8.37682 0.97671 7.72503C1.31516 7.35628 1.71829 7.07188 2.13947 6.78477C1.92286 6.35478 1.81456 5.90846 1.83261 5.43493C1.84765 5.03351 1.95445 4.65659 2.14398 4.29736C2.18158 4.22524 2.18459 4.16264 2.17406 4.08236C2.11991 3.71224 2.15 3.3394 2.15451 2.96928C2.15752 2.81416 2.10036 2.75021 1.94392 2.70122C1.47761 2.55698 1.01883 2.39233 0.554026 2.24265C0.424664 2.20047 0.310344 2.15013 0.304327 2.01269C0.298311 1.86165 0.427673 1.8113 0.558539 1.76776C1.73032 1.37587 2.9021 0.98398 4.07388 0.593451C4.30252 0.51725 4.53267 0.443771 4.7583 0.363487C4.92978 0.302255 5.09073 0.31178 5.26221 0.370291C5.8308 0.564875 6.40391 0.751295 6.974 0.941797C7.56666 1.13774 8.16534 1.32416 8.75047 1.53916C9.02424 1.63985 9.32809 1.67387 9.57328 1.8426C9.74777 1.96371 9.73874 2.12427 9.53567 2.20864C9.39729 2.26579 9.24987 2.30661 9.0814 2.36376C9.0814 2.45493 9.0814 2.56379 9.0814 2.67265C9.0814 3.2183 9.0814 3.76531 9.0814 4.31096C9.0814 4.49602 8.99115 4.60488 8.84374 4.60896C8.67677 4.61305 8.58952 4.51507 8.58952 4.31368C8.58802 3.72721 8.58952 3.14074 8.58952 2.53113C8.35637 2.60869 8.14277 2.68489 7.92617 2.75021C7.83591 2.77742 7.85547 2.83593 7.85397 2.89036C7.85246 3.22102 7.87954 3.5544 7.84344 3.88233C7.81636 4.12318 7.87653 4.32865 7.96829 4.54637C8.27665 5.2798 8.23904 5.94112 7.86449 6.79021ZM7.37713 2.96656C7.30944 2.94207 7.25379 2.97745 7.19362 2.9965C6.57087 3.20469 5.94512 3.41152 5.32388 3.62243C5.13886 3.68503 4.95385 3.7068 4.76883 3.64557C4.295 3.48908 3.8287 3.31491 3.35036 3.16931C3.11269 3.09719 2.88706 2.98017 2.62984 2.96248C2.58922 2.97745 2.57418 3.0033 2.57418 3.04276C2.57569 3.3258 2.57569 3.60883 2.57418 3.89186C2.57418 3.93132 2.58622 3.9599 2.63134 3.96942C2.71107 4.16945 2.83592 4.32185 3.05252 4.43615C3.15631 4.49194 3.26913 4.50283 3.3669 4.55453C3.62713 4.69469 3.93399 4.75456 4.21227 4.77225C4.68459 4.80355 5.16143 4.88247 5.64277 4.7845C5.93309 4.72599 6.22942 4.69333 6.5092 4.59944C6.87472 4.47697 7.22069 4.33001 7.37262 3.96806C7.38916 3.95853 7.41925 3.95037 7.41925 3.94085C7.42075 3.62516 7.42075 3.30947 7.41774 2.99378C7.41624 2.98697 7.39067 2.97745 7.37713 2.96656ZM7.67948 5.26756C7.6163 5.05392 7.59975 4.82668 7.46889 4.62665C6.7228 5.1274 5.87442 5.26483 4.98995 5.25803C4.10697 5.25123 3.24807 5.14237 2.52003 4.60352C2.41774 4.81715 2.37563 5.04304 2.32298 5.2662C2.22821 5.44989 2.23574 5.63495 2.31847 5.82001C2.32749 5.84723 2.33953 5.87308 2.34404 5.90166C2.48092 6.61604 2.866 7.18755 3.54289 7.58624C3.89338 7.79307 4.28598 7.90329 4.69362 7.96724C4.89669 8.04889 5.10126 8.04344 5.30583 7.9686C5.42316 7.98085 5.52545 7.92778 5.63375 7.90329C6.25499 7.75905 6.7604 7.45561 7.1515 6.9916C7.44482 6.64325 7.59374 6.2432 7.68098 5.82001C7.76973 5.63631 7.77123 5.45125 7.67948 5.26756ZM0.492354 9.86954C0.516421 9.96071 0.597649 9.93622 0.663834 9.93622C3.54289 9.93758 6.42196 9.93758 9.30102 9.93622C9.35968 9.93622 9.43339 9.96479 9.46949 9.88995C9.50709 9.85866 9.50409 9.81783 9.49807 9.77701C9.34163 8.67618 8.70986 7.85022 7.71107 7.23381C7.61028 7.17258 7.56215 7.21476 7.5095 7.27599C7.2959 7.52637 7.04921 7.7468 6.76341 7.92642C5.57659 8.66938 3.81215 8.56052 2.80433 7.58896C2.66444 7.45425 2.51101 7.32906 2.39067 7.18346C1.32117 7.76449 0.593136 8.77143 0.492354 9.86954ZM8.71889 2.01269C8.67978 1.99092 8.66022 1.97595 8.63766 1.96915C7.46738 1.57862 6.2956 1.18945 5.12683 0.796199C5.03056 0.763542 4.95535 0.781231 4.86961 0.809807C4.22731 1.02344 3.58351 1.23571 2.94121 1.44935C2.39518 1.63033 1.84915 1.81266 1.26251 2.00725C1.52876 2.09706 1.75589 2.17326 1.98303 2.2481C2.92466 2.56243 3.8678 2.87539 4.80794 3.1938C4.94332 3.24007 5.05914 3.24279 5.19452 3.19653C5.73303 3.01011 6.27454 2.83321 6.81456 2.65223C7.44332 2.43996 8.07208 2.22905 8.71889 2.01269Z" fill="#20AC90"/>
<path id="Vector_2" d="M0.492188 9.86963C0.586953 9.87371 0.683222 9.88324 0.777988 9.88324C3.59838 9.8846 6.41728 9.88324 9.23767 9.8846C9.31439 9.8846 9.3911 9.88732 9.46782 9.89004C9.43172 9.96488 9.35801 9.93631 9.29935 9.93631C6.42029 9.93767 3.54122 9.93767 0.662163 9.93631C0.597482 9.93631 0.516255 9.9608 0.492188 9.86963Z" fill="#20AC90"/>
<path id="Vector_3" d="M2.62987 2.96387C2.62987 3.29997 2.63138 3.63607 2.63138 3.97217C2.58625 3.96128 2.57422 3.93407 2.57422 3.89461C2.57572 3.61157 2.57572 3.32854 2.57422 3.04551C2.57422 3.00469 2.58926 2.97747 2.62987 2.96387Z" fill="#20AC90"/>
<path id="Vector_4" d="M7.37305 3.97077C7.37455 3.63603 7.37606 3.30129 7.37756 2.96655C7.3911 2.97744 7.41817 2.98696 7.41817 2.99785C7.42118 3.31354 7.42118 3.62923 7.41968 3.94492C7.41968 3.95444 7.38959 3.96261 7.37305 3.97077Z" fill="#20AC90"/>
<path id="Vector_5" d="M2.32217 5.26611C2.29961 5.45117 2.30863 5.63487 2.31766 5.81993C2.23643 5.63487 2.22741 5.45117 2.32217 5.26611Z" fill="#20AC90"/>
<path id="Vector_6" d="M7.68119 5.81993C7.68119 5.63487 7.67969 5.45117 7.67969 5.26611C7.77144 5.45117 7.76994 5.63623 7.68119 5.81993Z" fill="#20AC90"/>
<path id="Vector_7" d="M4.69531 7.96729C4.89989 7.96729 5.10295 7.96865 5.30753 7.96865C5.10295 8.04485 4.89838 8.05029 4.69531 7.96729Z" fill="#20AC90"/>
</g>
</g>
<defs>
<clipPath id="clip0_2424_15514">
<rect width="10" height="10" fill="white" transform="translate(0 0.321289)"/>
</clipPath>
</defs>
</svg>
