<svg width="20" height="21" viewBox="0 0 20 21" fill="none" xmlns="http://www.w3.org/2000/svg">
<g id="Media / Icon/20px/No/users">
<path id="Icon" d="M10 4.06692C10.5701 3.42104 11.4041 3.01367 12.3333 3.01367C14.0516 3.01367 15.4444 4.40656 15.4444 6.12478C15.4444 7.843 14.0516 9.23589 12.3333 9.23589C11.4041 9.23589 10.5701 8.82853 10 8.18265M12.3333 17.0137H3V16.2359C3 13.6586 5.08934 11.5692 7.66667 11.5692C10.244 11.5692 12.3333 13.6586 12.3333 16.2359V17.0137ZM12.3333 17.0137H17V16.2359C17 13.6586 14.9107 11.5692 12.3333 11.5692C11.4833 11.5692 10.6864 11.7965 10 12.1935M10.7778 6.12478C10.7778 7.843 9.38489 9.23589 7.66667 9.23589C5.94845 9.23589 4.55556 7.843 4.55556 6.12478C4.55556 4.40656 5.94845 3.01367 7.66667 3.01367C9.38489 3.01367 10.7778 4.40656 10.7778 6.12478Z" stroke="#2E3138" stroke-width="1.5" stroke-linecap="round" stroke-linejoin="round"/>
</g>
</svg>
