<svg width="16" height="16" viewBox="0 0 16 16" fill="none" xmlns="http://www.w3.org/2000/svg">
<g id="Media / Icon/24px/Yes/users">
<g id="Icon">
<path d="M7.20005 4.7999C7.20005 6.12539 6.12553 7.1999 4.80005 7.1999C3.47457 7.1999 2.40005 6.12539 2.40005 4.7999C2.40005 3.47442 3.47457 2.3999 4.80005 2.3999C6.12553 2.3999 7.20005 3.47442 7.20005 4.7999Z" fill="#5D636F"/>
<path d="M13.6 4.7999C13.6 6.12539 12.5255 7.1999 11.2 7.1999C9.87457 7.1999 8.80005 6.12539 8.80005 4.7999C8.80005 3.47442 9.87457 2.3999 11.2 2.3999C12.5255 2.3999 13.6 3.47442 13.6 4.7999Z" fill="#5D636F"/>
<path d="M10.3434 13.5999C10.3807 13.3386 10.4001 13.0715 10.4001 12.7999C10.4001 11.4918 9.95153 10.2884 9.19985 9.33516C9.78825 8.99474 10.4714 8.7999 11.2001 8.7999C13.4092 8.7999 15.2001 10.5908 15.2001 12.7999V13.5999H10.3434Z" fill="#5D636F"/>
<path d="M4.80005 8.7999C7.00919 8.7999 8.80005 10.5908 8.80005 12.7999V13.5999H0.800049V12.7999C0.800049 10.5908 2.59091 8.7999 4.80005 8.7999Z" fill="#5D636F"/>
</g>
</g>
</svg>
