<svg width="16" height="17" viewBox="0 0 16 17" fill="none" xmlns="http://www.w3.org/2000/svg">
<g id="Frame 238053">
<g clip-path="url(#clip0_2424_15498)">
<rect y="0.986084" width="16" height="16" rx="8" fill="#D4F7F0"/>
<g id="Group">
<path id="Vector" d="M2.62441 12.4004C2.63425 12.3315 2.65251 12.2711 2.675 12.1952C2.91668 11.4136 3.67125 10.8162 4.50028 10.8232C5.35743 10.8302 6.16539 11.4979 6.3326 12.3385C6.69513 12.212 7.00707 11.9731 7.35133 11.803C7.69559 11.6329 8.11433 11.5359 8.45859 11.706C8.99676 10.8597 9.53493 10.0135 10.0717 9.16729C10.1588 9.03094 10.2572 8.88474 10.4117 8.83414C10.6071 8.77088 10.8417 8.91848 10.8684 9.12231C10.8895 9.28537 10.7982 9.43859 10.7096 9.57635C10.1757 10.4127 9.64172 11.2505 9.10777 12.0869C9.07685 12.1361 9.04454 12.1867 9.0361 12.2444C9.02486 12.3175 9.05297 12.3891 9.07264 12.4594C9.16397 12.7799 9.08528 13.144 8.8717 13.3998C8.69887 13.6065 8.45578 13.7358 8.21831 13.8609C7.65063 14.1589 7.08154 14.4583 6.51386 14.7563C6.46047 14.7845 6.40426 14.8154 6.37756 14.8688C6.35508 14.9138 6.35649 14.9658 6.3593 15.015C6.36492 15.1289 6.37054 15.2427 6.37616 15.3552C6.38459 15.514 6.39161 15.6771 6.33541 15.8261C6.28061 15.9751 6.14571 16.1058 5.98693 16.1044C5.75789 16.103 5.61457 15.8444 5.60192 15.6166C5.58927 15.3889 5.65391 15.157 5.60754 14.9321C5.26187 14.866 4.96398 14.6425 4.73916 14.3712C4.51574 14.0999 4.35696 13.7822 4.19958 13.4673C4.14197 13.352 4.08436 13.2269 4.11106 13.1018C4.16445 12.8474 4.53963 12.7954 4.749 12.95C4.95836 13.1046 5.04689 13.3689 5.14806 13.6079C5.24923 13.8469 5.39958 14.1013 5.6511 14.1674C5.87733 14.2264 6.11058 14.1139 6.31714 14.0057C6.88904 13.7049 7.46093 13.4041 8.03283 13.1018C8.1354 13.047 8.2436 12.9894 8.30683 12.891C8.42767 12.6998 8.28857 12.4046 8.06515 12.3765C7.92885 12.3596 7.79817 12.4257 7.67733 12.4904C7.22487 12.7307 6.77381 12.9711 6.32136 13.2115C6.1696 13.2916 5.98974 13.3745 5.83237 13.3043C5.71012 13.2494 5.64267 13.1145 5.62019 12.9824C5.59771 12.8502 5.60895 12.7153 5.59771 12.5817C5.55555 12.1108 5.17757 11.6891 4.71387 11.5949C4.25017 11.5007 3.73869 11.7411 3.51528 12.1586C3.33963 12.4861 3.33963 12.8755 3.34385 13.2466C3.35228 14.0001 3.3593 14.7521 3.36773 15.5056C3.36914 15.6518 3.36773 15.8092 3.28624 15.9301C3.14151 16.1466 2.75368 16.1157 2.64689 15.8781C2.60474 15.7853 2.60333 15.6813 2.60193 15.5801C2.59771 14.9981 2.59631 14.4176 2.59912 13.8356C2.60052 13.5418 2.60333 13.248 2.60755 12.9542C2.60895 12.808 2.61176 12.6604 2.61457 12.5143C2.61598 12.4721 2.61879 12.4355 2.62441 12.4004Z" fill="#20AC90"/>
<path id="Vector_2" d="M13.3684 9.9235C13.3543 10.0303 13.3305 10.1344 13.2911 10.2342C13.1675 10.5547 12.8949 10.8049 12.5801 10.9426C12.2653 11.0804 11.9113 11.1113 11.5698 11.0762C11.4742 11.0663 11.3773 11.0509 11.2958 11.0003C11.1173 10.8892 11.0822 10.6039 11.2283 10.452C11.4546 10.2173 11.8536 10.3832 12.1698 10.303C12.3525 10.2567 12.5098 10.1203 12.5787 9.94459C12.6349 9.80402 12.6349 9.64939 12.6349 9.49898C12.6349 8.65135 12.6363 7.80231 12.6363 6.95467C12.6363 6.65104 12.6054 6.28978 12.3426 6.13796C12.212 6.06346 12.0546 6.06065 11.9042 6.06065C10.0045 6.05924 8.1033 6.05924 6.20213 6.05784C6.04335 6.05784 5.87895 6.05924 5.73281 6.11969C5.54874 6.197 5.40822 6.37412 5.3745 6.57092C5.33797 6.78177 5.40963 7.02777 5.27473 7.19364C5.13703 7.36373 4.84195 7.32718 4.70424 7.15709C4.49488 6.89985 4.60869 6.42332 4.72954 6.14499C4.87005 5.82168 5.12017 5.53632 5.45459 5.407C5.71876 5.30438 6.00822 5.30298 6.29066 5.30298C8.08363 5.30438 9.87519 5.30438 11.6682 5.30438C11.9408 5.30438 12.219 5.30579 12.4775 5.39013C12.8232 5.50399 13.1155 5.76967 13.2602 6.10423C13.4021 6.43035 13.4021 6.79723 13.4007 7.15288C13.3979 7.91336 13.3951 8.67384 13.3923 9.43432C13.3923 9.59598 13.3909 9.76185 13.3684 9.9235Z" fill="#20AC90"/>
<path id="Vector_3" d="M13.3789 9.85519C13.3789 9.84431 13.3776 9.83207 13.3925 9.82935C13.3925 9.83751 13.3925 9.84703 13.3925 9.85519C13.3871 9.85383 13.383 9.85519 13.3789 9.85519Z" fill="#0C0D0E"/>
<path id="Vector_4" d="M13.393 9.80159C13.3807 9.7907 13.3834 9.78116 13.393 9.77026C13.393 9.78116 13.393 9.7907 13.393 9.80159Z" fill="#0C0D0E"/>
<path id="Vector_5" d="M4.46617 10.573C3.70458 10.5632 3.08351 9.92497 3.1102 9.1434C3.1369 8.39698 3.76079 7.77847 4.55891 7.81502C5.26992 7.84735 5.87554 8.44196 5.86851 9.20525C5.86149 9.99385 5.2109 10.5871 4.46617 10.573ZM4.48725 8.56847C4.15001 8.56707 3.86898 8.83696 3.86336 9.17292C3.85634 9.537 4.13034 9.81814 4.48725 9.81954C4.8273 9.82095 5.11254 9.54121 5.11535 9.20385C5.11816 8.85102 4.83994 8.56988 4.48725 8.56847Z" fill="#20AC90"/>
<path id="Vector_6" d="M8.99862 8.06382C8.33118 8.06382 7.66373 8.06382 6.99629 8.06382C6.80378 8.06382 6.64922 7.92887 6.62111 7.7391C6.58879 7.52122 6.76022 7.31739 6.98083 7.31177C6.98786 7.31177 6.99488 7.31177 7.00191 7.31177C8.32837 7.31177 9.65483 7.31177 10.9827 7.31177C11.0473 7.31177 11.1092 7.3202 11.1668 7.34832C11.3227 7.42141 11.4113 7.59853 11.3747 7.76862C11.3368 7.93871 11.1878 8.06382 11.015 8.06382C10.3419 8.06522 9.67028 8.06382 8.99862 8.06382Z" fill="#20AC90"/>
<path id="Vector_7" d="M7.99485 9.57078C7.66745 9.57078 7.34005 9.57078 7.01265 9.57078C6.8904 9.57078 6.78782 9.53001 6.70773 9.43583C6.52787 9.22779 6.63607 8.88901 6.90445 8.82716C6.93677 8.82014 6.97049 8.81592 7.00422 8.81592C7.66323 8.81592 8.32365 8.81592 8.98267 8.81592C9.13021 8.81592 9.24824 8.87215 9.32552 9.00006C9.47587 9.25028 9.29882 9.56797 9.00515 9.57078C8.66791 9.57218 8.33068 9.57078 7.99485 9.57078Z" fill="#20AC90"/>
<path id="Vector_8" d="M13.373 9.89564C13.3744 9.88901 13.3757 9.88237 13.377 9.87573C13.3797 9.8837 13.3784 9.89033 13.373 9.89564Z" fill="#0C0D0E"/>
<path id="Vector_9" d="M13.3711 9.92301C13.3724 9.92031 13.3724 9.91627 13.3738 9.91357C13.3738 9.91627 13.3724 9.92031 13.3711 9.92301Z" fill="#0C0D0E"/>
</g>
</g>
</g>
<defs>
<clipPath id="clip0_2424_15498">
<rect y="0.986084" width="16" height="16" rx="8" fill="white"/>
</clipPath>
</defs>
</svg>
