<svg width="12" height="13" viewBox="0 0 12 13" fill="none" xmlns="http://www.w3.org/2000/svg">
<g id="Group">
<path id="Vector" d="M10.4057 12.5C9.85064 12.5 9.29562 12.5 8.74238 12.5C8.73354 12.4682 8.70526 12.4788 8.68405 12.4753C7.92399 12.3445 7.31772 11.7119 7.21697 10.9468C7.17631 10.6323 7.2046 10.316 7.19576 9.99968C7.19222 9.90426 7.19576 9.80707 7.19576 9.70635C7.13566 9.70635 7.08794 9.70635 7.04198 9.70635C4.93681 9.70635 2.83164 9.70635 0.726469 9.70635C0.691118 9.70635 0.655767 9.70812 0.620415 9.70635C0.240389 9.69045 0.00176757 9.44129 0 9.06315C0 8.78925 0 8.51713 0 8.24324C0 6.08037 0 3.91751 0 1.75288C0 1.3765 0.20327 1.14679 0.576226 1.10438C0.648696 1.09554 0.721167 1.09554 0.791869 1.09201C0.834291 0.689121 1.14361 0.496514 1.46885 0.500048C2.50818 0.51065 3.54574 0.508883 4.58506 0.501815C4.89085 0.500048 5.17897 0.524786 5.39991 0.779241C5.56606 0.602536 5.76049 0.505349 5.99558 0.503582C7.13566 0.501815 8.27574 0.501815 9.41759 0.505349C9.64207 0.505349 9.80822 0.61844 9.92488 0.807514C9.97967 0.895866 9.98851 0.996587 10.0133 1.09731C10.0433 1.09731 10.0663 1.09731 10.0893 1.09731C10.5771 1.10261 10.8051 1.33056 10.8051 1.81473C10.8051 2.91206 10.8051 4.0094 10.8034 5.10673C10.8034 5.17741 10.8175 5.21452 10.8882 5.24456C11.3725 5.44954 11.7084 5.79941 11.8904 6.29242C11.9346 6.41435 11.9646 6.53981 12 6.66527C12 8.09481 12 9.52434 12 10.9521C11.9823 10.9574 11.9788 10.9716 11.977 10.9875C11.8498 11.6695 11.4591 12.1343 10.814 12.3923C10.6814 12.447 10.54 12.4576 10.4057 12.5ZM9.59434 5.0979C9.59434 5.06432 9.59434 5.04489 9.59434 5.02545C9.59434 3.74081 9.59434 2.45617 9.59434 1.17152C9.59434 0.968315 9.52718 0.902934 9.3186 0.902934C8.24392 0.902934 7.17101 0.902934 6.09633 0.902934C5.75166 0.902934 5.60141 1.05137 5.60141 1.39241C5.60141 3.48989 5.60141 5.5856 5.60141 7.68308C5.60141 7.72373 5.60141 7.76437 5.60141 7.82268C5.85418 7.66011 6.12461 7.70075 6.38621 7.69722C6.65488 7.69369 6.92178 7.69722 7.19576 7.69722C7.19576 7.45513 7.19753 7.22542 7.19576 6.9957C7.19399 6.84727 7.20106 6.69884 7.23288 6.55394C7.42377 5.68102 8.13787 5.1032 9.03226 5.0979C9.21608 5.0979 9.39814 5.0979 9.59434 5.0979ZM5.19134 7.81738C5.19664 7.79971 5.19841 7.79617 5.19841 7.79264C5.19841 5.64038 5.20018 3.48989 5.19841 1.33763C5.19841 1.0655 5.02872 0.904701 4.75475 0.902934C4.403 0.901167 4.05126 0.902934 3.69951 0.902934C3.66947 0.902934 3.63765 0.892332 3.60407 0.920604C3.60407 0.966547 3.60407 1.01602 3.60407 1.06727C3.60407 2.05858 3.60407 3.04989 3.60407 4.04297C3.60407 4.15253 3.57755 4.24972 3.4662 4.29036C3.35484 4.331 3.27176 4.27446 3.2046 4.1861C3.12859 4.08715 3.04905 3.98996 2.97128 3.89277C2.84755 3.73904 2.72382 3.58531 2.59655 3.42981C2.38268 3.6984 2.17764 3.95285 1.9726 4.20907C1.9072 4.29213 1.82413 4.3257 1.72514 4.28859C1.63146 4.25325 1.59258 4.17373 1.59258 4.07478C1.59258 4.04297 1.59258 4.01293 1.59258 3.98113C1.59258 2.99688 1.59258 2.01264 1.59258 1.03016C1.59258 0.989519 1.60672 0.945343 1.57844 0.906468C1.2479 0.895866 1.20018 0.941809 1.20018 1.27401C1.20018 3.36619 1.20018 5.46014 1.20018 7.55232C1.20018 7.59827 1.18957 7.64598 1.21432 7.69899C1.25497 7.69899 1.29563 7.69899 1.33805 7.69899C2.43924 7.69899 3.54043 7.70075 4.64163 7.69722C4.83252 7.69722 5.01635 7.71136 5.19134 7.81738ZM7.6129 8.51006C7.60937 8.5295 7.6023 8.54363 7.6023 8.55954C7.6023 9.26989 7.597 9.98024 7.60407 10.6906C7.61114 11.4593 8.15378 11.9876 8.76182 12.0707C9.28325 12.1413 9.81352 12.1042 10.3403 12.0866C10.3897 12.0848 10.441 12.076 10.4905 12.0636C11.1657 11.9028 11.5952 11.3621 11.5988 10.6606C11.6023 9.97317 11.5988 9.28579 11.5988 8.59841C11.5988 8.56837 11.6094 8.53657 11.5846 8.51006C10.2625 8.51006 8.93858 8.51006 7.6129 8.51006ZM0.797172 1.5161C0.448962 1.48959 0.39947 1.532 0.39947 1.86597C0.39947 4.24265 0.39947 6.62109 0.39947 8.99776C0.39947 9.23808 0.456032 9.2964 0.692886 9.2964C2.82103 9.2964 4.94918 9.2964 7.07733 9.2964C7.11445 9.2964 7.1551 9.30877 7.19045 9.28579C7.19045 9.16033 7.19045 9.03841 7.19045 8.90765C7.13743 8.90765 7.09147 8.90765 7.04552 8.90765C5.06584 8.90765 3.08617 8.90765 1.1065 8.90765C0.857269 8.90765 0.797172 8.84757 0.797172 8.59665C0.797172 6.28182 0.797172 3.96699 0.797172 1.65216C0.797172 1.60975 0.797172 1.56734 0.797172 1.5161ZM9.80468 8.0895C10.4057 8.0895 10.9996 8.0895 11.597 8.0895C11.597 7.67602 11.6023 7.2696 11.5952 6.86494C11.5917 6.62816 11.5298 6.40198 11.4043 6.19877C11.0208 5.58384 10.4799 5.45484 9.80468 5.51845C9.80468 6.37194 9.80468 7.22542 9.80468 8.0895ZM9.39461 5.51492C9.21785 5.51492 9.04993 5.50785 8.88202 5.51669C8.2563 5.54673 7.67654 6.08568 7.61821 6.70768C7.57578 7.16181 7.60407 7.61947 7.60407 8.07714C7.60407 8.08244 7.6129 8.08774 7.61644 8.09127C8.21034 8.09127 8.80071 8.09127 9.39461 8.09127C9.39461 7.22895 9.39461 6.3737 9.39461 5.51492ZM3.18692 3.51109C3.18692 2.62934 3.18692 1.77055 3.18692 0.911769C2.79099 0.911769 2.40212 0.911769 2.01502 0.911769C2.01502 1.77585 2.01502 2.63464 2.01502 3.51286C2.15643 3.33792 2.28193 3.17889 2.40919 3.02162C2.53646 2.86435 2.66372 2.86435 2.79275 3.02162C2.92002 3.17712 3.04551 3.33439 3.18692 3.51109ZM5.1825 8.49062C5.15952 8.24147 4.9863 8.10364 4.70703 8.10364C3.57225 8.10364 2.4357 8.10364 1.30093 8.10364C1.27088 8.10364 1.23906 8.0948 1.20725 8.11954C1.20725 8.2397 1.20725 8.3634 1.20725 8.49062C2.53292 8.49062 3.85506 8.49062 5.1825 8.49062ZM10.0115 1.50903C10.0115 2.71415 10.0115 3.90338 10.0115 5.09966C10.1405 5.09966 10.2643 5.09966 10.3915 5.09966C10.3933 5.08376 10.3968 5.06962 10.3968 5.05372C10.3968 3.95285 10.3986 2.85198 10.3968 1.75112C10.3968 1.57264 10.3243 1.50903 10.1441 1.50903C10.1016 1.50903 10.0592 1.50903 10.0115 1.50903ZM7.19045 8.10364C7.03668 8.10364 6.88997 8.10187 6.74326 8.10364C6.4905 8.10541 6.23597 8.09834 5.98321 8.11424C5.7711 8.12838 5.64207 8.27504 5.61732 8.48886C6.14229 8.48886 6.66726 8.48886 7.19045 8.48886C7.19045 8.35986 7.19045 8.23617 7.19045 8.10364Z" fill="#1E567B"/>
</g>
</svg>
