<svg width="16" height="17" viewBox="0 0 16 17" fill="none" xmlns="http://www.w3.org/2000/svg">
<g id="Media / Icon/24px/Yes/users">
<g id="Icon">
<path d="M7.20078 5.34507C7.20078 6.67055 6.12626 7.74507 4.80078 7.74507C3.4753 7.74507 2.40078 6.67055 2.40078 5.34507C2.40078 4.01959 3.4753 2.94507 4.80078 2.94507C6.12626 2.94507 7.20078 4.01959 7.20078 5.34507Z" fill="white"/>
<path d="M13.6008 5.34507C13.6008 6.67055 12.5263 7.74507 11.2008 7.74507C9.8753 7.74507 8.80078 6.67055 8.80078 5.34507C8.80078 4.01959 9.8753 2.94507 11.2008 2.94507C12.5263 2.94507 13.6008 4.01959 13.6008 5.34507Z" fill="white"/>
<path d="M10.3441 14.1451C10.3815 13.8838 10.4008 13.6167 10.4008 13.3451C10.4008 12.0369 9.95226 10.8335 9.20059 9.88032C9.78898 9.53991 10.4721 9.34507 11.2008 9.34507C13.4099 9.34507 15.2008 11.1359 15.2008 13.3451V14.1451H10.3441Z" fill="white"/>
<path d="M4.80078 9.34507C7.00992 9.34507 8.80078 11.1359 8.80078 13.3451V14.1451H0.800781V13.3451C0.800781 11.1359 2.59164 9.34507 4.80078 9.34507Z" fill="white"/>
</g>
</g>
</svg>
