<svg width="12" height="12" viewBox="0 0 12 12" fill="none" xmlns="http://www.w3.org/2000/svg">
<g id="Media / Icon/24px/No/users">
<path id="Icon" d="M6 2.17709C6.36647 1.76188 6.90265 1.5 7.5 1.5C8.60457 1.5 9.5 2.39543 9.5 3.5C9.5 4.60457 8.60457 5.5 7.5 5.5C6.90265 5.5 6.36647 5.23812 6 4.82291M7.5 10.5H1.5V10C1.5 8.34315 2.84315 7 4.5 7C6.15685 7 7.5 8.34315 7.5 10V10.5ZM7.5 10.5H10.5V10C10.5 8.34315 9.15685 7 7.5 7C6.95357 7 6.44126 7.14609 6 7.40135M6.5 3.5C6.5 4.60457 5.60457 5.5 4.5 5.5C3.39543 5.5 2.5 4.60457 2.5 3.5C2.5 2.39543 3.39543 1.5 4.5 1.5C5.60457 1.5 6.5 2.39543 6.5 3.5Z" stroke="#464A53" stroke-linecap="round" stroke-linejoin="round"/>
</g>
</svg>
