<svg width="17" height="17" viewBox="0 0 17 17" fill="none" xmlns="http://www.w3.org/2000/svg">
<g id="Media / Icon/20px/No/user-group">
<path id="Icon" d="M11.3 13.4062H14.1V12.2862C14.1 11.3583 13.3479 10.6062 12.42 10.6062C11.8849 10.6062 11.4082 10.8564 11.1005 11.2462M11.3 13.4062H5.70002M11.3 13.4062V12.2862C11.3 11.9187 11.2292 11.5677 11.1005 11.2462M5.70002 13.4062H2.90002V12.2862C2.90002 11.3583 3.65219 10.6062 4.58002 10.6062C5.11516 10.6062 5.59187 10.8564 5.89952 11.2462M5.70002 13.4062V12.2862C5.70002 11.9187 5.77082 11.5677 5.89952 11.2462M5.89952 11.2462C6.31239 10.2147 7.32112 9.48617 8.50003 9.48617C9.67893 9.48617 10.6877 10.2147 11.1005 11.2462M10.18 6.12617C10.18 7.05401 9.42786 7.80617 8.50003 7.80617C7.57219 7.80617 6.82002 7.05401 6.82002 6.12617C6.82002 5.19833 7.57219 4.44617 8.50003 4.44617C9.42786 4.44617 10.18 5.19833 10.18 6.12617ZM13.54 7.80617C13.54 8.42473 13.0386 8.92617 12.42 8.92617C11.8015 8.92617 11.3 8.42473 11.3 7.80617C11.3 7.18761 11.8015 6.68617 12.42 6.68617C13.0386 6.68617 13.54 7.18761 13.54 7.80617ZM5.70002 7.80617C5.70002 8.42473 5.19858 8.92617 4.58002 8.92617C3.96147 8.92617 3.46002 8.42473 3.46002 7.80617C3.46002 7.18761 3.96147 6.68617 4.58002 6.68617C5.19858 6.68617 5.70002 7.18761 5.70002 7.80617Z" stroke="#E3E5E8" stroke-linecap="round" stroke-linejoin="round"/>
</g>
</svg>
