<svg width="16" height="17" viewBox="0 0 16 17" fill="none" xmlns="http://www.w3.org/2000/svg">
<g id="Media / Icon/16px/No/user-group">
<path id="Icon" d="M10.5 12.5H13V11.5C13 10.6716 12.3284 10 11.5 10C11.0222 10 10.5966 10.2234 10.3219 10.5714M10.5 12.5H5.5M10.5 12.5V11.5C10.5 11.1719 10.4368 10.8585 10.3219 10.5714M5.5 12.5H3V11.5C3 10.6716 3.67157 10 4.5 10C4.9778 10 5.40343 10.2234 5.67812 10.5714M5.5 12.5V11.5C5.5 11.1719 5.56321 10.8585 5.67812 10.5714M5.67812 10.5714C6.04675 9.65051 6.94741 9 8 9C9.05259 9 9.95325 9.65051 10.3219 10.5714M9.5 6C9.5 6.82843 8.82843 7.5 8 7.5C7.17157 7.5 6.5 6.82843 6.5 6C6.5 5.17157 7.17157 4.5 8 4.5C8.82843 4.5 9.5 5.17157 9.5 6ZM12.5 7.5C12.5 8.05229 12.0523 8.5 11.5 8.5C10.9477 8.5 10.5 8.05229 10.5 7.5C10.5 6.94772 10.9477 6.5 11.5 6.5C12.0523 6.5 12.5 6.94772 12.5 7.5ZM5.5 7.5C5.5 8.05229 5.05228 8.5 4.5 8.5C3.94772 8.5 3.5 8.05229 3.5 7.5C3.5 6.94772 3.94772 6.5 4.5 6.5C5.05228 6.5 5.5 6.94772 5.5 7.5Z" stroke="#1E567B" stroke-width="0.7" stroke-linecap="round" stroke-linejoin="round"/>
</g>
</svg>
