<svg width="17" height="17" viewBox="0 0 17 17" fill="none" xmlns="http://www.w3.org/2000/svg">
<g id="Media / Icon/24px/No/user-circle">
<path id="Icon" d="M3.91402 12.7953C5.26844 12.0297 6.8332 11.5928 8.5 11.5928C10.1668 11.5928 11.7316 12.0297 13.086 12.7953M10.5 7.59281C10.5 8.69738 9.60457 9.59281 8.5 9.59281C7.39543 9.59281 6.5 8.69738 6.5 7.59281C6.5 6.48824 7.39543 5.59281 8.5 5.59281C9.60457 5.59281 10.5 6.48824 10.5 7.59281ZM14.5 8.92615C14.5 12.2399 11.8137 14.9261 8.5 14.9261C5.18629 14.9261 2.5 12.2399 2.5 8.92615C2.5 5.61244 5.18629 2.92615 8.5 2.92615C11.8137 2.92615 14.5 5.61244 14.5 8.92615Z" stroke="#E3E5E8" stroke-linecap="round" stroke-linejoin="round"/>
</g>
</svg>
