<svg width="17" height="17" viewBox="0 0 17 17" fill="none" xmlns="http://www.w3.org/2000/svg">
<g id="Icons / basic / user">
<path id="icon" fill-rule="evenodd" clip-rule="evenodd" d="M8.97396 16.1435C4.92387 16.1435 1.64062 12.8602 1.64062 8.81014C1.64062 4.76005 4.92387 1.47681 8.97396 1.47681C13.024 1.47681 16.3073 4.76005 16.3073 8.81014C16.3073 12.8602 13.024 16.1435 8.97396 16.1435ZM13.907 12.2266C14.5797 11.257 14.974 10.0796 14.974 8.81014C14.974 5.49643 12.2877 2.81014 8.97396 2.81014C5.66025 2.81014 2.97396 5.49643 2.97396 8.81014C2.97396 10.0796 3.36821 11.257 4.04096 12.2266C4.79126 11.2355 6.55436 10.8101 8.97396 10.8101C11.3936 10.8101 13.1567 11.2355 13.907 12.2266ZM12.9504 13.3033C12.7553 12.6017 11.3535 12.1435 8.97396 12.1435C6.59437 12.1435 5.19263 12.6017 4.9975 13.3033C6.05616 14.2409 7.44858 14.8101 8.97396 14.8101C10.4993 14.8101 11.8918 14.2409 12.9504 13.3033ZM8.97396 10.8101C7.4812 10.8101 6.30729 9.76172 6.30729 7.47681C6.30729 5.98065 7.36002 4.81014 8.97396 4.81014C10.5834 4.81014 11.6406 6.09119 11.6406 7.61014C11.6406 9.79655 10.4527 10.8101 8.97396 10.8101ZM7.64062 7.47681C7.64062 8.98965 8.1861 9.47681 8.97396 9.47681C9.7591 9.47681 10.3073 9.00907 10.3073 7.61014C10.3073 6.77709 9.7844 6.14347 8.97396 6.14347C8.12978 6.14347 7.64062 6.68736 7.64062 7.47681Z" fill="#2E3138"/>
</g>
</svg>
