<svg width="21" height="21" viewBox="0 0 21 21" fill="none" xmlns="http://www.w3.org/2000/svg">
<g id="Frame" clip-path="url(#clip0_2258_13039)">
<g id="Group">
<path id="Vector" d="M9.76858 16.7861C9.75303 15.6037 9.81617 14.4455 9.7393 13.2913C9.65969 12.0947 9.05894 11.5711 7.85927 11.5711C7.32349 11.5711 6.78816 11.5711 6.20938 11.5711C7.66847 10.8986 8.2285 10.0163 8.013 8.77907C7.82861 7.72 6.89797 6.92226 5.74223 6.83408C4.68485 6.75321 3.638 7.44632 3.29805 8.46473C3.07934 9.11854 3.13516 9.75637 3.46825 10.3622C3.80043 10.9662 4.32614 11.3372 4.97356 11.5561C4.42222 11.5711 3.88095 11.5698 3.33968 11.5721C3.1498 11.573 2.95947 11.5602 2.77096 11.6072C2.02654 11.7923 1.39651 12.601 1.3805 13.4531C1.36036 14.5336 1.3718 15.6151 1.37043 16.6961C1.37043 16.7244 1.38233 16.7523 1.38965 16.7861C4.1779 16.7861 6.95745 16.7861 9.76858 16.7861ZM15.853 11.5711C17.1373 11.1357 17.7627 10.0273 17.6172 8.88736C17.4864 7.86118 16.5919 6.98486 15.5482 6.86013C14.3765 6.72032 13.3333 7.31245 12.9215 8.36513C12.6634 9.02488 12.701 9.68052 13.0263 10.3097C13.3511 10.9383 13.8837 11.3276 14.5499 11.5538C13.9281 11.5711 13.3182 11.5739 12.7083 11.5702C12.3317 11.5679 12.005 11.6918 11.7273 11.9403C11.2313 12.3835 11.0067 12.9523 10.9998 13.6043C10.9893 14.5862 10.9966 15.5685 10.998 16.5508C10.998 16.6248 10.9788 16.703 11.0268 16.7815C13.7862 16.7815 16.5493 16.7815 19.3367 16.7815C19.306 15.5658 19.4181 14.3605 19.2822 13.1657C19.1514 12.0143 18.5886 11.5711 17.426 11.5707C16.9012 11.5711 16.3773 11.5711 15.853 11.5711ZM20.6855 18.165C14.0159 18.165 7.35917 18.165 0.699219 18.165C0.699219 18.8494 0.699219 19.5156 0.699219 20.1895C7.37016 20.1895 14.0269 20.1895 20.6992 20.1895C20.6992 19.5403 20.6992 18.9093 20.6988 18.2783C20.6988 18.2422 20.6905 18.2061 20.6855 18.165ZM9.57458 4.1969C9.48582 4.26909 9.40896 4.2435 9.33895 4.24396C8.91984 4.2467 8.50028 4.24488 8.08117 4.24533C7.1908 4.24579 6.5539 4.82421 6.45508 5.7083C6.43723 5.86684 6.47887 5.92807 6.63626 5.97924C7.81854 6.36211 8.57532 7.16716 8.95004 8.3432C8.98161 8.44189 8.97841 8.55337 9.04384 8.63378C9.99461 8.63378 10.9367 8.63378 11.8765 8.63378C11.9103 8.50859 11.9346 8.39711 11.9703 8.28929C12.3487 7.13426 13.131 6.38633 14.279 6.00711C14.3618 5.9797 14.4639 5.98335 14.4538 5.84583C14.4058 5.18196 13.9281 4.29925 12.9645 4.27777C12.2178 4.26132 11.4715 4.23711 10.7248 4.24396C10.6521 4.24442 10.5679 4.27457 10.4988 4.20284C11.8678 3.78067 12.2036 2.69647 12.0755 1.87589C11.9341 0.9717 11.1023 0.229707 10.1973 0.192241C9.13626 0.147923 8.26922 0.747366 8.02261 1.70547C7.90502 2.16282 7.94071 2.61331 8.14157 3.04325C8.42616 3.65183 8.91893 4.01506 9.57458 4.1969Z" fill="#20AC90"/>
<path id="Vector_2" d="M9.76884 16.7856C6.95772 16.7856 4.17862 16.7856 1.39037 16.7856C1.38305 16.7518 1.37115 16.7234 1.37115 16.6956C1.37252 15.6146 1.36109 14.5331 1.38122 13.4525C1.39723 12.6 2.02726 11.7917 2.77168 11.6067C2.96019 11.5596 3.15053 11.5724 3.3404 11.5715C3.88167 11.5692 4.42295 11.5706 4.97428 11.5555C4.3264 11.3367 3.80115 10.9657 3.46897 10.3617C3.13588 9.75583 3.08006 9.11847 3.29877 8.4642C3.63918 7.44579 4.68603 6.75268 5.74295 6.83355C6.89824 6.92173 7.82933 7.71947 8.01372 8.77854C8.22876 10.0158 7.66874 10.8976 6.2101 11.5706C6.78889 11.5706 7.32467 11.5706 7.85999 11.5706C9.05966 11.5706 9.66041 12.0947 9.74002 13.2908C9.81643 14.4449 9.75329 15.6031 9.76884 16.7856Z" fill="#20AC90"/>
<path id="Vector_3" d="M15.8529 11.5707C16.3772 11.5707 16.9015 11.5707 17.4259 11.5707C18.5885 11.5707 19.1513 12.0139 19.2821 13.1657C19.418 14.3605 19.3055 15.5658 19.3366 16.7815C16.5488 16.7815 13.7857 16.7815 11.0267 16.7815C10.9787 16.703 10.9984 16.6248 10.9979 16.5508C10.9965 15.5685 10.9892 14.5862 10.9997 13.6043C11.0066 12.9523 11.2317 12.383 11.7272 11.9403C12.0054 11.6918 12.3316 11.5679 12.7082 11.5702C13.3181 11.5743 13.928 11.5711 14.5498 11.5538C13.8836 11.3272 13.351 10.9379 13.0262 10.3097C12.7013 9.68052 12.6633 9.02534 12.9214 8.36513C13.3336 7.31199 14.3764 6.72032 15.5481 6.86013C16.5918 6.9844 17.4863 7.86118 17.6171 8.88736C17.7626 10.0268 17.1372 11.1353 15.8529 11.5707Z" fill="#20AC90"/>
<path id="Vector_4" d="M20.6855 18.1645C20.6905 18.2052 20.6988 18.2413 20.6988 18.2774C20.6997 18.9083 20.6992 19.5398 20.6992 20.1886C14.0269 20.1886 7.37016 20.1886 0.699219 20.1886C0.699219 19.5146 0.699219 18.8485 0.699219 18.1641C7.35917 18.1645 14.0159 18.1645 20.6855 18.1645Z" fill="#20AC90"/>
<path id="Vector_5" d="M9.57452 4.19638C8.91841 4.015 8.42564 3.65177 8.14151 3.04227C7.94065 2.61234 7.90496 2.16184 8.02255 1.70449C8.26916 0.746389 9.1362 0.146946 10.1972 0.191265C11.1027 0.229187 11.9341 0.97118 12.0754 1.87491C12.2035 2.69549 11.8677 3.7797 10.4988 4.20187C10.5678 4.2736 10.652 4.24344 10.7248 4.24299C11.4715 4.23613 12.2182 4.25989 12.9644 4.2768C13.928 4.29827 14.4057 5.18099 14.4537 5.84485C14.4638 5.98283 14.3613 5.97918 14.279 6.00613C13.131 6.3849 12.3481 7.13329 11.9702 8.28831C11.935 8.39614 11.9103 8.50762 11.8764 8.63281C10.9366 8.63281 9.99455 8.63281 9.04378 8.63281C8.97835 8.55194 8.98155 8.44091 8.94998 8.34222C8.57571 7.16664 7.81848 6.36114 6.6362 5.97826C6.47881 5.92709 6.43717 5.86587 6.45501 5.70732C6.55339 4.82324 7.19074 4.24527 8.08111 4.24436C8.50022 4.2439 8.91978 4.24573 9.33889 4.24299C9.40889 4.24299 9.48622 4.26857 9.57452 4.19638Z" fill="#20AC90"/>
</g>
</g>
<defs>
<clipPath id="clip0_2258_13039">
<rect width="20" height="20" fill="white" transform="translate(0.699219 0.188965)"/>
</clipPath>
</defs>
</svg>
