<svg width="48" height="48" viewBox="0 0 48 48" fill="none" xmlns="http://www.w3.org/2000/svg">
<circle cx="24" cy="24" r="24" fill="#EFEFEF" fill-opacity="0.73"/>
<circle cx="24" cy="24" r="14" fill="#20AC90"/>
<path fill-rule="evenodd" clip-rule="evenodd" d="M24 43.5C34.7696 43.5 43.5 34.7696 43.5 24C43.5 13.2304 34.7696 4.5 24 4.5C13.2304 4.5 4.5 13.2304 4.5 24C4.5 34.7696 13.2304 43.5 24 43.5ZM22.9146 17.0969C22.1666 16.5982 21.2049 16.5518 20.4123 16.9759C19.6198 17.4001 19.125 18.2261 19.125 19.125V28.875C19.125 29.7739 19.6198 30.5999 20.4123 31.0241C21.2049 31.4483 22.1666 31.4018 22.9146 30.9031L30.2271 26.0281C30.9052 25.5761 31.3125 24.815 31.3125 24C31.3125 23.185 30.9052 22.424 30.2271 21.9719L22.9146 17.0969Z" fill="white"/>
</svg>
