<svg xmlns="http://www.w3.org/2000/svg" width="14" height="14" viewBox="0 0 14 14" fill="none">
  <path fill-rule="evenodd" clip-rule="evenodd" d="M11.9603 2.03451C10.6442 0.723241 8.89394 0.000737017 7.02923 0C3.18705 0 0.0599858 3.11188 0.0584482 6.93688C0.0579356 8.15955 0.378936 9.35307 0.988911 10.4051L0 14L3.69531 13.0353C4.71344 13.588 5.85978 13.8792 7.02644 13.8797H7.02931C10.8711 13.8797 13.9984 10.7674 14 6.94242C14.0007 5.08876 13.2764 3.34577 11.9603 2.03451ZM7.02931 12.708H7.02694C5.98732 12.7076 4.96762 12.4297 4.07808 11.9043L3.8665 11.7793L1.67368 12.3518L2.259 10.2241L2.12122 10.0059C1.54126 9.08788 1.23493 8.02678 1.23538 6.93732C1.23666 3.75813 3.83577 1.17167 7.03161 1.17167C8.57911 1.17225 10.0338 1.77281 11.1277 2.86269C12.2216 3.95257 12.8237 5.40128 12.8231 6.94196C12.8218 10.1214 10.2227 12.708 7.02931 12.708ZM10.2073 8.3896C10.0331 8.30284 9.17682 7.88348 9.01715 7.82563C8.85751 7.76778 8.74141 7.73887 8.62527 7.91241C8.50917 8.08593 8.17538 8.47638 8.07375 8.59205C7.97217 8.70774 7.87057 8.72222 7.69639 8.63544C7.52222 8.54868 6.96101 8.36565 6.29572 7.7751C5.77796 7.3155 5.42837 6.74781 5.32678 6.57429C5.22518 6.40075 5.31597 6.30692 5.40316 6.22052C5.48151 6.14285 5.57733 6.01807 5.66442 5.91683C5.7515 5.81561 5.78052 5.74331 5.83857 5.62764C5.89664 5.51194 5.86762 5.41071 5.82407 5.32395C5.78052 5.23719 5.43221 4.38399 5.28705 4.03693C5.14568 3.69892 5.00207 3.74465 4.89516 3.73936C4.79368 3.73433 4.67745 3.73326 4.56135 3.73326C4.44523 3.73326 4.25654 3.77665 4.09688 3.95017C3.93723 4.12371 3.4873 4.54307 3.4873 5.39625C3.4873 6.24943 4.1114 7.07368 4.19849 7.18938C4.28557 7.30507 5.42666 9.05594 7.17388 9.80677C7.58944 9.98535 7.91387 10.092 8.16682 10.1719C8.58408 10.3038 8.96378 10.2852 9.26389 10.2406C9.59852 10.1908 10.2944 9.82125 10.4395 9.41634C10.5847 9.01143 10.5847 8.66437 10.5411 8.59207C10.4976 8.51977 10.3815 8.47638 10.2073 8.3896Z" fill="white"/>
</svg>