<svg width="33" height="32" viewBox="0 0 33 32" fill="none" xmlns="http://www.w3.org/2000/svg">
<path d="M16.5229 0C25.2684 0.0212051 32.3207 6.98677 32.4929 15.6616C32.6729 24.7014 25.4721 31.9587 16.5865 31.9998C7.66559 32.0403 0.555443 24.9173 0.504036 16.1281C0.451987 7.16027 7.59555 0.0102813 16.5229 0Z" fill="#18B187"/>
<path d="M14.1087 19.3719C14.9732 17.8217 15.8711 16.33 16.7999 14.8561C18.0509 12.8706 19.3492 10.9162 20.7473 9.02789C20.9508 8.75348 21.1626 8.48722 21.4494 8.29172C22.078 7.86255 22.8865 7.91193 23.3835 8.40678C23.9036 8.92454 23.9961 9.79766 23.5582 10.3903C22.9661 11.1906 22.3941 12.0041 21.8446 12.8335C19.9562 15.6824 18.1825 18.6021 16.3974 21.5147C16.162 21.8986 15.9251 22.2814 15.6866 22.6638C15.3284 23.238 14.8514 23.432 14.1822 23.2874C13.8548 23.2167 13.5716 23.0685 13.3336 22.8384C11.6889 21.2525 10.0457 19.6656 8.40246 18.0788C8.0072 17.6969 7.80315 17.2316 7.8417 16.6848C7.90852 15.7389 8.63735 15.2273 9.58256 15.4411C9.94646 15.5236 10.2317 15.7257 10.4964 15.9772C11.6503 17.0763 12.8098 18.1704 13.9678 19.2655C14.0038 19.2991 14.047 19.3251 14.1102 19.3724L14.1087 19.3719Z" fill="#FCFDFD"/>
</svg>
