<svg width="12" height="13" viewBox="0 0 12 13" fill="none" xmlns="http://www.w3.org/2000/svg">
<g id="file-certificate-outline" clip-path="url(#clip0_2424_15529)">
<path id="Vector" d="M7 7.48608V6.48608L6 6.98608L5 6.48608V7.48608L4 7.98608L5 8.48608V9.48608L6 8.98608L7 9.48608V8.48608L8 7.98608L7 7.48608ZM7 1.98608H3.5C3.23478 1.98608 2.98043 2.09144 2.79289 2.27898C2.60536 2.46651 2.5 2.72087 2.5 2.98608V9.98608C2.5 10.2513 2.60536 10.5057 2.79289 10.6932C2.98043 10.8807 3.23478 10.9861 3.5 10.9861H4V9.98608H3.5V2.98608H6.5V4.98608H8.5V9.98608H8V10.9861H8.5C8.76522 10.9861 9.01957 10.8807 9.20711 10.6932C9.39464 10.5057 9.5 10.2513 9.5 9.98608V4.48608L7 1.98608ZM7 7.48608V6.48608L6 6.98608L5 6.48608V7.48608L4 7.98608L5 8.48608V9.48608L6 8.98608L7 9.48608V8.48608L8 7.98608L7 7.48608ZM5 12.4861L6 11.9861L7 12.4861V9.98608H5V12.4861ZM7 7.48608V6.48608L6 6.98608L5 6.48608V7.48608L4 7.98608L5 8.48608V9.48608L6 8.98608L7 9.48608V8.48608L8 7.98608L7 7.48608Z" fill="#20AC90"/>
</g>
<defs>
<clipPath id="clip0_2424_15529">
<rect width="12" height="12" fill="white" transform="translate(0 0.986084)"/>
</clipPath>
</defs>
</svg>
