<svg width="39" height="39" viewBox="0 0 39 39" fill="none" xmlns="http://www.w3.org/2000/svg">
<g id="Logomark">
<path id="Intersect" d="M13.9298 27.7579C21.6223 27.7579 27.8583 21.6817 27.8583 14.1865C27.8583 13.337 27.7782 12.5058 27.625 11.6995C26.7975 11.5502 25.9444 11.4722 25.0726 11.4722C17.3801 11.4722 11.144 17.5483 11.144 25.0436C11.144 25.8931 11.2241 26.7243 11.3774 27.5305C12.2048 27.6798 13.0579 27.7579 13.9298 27.7579Z" fill="#0F72BA"/>
<path id="Circle" fill-rule="evenodd" clip-rule="evenodd" d="M11.3772 27.5307C4.90361 26.3626 0.000976562 20.8325 0.000976562 14.1867C0.000976562 6.69137 6.23701 0.615234 13.9295 0.615234C20.7503 0.615234 26.4259 5.39216 27.6248 11.6997C26.7973 11.5504 25.9442 11.4724 25.0724 11.4724C17.3799 11.4724 11.1438 17.5485 11.1438 25.0438C11.1438 25.8933 11.2239 26.7245 11.3772 27.5307Z" fill="#45ABEB"/>
<path id="Circle_2" fill-rule="evenodd" clip-rule="evenodd" d="M13.9288 27.7581C21.6214 27.7581 27.8574 21.6819 27.8574 14.1866C27.8574 13.3372 27.7773 12.5059 27.6241 11.6997C34.0976 12.8678 39.0003 18.398 39.0003 25.0438C39.0003 32.5391 32.7642 38.6152 25.0717 38.6152C18.251 38.6152 12.5753 33.8383 11.3765 27.5307C12.2039 27.68 13.057 27.7581 13.9288 27.7581Z" fill="#2498E2"/>
</g>
</svg>
