<svg width="73" height="73" viewBox="0 0 73 73" fill="none" xmlns="http://www.w3.org/2000/svg">
<g id="Play">
<path id="Vector" fill-rule="evenodd" clip-rule="evenodd" d="M7.19678 36.8284C7.19678 20.6734 20.2918 7.57837 36.4468 7.57837C52.6018 7.57837 65.6968 20.6734 65.6968 36.8284C65.6968 52.9834 52.6018 66.0784 36.4468 66.0784C20.2918 66.0784 7.19678 52.9834 7.19678 36.8284ZM49.2688 33.8794C49.7943 34.1719 50.2321 34.5995 50.5369 35.118C50.8417 35.6364 51.0024 36.2269 51.0024 36.8284C51.0024 37.4298 50.8417 38.0203 50.5369 38.5388C50.2321 39.0573 49.7943 39.4849 49.2688 39.7774L32.4598 49.1164C31.9461 49.4015 31.367 49.5476 30.7796 49.5402C30.1922 49.5329 29.6168 49.3724 29.1105 49.0745C28.6042 48.7766 28.1843 48.3518 27.8926 47.8419C27.6008 47.332 27.4471 46.7548 27.4468 46.1674V27.4894C27.4468 24.9184 30.2098 23.2894 32.4598 24.5404L49.2688 33.8794Z" fill="white"/>
</g>
</svg>
