<svg width="40" height="40" viewBox="0 0 40 40" fill="none" xmlns="http://www.w3.org/2000/svg">
<g id="Arrow right">
<path id="Vector" fill-rule="evenodd" clip-rule="evenodd" d="M21.6167 6.61654C21.851 6.38246 22.1687 6.25098 22.5 6.25098C22.8313 6.25098 23.149 6.38246 23.3833 6.61654L35.8833 19.1165C36.1174 19.3509 36.2489 19.6686 36.2489 19.9999C36.2489 20.3311 36.1174 20.6488 35.8833 20.8832L23.3833 33.3832C23.2689 33.506 23.1309 33.6045 22.9776 33.6728C22.8242 33.7412 22.6587 33.7779 22.4909 33.7809C22.323 33.7838 22.1563 33.7529 22.0007 33.6901C21.845 33.6272 21.7036 33.5336 21.5849 33.4149C21.4662 33.2962 21.3727 33.1548 21.3098 32.9992C21.2469 32.8436 21.2161 32.6768 21.219 32.509C21.222 32.3412 21.2587 32.1756 21.327 32.0223C21.3954 31.869 21.4939 31.731 21.6167 31.6165L31.9833 21.2499H5C4.66848 21.2499 4.35054 21.1182 4.11612 20.8838C3.8817 20.6493 3.75 20.3314 3.75 19.9999C3.75 19.6684 3.8817 19.3504 4.11612 19.116C4.35054 18.8816 4.66848 18.7499 5 18.7499H31.9833L21.6167 8.38321C21.3826 8.14883 21.2511 7.83113 21.2511 7.49988C21.2511 7.16863 21.3826 6.85092 21.6167 6.61654Z" fill="#141414"/>
</g>
</svg>
