<svg width="40" height="40" viewBox="0 0 40 40" fill="none" xmlns="http://www.w3.org/2000/svg">
<g id="Arrow right">
<path id="Vector" fill-rule="evenodd" clip-rule="evenodd" d="M18.3833 33.3835C18.149 33.6175 17.8313 33.749 17.5 33.749C17.1687 33.749 16.851 33.6175 16.6167 33.3835L4.11667 20.8835C3.88258 20.6491 3.7511 20.3314 3.7511 20.0001C3.7511 19.6689 3.88258 19.3512 4.11667 19.1168L16.6167 6.61679C16.7311 6.49398 16.8691 6.39548 17.0224 6.32716C17.1758 6.25884 17.3413 6.2221 17.5091 6.21914C17.677 6.21618 17.8437 6.24705 17.9993 6.30992C18.155 6.37279 18.2964 6.46636 18.4151 6.58506C18.5338 6.70376 18.6273 6.84515 18.6902 7.0008C18.7531 7.15644 18.7839 7.32316 18.781 7.49099C18.778 7.65883 18.7413 7.82436 18.673 7.97769C18.6047 8.13102 18.5061 8.26902 18.3833 8.38346L8.01667 18.7501L35 18.7501C35.3315 18.7501 35.6495 18.8818 35.8839 19.1162C36.1183 19.3507 36.25 19.6686 36.25 20.0001C36.25 20.3316 36.1183 20.6496 35.8839 20.884C35.6495 21.1184 35.3315 21.2501 35 21.2501L8.01667 21.2501L18.3833 31.6168C18.6174 31.8512 18.7489 32.1689 18.7489 32.5001C18.7489 32.8314 18.6174 33.1491 18.3833 33.3835Z" fill="white"/>
</g>
</svg>
